<?xml version="1.0" encoding="utf-8"?>
<!-- Generator: Adobe Illustrator 17.0.1, SVG Export Plug-In . SVG Version: 6.00 Build 0)  -->
<!DOCTYPE svg PUBLIC "-//W3C//DTD SVG 1.1//EN" "http://www.w3.org/Graphics/SVG/1.1/DTD/svg11.dtd">
<svg version="1.1" id="Layer_1" xmlns="http://www.w3.org/2000/svg" xmlns:xlink="http://www.w3.org/1999/xlink" x="0px" y="0px"
	 width="120.75px" height="36.75px" viewBox="0 0 120.75 36.75" enable-background="new 0 0 120.75 36.75" xml:space="preserve">
<g id="Layer_1_1_">
</g>
<g id="Layer_2">
	<g>
		<polyline fill="none" stroke="#FFFFFF" stroke-miterlimit="10" points="76.583,8.796 76.583,32.903 52.475,32.903 		"/>
		<polyline fill="none" stroke="#FFFFFF" stroke-miterlimit="10" points="74.44,5.605 74.44,30.76 49.284,30.76 		"/>
		<rect x="46.583" y="2.903" fill="none" stroke="#FFFFFF" stroke-miterlimit="10" width="25.714" height="25.714"/>
		<polyline fill="none" stroke="#FFFFFF" stroke-linejoin="round" stroke-miterlimit="10" points="68.915,23.26 64.82,12.359 
			59.416,20.465 56.039,16.412 51.94,23.26 		"/>
		<circle fill="none" stroke="#FFFFFF" stroke-linejoin="round" stroke-miterlimit="10" cx="54.013" cy="8.982" r="2.026"/>
		<line fill="none" stroke="#FFFFFF" stroke-miterlimit="10" x1="72.25" y1="23.26" x2="46.583" y2="23.26"/>
	</g>
	<g>
		
			<circle fill="none" stroke="#FFFFFF" stroke-linecap="round" stroke-linejoin="round" stroke-miterlimit="10" cx="102.046" cy="18.182" r="15"/>
		<path fill="none" stroke="#FFFFFF" stroke-linecap="round" stroke-linejoin="round" stroke-miterlimit="10" d="M111.874,19.217
			c0,5.403-4.425,10.052-9.828,10.052c-5.402,0-9.828-4.65-9.828-10.052"/>
		<path fill="none" stroke="#FFFFFF" stroke-linecap="round" stroke-linejoin="round" stroke-miterlimit="10" d="M93.253,15.596
			c0-1.44,1.483-2.631,2.924-2.631s2.766,1.191,2.766,2.631"/>
		<path fill="none" stroke="#FFFFFF" stroke-linecap="round" stroke-linejoin="round" stroke-miterlimit="10" d="M110.839,15.596
			c0-1.44-1.483-2.631-2.924-2.631s-2.766,1.191-2.766,2.631"/>
	</g>
</g>
<line fill="#FFFFFF" stroke="#FFFFFF" stroke-linecap="round" stroke-linejoin="round" stroke-miterlimit="10" x1="9.766" y1="32.903" x2="28.387" y2="32.903"/>
<line fill="#FFFFFF" stroke="#FFFFFF" stroke-linecap="round" stroke-linejoin="round" stroke-miterlimit="10" x1="18.559" y1="29.8" x2="18.559" y2="32.903"/>
<line fill="#FFFFFF" stroke="#FFFFFF" stroke-miterlimit="10" x1="3.559" y1="24.627" x2="33.559" y2="24.627"/>
<path fill="none" stroke="#FFFFFF" stroke-linecap="round" stroke-linejoin="round" stroke-miterlimit="10" d="M33.559,27.731
	c0,1.138-0.931,2.069-2.069,2.069H5.628c-1.138,0-2.069-0.931-2.069-2.069V8.075c0-1.138,0.931-2.069,2.069-2.069H31.49
	c1.138,0,2.069,0.931,2.069,2.069V27.731z"/>
<circle fill="#FFFFFF" stroke="#FFFFFF" stroke-miterlimit="10" cx="18.559" cy="27.213" r="0.517"/>
</svg>
