<?xml version="1.0" encoding="utf-8"?>
<!-- Generator: Adobe Illustrator 21.0.2, SVG Export Plug-In . SVG Version: 6.00 Build 0)  -->
<svg version="1.1" id="Layer_1" xmlns="http://www.w3.org/2000/svg" xmlns:xlink="http://www.w3.org/1999/xlink" x="0px" y="0px"
	 viewBox="0 0 65 68.3" style="enable-background:new 0 0 65 68.3;" xml:space="preserve">
<style type="text/css">
	.st0{fill:#FFFFFF;}
</style>
<g>
	<path d="M14.2,31h33.1c4.3,0,7.8-3.5,7.8-7.8c0-3.5-2.3-6.5-5.6-7.5c-0.4-2-1.5-3.8-3.1-5.1c-1.5-1.2-3.3-1.8-5-1.8l0,0
		C39.7,4.6,35.7,2,31.2,2.1S23,4.8,21.5,8.9c-2.2-0.4-4.5,0-6.3,1.3c-2,1.3-3.3,3.3-3.7,5.6c-3,1.1-5.1,4.1-5.1,7.3
		C6.4,27.5,9.9,31,14.2,31z M24.9,10.9c0.8-2.9,3.5-5,6.6-5c0.5,0,1,0.4,1,1s-0.5,1-1,1c-2.2,0-4,1.4-4.6,3.5
		c-0.1,0.5-0.6,0.8-1.2,0.7C25,12,24.7,11.4,24.9,10.9z"/>
	<path d="M58.8,38.8h-10c-1.7,0-3,1.4-3,3v2.4h-3.6c-2.5,0-4.5-2-4.5-4.5V33h-2v6.7c0,3.6,2.9,6.5,6.5,6.5h3.6v3c0,1.7,1.4,3,3,3h4
		v1.5h-2c-0.5,0-1,0.5-1,1c0,0.6,0.5,1,1,1h6c0.6,0,1-0.4,1-1c0-0.5-0.4-1-1-1h-2v-1.5h4c1.7,0,3-1.3,3-3v-7.4
		C61.9,40.1,60.5,38.8,58.8,38.8z"/>
	<path d="M40.6,61.3H23.1l-1.5,3.4c-0.1,0.3-0.1,0.7,0.1,1s0.5,0.5,0.8,0.5h18.6c0.3,0,0.7-0.2,0.8-0.5c0.2-0.3,0.2-0.6,0.1-1
		L40.6,61.3z"/>
	<path d="M30.9,33v15.5H25c-0.6,0-1,0.4-1,1v9.8h15.9v-9.8c0-0.6-0.4-1-1-1H33V33H30.9z"/>
	<path d="M27.8,38.7V33h-2v5.7c0,2.5-2,4.5-4.5,4.5h-5.7v-5.1c0-1.4-1.1-2.5-2.5-2.5H5.6c-1.4,0-2.5,1.1-2.5,2.5V57
		c0,1.4,1.1,2.5,2.5,2.5h7.6c1.4,0,2.5-1.1,2.5-2.5V45.2h5.7C24.9,45.2,27.8,42.3,27.8,38.7z M11.3,55.8H7.5c-0.6,0-1-0.5-1-1
		c0-0.6,0.4-1,1-1h3.9c0.6,0,1,0.4,1,1C12.3,55.3,11.9,55.8,11.3,55.8z M11.3,50.6H7.5c-0.6,0-1-0.4-1-1c0-0.5,0.4-1,1-1h3.9
		c0.6,0,1,0.5,1,1C12.3,50.1,11.9,50.6,11.3,50.6z M11.3,45.4H7.5c-0.6,0-1-0.5-1-1c0-0.6,0.4-1,1-1h3.9c0.6,0,1,0.4,1,1
		C12.3,44.9,11.9,45.4,11.3,45.4z"/>
</g>
<rect x="25.6" y="50.2" class="st0" width="12.7" height="7.4"/>
<path class="st0" d="M57.8,50.4h-7.9c-1.3,0-2.4-1.1-2.4-2.4v-5c0-1.3,1.1-2.4,2.4-2.4h7.9c1.3,0,2.4,1.1,2.4,2.4v5
	C60.2,49.3,59.1,50.4,57.8,50.4z"/>
</svg>
