<?xml version="1.0" encoding="utf-8"?>
<!-- Generator: Adobe Illustrator 21.0.2, SVG Export Plug-In . SVG Version: 6.00 Build 0)  -->
<svg version="1.1" id="Layer_1" xmlns="http://www.w3.org/2000/svg" xmlns:xlink="http://www.w3.org/1999/xlink" x="0px" y="0px"
	 viewBox="0 0 100 90.6" style="enable-background:new 0 0 100 90.6;" xml:space="preserve">
<path d="M94.2,77l-39-67.6c-1.1-1.8-3-3-5.1-3c0,0,0,0,0,0s0,0,0,0c-2.1,0-4.1,1.1-5.1,3L5.8,77c-1.1,1.8-1.1,4.1,0,6
	c1.1,1.8,3,3,5.2,3H89c2.1,0,4.1-1.1,5.2-3C95.3,81.2,95.3,78.9,94.2,77z M14.4,78L50,16.4L85.6,78H14.4z"/>
<g>
	<g transform="translate(-851.000000, -2560.000000)">
		<g transform="translate(851.000000, 2560.000000)">
			<path d="M39.2,75.1c-0.1,0-0.2,0-0.3-0.1c-0.3-0.2-0.4-0.5-0.2-0.8l6.9-16.4h-6.4c-0.2,0-0.4-0.1-0.5-0.3c-0.1-0.2-0.1-0.4,0-0.6
				l9.3-18.5c0.1-0.2,0.3-0.3,0.6-0.3h9.9c0.2,0,0.4,0.1,0.5,0.3c0.1,0.2,0.1,0.4,0,0.6l-7.2,11.4H59c0.2,0,0.5,0.1,0.6,0.4
				c0.1,0.2,0.1,0.5-0.1,0.7L39.7,74.9C39.5,75,39.4,75.1,39.2,75.1"/>
		</g>
	</g>
</g>
</svg>
