<?xml version="1.0" encoding="utf-8"?>
<!-- Generator: Adobe Illustrator 21.0.2, SVG Export Plug-In . SVG Version: 6.00 Build 0)  -->
<svg version="1.1" id="Layer_1" xmlns="http://www.w3.org/2000/svg" xmlns:xlink="http://www.w3.org/1999/xlink" x="0px" y="0px"
	 viewBox="0 0 108.1 95.9" style="enable-background:new 0 0 108.1 95.9;" xml:space="preserve">
<path d="M99.9,9.6H9.4c-2.6,0-4.8,2.1-4.8,4.8v59.3c0,2.6,2.1,4.8,4.8,4.8h71.8L78,72H11.1V16h87.1v56h-8.1l3.2,6.4h6.5
	c2.6,0,4.8-2.1,4.8-4.8V14.4C104.6,11.7,102.5,9.6,99.9,9.6z M7.9,46.3c-1.3,0-2.3-1-2.3-2.3c0-1.3,1-2.3,2.3-2.3
	c1.3,0,2.3,1,2.3,2.3C10.2,45.3,9.2,46.3,7.9,46.3z"/>
<rect x="7.4" y="43.5" width="1" height="1"/>
<path d="M7.9,42.2c-1,0-1.8,0.8-1.8,1.8s0.8,1.8,1.8,1.8S9.6,45,9.6,44S8.9,42.2,7.9,42.2z M8.7,44.6c0,0.1-0.1,0.2-0.2,0.2H7.3
	c-0.1,0-0.2-0.1-0.2-0.2v-1.2c0-0.1,0.1-0.2,0.2-0.2h1.2c0.1,0,0.2,0.1,0.2,0.2V44.6z"/>
<path d="M13.5,66.3h7.8v-49h-7.8V66.3z M20.5,19.3h-0.3l0.3-0.5V19.3z M20.5,18.7l-0.4,0.6h-0.3l0.7-1L20.5,18.7L20.5,18.7z
	 M20.5,18v0.2l-0.9,1.2h-0.3l1-1.4H20.5z M20.3,18l-1,1.4H19l1-1.4H20.3z M19.9,18l-1,1.4h-0.3l1-1.4H19.9z M19.5,18l-1,1.4h-0.3
	l1-1.4H19.5z M19,18l-1,1.4h-0.3l1-1.4H19z M18.6,18l-1,1.4h-0.3l1-1.4H18.6z M18.2,18l-1,1.4H17l1-1.4H18.2z M17.8,18l-1,1.4h-0.3
	l1-1.4H17.8z M17.4,18l-1,1.4h-0.3l1-1.4H17.4z M17,18l-1,1.4h-0.3l1-1.4H17z M16.6,18l-1,1.4h-0.3l1-1.4H16.6z M16.2,18l-1,1.4
	h-0.3l0.1-0.2c0.3,0,0.5-0.3,0.5-0.5c0,0,0-0.1,0-0.1l0.4-0.6L16.2,18L16.2,18z M14.9,19.2l-0.1,0.2h-0.3l0.2-0.2
	C14.8,19.1,14.9,19.2,14.9,19.2z M14.6,18.6c0-0.2,0.2-0.4,0.4-0.4c0.2,0,0.4,0.2,0.4,0.4c0,0.2-0.2,0.4-0.4,0.4
	S14.6,18.8,14.6,18.6z M15.8,18l-0.3,0.5c0-0.1-0.1-0.1-0.1-0.2l0.2-0.2H15.8z M15.1,18h0.3l-0.1,0.2c-0.1,0-0.1-0.1-0.2-0.1
	L15.1,18z M14.2,18h0.4l-0.4,0.5V18z M14.2,18.6l0.5-0.7H15l-0.1,0.1c-0.3,0-0.5,0.3-0.5,0.5c0,0,0,0.1,0,0.1L14.2,19V18.6z
	 M14.2,19.2l0.3-0.3c0,0.1,0.1,0.1,0.1,0.2l-0.2,0.3h-0.2V19.2z M14.2,19.8h6.3v45.7h-6.3V19.8z"/>
<path d="M15.1,41v0.2v4.3v0.2v4.3v0.2v4.3v0.2V59h4.6v-4.5v-0.2v-4.3v-0.2v-4.3v-0.2v-4.3V41v-4.5h-4.6V41z M15.2,36.7h4.3V41h-4.3
	C15.2,41,15.2,36.7,15.2,36.7z M15.2,41.2h4.3v4.3h-4.3C15.2,45.4,15.2,41.2,15.2,41.2z M15.2,45.6h4.3v4.3h-4.3
	C15.2,49.9,15.2,45.6,15.2,45.6z M15.2,50.1h4.3v4.3h-4.3C15.2,54.4,15.2,50.1,15.2,50.1z M15.2,54.5h4.3v4.3h-4.3
	C15.2,58.8,15.2,54.5,15.2,54.5z"/>
<path d="M15.1,25.3v0.2v4.3v0.2v4.5h4.6v-4.5v-0.2v-4.3v-0.2v-4.5h-4.6V25.3z M15.2,21h4.3v4.3h-4.3C15.2,25.3,15.2,21,15.2,21z
	 M15.2,25.4h4.3v4.3h-4.3C15.2,29.7,15.2,25.4,15.2,25.4z M15.2,29.9h4.3v4.3h-4.3C15.2,34.2,15.2,29.9,15.2,29.9z"/>
<polygon points="18.9,23 15.8,21.5 17.2,24.6 17.7,23.6 18.6,24.7 19,24.3 17.9,23.4 "/>
<path d="M15.7,25.9l1.5,3.3l0.4-0.9l0.7,0.8l0.6-0.6l-0.8-0.7l0.9-0.4L15.7,25.9z M18.6,28.5l-0.2,0.2l-0.8-0.9l-0.3,0.8l-1.1-2.3
	l2.3,1.1l-0.8,0.3L18.6,28.5z"/>
<path d="M61.9,57.3l-1.4,0.2c-0.2,0-0.3,0.2-0.3,0.3c0,0.1,0.1,0.3,0.3,0.3c0,0,0,0,0,0l1.4-0.2c0.2,0,0.3-0.2,0.3-0.3
	C62.3,57.4,62.1,57.3,61.9,57.3z"/>
<path d="M55,58.3l-1.4,0.2c-0.2,0-0.3,0.2-0.3,0.3c0,0.2,0.1,0.3,0.3,0.3c0,0,0,0,0,0l1.4-0.2c0.2,0,0.3-0.2,0.3-0.3
	C55.3,58.4,55.1,58.3,55,58.3z"/>
<path d="M44.5,59.7l-1.4,0.2c-0.2,0-0.3,0.2-0.3,0.3c0,0.2,0.1,0.3,0.3,0.3c0,0,0,0,0,0l1.4-0.2c0.2,0,0.3-0.2,0.3-0.3
	C44.8,59.8,44.7,59.7,44.5,59.7z"/>
<path d="M37.5,60.6l-1.4,0.2c-0.2,0-0.3,0.2-0.3,0.3c0,0.2,0.1,0.3,0.3,0.3c0,0,0,0,0,0l1.4-0.2c0.2,0,0.3-0.2,0.3-0.3
	C37.9,60.7,37.7,60.6,37.5,60.6z"/>
<path d="M41,60.2l-1.4,0.2c-0.2,0-0.3,0.2-0.3,0.3c0,0.1,0.1,0.3,0.3,0.3c0,0,0,0,0,0l1.4-0.2c0.2,0,0.3-0.2,0.3-0.3
	C41.3,60.3,41.2,60.1,41,60.2z"/>
<path d="M51.5,58.8L50,58.9c-0.2,0-0.3,0.2-0.3,0.3c0,0.1,0.1,0.3,0.3,0.3c0,0,0,0,0,0l1.4-0.2c0.2,0,0.3-0.2,0.3-0.3
	C51.8,58.8,51.6,58.7,51.5,58.8z"/>
<path d="M58.5,57.8L57,58c-0.2,0-0.3,0.2-0.3,0.3c0,0.2,0.1,0.3,0.3,0.3c0,0,0,0,0,0l1.4-0.2c0.2,0,0.3-0.2,0.3-0.3
	C58.8,57.9,58.6,57.8,58.5,57.8z"/>
<path d="M34,61.1l-1.4,0.2c-0.2,0-0.3,0.2-0.3,0.3c0,0.2,0.1,0.3,0.3,0.3c0,0,0,0,0,0l1.4-0.2c0.2,0,0.3-0.2,0.3-0.3
	C34.4,61.2,34.2,61.1,34,61.1z"/>
<path d="M29.2,59.3c0,0.2,0.1,0.3,0.3,0.3c0,0,0,0,0,0c0.2,0,0.3-0.2,0.3-0.3l-0.2-1.4c0-0.2-0.2-0.3-0.3-0.3
	c-0.2,0-0.3,0.2-0.3,0.3L29.2,59.3z"/>
<path d="M25.8,31.6c0.2,0,0.3-0.2,0.3-0.3l-0.2-1.4c0-0.2-0.2-0.3-0.3-0.3c-0.2,0-0.3,0.2-0.3,0.3l0.2,1.4
	C25.5,31.5,25.6,31.6,25.8,31.6C25.8,31.6,25.8,31.6,25.8,31.6z"/>
<path d="M28.2,49.1c0.2,0,0.3-0.2,0.3-0.3l-0.2-1.4c0-0.2-0.2-0.3-0.3-0.3c-0.2,0-0.3,0.2-0.3,0.3l0.2,1.4
	C27.8,49,28,49.1,28.2,49.1C28.1,49.1,28.1,49.1,28.2,49.1z"/>
<path d="M26.3,35.1c0.2,0,0.3-0.2,0.3-0.3l-0.2-1.4c0-0.2-0.2-0.3-0.3-0.3s-0.3,0.2-0.3,0.3l0.2,1.4C26,35,26.1,35.1,26.3,35.1
	C26.2,35.1,26.3,35.1,26.3,35.1z"/>
<path d="M29.4,55.7l-0.2-1.4c0-0.2-0.2-0.3-0.3-0.3s-0.3,0.2-0.3,0.3l0.2,1.4c0,0.2,0.1,0.3,0.3,0.3c0,0,0,0,0,0
	C29.3,56,29.4,55.9,29.4,55.7z"/>
<path d="M26.5,36.6c-0.2,0-0.3,0.2-0.3,0.3l0.2,1.4c0,0.2,0.1,0.3,0.3,0.3c0,0,0,0,0,0c0.2,0,0.3-0.2,0.3-0.3l-0.2-1.4
	C26.8,36.7,26.6,36.6,26.5,36.6z"/>
<path d="M28.6,52.6C28.6,52.6,28.6,52.6,28.6,52.6c0.2,0,0.3-0.2,0.3-0.3l-0.2-1.4c0-0.2-0.2-0.3-0.3-0.3s-0.3,0.2-0.3,0.3l0.2,1.4
	C28.3,52.5,28.4,52.6,28.6,52.6z"/>
<path d="M26.7,40.4l0.2,1.4c0,0.1,0.1,0.3,0.3,0.3c0,0,0,0,0,0c0.2,0,0.3-0.2,0.3-0.3l-0.2-1.4c0-0.2-0.2-0.3-0.3-0.3
	C26.8,40.1,26.7,40.2,26.7,40.4z"/>
<path d="M55.8,23.3C55.8,23.3,55.9,23.3,55.8,23.3l1.5-0.2c0.2,0,0.3-0.2,0.3-0.3c0-0.2-0.2-0.3-0.3-0.3l-1.4,0.2
	c-0.2,0-0.3,0.2-0.3,0.3C55.6,23.2,55.7,23.3,55.8,23.3z"/>
<path d="M45.4,24.7C45.4,24.7,45.4,24.7,45.4,24.7l1.5-0.2c0.2,0,0.3-0.2,0.3-0.3s-0.2-0.3-0.3-0.3l-1.4,0.2c-0.2,0-0.3,0.2-0.3,0.3
	C45.1,24.6,45.2,24.7,45.4,24.7z"/>
<path d="M31.4,26.6C31.4,26.6,31.4,26.6,31.4,26.6l1.5-0.2c0.2,0,0.3-0.2,0.3-0.3c0-0.2-0.2-0.3-0.3-0.3L31.4,26
	c-0.2,0-0.3,0.2-0.3,0.3C31.1,26.5,31.3,26.6,31.4,26.6z"/>
<path d="M48.9,24.3C48.9,24.3,48.9,24.3,48.9,24.3l1.5-0.2c0.2,0,0.3-0.2,0.3-0.3c0-0.2-0.2-0.3-0.3-0.3l-1.4,0.2
	c-0.2,0-0.3,0.2-0.3,0.3C48.6,24.1,48.7,24.3,48.9,24.3z"/>
<path d="M38.4,25.7C38.4,25.7,38.4,25.7,38.4,25.7l1.5-0.2c0.2,0,0.3-0.2,0.3-0.3c0-0.2-0.2-0.3-0.3-0.3l-1.4,0.2
	c-0.2,0-0.3,0.2-0.3,0.3C38.1,25.6,38.2,25.7,38.4,25.7z"/>
<path d="M27.9,27.1C27.9,27.1,28,27.1,27.9,27.1l1.5-0.2c0.2,0,0.3-0.2,0.3-0.3c0-0.2-0.2-0.3-0.3-0.3l-1.4,0.2
	c-0.2,0-0.3,0.2-0.3,0.3C27.7,27,27.8,27.1,27.9,27.1z"/>
<path d="M34.9,26.1C34.9,26.1,34.9,26.1,34.9,26.1l1.5-0.2c0.2,0,0.3-0.2,0.3-0.3c0-0.2-0.2-0.3-0.3-0.3l-1.4,0.2
	c-0.2,0-0.3,0.2-0.3,0.3C34.6,26,34.8,26.1,34.9,26.1z"/>
<path d="M52.3,23.8C52.4,23.8,52.4,23.8,52.3,23.8l1.5-0.2c0.2,0,0.3-0.2,0.3-0.3S53.9,23,53.7,23l-1.4,0.2c-0.2,0-0.3,0.2-0.3,0.3
	C52.1,23.7,52.2,23.8,52.3,23.8z"/>
<path d="M63,44.3c0.2,0,0.3-0.2,0.3-0.3L63,42.6c0-0.2-0.2-0.3-0.3-0.3c-0.2,0-0.3,0.2-0.3,0.3l0.2,1.4C62.7,44.2,62.8,44.4,63,44.3
	C63,44.4,63,44.3,63,44.3z"/>
<path d="M60.7,25.1c0-0.2-0.2-0.3-0.3-0.3c-0.2,0-0.3,0.2-0.3,0.3l0.2,1.4c0,0.1,0.1,0.3,0.3,0.3c0,0,0,0,0,0c0.2,0,0.3-0.2,0.3-0.3
	L60.7,25.1z"/>
<path d="M63.4,47.8C63.4,47.8,63.4,47.8,63.4,47.8c0.2,0,0.3-0.2,0.3-0.3l-0.2-1.4c0-0.2-0.2-0.3-0.3-0.3c-0.2,0-0.3,0.2-0.3,0.3
	l0.2,1.4C63.1,47.7,63.3,47.8,63.4,47.8z"/>
<path d="M63.9,53.1l0.2,1.4c0,0.2,0.1,0.3,0.3,0.3c0,0,0,0,0,0c0.2,0,0.3-0.2,0.3-0.3L64.5,53c0-0.2-0.2-0.3-0.3-0.3
	C64,52.8,63.8,53,63.9,53.1z"/>
<path d="M60.6,28.7l0.2,1.4c0,0.2,0.1,0.3,0.3,0.3c0,0,0,0,0,0c0.2,0,0.3-0.2,0.3-0.3l-0.2-1.4c0-0.2-0.2-0.3-0.3-0.3
	C60.6,28.4,60.5,28.5,60.6,28.7z"/>
<path d="M61.5,35.7l0.2,1.4c0,0.2,0.1,0.3,0.3,0.3c0,0,0,0,0,0c0.2,0,0.3-0.2,0.3-0.3l-0.2-1.4c0-0.2-0.2-0.3-0.3-0.3
	C61.6,35.4,61.5,35.5,61.5,35.7z"/>
<path d="M61.3,31.9c-0.2,0-0.3,0.2-0.3,0.3l0.2,1.4c0,0.1,0.1,0.3,0.3,0.3c0,0,0,0,0,0c0.2,0,0.3-0.2,0.3-0.3l-0.2-1.4
	C61.6,32,61.4,31.8,61.3,31.9z"/>
<path d="M63.6,49.3c-0.2,0-0.3,0.2-0.3,0.3l0.2,1.4c0,0.2,0.1,0.3,0.3,0.3c0,0,0,0,0,0c0.2,0,0.3-0.2,0.3-0.3L64,49.5
	C64,49.4,63.8,49.3,63.6,49.3z"/>
<path d="M26.5,25.5l-3,0.4l0.4,3l3-0.4L26.5,25.5z M24.5,28.2l-0.2-1.7l1.7-0.2l0.2,1.7L24.5,28.2z"/>
<path d="M61.7,23.8l-0.4-3l-3,0.4l0.4,3L61.7,23.8z M60.7,21.6l0.2,1.7l-1.7,0.2l-0.2-1.7L60.7,21.6z"/>
<path d="M28.2,60.7l0.4,3l3-0.4l-0.4-3L28.2,60.7z M29.2,62.9L29,61.3l1.7-0.2l0.2,1.7L29.2,62.9z"/>
<path d="M63,56l0.4,3l3-0.4l-0.4-3L63,56z M64,58.2l-0.2-1.7l1.7-0.2l0.2,1.7L64,58.2z"/>
<path d="M28.6,43.2l-2.5,0.3l0.3,2.5l2.5-0.3L28.6,43.2z M27.1,45.2l-0.2-1.1l1.1-0.2l0.2,1.1L27.1,45.2z"/>
<path d="M61.3,41.2l2.5-0.3l-0.3-2.5L61,38.8L61.3,41.2z M62.9,39.2l0.2,1.1l-1.1,0.2l-0.2-1.1L62.9,39.2z"/>
<path d="M44,25.9l-0.3-2.5l-2.5,0.3l0.3,2.4L44,25.9z M43.1,24.2l0.2,1.1l-1.1,0.2L42,24.3L43.1,24.2z"/>
<path d="M45.9,58.6l0.3,2.5l2.5-0.3l-0.3-2.5L45.9,58.6z M46.8,60.3l-0.2-1.1l1.1-0.2l0.2,1.1L46.8,60.3z"/>
<path d="M17.4,37.5c-0.7,0-1.3,0.6-1.3,1.3c0,0.7,0.6,1.3,1.3,1.3s1.3-0.6,1.3-1.3C18.7,38.1,18.1,37.5,17.4,37.5z M17.4,39.7
	c-0.5,0-0.9-0.4-0.9-0.9c0-0.5,0.4-0.9,0.9-0.9s0.9,0.4,0.9,0.9C18.2,39.3,17.9,39.7,17.4,39.7z"/>
<path d="M16.1,44.6h2.6V42h-2.6V44.6z M16.5,42.5h1.7v1.7h-1.7V42.5z"/>
<path d="M17.9,51.8c0.1-0.1,0.1-0.2,0-0.3c-0.2-0.2-0.5,0-0.4,0.3C17.6,51.8,17.8,51.8,17.9,51.8z"/>
<path d="M17.2,51.5c0-0.1-0.1-0.1-0.2-0.1c-0.1,0-0.2,0.1-0.1,0.2C16.9,51.9,17.3,51.8,17.2,51.5z"/>
<path d="M16.4,51.6c0-0.1-0.1-0.2-0.2-0.1C16,51.7,16.4,51.9,16.4,51.6z"/>
<path d="M17.9,52c0,0.3,0.5,0.2,0.4-0.1c0-0.1-0.1-0.2-0.3-0.2C17.9,51.8,17.9,51.9,17.9,52z"/>
<path d="M17.2,52c0,0.2,0.4,0.2,0.4,0c0-0.1-0.1-0.2-0.2-0.2C17.2,51.8,17.2,51.9,17.2,52z"/>
<path d="M16.8,51.9c0-0.1-0.1-0.2-0.2-0.1C16.3,52,16.9,52.3,16.8,51.9z"/>
<path d="M17.9,52.2c-0.2-0.2-0.5,0-0.4,0.3c0.1,0.1,0.3,0.1,0.3,0C18,52.4,18,52.3,17.9,52.2z"/>
<path d="M17.2,52.3c0-0.1-0.1-0.1-0.2-0.1c-0.1,0-0.2,0.1-0.1,0.2C16.9,52.6,17.3,52.5,17.2,52.3z"/>
<path d="M16.4,52.4c0-0.1-0.1-0.2-0.2-0.1C16,52.4,16.4,52.6,16.4,52.4z"/>
<path d="M18,52.5c-0.1,0-0.2,0.1-0.2,0.2c0,0.3,0.5,0.2,0.4-0.1C18.3,52.5,18.2,52.4,18,52.5z"/>
<path d="M17.3,52.5c-0.1,0-0.2,0.1-0.2,0.2c0,0.2,0.4,0.2,0.4,0C17.6,52.5,17.5,52.5,17.3,52.5z"/>
<path d="M16.8,52.7c0-0.1-0.1-0.2-0.2-0.1C16.3,52.7,16.9,53.1,16.8,52.7z"/>
<path d="M16,53.3h2.8v-2.2H16V53.3z M16.2,51.3h0.4c0,0,0,0,0,0c0,0.1,0.2,0.1,0.3,0c0,0-0.1,0-0.1,0h0.1h0.5c0,0,0,0-0.1,0
	c0.1,0.1,0.3,0.1,0.4,0c0,0-0.1,0-0.1,0h0.1h0.3c0,0.2,0.4,0.2,0.4,0h0.3v0.1c-0.5-0.3-0.5,0.7,0,0.4v0.1c0,0,0,0,0,0
	c0,0.1,0,0.2,0,0.2v0.1c-0.5-0.3-0.5,0.7,0,0.4v0.1c0,0,0,0,0,0c0,0.1,0,0.2,0,0.2v0.1c-0.2-0.1-0.5,0-0.4,0.3H18
	c0-0.1,0-0.2-0.1-0.3c-0.2-0.1-0.4,0-0.3,0.3h-0.4c0,0,0,0,0,0c0.1-0.3-0.4-0.3-0.4,0c0,0,0,0,0,0h-0.4c0,0,0,0,0,0
	c0.1-0.3-0.3-0.3-0.3,0c0,0,0,0,0,0h0L16.2,51.3L16.2,51.3z"/>
<path d="M16.8,46.9c-0.2-0.1-0.6-0.1-1.1,0.6c0,0,0.3-0.2,0.5,0l-0.1,0.1l1.8,1.8l1.5-1.5l-1.8-1.8L16.8,46.9z M18.8,47.9l-1,1
	L17,48l1-1L18.8,47.9z M16.8,47.8l-0.2-0.2l1-1l0.2,0.2L16.8,47.8z"/>
<path d="M17.9,56.7c0.2-0.4,0.2-0.9-0.2-1.3c-0.2-0.2-0.5-0.3-0.8-0.3s-0.6,0.1-0.8,0.3c-0.2,0.2-0.3,0.5-0.3,0.8
	c0,0.3,0.1,0.6,0.3,0.8c0.2,0.2,0.5,0.3,0.8,0.3c0.2,0,0.4,0,0.5-0.1l1,1c0.1,0.1,0.1,0.1,0.2,0.1s0.2,0,0.2-0.1
	c0.1-0.1,0.1-0.3,0-0.5L17.9,56.7z M17.4,56.7c-0.1,0.1-0.3,0.2-0.5,0.2c-0.2,0-0.4-0.1-0.5-0.2c-0.1-0.1-0.2-0.3-0.2-0.5
	s0.1-0.4,0.2-0.5c0.1-0.1,0.3-0.2,0.5-0.2c0.2,0,0.4,0.1,0.5,0.2C17.7,56,17.7,56.5,17.4,56.7z"/>
<path d="M18.6,60h-3.5v3.5h1v1h3.5V61h-1V60z M19.2,61.4v2.7h-2.7v-0.6h2.1v-2.1L19.2,61.4L19.2,61.4z"/>
<path d="M77.1,50.4l-1.5-1.1l-0.7-0.5l-2.6-1.9c-0.1-0.1-0.2-0.1-0.4-0.1c-0.5-0.1-0.9,0.3-0.9,0.9l-0.1,3.2l0,2.7
	c-0.1,0.5,0,1,0.3,1.5l17.4,34.6c0.8,1.6,3,2,5,1c2-1,2.9-3,2.1-4.6L78.2,51.5C77.9,51,77.6,50.6,77.1,50.4z"/>
<polygon points="49.4,36.1 42.8,26.3 39,37.5 27.6,40.8 37.2,47.8 36.7,59.7 46.4,52.8 57.5,56.8 54,45.5 61.3,36.2 "/>
<path d="M75.4,42.8l13.7-20.4c0,0-0.1,0-0.1-0.1L75.4,42.8C75.3,42.8,75.4,42.8,75.4,42.8z"/>
<path d="M75.1,42.6l13.7-20.3c0,0-0.1,0-0.1,0L75.1,42.6C75,42.5,75,42.5,75.1,42.6z"/>
<path d="M74.7,42.3L88.4,22c0,0-0.1,0-0.1,0L74.7,42.3C74.7,42.2,74.7,42.3,74.7,42.3z"/>
<path d="M74.4,42L88,21.8c0,0-0.1,0-0.1,0L74.4,42C74.4,41.9,74.4,42,74.4,42z"/>
<path d="M74.1,41.7l13.5-20c0,0-0.1,0-0.1,0L74.1,41.7C74.1,41.6,74.1,41.7,74.1,41.7z"/>
<path d="M73.8,41.4l13.4-19.9c0,0-0.1,0-0.1,0L73.8,41.4C73.8,41.3,73.8,41.3,73.8,41.4z"/>
<path d="M73.5,41l13.2-19.7c0,0-0.1,0-0.1,0L73.5,41C73.5,41,73.5,41,73.5,41z"/>
<path d="M73.2,40.7l13.1-19.4c0,0-0.1,0-0.1,0L73.2,40.7C73.2,40.6,73.2,40.7,73.2,40.7z"/>
<path d="M73,40.3l12.9-19.2c0,0-0.1,0-0.1,0L73,40.3C72.9,40.3,72.9,40.3,73,40.3z"/>
<path d="M72.7,39.9L85.4,21c0,0-0.1,0-0.1,0L72.7,39.9C72.7,39.9,72.7,39.9,72.7,39.9z"/>
<path d="M72.4,39.5L85,20.9c0,0-0.1,0-0.1,0L72.4,39.5C72.4,39.5,72.4,39.5,72.4,39.5z"/>
<path d="M72.2,39.1l12.3-18.3c0,0-0.1,0-0.1,0L72.2,39.1C72.2,39.1,72.2,39.1,72.2,39.1z"/>
<path d="M72,38.7l12-17.9c0,0-0.1,0-0.1,0l-12,17.8C71.9,38.6,72,38.7,72,38.7z"/>
<path d="M71.8,38.3l11.8-17.5c0,0-0.1,0-0.1,0L71.7,38.2C71.7,38.2,71.7,38.2,71.8,38.3z"/>
<path d="M71.6,37.8l11.5-17c0,0-0.1,0-0.1,0c0,0,0,0,0,0L71.5,37.7C71.5,37.7,71.5,37.8,71.6,37.8z"/>
<path d="M71.4,37.3l11.1-16.5c0,0-0.1,0-0.1,0l-11,16.4C71.3,37.2,71.3,37.3,71.4,37.3z"/>
<path d="M71.2,36.8l10.8-16c0,0-0.1,0-0.1,0L71.2,36.7C71.2,36.7,71.2,36.8,71.2,36.8z"/>
<path d="M71,36.3l10.4-15.4c0,0-0.1,0-0.1,0L71,36.1C71,36.2,71,36.2,71,36.3z"/>
<path d="M70.9,35.7l9.9-14.8c0,0-0.1,0-0.1,0l-9.8,14.6C70.9,35.6,70.9,35.7,70.9,35.7z"/>
<path d="M80.1,21.1L70.8,35c0,0,0,0.1,0,0.1l9.4-14C80.2,21.1,80.1,21.1,80.1,21.1z"/>
<path d="M79.5,21.3l-8.8,13.1c0,0.1,0,0.1,0,0.2l8.9-13.3C79.6,21.2,79.5,21.2,79.5,21.3z"/>
<path d="M78.8,21.5l-8.2,12.1c0,0.1,0,0.1,0,0.2L79,21.4C78.9,21.4,78.9,21.5,78.8,21.5z"/>
<path d="M78.1,21.8l-7.5,11.1c0,0.1,0,0.1,0,0.2l7.7-11.4C78.2,21.7,78.2,21.7,78.1,21.8z"/>
<path d="M77.3,22.1L70.7,32c0,0.1,0,0.1,0,0.2L77.5,22C77.5,22,77.4,22.1,77.3,22.1z"/>
<path d="M76.5,22.6l-5.7,8.5c0,0.1,0,0.2,0,0.2l6-8.9C76.7,22.5,76.6,22.5,76.5,22.6z"/>
<path d="M75.6,23.2L71,30c0,0.1,0,0.2-0.1,0.3l4.9-7.2C75.7,23.1,75.7,23.1,75.6,23.2z"/>
<path d="M74.4,24.2l-2.9,4.2c-0.1,0.1-0.1,0.3-0.2,0.4l3.3-5C74.6,24,74.5,24.1,74.4,24.2z"/>
<path d="M91.5,42l2.9-4.3c0.1-0.1,0.1-0.3,0.2-0.4l-3.4,5C91.3,42.2,91.4,42.1,91.5,42z"/>
<path d="M90.3,43l4.6-6.8c0-0.1,0-0.2,0.1-0.3L90,43.1C90.1,43.1,90.2,43,90.3,43z"/>
<path d="M89.3,43.6l5.8-8.6c0-0.1,0-0.2,0-0.2l-6,8.9C89.2,43.7,89.3,43.7,89.3,43.6z"/>
<path d="M88.5,44.1l6.7-10c0-0.1,0-0.1,0-0.2l-6.9,10.3C88.4,44.1,88.4,44.1,88.5,44.1z"/>
<path d="M87.8,44.4l7.5-11.1c0-0.1,0-0.1,0-0.2l-7.7,11.4C87.6,44.5,87.7,44.4,87.8,44.4z"/>
<path d="M87.1,44.7l8.2-12.2c0-0.1,0-0.1,0-0.2l-8.3,12.4C87,44.7,87,44.7,87.1,44.7z"/>
<path d="M86.4,44.9l8.8-13.1c0-0.1,0-0.1,0-0.2L86.2,45C86.3,44.9,86.3,44.9,86.4,44.9z"/>
<path d="M85.8,45.1l9.3-13.9c0,0,0-0.1,0-0.1l-9.5,14.1C85.7,45.1,85.7,45.1,85.8,45.1z"/>
<path d="M85.2,45.2L95,30.6c0,0,0-0.1,0-0.1L85,45.2C85.1,45.2,85.1,45.2,85.2,45.2z"/>
<path d="M84.6,45.3L94.9,30c0,0,0-0.1,0-0.1L84.5,45.3C84.5,45.3,84.5,45.3,84.6,45.3z"/>
<path d="M84,45.4l10.7-15.9c0,0,0-0.1,0-0.1l-10.8,16C83.9,45.4,84,45.4,84,45.4z"/>
<path d="M83.5,45.4L94.5,29c0,0,0-0.1,0-0.1L83.4,45.4C83.4,45.4,83.4,45.4,83.5,45.4z"/>
<path d="M82.9,45.4C82.9,45.4,83,45.4,82.9,45.4l11.4-16.9c0,0,0-0.1,0-0.1L82.9,45.4C82.9,45.4,82.9,45.4,82.9,45.4z"/>
<path d="M82.5,45.4L94.2,28c0,0,0-0.1,0-0.1L82.3,45.4C82.4,45.4,82.4,45.4,82.5,45.4z"/>
<path d="M82,45.4l12-17.8c0,0,0-0.1-0.1-0.1l-12,17.9C81.9,45.4,81.9,45.4,82,45.4z"/>
<path d="M81.5,45.3l12.2-18.2c0,0,0-0.1-0.1-0.1L81.4,45.3C81.4,45.3,81.4,45.3,81.5,45.3z"/>
<path d="M81,45.3l12.5-18.5c0,0,0-0.1-0.1-0.1L80.9,45.2C80.9,45.2,81,45.2,81,45.3z"/>
<path d="M80.5,45.2l12.7-18.9c0,0,0-0.1-0.1-0.1L80.4,45.1C80.5,45.2,80.5,45.2,80.5,45.2z"/>
<path d="M80.1,45.1L93,25.9c0,0,0-0.1-0.1-0.1L80,45C80,45.1,80.1,45.1,80.1,45.1z"/>
<path d="M79.7,45l13-19.4c0,0,0-0.1-0.1-0.1L79.5,44.9C79.6,44.9,79.6,44.9,79.7,45z"/>
<path d="M79.2,44.8l13.2-19.6c0,0,0-0.1-0.1-0.1L79.2,44.8C79.2,44.8,79.2,44.8,79.2,44.8z"/>
<path d="M78.8,44.7l13.3-19.8c0,0,0-0.1-0.1-0.1L78.8,44.7C78.7,44.7,78.8,44.7,78.8,44.7z"/>
<path d="M78.4,44.5l13.4-20c0,0,0,0-0.1-0.1L78.4,44.5C78.3,44.5,78.4,44.5,78.4,44.5z"/>
<path d="M78,44.4l13.5-20.1c0,0,0,0-0.1-0.1L78,44.4C77.9,44.3,78,44.4,78,44.4z"/>
<path d="M77.6,44.2L91.2,24c0,0-0.1,0-0.1-0.1L77.6,44.2C77.5,44.2,77.6,44.2,77.6,44.2z"/>
<path d="M77.2,44l13.7-20.3c0,0-0.1,0-0.1-0.1L77.2,44C77.1,44,77.2,44,77.2,44z"/>
<path d="M76.8,43.8l13.7-20.4c0,0-0.1,0-0.1-0.1L76.8,43.8C76.8,43.8,76.8,43.8,76.8,43.8z"/>
<path d="M76.5,43.6l13.7-20.4c0,0-0.1,0-0.1-0.1L76.5,43.6C76.4,43.5,76.4,43.5,76.5,43.6z"/>
<path d="M76.1,43.3l13.8-20.4c0,0-0.1,0-0.1-0.1L76.1,43.3C76,43.3,76.1,43.3,76.1,43.3z"/>
<path d="M75.7,43.1l13.7-20.4c0,0-0.1,0-0.1-0.1L75.7,43.1C75.7,43,75.7,43.1,75.7,43.1z"/>
<g>
	<path d="M17.9,33c-0.2,0-0.3-0.1-0.3-0.3v-1.4c0-0.2,0.1-0.3,0.3-0.3C18,31,18,31,18,30.9c0-0.1-0.1-0.2-0.2-0.2
		c-0.2,0-0.4,0.1-0.5,0.2c-0.1-0.1-0.3-0.2-0.5-0.2c-0.1,0-0.2,0.1-0.2,0.2c0,0.1,0.1,0.2,0.2,0.2c0.2,0,0.3,0.1,0.3,0.3v1.4
		c0,0.2-0.1,0.3-0.3,0.3c-0.1,0-0.2,0.1-0.2,0.2c0,0.1,0.1,0.2,0.2,0.2c0.2,0,0.4-0.1,0.5-0.2c0.1,0.1,0.3,0.2,0.5,0.2
		c0.1,0,0.2-0.1,0.2-0.2C18,33.1,18,33,17.9,33z"/>
</g>
</svg>
