<?xml version="1.0" encoding="utf-8"?>
<!-- Generator: Adobe Illustrator 21.0.2, SVG Export Plug-In . SVG Version: 6.00 Build 0)  -->
<svg version="1.1" id="Layer_1" xmlns="http://www.w3.org/2000/svg" xmlns:xlink="http://www.w3.org/1999/xlink" x="0px" y="0px"
	 viewBox="0 0 219.3 186.7" style="enable-background:new 0 0 219.3 186.7;" xml:space="preserve">
<style type="text/css">
	.st0{fill:#2D67AB;}
	.st1{fill:#FFFFFF;}
</style>
<g>
	<polygon class="st0" points="74.8,56.4 87.5,56.4 87.5,102.4 74.8,102.4 	"/>
	<polygon class="st0" points="94.2,102.4 94.2,56.4 129.1,56.4 129.1,65.3 106.8,65.3 106.8,74.8 127.3,74.8 127.3,83.7 106.8,83.7 
		106.8,93.5 129.1,93.5 129.1,102.4 	"/>
	<polygon class="st0" points="136.2,102.4 136.2,56.4 171.1,56.4 171.1,65.3 148.9,65.3 148.9,74.8 169.4,74.8 169.4,83.7 
		148.9,83.7 148.9,93.5 171.1,93.5 171.1,102.4 	"/>
	<polygon class="st0" points="178.3,102.4 178.3,56.4 213.2,56.4 213.2,65.3 191,65.3 191,74.8 211.4,74.8 211.4,83.7 191,83.7 
		191,93.5 213.2,93.5 213.2,102.4 	"/>
	<path class="st0" d="M39.9,52.3c1.9,2.4,3.9,4.9,5.9,7.2l5,5.3c4.5,4.5,9.4,8.5,14.6,12.1h0.1c0.6,0.4,1.1,1.1,1.1,2
		c0,1.6-2,2-3,2.9c-10,7.3-19.1,16.3-26.2,26.5l-0.6,0.6c-0.6,0.4-1.4,0.3-1.9,0c-0.8-0.3-0.9-1.1-1.4-1.6c-1.6-2.4-3.6-4.8-5.3-7
		c-1-1-1.9-2.1-2.9-3.3C19.5,90.4,12.9,84.8,6,80c-0.5-0.5-0.9-1.1-0.6-1.9c0.3-0.9,1.3-1.4,1.9-1.9c8.5-5.9,16.4-13.6,23.1-21.8
		l4.1-5.4c0.5-0.4,1.3-0.8,2-0.5c0.3,0.1,0.6,0.4,1,0.5L39.9,52.3L39.9,52.3z"/>
	<path class="st1" d="M34,56.9c-1.9,1.4-3.8,2.8-5.6,4.4c-0.1,0.1-0.4,0.3-0.4,0.4c-4.3,3.9-8.5,8-12.1,12.6c-1,1.3-2,2.5-2.4,4
		c0,0.8,0.1,1.6,0.5,2.1c3,4.4,6.9,8.7,10.8,12.2c3.4,3,6.7,6.3,10.4,8.3c1.3,0.6,2.6-0.1,3.8-0.9c5.3-3.6,9.9-8.3,14.3-13.1
		c2-2.5,4.4-4.8,5.5-7.7c0.3-1.1-0.1-2.1-0.8-3c-3.4-4.9-7.7-9.5-12.2-13.8l-0.3-0.1c-1.6-1.6-3.5-3.1-5.3-4.5
		C38.7,56.7,36,55.4,34,56.9L34,56.9z"/>
	<path class="st0" d="M34.8,58.2c-6.4,4.4-12.7,10.4-17.6,16.6c-1,1.5-2.8,2.9-2,4.9c0.6,1.5,1.9,2.5,2.8,3.8
		c4.9,5.9,10.7,11.3,16.7,15.7c2.6,1.6,4.5-1,6.5-2.3c4.3-3.3,8.2-7.4,11.8-11.3v0c1.5-1.8,3-3.5,4.1-5.5c0.5-1,0.3-2.3-0.3-3
		c-4.5-6.4-10.3-12.2-16.6-17.2C38.7,58.8,36.9,56.8,34.8,58.2L34.8,58.2z"/>
	<path class="st1" d="M36,62.2L35.5,64l-2.8,8c0.8,0.1,1.6,0,2.3,0.1v0.1l-0.4,9.2l0.1,0.1c0.9,0.1,2,0.1,2.9,0v-0.1l-0.4-8.9v-0.3
		h2.5C38.6,68.9,37.3,65.6,36,62.2L36,62.2L36,62.2z"/>
	<path class="st1" d="M26.5,74.9c-1.6,0.8-3.9,2-3.6,4.1c0.4,1.1,1.6,1.9,2.6,2.4c5.6,2.5,13.1,2.5,19,0.8c1.5-0.5,3.4-1.4,3.6-3.1
		c0-1.5-1.6-2.4-2.8-3v-0.1c0.4-0.1,0.9-0.3,1.3-0.4l0,0c-2-0.4-3.9-0.9-5.8-1.4c0.4,0.9,0.6,1.8,1,2.6c0.6-0.1,1.1-0.4,1.8-0.4
		c1,0.4,2.5,1,2.6,2.3c0.1,1.1-1.1,1.8-2,2.3c-4.4,1.6-9.2,1.8-13.7,0.5c-1.3-0.4-3-0.9-3.3-2.5c0.9-2.1,3.1-2.5,5.1-3
		c-1-0.6-2-1.3-2.9-1.9C28.4,74,27.5,74.5,26.5,74.9L26.5,74.9z"/>
	<path class="st1" d="M34.5,84c-0.1,3.3-0.3,6.3-0.5,9.5c1.3,0.1,2.8,0.3,4.1,0l-0.4-9l-0.1-0.4C36.7,84,35.7,84,34.5,84L34.5,84z"
		/>
	<path class="st0" d="M46.3,104.3v-0.5h0.4c0.1,0,0.5,0,0.5,0.3s-0.1,0.3-0.4,0.3L46.3,104.3L46.3,104.3z M46.3,104.6h0.3l0.5,1h0.5
		l-0.6-1c0.3,0,0.5-0.1,0.5-0.6s-0.4-0.8-0.9-0.8h-0.9v2.3h0.6V104.6L46.3,104.6z M48.9,104.5c0-1.4-1-2.1-2.1-2.1
		c-1.1,0-2.1,0.8-2.1,2.1s1,2.1,2.1,2.1C47.7,106.6,48.9,105.8,48.9,104.5L48.9,104.5z M48.2,104.5c0,1-0.8,1.6-1.5,1.6l0,0
		c-0.9,0-1.5-0.6-1.5-1.6s0.6-1.6,1.5-1.6C47.5,102.9,48.2,103.5,48.2,104.5L48.2,104.5z"/>
</g>
<g>
	<path class="st0" d="M54.8,124.2h-4.3l-1.3,2.6H47l6.2-11.8h2.5l1.8,11.8h-2.3L54.8,124.2z M54.5,122.2l-0.6-4.8l-2.4,4.8H54.5z"/>
	<path class="st0" d="M65.7,126.8h-2l0.3-0.9c-0.4,0.4-0.8,0.8-1.1,0.9c-0.4,0.1-0.8,0.3-1.3,0.3c-0.8,0-1.4-0.3-1.9-0.9
		s-0.8-1.5-0.8-2.6c0-1.4,0.4-2.6,1.1-3.8c0.8-1.1,1.6-1.6,2.8-1.6c1,0,1.8,0.5,2.4,1.4l0.9-4.4h2.1L65.7,126.8z M60.9,123.3
		c0,0.6,0.1,1.1,0.4,1.5c0.3,0.4,0.6,0.5,1,0.5c0.4,0,0.6-0.1,1-0.4c0.4-0.3,0.6-0.6,0.8-1.3c0.3-0.6,0.4-1.3,0.4-1.9
		c0-0.6-0.1-1.1-0.5-1.5c-0.3-0.4-0.6-0.6-1-0.6c-0.3,0-0.6,0.1-0.9,0.4c-0.3,0.3-0.6,0.6-0.8,1.3C61,122,60.9,122.6,60.9,123.3z"/>
	<path class="st0" d="M71.8,126.8h-1.9l-1.6-8.5h2.1l0.5,3.8c0.1,1,0.3,1.6,0.3,2l0.5-1l0.6-1.1l2-3.6h2.3L71.8,126.8z"/>
	<path class="st0" d="M79.2,120.7l-2.1-0.3c0.3-0.8,0.6-1.4,1.3-1.8s1.4-0.6,2.4-0.6c1,0,1.6,0.3,2.3,0.6s0.8,1,0.8,1.6
		c0,0.3,0,0.5-0.1,0.8c-0.1,0.3-0.3,1-0.5,2.3c-0.3,1-0.4,1.8-0.4,2.1s0.1,0.8,0.3,1.3h-2.1c-0.1-0.4-0.1-0.6-0.1-1
		c-0.3,0.4-0.6,0.6-1,0.9c-0.4,0.3-0.8,0.3-1.1,0.3c-0.6,0-1.1-0.3-1.5-0.6c-0.4-0.5-0.6-1-0.6-1.8c0-0.9,0.3-1.5,0.8-2
		s1.3-0.8,2.5-0.9c1-0.1,1.6-0.3,2-0.4c0.1-0.4,0.1-0.6,0.1-0.8c0-0.3-0.1-0.5-0.3-0.6c-0.3-0.1-0.5-0.3-0.8-0.3
		C79.9,119.7,79.5,119.9,79.2,120.7z M81.2,122.8c-0.1,0-0.3,0.1-0.5,0.1c-1,0.1-1.6,0.3-1.9,0.5c-0.3,0.3-0.5,0.5-0.5,0.9
		c0,0.3,0.1,0.5,0.3,0.8c0.1,0.1,0.4,0.3,0.6,0.3c0.3,0,0.5-0.1,0.8-0.3c0.3-0.1,0.5-0.4,0.6-0.6c0.1-0.3,0.3-0.8,0.5-1.3
		L81.2,122.8z"/>
	<path class="st0" d="M86.4,118.2h2l-0.3,1.1c0.5-0.5,1-0.9,1.4-1s0.9-0.3,1.4-0.3c0.6,0,1.1,0.3,1.5,0.6c0.4,0.4,0.6,0.9,0.6,1.6
		c0,0.3-0.1,0.9-0.3,1.8l-0.9,4.9h-2.1l0.9-4.9c0.1-0.8,0.3-1.1,0.3-1.3c0-0.3-0.1-0.5-0.3-0.8c-0.1-0.1-0.4-0.3-0.6-0.3
		s-0.6,0.1-0.9,0.3c-0.4,0.3-0.8,0.6-1,1c-0.3,0.4-0.4,1.1-0.6,2.3l-0.6,3.5h-2.1L86.4,118.2z"/>
	<path class="st0" d="M99.3,123.6l2,0.4c-0.4,1-0.9,1.8-1.5,2.3c-0.6,0.5-1.4,0.8-2.3,0.8c-1,0-1.8-0.4-2.4-1
		c-0.6-0.6-0.9-1.5-0.9-2.8c0-1,0.3-2,0.6-2.8c0.4-0.9,1-1.4,1.6-1.9c0.6-0.5,1.4-0.6,2.3-0.6c0.9,0,1.6,0.3,2.1,0.8s0.9,1.3,1,2.1
		l-2,0.3c-0.1-0.9-0.5-1.4-1.3-1.4c-0.4,0-0.6,0.1-1,0.4c-0.4,0.3-0.6,0.8-0.9,1.4c-0.3,0.6-0.4,1.4-0.4,2.1c0,0.5,0.1,0.9,0.4,1.1
		c0.3,0.3,0.5,0.4,0.9,0.4c0.4,0,0.6-0.1,1-0.4S99.1,124.1,99.3,123.6z"/>
	<path class="st0" d="M104,118.2h2.1l-1.6,8.5h-2.1L104,118.2z M104.6,114.9h2.1l-0.4,2.1h-2.1L104.6,114.9z"/>
	<path class="st0" d="M108.2,118.2h2l-0.3,1.1c0.5-0.5,1-0.9,1.4-1c0.4-0.3,0.9-0.3,1.4-0.3c0.6,0,1.1,0.3,1.5,0.6
		c0.4,0.4,0.6,0.9,0.6,1.6c0,0.3-0.1,0.9-0.3,1.8l-0.9,4.9h-2.1l0.9-4.9c0.1-0.8,0.3-1.1,0.3-1.3c0-0.3-0.1-0.5-0.3-0.8
		c-0.1-0.3-0.4-0.3-0.6-0.3c-0.3,0-0.6,0.1-0.9,0.3c-0.4,0.3-0.8,0.6-1,1c-0.3,0.4-0.4,1.1-0.6,2.3l-0.6,3.5h-2.1L108.2,118.2z"/>
	<path class="st0" d="M115.8,127.2l2.3,0.4c0,0.4,0.1,0.6,0.3,0.8c0.3,0.1,0.5,0.3,0.9,0.3c0.4,0,0.6-0.1,0.9-0.3
		c0.3-0.1,0.4-0.4,0.5-0.6c0.1-0.3,0.3-0.8,0.4-1.6v-0.4c-0.8,0.6-1.5,1-2.3,1c-0.8,0-1.4-0.3-1.9-0.9c-0.5-0.6-0.8-1.5-0.8-2.6
		s0.1-2,0.5-2.9c0.4-0.9,0.9-1.4,1.4-1.9c0.5-0.5,1.1-0.6,1.8-0.6c0.5,0,1,0.1,1.4,0.5c0.4,0.3,0.8,0.8,1,1.3l0.3-1.5h2l-1.3,7.2
		c-0.3,1.4-0.5,2.4-0.6,2.9c-0.3,0.8-0.8,1.3-1.3,1.5c-0.5,0.3-1.3,0.5-2.3,0.5c-1.1,0-1.9-0.1-2.4-0.5c-0.6-0.5-0.9-1.1-0.9-2.1
		L115.8,127.2z M118.3,123.1c0,0.6,0.1,1.1,0.5,1.5c0.3,0.3,0.5,0.5,0.9,0.5c0.4,0,0.6-0.1,1-0.4s0.6-0.6,0.9-1.3
		c0.3-0.5,0.4-1.1,0.4-1.8c0-0.6-0.1-1.1-0.5-1.5c-0.3-0.4-0.6-0.5-1-0.5c-0.3,0-0.6,0.1-0.9,0.4c-0.3,0.3-0.5,0.6-0.8,1.3
		C118.4,122,118.3,122.5,118.3,123.1z"/>
	<path class="st0" d="M134,126.8h-2.3l1.9-9.9h-3.1l0.4-2h8.7l-0.4,2H136L134,126.8z"/>
	<path class="st0" d="M144.8,123.2h-5.3v0.3c0,0.6,0.1,1,0.5,1.4c0.3,0.4,0.6,0.5,1.1,0.5c0.8,0,1.3-0.4,1.6-1.3l1.9,0.4
		c-0.4,0.9-0.9,1.5-1.5,1.9c-0.6,0.4-1.3,0.6-2.1,0.6c-1,0-1.9-0.4-2.5-1.1c-0.6-0.8-1-1.6-1-2.9c0-1.3,0.4-2.5,1.1-3.5
		s1.9-1.5,3.3-1.5c0.9,0,1.6,0.4,2.3,1c0.6,0.6,0.9,1.5,0.9,2.8C145,122.3,144.9,122.8,144.8,123.2z M143,121.8v-0.3
		c0-0.6-0.1-1.1-0.4-1.5c-0.3-0.3-0.6-0.5-1-0.5s-0.9,0.1-1.1,0.5c-0.3,0.4-0.6,0.9-0.8,1.6h3.3V121.8z"/>
	<path class="st0" d="M150.9,123.6l2,0.4c-0.4,1-0.9,1.8-1.5,2.3c-0.6,0.5-1.4,0.8-2.3,0.8c-1,0-1.8-0.4-2.4-1
		c-0.6-0.6-0.9-1.5-0.9-2.8c0-1,0.3-2,0.6-2.8c0.4-0.9,1-1.4,1.6-1.9c0.8-0.4,1.4-0.6,2.3-0.6c0.9,0,1.6,0.3,2.1,0.8s0.9,1.3,1,2.1
		l-2,0.3c-0.1-0.9-0.5-1.4-1.3-1.4c-0.4,0-0.6,0.1-1,0.4s-0.6,0.8-0.9,1.4c-0.3,0.6-0.4,1.4-0.4,2.1c0,0.5,0.1,0.9,0.4,1.1
		c0.3,0.3,0.5,0.4,0.9,0.4s0.6-0.1,1-0.4C150.5,124.5,150.8,124.1,150.9,123.6z"/>
	<path class="st0" d="M156.2,126.8H154l2.3-11.8h2.1l-0.8,4.3c0.5-0.4,1-0.8,1.4-0.9c0.4-0.1,0.9-0.3,1.3-0.3c0.6,0,1.1,0.3,1.5,0.6
		c0.4,0.4,0.6,0.9,0.6,1.6c0,0.4-0.1,0.9-0.3,1.6l-1,5h-2.1l1-5.1c0.1-0.5,0.1-0.9,0.1-1c0-0.3-0.1-0.5-0.3-0.8
		c-0.1-0.1-0.4-0.3-0.6-0.3c-0.4,0-0.8,0.1-1,0.4c-0.4,0.4-0.8,0.8-1,1.4c-0.1,0.3-0.3,1-0.5,2L156.2,126.8z"/>
	<path class="st0" d="M165,118.2h2l-0.3,1.1c0.5-0.5,1-0.9,1.4-1c0.4-0.1,0.9-0.3,1.4-0.3c0.6,0,1.1,0.3,1.5,0.6s0.6,0.9,0.6,1.6
		c0,0.3-0.1,0.9-0.3,1.8l-0.9,4.9h-2.1l0.9-4.9c0.1-0.8,0.3-1.1,0.3-1.3c0-0.3-0.1-0.5-0.3-0.8c-0.1-0.1-0.4-0.3-0.6-0.3
		s-0.6,0.1-0.9,0.3c-0.4,0.3-0.8,0.6-1,1c-0.3,0.4-0.4,1.1-0.6,2.3l-0.6,3.5h-2.1L165,118.2z"/>
	<path class="st0" d="M172.9,123.2c0-1.4,0.4-2.6,1-3.6c0.8-1.1,1.9-1.6,3.4-1.6c1.1,0,2,0.4,2.6,1c0.6,0.6,1,1.6,1,2.9
		c0,1.4-0.4,2.6-1.3,3.6c-0.9,1-1.9,1.5-3.3,1.5c-1.1,0-2-0.4-2.6-1C173.1,125.3,172.9,124.3,172.9,123.2z M178.9,121.6
		c0-0.6-0.1-1-0.5-1.4c-0.3-0.4-0.6-0.5-1.1-0.5c-0.4,0-0.8,0.1-1.1,0.4s-0.6,0.6-0.9,1.3c-0.3,0.6-0.4,1.3-0.4,1.9s0.1,1.1,0.5,1.5
		c0.3,0.4,0.8,0.5,1.1,0.5c0.6,0,1.1-0.3,1.5-0.9C178.7,123.6,178.9,122.7,178.9,121.6z"/>
	<path class="st0" d="M181.8,126.8l2.3-11.8h2.1l-2.3,11.8H181.8z"/>
	<path class="st0" d="M186.3,123.2c0-1.4,0.4-2.6,1-3.6c0.8-1.1,1.9-1.6,3.4-1.6c1.1,0,2,0.4,2.6,1c0.6,0.6,1,1.6,1,2.9
		c0,1.4-0.4,2.6-1.3,3.6c-0.9,1-1.9,1.5-3.3,1.5c-1.1,0-2-0.4-2.6-1C186.6,125.3,186.3,124.3,186.3,123.2z M192.3,121.6
		c0-0.6-0.1-1-0.5-1.4c-0.3-0.4-0.6-0.5-1.1-0.5c-0.4,0-0.8,0.1-1.1,0.4s-0.6,0.6-0.9,1.3c-0.3,0.6-0.4,1.3-0.4,1.9s0.1,1.1,0.5,1.5
		c0.3,0.4,0.8,0.5,1.1,0.5c0.6,0,1.1-0.3,1.5-0.9C192.1,123.6,192.3,122.7,192.3,121.6z"/>
	<path class="st0" d="M195.1,127.2l2.3,0.4c0,0.4,0.1,0.6,0.3,0.8c0.1,0.1,0.5,0.3,0.9,0.3s0.6-0.1,0.9-0.3c0.3-0.1,0.4-0.4,0.5-0.6
		c0.1-0.3,0.3-0.8,0.4-1.6v-0.4c-0.8,0.6-1.5,1-2.3,1c-0.8,0-1.4-0.3-1.9-0.9c-0.5-0.6-0.8-1.5-0.8-2.6s0.1-2,0.5-2.9
		c0.4-0.9,0.9-1.4,1.4-1.9s1.1-0.6,1.8-0.6c0.5,0,1,0.1,1.4,0.5c0.4,0.3,0.8,0.8,1,1.3l0.3-1.5h2l-1.3,7.2c-0.3,1.4-0.5,2.4-0.6,2.9
		c-0.3,0.8-0.8,1.3-1.3,1.5c-0.5,0.3-1.3,0.5-2.3,0.5c-1.1,0-1.9-0.1-2.4-0.5c-0.6-0.5-0.9-1.1-0.9-2.1L195.1,127.2z M197.6,123.1
		c0,0.6,0.1,1.1,0.5,1.5c0.3,0.3,0.5,0.5,0.9,0.5c0.4,0,0.6-0.1,1-0.4c0.4-0.3,0.6-0.6,0.9-1.3c0.3-0.5,0.4-1.1,0.4-1.8
		c0-0.6-0.1-1.1-0.5-1.5c-0.3-0.4-0.6-0.5-1-0.5c-0.3,0-0.6,0.1-0.9,0.4c-0.3,0.3-0.5,0.6-0.8,1.3
		C197.7,122,197.6,122.5,197.6,123.1z"/>
	<path class="st0" d="M205.1,118.2h2.1l0.5,4.3c0.1,1.1,0.3,1.9,0.3,2.3c0.3-0.9,0.6-1.8,1.1-2.8l1.9-3.8h2.3l-4.9,9.4
		c-0.5,0.9-0.8,1.5-1,1.8c-0.3,0.3-0.5,0.5-0.9,0.6c-0.4,0.1-0.6,0.3-1,0.3c-0.5,0-1-0.1-1.5-0.3l0.3-1.8c0.3,0.1,0.5,0.1,0.8,0.1
		c0.6,0,1.1-0.5,1.6-1.6L205.1,118.2z"/>
	<path class="st0" d="M116.5,138l-0.4,1.8h-1.5l-1.3,6.9h-2.1l1.3-6.9h-1.1l0.4-1.8h1.1l0.1-0.9c0.1-0.8,0.4-1.4,0.5-1.6
		c0.1-0.3,0.4-0.5,0.8-0.8s0.8-0.3,1.1-0.3c0.6,0,1.4,0.1,2,0.4l-0.4,1.6c-0.5-0.3-0.9-0.3-1.3-0.3c-0.3,0-0.4,0.1-0.5,0.3
		c-0.1,0.1-0.3,0.4-0.3,0.9l-0.1,0.6H116.5z"/>
	<path class="st0" d="M116.5,143c0-1.4,0.4-2.6,1-3.6c0.8-1.1,1.9-1.6,3.4-1.6c1.1,0,2,0.4,2.6,1c0.6,0.6,1,1.6,1,2.9
		c0,1.4-0.4,2.6-1.3,3.6c-0.9,1-1.9,1.5-3.3,1.5c-1.1,0-2-0.4-2.6-1C116.8,145.2,116.5,144.2,116.5,143z M122.5,141.4
		c0-0.6-0.1-1-0.5-1.4c-0.3-0.4-0.6-0.5-1.1-0.5c-0.4,0-0.8,0.1-1.1,0.4c-0.4,0.3-0.6,0.6-0.9,1.3c-0.3,0.6-0.4,1.3-0.4,1.9
		s0.1,1.1,0.5,1.5s0.8,0.5,1.1,0.5c0.6,0,1.1-0.3,1.5-0.9C122.3,143.4,122.5,142.5,122.5,141.4z"/>
	<path class="st0" d="M126.9,138h2l-0.4,1.6c0.8-1.3,1.5-1.9,2.4-1.9c0.3,0,0.6,0.1,1,0.3l-0.8,1.9c-0.3-0.1-0.4-0.1-0.6-0.1
		c-0.4,0-0.6,0.1-1,0.3c-0.5,0.3-0.8,0.8-1,1.3c-0.3,0.5-0.5,1.4-0.8,2.5l-0.5,2.6h-2.1L126.9,138z"/>
	<path class="st0" d="M143,141.3h-4.1l-1,5.3h-2.3l2.3-11.8h2.3l-0.9,4.5h4.1l0.9-4.5h2.3l-2.3,11.8H142L143,141.3z"/>
	<path class="st0" d="M147.9,138h2.1l-1,5c-0.1,0.6-0.1,1-0.1,1.1c0,0.3,0.1,0.5,0.3,0.6c0.1,0.1,0.4,0.3,0.6,0.3s0.6-0.1,0.9-0.3
		c0.4-0.3,0.8-0.6,0.9-1c0.3-0.4,0.4-1,0.6-1.8l0.9-4.1h2.1l-1.8,8.5h-2l0.3-1.1c-0.9,0.9-1.8,1.4-2.8,1.4c-0.6,0-1.1-0.3-1.5-0.6
		c-0.4-0.4-0.5-0.9-0.5-1.6c0-0.3,0.1-0.9,0.3-1.8L147.9,138z"/>
	<path class="st0" d="M157.2,138h2l-0.3,1c0.8-0.9,1.6-1.3,2.5-1.3c1.1,0,1.9,0.5,2,1.5c0.3-0.5,0.6-0.8,1.3-1.1
		c0.5-0.3,1-0.4,1.5-0.4c0.6,0,1.1,0.1,1.5,0.5c0.4,0.4,0.5,0.9,0.5,1.5c0,0.3-0.1,0.8-0.3,1.5l-1,5.3h-2.1l1-5.3
		c0.1-0.6,0.3-1,0.3-1.1c0-0.3-0.1-0.4-0.3-0.6c-0.1-0.1-0.4-0.3-0.6-0.3c-0.5,0-1,0.3-1.4,0.9c-0.4,0.5-0.6,1.3-0.9,2.4l-0.8,3.9
		h-2.1l1-5.1c0.1-0.6,0.1-1,0.1-1.1c0-0.3-0.1-0.4-0.3-0.6c-0.1-0.3-0.4-0.3-0.6-0.3c-0.3,0-0.6,0.1-1,0.4s-0.6,0.6-0.8,1.1
		c-0.1,0.3-0.3,0.9-0.4,1.6l-0.8,3.9h-1.9L157.2,138z"/>
	<path class="st0" d="M172.1,140.5l-2.1-0.3c0.3-0.8,0.6-1.4,1.3-1.8c0.6-0.4,1.4-0.6,2.4-0.6c1,0,1.6,0.3,2.3,0.6
		c0.5,0.4,0.8,1,0.8,1.6c0,0.3,0,0.5-0.1,0.8c0,0.3-0.3,1-0.5,2.3c-0.3,1-0.4,1.8-0.4,2.1s0.1,0.8,0.3,1.3h-2.1
		c-0.1-0.4-0.1-0.6-0.1-1c-0.3,0.4-0.6,0.6-1,0.9c-0.4,0.3-0.8,0.3-1.1,0.3c-0.6,0-1.1-0.3-1.5-0.6c-0.4-0.5-0.6-1-0.6-1.8
		c0-0.9,0.3-1.5,0.8-2c0.5-0.5,1.3-0.8,2.5-0.9c1-0.1,1.6-0.3,2-0.4c0.1-0.4,0.1-0.6,0.1-0.8c0-0.3-0.1-0.5-0.3-0.6
		c-0.3-0.1-0.5-0.3-0.8-0.3C172.8,139.5,172.4,139.8,172.1,140.5z M174.1,142.7c-0.1,0-0.3,0.1-0.5,0.1c-1,0.1-1.6,0.3-1.9,0.5
		c-0.3,0.3-0.5,0.5-0.5,0.9c0,0.3,0.1,0.5,0.3,0.8c0.1,0.1,0.4,0.3,0.6,0.3c0.3,0,0.5-0.1,0.8-0.3c0.3-0.1,0.5-0.4,0.6-0.6
		c0.1-0.3,0.3-0.8,0.5-1.3L174.1,142.7z"/>
	<path class="st0" d="M179.3,138h2l-0.3,1.1c0.5-0.5,1-0.9,1.4-1c0.4-0.1,0.9-0.3,1.4-0.3c0.6,0,1.1,0.3,1.5,0.6
		c0.4,0.4,0.6,0.9,0.6,1.6c0,0.3-0.1,0.9-0.3,1.8l-0.9,4.9h-2.1l0.9-4.9c0.1-0.8,0.3-1.1,0.3-1.3c0-0.3-0.1-0.5-0.3-0.8
		c-0.1-0.1-0.4-0.3-0.6-0.3s-0.6,0.1-0.9,0.3c-0.4,0.3-0.8,0.6-1,1c-0.3,0.4-0.4,1.1-0.6,2.3l-0.6,3.5h-2.1L179.3,138z"/>
	<path class="st0" d="M188.4,138h2.1l-1.6,8.5h-2.1L188.4,138z M189.1,134.8h2.1l-0.4,2.1h-2.1L189.1,134.8z"/>
	<path class="st0" d="M191.5,139.8l0.4-1.8h1.1l0.3-1.4l2.5-1.6l-0.6,3h1.4l-0.4,1.8h-1.4l-0.8,3.6c-0.1,0.6-0.3,1-0.3,1.1
		c0,0.3,0,0.4,0.1,0.4c0.1,0,0.3,0.1,0.6,0.1c0.1,0,0.4,0,0.8,0l-0.4,1.8c-0.4,0.1-0.8,0.1-1.1,0.1c-0.8,0-1.3-0.1-1.6-0.5
		s-0.5-0.8-0.5-1.4c0-0.3,0.1-0.9,0.3-1.9l0.8-3.4L191.5,139.8L191.5,139.8z"/>
	<path class="st0" d="M196.7,138h2.1l0.5,4.3c0.1,1.1,0.3,1.9,0.3,2.3c0.3-0.9,0.6-1.8,1.1-2.8l1.9-3.8h2.3l-4.9,9.4
		c-0.5,0.9-0.8,1.5-1,1.8c-0.3,0.3-0.5,0.5-0.9,0.6c-0.4,0.1-0.6,0.3-1,0.3c-0.5,0-1-0.1-1.5-0.3l0.3-1.8c0.3,0.1,0.5,0.1,0.8,0.1
		c0.6,0,1.1-0.5,1.6-1.6L196.7,138z"/>
</g>
</svg>
