<?xml version="1.0" encoding="utf-8"?>
<!-- Generator: Adobe Illustrator 21.0.2, SVG Export Plug-In . SVG Version: 6.00 Build 0)  -->
<svg version="1.1" id="Layer_1" xmlns="http://www.w3.org/2000/svg" xmlns:xlink="http://www.w3.org/1999/xlink" x="0px" y="0px"
	 viewBox="0 0 219.3 186.7" style="enable-background:new 0 0 219.3 186.7;" xml:space="preserve">
<style type="text/css">
	.st0{fill-rule:evenodd;clip-rule:evenodd;fill:#2D67AB;}
	.st1{fill-rule:evenodd;clip-rule:evenodd;fill:#FFFFFF;}
	.st2{fill:#2D67AB;}
</style>
<g>
	<polygon class="st0" points="81.7,66.8 91.8,66.8 91.8,103.4 81.7,103.4 81.7,66.8 	"/>
	<polygon class="st0" points="97.1,103.4 97.1,66.8 124.9,66.8 124.9,73.9 107.2,73.9 107.2,81.4 123.5,81.4 123.5,88.5 107.2,88.5 
		107.2,96.3 124.9,96.3 124.9,103.4 97.1,103.4 	"/>
	<polygon class="st0" points="130.6,103.4 130.6,66.8 158.4,66.8 158.4,73.9 140.7,73.9 140.7,81.4 157,81.4 157,88.5 140.7,88.5 
		140.7,96.3 158.4,96.3 158.4,103.4 130.6,103.4 	"/>
	<polygon class="st0" points="164.1,103.4 164.1,66.8 191.9,66.8 191.9,73.9 174.2,73.9 174.2,81.4 190.5,81.4 190.5,88.5 
		174.2,88.5 174.2,96.3 191.9,96.3 191.9,103.4 164.1,103.4 	"/>
	<path class="st0" d="M53.9,63.5c1.5,1.9,3.1,3.9,4.7,5.7l4,4.2c3.6,3.6,7.5,6.8,11.6,9.6l0.1,0c0.5,0.3,0.9,0.9,0.9,1.6
		c0,1.3-1.6,1.6-2.4,2.3c-8,5.8-15.2,13-20.9,21.1l-0.5,0.5c-0.5,0.3-1.1,0.2-1.5,0c-0.6-0.2-0.7-0.9-1.1-1.3
		c-1.3-1.9-2.9-3.8-4.2-5.6c-0.8-0.8-1.5-1.7-2.3-2.6c-4.7-5.1-9.9-9.6-15.4-13.4c-0.4-0.4-0.7-0.9-0.5-1.5c0.2-0.7,1-1.1,1.5-1.5
		c6.8-4.7,13.1-10.8,18.4-17.4l3.3-4.3c0.4-0.3,1-0.6,1.6-0.4c0.2,0.1,0.5,0.3,0.8,0.4L53.9,63.5L53.9,63.5z"/>
	<path class="st1" d="M49.2,67.2c-1.5,1.1-3,2.2-4.5,3.5c-0.1,0.1-0.3,0.2-0.3,0.3c-3.4,3.1-6.8,6.4-9.6,10c-0.8,1-1.6,2-1.9,3.2
		c0,0.6,0.1,1.3,0.4,1.7c2.4,3.5,5.5,6.9,8.6,9.7c2.7,2.4,5.3,5,8.3,6.6c1,0.5,2.1-0.1,3-0.7c4.2-2.9,7.9-6.6,11.4-10.4
		c1.6-2,3.5-3.8,4.4-6.1c0.2-0.9-0.1-1.7-0.6-2.4c-2.7-3.9-6.1-7.6-9.7-11l-0.2-0.1c-1.3-1.3-2.8-2.5-4.2-3.6
		C52.9,67,50.8,66,49.2,67.2L49.2,67.2z"/>
	<path class="st0" d="M49.8,68.2c-5.1,3.5-10.1,8.3-14,13.2c-0.8,1.2-2.2,2.3-1.6,3.9c0.5,1.2,1.5,2,2.2,3c3.9,4.7,8.5,9,13.3,12.5
		c2.1,1.3,3.6-0.8,5.2-1.8c3.4-2.6,6.5-5.9,9.4-9V90c1.2-1.4,2.4-2.8,3.3-4.4c0.4-0.8,0.2-1.8-0.2-2.4c-3.6-5.1-8.2-9.7-13.2-13.7
		C52.9,68.7,51.5,67.1,49.8,68.2L49.8,68.2z"/>
	<path class="st1" d="M50.8,71.4l-0.4,1.4l-2.2,6.4c0.6,0.1,1.3,0,1.8,0.1v0.1l-0.3,7.3l0.1,0.1c0.7,0.1,1.6,0.1,2.3,0v-0.1
		l-0.3-7.1l0-0.2l2,0C52.8,76.7,51.8,74.1,50.8,71.4L50.8,71.4L50.8,71.4z"/>
	<path class="st1" d="M43.2,81.5c-1.3,0.6-3.1,1.6-2.9,3.3c0.3,0.9,1.3,1.5,2.1,1.9c4.5,2,10.4,2,15.1,0.6c1.2-0.4,2.7-1.1,2.9-2.5
		c0-1.2-1.3-1.9-2.2-2.4v-0.1c0.3-0.1,0.7-0.2,1-0.3v0c-1.6-0.3-3.1-0.7-4.6-1.1c0.3,0.7,0.5,1.4,0.8,2.1c0.5-0.1,0.9-0.3,1.4-0.3
		c0.8,0.3,2,0.8,2.1,1.8c0.1,0.9-0.9,1.4-1.6,1.8c-3.5,1.3-7.3,1.4-10.9,0.4c-1-0.3-2.4-0.7-2.6-2c0.7-1.7,2.5-2,4.1-2.4
		c-0.8-0.5-1.6-1-2.3-1.5C44.7,80.8,44,81.2,43.2,81.5L43.2,81.5z"/>
	<path class="st1" d="M49.6,88.8c-0.1,2.6-0.2,5-0.4,7.6c1,0.1,2.2,0.2,3.3,0l-0.3-7.2l-0.1-0.3C51.3,88.8,50.5,88.8,49.6,88.8
		L49.6,88.8z"/>
	<path class="st0" d="M59,104.9v-0.4h0.3c0.1,0,0.4,0,0.4,0.2c0,0.2-0.1,0.2-0.3,0.2H59L59,104.9z M59,105.2h0.2l0.4,0.8H60
		l-0.5-0.8c0.2,0,0.4-0.1,0.4-0.5c0-0.4-0.3-0.6-0.7-0.6h-0.7v1.8H59V105.2L59,105.2z M61,105.1c0-1.1-0.8-1.7-1.7-1.7
		c-0.9,0-1.7,0.6-1.7,1.7s0.8,1.7,1.7,1.7C60.1,106.8,61,106.1,61,105.1L61,105.1z M60.5,105.1c0,0.8-0.6,1.3-1.2,1.3v0
		c-0.7,0-1.2-0.5-1.2-1.3c0-0.8,0.5-1.3,1.2-1.3C59.9,103.8,60.5,104.3,60.5,105.1L60.5,105.1z"/>
</g>
<g>
	<path class="st2" d="M65.7,120.8h-3.4l-1,2.1h-1.8l4.9-9.4h2l1.4,9.4H66L65.7,120.8z M65.5,119.2l-0.5-3.8l-1.9,3.8H65.5z"/>
	<path class="st2" d="M74.4,122.9h-1.6l0.2-0.7c-0.3,0.3-0.6,0.6-0.9,0.7s-0.6,0.2-1,0.2c-0.6,0-1.1-0.2-1.5-0.7
		c-0.4-0.5-0.6-1.2-0.6-2.1c0-1.1,0.3-2.1,0.9-3c0.6-0.9,1.3-1.3,2.2-1.3c0.8,0,1.4,0.4,1.9,1.1l0.7-3.5h1.7L74.4,122.9z
		 M70.6,120.1c0,0.5,0.1,0.9,0.3,1.2c0.2,0.3,0.5,0.4,0.8,0.4c0.3,0,0.5-0.1,0.8-0.3s0.5-0.5,0.6-1c0.2-0.5,0.3-1,0.3-1.5
		c0-0.5-0.1-0.9-0.4-1.2c-0.2-0.3-0.5-0.5-0.8-0.5c-0.2,0-0.5,0.1-0.7,0.3c-0.2,0.2-0.5,0.5-0.6,1C70.7,119,70.6,119.5,70.6,120.1z"
		/>
	<path class="st2" d="M79.3,122.9h-1.5l-1.3-6.8h1.7l0.4,3c0.1,0.8,0.2,1.3,0.2,1.6l0.4-0.8l0.5-0.9l1.6-2.9h1.8L79.3,122.9z"/>
	<path class="st2" d="M85.2,118l-1.7-0.2c0.2-0.6,0.5-1.1,1-1.4c0.5-0.3,1.1-0.5,1.9-0.5c0.8,0,1.3,0.2,1.8,0.5s0.6,0.8,0.6,1.3
		c0,0.2,0,0.4-0.1,0.6s-0.2,0.8-0.4,1.8c-0.2,0.8-0.3,1.4-0.3,1.7c0,0.3,0.1,0.6,0.2,1h-1.7c-0.1-0.3-0.1-0.5-0.1-0.8
		c-0.2,0.3-0.5,0.5-0.8,0.7s-0.6,0.2-0.9,0.2c-0.5,0-0.9-0.2-1.2-0.5c-0.3-0.4-0.5-0.8-0.5-1.4c0-0.7,0.2-1.2,0.6-1.6
		c0.4-0.4,1-0.6,2-0.7c0.8-0.1,1.3-0.2,1.6-0.3c0.1-0.3,0.1-0.5,0.1-0.6c0-0.2-0.1-0.4-0.2-0.5c-0.2-0.1-0.4-0.2-0.6-0.2
		C85.7,117.2,85.4,117.4,85.2,118z M86.8,119.7c-0.1,0-0.2,0.1-0.4,0.1c-0.8,0.1-1.3,0.2-1.5,0.4c-0.2,0.2-0.4,0.4-0.4,0.7
		c0,0.2,0.1,0.4,0.2,0.6c0.1,0.1,0.3,0.2,0.5,0.2c0.2,0,0.4-0.1,0.6-0.2c0.2-0.1,0.4-0.3,0.5-0.5c0.1-0.2,0.2-0.6,0.4-1L86.8,119.7z
		"/>
	<path class="st2" d="M90.9,116h1.6l-0.2,0.9c0.4-0.4,0.8-0.7,1.1-0.8s0.7-0.2,1.1-0.2c0.5,0,0.9,0.2,1.2,0.5
		c0.3,0.3,0.5,0.7,0.5,1.3c0,0.2-0.1,0.7-0.2,1.4l-0.7,3.9h-1.7l0.7-3.9c0.1-0.6,0.2-0.9,0.2-1c0-0.2-0.1-0.4-0.2-0.6
		c-0.1-0.1-0.3-0.2-0.5-0.2c-0.2,0-0.5,0.1-0.7,0.2c-0.3,0.2-0.6,0.5-0.8,0.8s-0.3,0.9-0.5,1.8l-0.5,2.8h-1.7L90.9,116z"/>
	<path class="st2" d="M101.2,120.3l1.6,0.3c-0.3,0.8-0.7,1.4-1.2,1.8c-0.5,0.4-1.1,0.6-1.8,0.6c-0.8,0-1.4-0.3-1.9-0.8
		c-0.5-0.5-0.7-1.2-0.7-2.2c0-0.8,0.2-1.6,0.5-2.2c0.3-0.7,0.8-1.1,1.3-1.5s1.1-0.5,1.8-0.5c0.7,0,1.3,0.2,1.7,0.6s0.7,1,0.8,1.7
		l-1.6,0.2c-0.1-0.7-0.4-1.1-1-1.1c-0.3,0-0.5,0.1-0.8,0.3c-0.3,0.2-0.5,0.6-0.7,1.1c-0.2,0.5-0.3,1.1-0.3,1.7
		c0,0.4,0.1,0.7,0.3,0.9s0.4,0.3,0.7,0.3c0.3,0,0.5-0.1,0.8-0.3S101,120.7,101.2,120.3z"/>
	<path class="st2" d="M104.9,116h1.7l-1.3,6.8h-1.7L104.9,116z M105.4,113.4h1.7l-0.3,1.7h-1.7L105.4,113.4z"/>
	<path class="st2" d="M108.3,116h1.6l-0.2,0.9c0.4-0.4,0.8-0.7,1.1-0.8c0.3-0.2,0.7-0.2,1.1-0.2c0.5,0,0.9,0.2,1.2,0.5
		c0.3,0.3,0.5,0.7,0.5,1.3c0,0.2-0.1,0.7-0.2,1.4l-0.7,3.9H111l0.7-3.9c0.1-0.6,0.2-0.9,0.2-1c0-0.2-0.1-0.4-0.2-0.6
		s-0.3-0.2-0.5-0.2c-0.2,0-0.5,0.1-0.7,0.2c-0.3,0.2-0.6,0.5-0.8,0.8s-0.3,0.9-0.5,1.8l-0.5,2.8H107L108.3,116z"/>
	<path class="st2" d="M114.3,123.2l1.8,0.3c0,0.3,0.1,0.5,0.2,0.6c0.2,0.1,0.4,0.2,0.7,0.2c0.3,0,0.5-0.1,0.7-0.2
		c0.2-0.1,0.3-0.3,0.4-0.5c0.1-0.2,0.2-0.6,0.3-1.3l0-0.3c-0.6,0.5-1.2,0.8-1.8,0.8c-0.6,0-1.1-0.2-1.5-0.7s-0.6-1.2-0.6-2.1
		c0-0.9,0.1-1.6,0.4-2.3c0.3-0.7,0.7-1.1,1.1-1.5s0.9-0.5,1.4-0.5c0.4,0,0.8,0.1,1.1,0.4c0.3,0.2,0.6,0.6,0.8,1l0.2-1.2h1.6l-1,5.7
		c-0.2,1.1-0.4,1.9-0.5,2.3c-0.2,0.6-0.6,1-1,1.2s-1,0.4-1.8,0.4c-0.9,0-1.5-0.1-1.9-0.4c-0.5-0.4-0.7-0.9-0.7-1.7L114.3,123.2z
		 M116.3,119.9c0,0.5,0.1,0.9,0.4,1.2c0.2,0.2,0.4,0.4,0.7,0.4c0.3,0,0.5-0.1,0.8-0.3c0.3-0.2,0.5-0.5,0.7-1
		c0.2-0.4,0.3-0.9,0.3-1.4c0-0.5-0.1-0.9-0.4-1.2c-0.2-0.3-0.5-0.4-0.8-0.4c-0.2,0-0.5,0.1-0.7,0.3c-0.2,0.2-0.4,0.5-0.6,1
		C116.4,119,116.3,119.4,116.3,119.9z"/>
	<path class="st2" d="M128.8,122.9h-1.8l1.5-7.9H126l0.3-1.6h6.9l-0.3,1.6h-2.5L128.8,122.9z"/>
	<path class="st2" d="M137.4,120h-4.2v0.2c0,0.5,0.1,0.8,0.4,1.1c0.2,0.3,0.5,0.4,0.9,0.4c0.6,0,1-0.3,1.3-1l1.5,0.3
		c-0.3,0.7-0.7,1.2-1.2,1.5s-1,0.5-1.7,0.5c-0.8,0-1.5-0.3-2-0.9c-0.5-0.6-0.8-1.3-0.8-2.3c0-1,0.3-2,0.9-2.8s1.5-1.2,2.6-1.2
		c0.7,0,1.3,0.3,1.8,0.8c0.5,0.5,0.7,1.2,0.7,2.2C137.6,119.3,137.5,119.7,137.4,120z M136,118.9l0-0.2c0-0.5-0.1-0.9-0.3-1.2
		c-0.2-0.2-0.5-0.4-0.8-0.4c-0.3,0-0.7,0.1-0.9,0.4s-0.5,0.7-0.6,1.3H136z"/>
	<path class="st2" d="M142.3,120.3l1.6,0.3c-0.3,0.8-0.7,1.4-1.2,1.8s-1.1,0.6-1.8,0.6c-0.8,0-1.4-0.3-1.9-0.8
		c-0.5-0.5-0.7-1.2-0.7-2.2c0-0.8,0.2-1.6,0.5-2.2c0.3-0.7,0.8-1.1,1.3-1.5c0.6-0.3,1.1-0.5,1.8-0.5c0.7,0,1.3,0.2,1.7,0.6
		s0.7,1,0.8,1.7l-1.6,0.2c-0.1-0.7-0.4-1.1-1-1.1c-0.3,0-0.5,0.1-0.8,0.3c-0.3,0.2-0.5,0.6-0.7,1.1c-0.2,0.5-0.3,1.1-0.3,1.7
		c0,0.4,0.1,0.7,0.3,0.9c0.2,0.2,0.4,0.3,0.7,0.3c0.3,0,0.5-0.1,0.8-0.3C142,121,142.2,120.7,142.3,120.3z"/>
	<path class="st2" d="M146.5,122.9h-1.7l1.8-9.4h1.7l-0.6,3.4c0.4-0.3,0.8-0.6,1.1-0.7c0.3-0.1,0.7-0.2,1-0.2c0.5,0,0.9,0.2,1.2,0.5
		c0.3,0.3,0.5,0.7,0.5,1.3c0,0.3-0.1,0.7-0.2,1.3l-0.8,4h-1.7l0.8-4.1c0.1-0.4,0.1-0.7,0.1-0.8c0-0.2-0.1-0.4-0.2-0.6
		c-0.1-0.1-0.3-0.2-0.5-0.2c-0.3,0-0.6,0.1-0.8,0.3c-0.3,0.3-0.6,0.6-0.8,1.1c-0.1,0.2-0.2,0.8-0.4,1.6L146.5,122.9z"/>
	<path class="st2" d="M153.5,116h1.6l-0.2,0.9c0.4-0.4,0.8-0.7,1.1-0.8s0.7-0.2,1.1-0.2c0.5,0,0.9,0.2,1.2,0.5
		c0.3,0.3,0.5,0.7,0.5,1.3c0,0.2-0.1,0.7-0.2,1.4l-0.7,3.9h-1.7l0.7-3.9c0.1-0.6,0.2-0.9,0.2-1c0-0.2-0.1-0.4-0.2-0.6
		c-0.1-0.1-0.3-0.2-0.5-0.2c-0.2,0-0.5,0.1-0.7,0.2c-0.3,0.2-0.6,0.5-0.8,0.8s-0.3,0.9-0.5,1.8l-0.5,2.8h-1.7L153.5,116z"/>
	<path class="st2" d="M159.8,120c0-1.1,0.3-2.1,0.8-2.9c0.6-0.9,1.5-1.3,2.7-1.3c0.9,0,1.6,0.3,2.1,0.8c0.5,0.5,0.8,1.3,0.8,2.3
		c0,1.1-0.3,2.1-1,2.9s-1.5,1.2-2.6,1.2c-0.9,0-1.6-0.3-2.1-0.8S159.8,120.9,159.8,120z M164.6,118.7c0-0.5-0.1-0.8-0.4-1.1
		c-0.2-0.3-0.5-0.4-0.9-0.4c-0.3,0-0.6,0.1-0.9,0.3s-0.5,0.5-0.7,1c-0.2,0.5-0.3,1-0.3,1.5c0,0.5,0.1,0.9,0.4,1.2
		c0.2,0.3,0.6,0.4,0.9,0.4c0.5,0,0.9-0.2,1.2-0.7C164.4,120.3,164.6,119.6,164.6,118.7z"/>
	<path class="st2" d="M166.9,122.9l1.8-9.4h1.7l-1.8,9.4H166.9z"/>
	<path class="st2" d="M170.5,120c0-1.1,0.3-2.1,0.8-2.9c0.6-0.9,1.5-1.3,2.7-1.3c0.9,0,1.6,0.3,2.1,0.8c0.5,0.5,0.8,1.3,0.8,2.3
		c0,1.1-0.3,2.1-1,2.9s-1.5,1.2-2.6,1.2c-0.9,0-1.6-0.3-2.1-0.8S170.5,120.9,170.5,120z M175.3,118.7c0-0.5-0.1-0.8-0.4-1.1
		c-0.2-0.3-0.5-0.4-0.9-0.4c-0.3,0-0.6,0.1-0.9,0.3s-0.5,0.5-0.7,1c-0.2,0.5-0.3,1-0.3,1.5c0,0.5,0.1,0.9,0.4,1.2
		c0.2,0.3,0.6,0.4,0.9,0.4c0.5,0,0.9-0.2,1.2-0.7C175.1,120.3,175.3,119.6,175.3,118.7z"/>
	<path class="st2" d="M177.5,123.2l1.8,0.3c0,0.3,0.1,0.5,0.2,0.6s0.4,0.2,0.7,0.2c0.3,0,0.5-0.1,0.7-0.2c0.2-0.1,0.3-0.3,0.4-0.5
		c0.1-0.2,0.2-0.6,0.3-1.3l0-0.3c-0.6,0.5-1.2,0.8-1.8,0.8c-0.6,0-1.1-0.2-1.5-0.7s-0.6-1.2-0.6-2.1c0-0.9,0.1-1.6,0.4-2.3
		c0.3-0.7,0.7-1.1,1.1-1.5s0.9-0.5,1.4-0.5c0.4,0,0.8,0.1,1.1,0.4c0.3,0.2,0.6,0.6,0.8,1l0.2-1.2h1.6l-1,5.7
		c-0.2,1.1-0.4,1.9-0.5,2.3c-0.2,0.6-0.6,1-1,1.2s-1,0.4-1.8,0.4c-0.9,0-1.5-0.1-1.9-0.4c-0.5-0.4-0.7-0.9-0.7-1.7L177.5,123.2z
		 M179.5,119.9c0,0.5,0.1,0.9,0.4,1.2c0.2,0.2,0.4,0.4,0.7,0.4c0.3,0,0.5-0.1,0.8-0.3c0.3-0.2,0.5-0.5,0.7-1
		c0.2-0.4,0.3-0.9,0.3-1.4c0-0.5-0.1-0.9-0.4-1.2c-0.2-0.3-0.5-0.4-0.8-0.4c-0.2,0-0.5,0.1-0.7,0.3c-0.2,0.2-0.4,0.5-0.6,1
		C179.6,119,179.5,119.4,179.5,119.9z"/>
	<path class="st2" d="M185.5,116h1.7l0.4,3.4c0.1,0.9,0.2,1.5,0.2,1.8c0.2-0.7,0.5-1.4,0.9-2.2l1.5-3h1.8l-3.9,7.5
		c-0.4,0.7-0.6,1.2-0.8,1.4c-0.2,0.2-0.4,0.4-0.7,0.5s-0.5,0.2-0.8,0.2c-0.4,0-0.8-0.1-1.2-0.2l0.2-1.4c0.2,0.1,0.4,0.1,0.6,0.1
		c0.5,0,0.9-0.4,1.3-1.3L185.5,116z"/>
	<path class="st2" d="M114.9,131.8l-0.3,1.4h-1.2l-1,5.5h-1.7l1-5.5h-0.9l0.3-1.4h0.9l0.1-0.7c0.1-0.6,0.3-1.1,0.4-1.3
		c0.1-0.2,0.3-0.4,0.6-0.6s0.6-0.2,0.9-0.2c0.5,0,1.1,0.1,1.6,0.3l-0.3,1.3c-0.4-0.2-0.7-0.2-1-0.2c-0.2,0-0.3,0.1-0.4,0.2
		c-0.1,0.1-0.2,0.3-0.2,0.7l-0.1,0.5H114.9z"/>
	<path class="st2" d="M114.9,135.8c0-1.1,0.3-2.1,0.8-2.9c0.6-0.9,1.5-1.3,2.7-1.3c0.9,0,1.6,0.3,2.1,0.8c0.5,0.5,0.8,1.3,0.8,2.3
		c0,1.1-0.3,2.1-1,2.9c-0.7,0.8-1.5,1.2-2.6,1.2c-0.9,0-1.6-0.3-2.1-0.8S114.9,136.7,114.9,135.8z M119.7,134.5
		c0-0.5-0.1-0.8-0.4-1.1c-0.2-0.3-0.5-0.4-0.9-0.4c-0.3,0-0.6,0.1-0.9,0.3c-0.3,0.2-0.5,0.5-0.7,1c-0.2,0.5-0.3,1-0.3,1.5
		c0,0.5,0.1,0.9,0.4,1.2s0.6,0.4,0.9,0.4c0.5,0,0.9-0.2,1.2-0.7C119.5,136.1,119.7,135.4,119.7,134.5z"/>
	<path class="st2" d="M123.2,131.8h1.6l-0.3,1.3c0.6-1,1.2-1.5,1.9-1.5c0.2,0,0.5,0.1,0.8,0.2l-0.6,1.5c-0.2-0.1-0.3-0.1-0.5-0.1
		c-0.3,0-0.5,0.1-0.8,0.2c-0.4,0.2-0.6,0.6-0.8,1c-0.2,0.4-0.4,1.1-0.6,2l-0.4,2.1h-1.7L123.2,131.8z"/>
	<path class="st2" d="M136,134.4h-3.3l-0.8,4.2h-1.8l1.8-9.4h1.8l-0.7,3.6h3.3l0.7-3.6h1.8l-1.8,9.4h-1.8L136,134.4z"/>
	<path class="st2" d="M139.9,131.8h1.7l-0.8,4c-0.1,0.5-0.1,0.8-0.1,0.9c0,0.2,0.1,0.4,0.2,0.5c0.1,0.1,0.3,0.2,0.5,0.2
		c0.2,0,0.5-0.1,0.7-0.2c0.3-0.2,0.6-0.5,0.7-0.8c0.2-0.3,0.3-0.8,0.5-1.4l0.7-3.3h1.7l-1.4,6.8h-1.6l0.2-0.9
		c-0.7,0.7-1.4,1.1-2.2,1.1c-0.5,0-0.9-0.2-1.2-0.5c-0.3-0.3-0.4-0.7-0.4-1.3c0-0.2,0.1-0.7,0.2-1.4L139.9,131.8z"/>
	<path class="st2" d="M147.3,131.8h1.6l-0.2,0.8c0.6-0.7,1.3-1,2-1c0.9,0,1.5,0.4,1.6,1.2c0.2-0.4,0.5-0.6,1-0.9
		c0.4-0.2,0.8-0.3,1.2-0.3c0.5,0,0.9,0.1,1.2,0.4s0.4,0.7,0.4,1.2c0,0.2-0.1,0.6-0.2,1.2l-0.8,4.2h-1.7l0.8-4.2
		c0.1-0.5,0.2-0.8,0.2-0.9c0-0.2-0.1-0.3-0.2-0.5c-0.1-0.1-0.3-0.2-0.5-0.2c-0.4,0-0.8,0.2-1.1,0.7c-0.3,0.4-0.5,1-0.7,1.9l-0.6,3.1
		h-1.7l0.8-4.1c0.1-0.5,0.1-0.8,0.1-0.9c0-0.2-0.1-0.3-0.2-0.5s-0.3-0.2-0.5-0.2c-0.2,0-0.5,0.1-0.8,0.3s-0.5,0.5-0.6,0.9
		c-0.1,0.2-0.2,0.7-0.3,1.3l-0.6,3.1H146L147.3,131.8z"/>
	<path class="st2" d="M159.2,133.8l-1.7-0.2c0.2-0.6,0.5-1.1,1-1.4c0.5-0.3,1.1-0.5,1.9-0.5c0.8,0,1.3,0.2,1.8,0.5
		c0.4,0.3,0.6,0.8,0.6,1.3c0,0.2,0,0.4-0.1,0.6c0,0.2-0.2,0.8-0.4,1.8c-0.2,0.8-0.3,1.4-0.3,1.7c0,0.3,0.1,0.6,0.2,1h-1.7
		c-0.1-0.3-0.1-0.5-0.1-0.8c-0.2,0.3-0.5,0.5-0.8,0.7s-0.6,0.2-0.9,0.2c-0.5,0-0.9-0.2-1.2-0.5c-0.3-0.4-0.5-0.8-0.5-1.4
		c0-0.7,0.2-1.2,0.6-1.6c0.4-0.4,1-0.6,2-0.7c0.8-0.1,1.3-0.2,1.6-0.3c0.1-0.3,0.1-0.5,0.1-0.6c0-0.2-0.1-0.4-0.2-0.5
		c-0.2-0.1-0.4-0.2-0.6-0.2C159.7,133,159.4,133.2,159.2,133.8z M160.8,135.5c-0.1,0-0.2,0.1-0.4,0.1c-0.8,0.1-1.3,0.2-1.5,0.4
		c-0.2,0.2-0.4,0.4-0.4,0.7c0,0.2,0.1,0.4,0.2,0.6c0.1,0.1,0.3,0.2,0.5,0.2c0.2,0,0.4-0.1,0.6-0.2c0.2-0.1,0.4-0.3,0.5-0.5
		s0.2-0.6,0.4-1L160.8,135.5z"/>
	<path class="st2" d="M164.9,131.8h1.6l-0.2,0.9c0.4-0.4,0.8-0.7,1.1-0.8s0.7-0.2,1.1-0.2c0.5,0,0.9,0.2,1.2,0.5
		c0.3,0.3,0.5,0.7,0.5,1.3c0,0.2-0.1,0.7-0.2,1.4l-0.7,3.9h-1.7l0.7-3.9c0.1-0.6,0.2-0.9,0.2-1c0-0.2-0.1-0.4-0.2-0.6
		c-0.1-0.1-0.3-0.2-0.5-0.2c-0.2,0-0.5,0.1-0.7,0.2c-0.3,0.2-0.6,0.5-0.8,0.8s-0.3,0.9-0.5,1.8l-0.5,2.8h-1.7L164.9,131.8z"/>
	<path class="st2" d="M172.2,131.8h1.7l-1.3,6.8h-1.7L172.2,131.8z M172.7,129.2h1.7l-0.3,1.7h-1.7L172.7,129.2z"/>
	<path class="st2" d="M174.6,133.2l0.3-1.4h0.9l0.2-1.1l2-1.3l-0.5,2.4h1.1l-0.3,1.4h-1.1l-0.6,2.9c-0.1,0.5-0.2,0.8-0.2,0.9
		c0,0.2,0,0.3,0.1,0.3s0.2,0.1,0.5,0.1c0.1,0,0.3,0,0.6,0l-0.3,1.4c-0.3,0.1-0.6,0.1-0.9,0.1c-0.6,0-1-0.1-1.3-0.4s-0.4-0.6-0.4-1.1
		c0-0.2,0.1-0.7,0.2-1.5l0.6-2.7H174.6z"/>
	<path class="st2" d="M178.8,131.8h1.7l0.4,3.4c0.1,0.9,0.2,1.5,0.2,1.8c0.2-0.7,0.5-1.4,0.9-2.2l1.5-3h1.8l-3.9,7.5
		c-0.4,0.7-0.6,1.2-0.8,1.4c-0.2,0.2-0.4,0.4-0.7,0.5s-0.5,0.2-0.8,0.2c-0.4,0-0.8-0.1-1.2-0.2l0.2-1.4c0.2,0.1,0.4,0.1,0.6,0.1
		c0.5,0,0.9-0.4,1.3-1.3L178.8,131.8z"/>
</g>
</svg>
