<?xml version="1.0" encoding="utf-8"?>
<!-- Generator: Adobe Illustrator 21.0.2, SVG Export Plug-In . SVG Version: 6.00 Build 0)  -->
<svg version="1.1" id="Layer_1" xmlns="http://www.w3.org/2000/svg" xmlns:xlink="http://www.w3.org/1999/xlink" x="0px" y="0px"
	 viewBox="0 0 219.3 186.7" style="enable-background:new 0 0 219.3 186.7;" xml:space="preserve">
<style type="text/css">
	.st0{fill-rule:evenodd;clip-rule:evenodd;fill:#5C2545;}
</style>
<g>
	<path class="st0" d="M141.3,158.9c0.3,0.3,0.4,0.6,0.4,1c0,1.7-3.5,3.1-7.7,3.1c-4.3,0-7.7-1.4-7.7-3.1c0-2.7,6.8-3.3,8.5-3.1
		c1.9,0.2,3.5,0.5,5.3,1.3v-1.4c-0.8-0.3-1.9-0.5-2.8-0.7c-3.7-0.4-8.8-0.4-12.1,2c-0.1,0.1-0.2,0.1-0.4,0.2c-1.7,1.3-1.5,2.4-1,3.4
		c0.4,0.8,2,1.7,2.8,2.1v0c0,0,0.1,0,0.1,0c0.2,0.1,0.4,0.2,0.4,0.2v0c3.4,1.5,6.6,1.3,10.1,1c4.1-0.6,7.1-2.4,7.1-4.5
		c0-1.6-1.8-2.8-3-3.4C141.3,157.6,141.3,158.3,141.3,158.9L141.3,158.9L141.3,158.9z M90.1,98.1v4.5c0.6-0.1,1.2-0.1,1.9-0.1
		c0.6,0,1.1,0,1.7,0.1l0.1-4.7L90.1,98.1L90.1,98.1L90.1,98.1z M89.4,101.8v-3.7c-0.7,0.4-4.5,2.7-4.5,5.3c-0.5,3.7,3.7,6.3,4.7,6.6
		c4.2,0.9,18.7,5.1,19.5,10.5c1,9.3-9.9,14.5-17.3,14.6l-0.6,5.3c0,0,2.4,4.2,10.1,6.5c4.8,0.9,7.6,0.6,9.4,0.1
		c1.9-0.7,4.7-2.2,5.9-3.9c0.2-0.7,0.4-1.4,0.5-1.9c-0.1-4.1-3.4-11-6.4-16.8c0.6-2.8,0.4-5.7-0.4-7.4c-1.1-1.9-1.5-2.7-4.9-4.9
		c-5-3.1-14.4-5-16.4-6.9C88.3,104.2,88.4,102.2,89.4,101.8L89.4,101.8L89.4,101.8z M117.2,78.8c0.8,0.8,1.5,1.6,2.1,2.4
		c4.9,1.2,9.2,2.6,13,3.7c-0.1-8.5-1.6-17.1-5.9-25.3L117.2,78.8L117.2,78.8L117.2,78.8z M116.2,144.2c-1.3,1.5-3.7,2.6-5.5,3.2l0,0
		c-11.9,2.7-19.8-6-20-6.9c-0.2-0.9,0.4-4.7,0.6-5.4c-0.4,0-0.8,0-1.2,0c0,0.5-0.6,5.1-0.6,5.6c1.9,2.8,2.6,3.6,6.8,5.9
		c4,1.8,9.9,2.8,14.6,1.5c0,0,0.7-0.3,0.1,0c2.2-0.8,3-1.4,3.7-2C115.3,145.6,116.3,144.3,116.2,144.2L116.2,144.2L116.2,144.2z
		 M137,155.4c0.9,0.1,1.8,0.3,2.6,0.5l0.4-0.2v0h0v-8.8h0v0h-6.5L137,155.4L137,155.4L137,155.4z M142.3,157
		c0.7,0.4,1.4,0.9,1.8,1.4l1.3-1.4H142.3L142.3,157L142.3,157z M145,159.6c0.2,0.4,0.3,0.8,0.3,1.2c0,2.8-4.3,5.2-9.8,5.6l-4.3,2.9
		h-7.1l0.3,3.1l-1.7,2.6l-13.3,0l-0.7-1.2l-13.4-0.1l-0.8-2.4l-7.2-0.2l-4.4-2l-0.2-2.6l0.4-2.9l-8.9,0l-1.9-3l-0.6-0.7v-3l1.5-3.6
		l-5.4-0.2c-1.2,1.4-3.7,2.5-8.6,2.5c-8.3-0.2-9.7-3.9-8.7-6.4c0.7-1.3,3.3-1.7,3.9-1.9v-45.5l5.1-5.8l1,0.3l5.1,5.8v36.8l1.4,0
		c-0.8-1.5-1.5-3.1-2.2-4.7l-4.2,3.8l-0.1,0l0.4,0.8l3.3,0v-36l-4.7-5.4l-4.2,4.5v45.2c2.6-0.3,5.1-0.2,7.7,0.1l-0.5-2.4l4.8-4.6
		l-1.9-0.1c0,0,0,6.7,0,7.4c-0.4-0.1-0.9-0.1-1.3-0.2v-7.3l-6.4-0.2l-0.3-0.8l0,0l-0.2-0.4l-1.3-3.1l0.1,0l-0.3-0.7l0.9-2.7l5.2-5.7
		c-0.1-0.3-0.2-0.6-0.3-0.9l-8.8-0.5l-0.6-1l-0.2,0l-0.8-3.8l1.5-2.1l6.1-5.5c-0.2-1.2-0.3-2.4-0.4-3.6l-5.3-2.8l-0.1,0l-2.4-0.8
		v-3.5l2.2-1.5l2.2-0.9l3-3.4c0-0.4,0-1,0.1-1.4l-6.8,0.6c0,0,2.2-1.6,5.7-3.8l-4.2-2.1L51,88.2l0.5-4.3l2.6-0.5l5.3-0.1
		c0.3-1.4,0.6-2.8,0.9-4.1v10.6c0.4-0.2,0.8-0.5,1.2-0.7v-6.7l4.3-0.6v4.9c0.4-0.2,0.8-0.4,1.3-0.7v-4.4l3.8-0.5v3
		c0.4-0.2,0.8-0.4,1.3-0.6v-2.5l5-0.6v1c0.4-0.2,0.8-0.3,1.3-0.5v-0.7l3.4-0.5c2.6-0.8,5.1-1.4,7.6-1.8v-4.7
		c-0.6-0.1-1.5-0.3-1.6-0.9c-0.4-1.2-0.3-2.1,0.6-3c-0.2-0.6-1-1.1-1.8-1.4v-5l4.7-0.9l1.5,3.8l1.6,0l-1.5-4.1l1.2-0.2l5.4,14
		c2.1,0.2,4.2,0.1,6.2,0.6l0.7-1.1c-1.8-0.2-3.6-0.5-5.5-0.3l-5.2-13.5l1.4-0.3l1,2.7L113,61l1.7-3.6l4.5-1l-10.2,22.7
		c0.6,0.1,1.2,0.2,1.9,0.3L121.2,56l2.1-0.4c0.6,1.5,0.4,2.6-0.5,4.4L113.5,80c0.5,0.1,1.1,0.2,1.6,0.3l9.7-20.8
		c0.8-1.5,0.7-2.9-0.1-4.3l19-3.8l5.3,2.6l7.9-1.7l-8.2-4.1L86.7,61.3v-4.7l2-0.5v-3.2l-3.9-1.1v-1.4l3.9,1.2V38.5l-3.9-1.7v-1.4
		l3.9,1.8V26.7l0.8-0.4v-1l-4.7-2.1v-1.4l4.7,2.1V13.3l-4.8-2.5v10.9l-6.3,2V11.4l6.3-2.6l16.5,8.8V28l1.1,0.5v-7l11.9-3.4l10.2,5.3
		v15.3c-0.2,3.6-4.2,5-8.9,6.2v5.2l9.5-2.1V14.3l7.2-2.3l6.9,3.5V9.7l6.7-2.1v0.2l8.6,3.9v33.9l4.7,2.6v5.5l-10,1.9l11.5,5.6
		l-0.1,4.4l-0.7,1.7l-6.1,5.2l-0.1,0.5l0.8-0.1l8.9,3.6v6.7l-8.3,3.1v4.2l8.5,2.9v6.6l-8.2,1.3l0,4.8l7.4,4.8l-0.2,6.4l-8.3-0.4
		l-1.2,3.8l6.4,6.5l-0.1,5.3l-1.1,0.9l-8.6-0.6l0,1.8l5.9,8v1.7l-2.1,4.4h-9.5l3.2,7.9v1.3L145,159.6L145,159.6L145,159.6z
		 M132.8,166.4c-2.3-0.1-4.4-0.6-6-1.3l0.1,1.2l-2.7,1.5h6.5L132.8,166.4L132.8,166.4L132.8,166.4z M124.4,157.8
		c0.7-0.5,1.5-1,2.5-1.3v-57l1.5-2.4h0l1.2-1.9h0l3.5-5.7l2-0.3l6.3,9.1v30.2h0v0l7,4.1h0.1v1.2h-7.2v0h0V145h-1.4V98.9l-5.7-8.4
		l-2.9,4.4l0,0l-1.6,2.4l0,0l-1.3,2.1l-0.3,51.7v1.8v1.1l-1.3,0.5c-0.6,1.3-1.9,1.1-2.9,2.4L124.4,157.8L124.4,157.8L124.4,157.8z
		 M135.2,159.1h-7.4c0.7-1,3.1-1.8,6-1.8c3.4,0,6.1,1,6.1,2.4c0,1.3-2.8,2.3-6.1,2.3c-3.2,0-5.9-1-6.1-2.2h7.6V159.1L135.2,159.1
		L135.2,159.1z M141.3,155.7L141.3,155.7l0-8.8h0v0h0.5l0,0l0.3,0.3l3.2,8.5H141.3L141.3,155.7L141.3,155.7L141.3,155.7z
		 M139.9,145.5v-0.4l-4.2-4c-0.9,1.5-1.8,3-2.7,4.4H139.9L139.9,145.5L139.9,145.5z M130.9,96.9l1.2-1.9l0.9-0.1
		c0.1,0.4,0.1,1.2,0.1,1.8L130.9,96.9L130.9,96.9L130.9,96.9z M128.6,95.2l-1.3,1.9l-16.2,1c-0.3,1.9-0.9,4.1-1.6,5.5l13.9,34.2
		c0,0,0,0.1,0,0.1c-0.1,0.2-0.3,0.4-0.4,0.6c-0.4,0.2-1,0.3-1.1-0.1l-13.5-32.9c-0.6,0.9-1.5,2.7-2.5,3.2c-0.3-0.4-1.3-1.7-1.7-2
		c3.2-3.9,5.1-10.6,3.6-16.1l3-0.2c0.4,2,0.7,3.6,0.4,5.8L128.6,95.2L128.6,95.2L128.6,95.2z M59.7,148.4c-1.6,0-6.2-0.1-6.7,1.3
		c-0.5,1.4,1.9,2.9,6.3,2.8c1.8,0,5.1-0.1,6.1-1.9c0.5-1.1-1.4-1.7-2.2-1.9l0,0C62,148.5,60.5,148.4,59.7,148.4L59.7,148.4
		L59.7,148.4z M66.3,153.1L66.3,153.1c-0.1,0.1-0.3,0.2-0.5,0.3c-0.7,0.4-1.4,0.6-1.4,0.6l0,0c-1.4,0.4-3.1,0.6-5.3,0.6
		c-6.4,0-8.7-3.4-7.6-5.2c1-1.8,6.5-1.7,8.8-1.7c0.7,0,1.8,0.1,2.9,0.2v0c1.8,0.2,4.1,0.6,4.5,2.2c0.1,0.1,0.1,0.3,0.1,0.4
		c0,0.1,0,0.3-0.1,0.5C67.5,152,66.9,152.7,66.3,153.1L66.3,153.1L66.3,153.1z M54.1,149.8h6v0.5h-5.9c0.5,0.7,2.3,1.4,5.2,1.4
		c2.1,0,3.9-0.5,4.7-0.9l0-1.3c-1.2-0.5-3.6-0.9-4.4-0.7c-1.3,0-5.1-0.1-5.5,0.9C54.1,149.7,54.1,149.8,54.1,149.8L54.1,149.8
		L54.1,149.8z M68.3,151.9c0.1-0.5,0.1-1.1,0.1-1.5c0-0.5-0.3-1-0.7-1.3l3.7-2.4c0.9,1.3,1.8,2.5,2.8,3.6l-0.7,1.6H68.3L68.3,151.9
		L68.3,151.9z M61.1,124.3l-5-0.1l-1.7-0.1l1-0.1l5-2.2C60.7,122.7,60.9,123.5,61.1,124.3L61.1,124.3L61.1,124.3z M58.2,108.1
		l-2-0.8l2,0.2C58.2,107.7,58.2,107.9,58.2,108.1L58.2,108.1L58.2,108.1z M83.2,162l-7.2,0.1l0.9-1.4l2.6-5.1
		c1.3,1.2,2.7,2.2,4.1,3.1L83.2,162L83.2,162L83.2,162z M94.3,169.7l-6.7-0.1l1-2.2l0.9-5.3c1.4,0.6,3.3,1.1,4.8,1.5V169.7
		L94.3,169.7L94.3,169.7z M99.3,172.2l8.1,0l-0.5-0.8l-0.6-7.2c-1.5,0.2-3,0.3-4.5,0.3c-0.3,0-0.6,0-1,0l-0.7,6.1L99.3,172.2
		L99.3,172.2L99.3,172.2z M113.7,163.2h5.5l-1.3-3.1c-1.4,0.8-2.8,1.5-4.2,2.1L113.7,163.2L113.7,163.2L113.7,163.2z M119.8,164.7
		h-6.2l0.1,6.4l-0.5,2.3h7.8l1.5-1.7l-0.7-4.1l-1.5-1.6L119.8,164.7L119.8,164.7L119.8,164.7z M141.5,134.7h6.8l5.8,7.9h-8.2
		l-1.6-2.8L141.5,134.7L141.5,134.7L141.5,134.7z M145.8,144h8.4l-1.7,3.5l-8.3-0.1L145.8,144L145.8,144L145.8,144z M152.9,116.6
		l-1.3,3.6l-7.9-0.7l0,0c0.4-1.8,0.7-3.7,1-5.6l8,2.6L152.9,116.6L152.9,116.6L152.9,116.6z M144.8,120.9l7.4,0.7l5.8,5.4l-7.9-0.8
		L144.8,120.9L144.8,120.9L144.8,120.9z M150.1,127.6l8.2,0.5l-0.2,4l-8.3-0.7L150.1,127.6L150.1,127.6L150.1,127.6z M154.2,101.2
		l0,4.8l-8.7-0.8c0.1-1.7,0.1-3.4,0.1-5.1c0-0.3,0-0.5,0-0.8L154.2,101.2L154.2,101.2L154.2,101.2z M147.3,106.5l7.4,0.6l5.4,3.3
		l-7.2-0.9L147.3,106.5L147.3,106.5L147.3,106.5z M153.8,111l7.8,0.6l-0.1,4.4l-8.2-0.8L153.8,111L153.8,111L153.8,111z M60.3,55.2
		l-0.6,0.1l-2,4.2l2.6,2.7V55.2L60.3,55.2L60.3,55.2z M60.3,70l-4.9-1.4l-1.6,4.8l6.6,5.6V70L60.3,70L60.3,70z M66.8,94.3
		c-0.1,2-0.1,3.7-0.1,5.8c0,29.5,15,53.5,33.3,53.5c6.4,0,12.4-3,17.5-8.1c0,0,0,0-0.1,0c0.4-0.4,0.7-0.8,1.1-1.1c0,0,0,0,0,0
		c0.3-0.3,0.5-0.6,0.8-0.9c0.1-0.1,0.1-0.1,0.1-0.1l0,0c0.2-0.2,0.4-0.5,0.6-0.7c-0.4,0.2-0.7,0.3-1.1,0.5c-0.1,0.1-0.1,0.2-0.2,0.3
		c-0.1,0-0.1,0.1-0.1,0.1c-0.2,0.3-3.3,3.2-3.3,3.2s0,0,0.1,0c-3.1,2.5-7.5,4.8-13,4.6c-10.9-0.5-17.4-7.9-18.3-8.6
		c-0.9-0.8-0.3-1.3-0.3-1.3l3.5-7.1c-0.5-0.1-0.9-0.2-1.4-0.4c-0.5,0.9-2.9,5.3-3.3,6c-0.5,0.8-1.4,0.1-1.4,0.1s-1-1.2-1.3-1.8
		c-0.3-0.5,0.3-1.4,0.3-1.4l2.7-4.2c-0.4-0.2-0.8-0.5-1.2-0.7l-2.7,4.7c-6.4-10.3-9.4-24.2-9.4-36.1l16.5-1c0.6-0.6,2-1.7,2.5-1.9
		l-18.9,1.2V94L66.8,94.3L66.8,94.3L66.8,94.3z M124.8,135.6c0.3-0.5,0.5-1,0.8-1.5l-10.3-25.4c1.4-2.6,2.3-5.5,2.7-8.5l-2.2,0.1
		c-0.5,2.5-1.5,5.1-2.6,7.4l11.2,27.5C124.5,135.5,124.6,135.6,124.8,135.6L124.8,135.6L124.8,135.6z M126.3,132.8
		c4.4-9.1,7-20.4,7-32.7c0-0.2,0-0.3,0-0.6l-11.4,0.6c-0.4,3.8-1.9,8.6-3.7,11.3L126.3,132.8L126.3,132.8L126.3,132.8z M97.6,17.5
		v8.8l2,1v-8.7L97.6,17.5L97.6,17.5L97.6,17.5z M96.6,25.7v-8.8l-2.2-1.2v8.7L96.6,25.7L96.6,25.7L96.6,25.7z M93.2,24.7l0-9.5
		l-2.5-1.3v10.6l1.5,0.8L93.2,24.7L93.2,24.7L93.2,24.7z M77.2,11.9l-5,2.1v11.8l5-1.6V11.9L77.2,11.9L77.2,11.9z M70.9,14.5
		L67.1,16v11.4l3.8-1.2V14.5L70.9,14.5L70.9,14.5z M65.8,16.5l-4.3,1.8v10.9l4.3-1.4V16.5L65.8,16.5L65.8,16.5z M61.5,30.5v11.6
		l4.3-1.3V29.1L61.5,30.5L61.5,30.5L61.5,30.5z M61.5,43.5v11.9l4.3-0.9V42.2L61.5,43.5L61.5,43.5L61.5,43.5z M61.5,56.7v11.2
		l4.3-0.7V55.7L61.5,56.7L61.5,56.7L61.5,56.7z M61.5,69.2v12l4.3-0.5V68.5L61.5,69.2L61.5,69.2L61.5,69.2z M61.5,91.8V93l-2.3,0.2
		C59.2,93.2,60,92.7,61.5,91.8L61.5,91.8L61.5,91.8z M65.8,92.6v-3.1c0.4-0.2,0.8-0.4,1.3-0.6v3.7L65.8,92.6L65.8,92.6L65.8,92.6z
		 M70.9,92.1v-5.2c0.4-0.2,0.8-0.4,1.3-0.6V92L70.9,92.1L70.9,92.1L70.9,92.1z M77.2,91.6v-4.3l1.3,0.4v3.8L77.2,91.6L77.2,91.6
		L77.2,91.6z M77.2,85.4v-1.2c0.4-0.2,0.8-0.3,1.3-0.5v2.1L77.2,85.4L77.2,85.4L77.2,85.4z M84.7,90.9v-1.2l2.7,0.9L84.7,90.9
		L84.7,90.9L84.7,90.9z M84.7,87.9v-6.4c0.2-0.1,0.3-0.1,0.5-0.2l4.7,8.3L84.7,87.9L84.7,87.9L84.7,87.9z M84.7,78.2V65.6l-6.3,1V79
		L84.7,78.2L84.7,78.2L84.7,78.2z M84.7,64.3V51.8l-6.3,1.3v12.2L84.7,64.3L84.7,64.3L84.7,64.3z M84.7,50.5V36.7l-6.3,1.8v13.2
		L84.7,50.5L84.7,50.5L84.7,50.5z M84.7,35.4V23l-6.3,2v12.2L84.7,35.4L84.7,35.4L84.7,35.4z M77.2,79.1V66.8l-5,0.8v12.2L77.2,79.1
		L77.2,79.1L77.2,79.1z M70.9,79.9V67.7l-3.8,0.6v12.1L70.9,79.9L70.9,79.9L70.9,79.9z M77.2,65.5V53.4l-5,1.1v11.8L77.2,65.5
		L77.2,65.5L77.2,65.5z M70.9,66.4V54.7l-3.8,0.8V67L70.9,66.4L70.9,66.4L70.9,66.4z M77.2,52.1V38.9l-5,1.5v12.7L77.2,52.1
		L77.2,52.1L77.2,52.1z M70.9,53.4V40.8l-3.8,1.1v12.3L70.9,53.4L70.9,53.4L70.9,53.4z M77.2,37.6V25.5l-5,1.6v12L77.2,37.6
		L77.2,37.6L77.2,37.6z M70.9,39.4V27.5l-3.8,1.2v11.8L70.9,39.4L70.9,39.4L70.9,39.4z M132.4,13.8l6.8,3.6v6.8L132.4,13.8
		L132.4,13.8L132.4,13.8z M132,46.5l9.6-2.1L132,30.6V46.5L132,46.5L132,46.5z M145.9,43.6l3-0.8l3.9,2V13.1l-7-3.1V43.6L145.9,43.6
		L145.9,43.6z M102.4,29.9L94.2,26v28.8l8.1-1.8V29.9L102.4,29.9L102.4,29.9z M108.3,51.9l5.9-1.3v-5.3l-6-3.4L108.3,51.9
		L108.3,51.9L108.3,51.9z M109.8,40.6l5.1,2.8c3.1-0.7,6.8-1.5,8.1-4.4V24.4l-6.2-3v16.4C116.7,39,113.5,40,109.8,40.6L109.8,40.6
		L109.8,40.6z M108.2,26.7l2.5-0.9v8.6l-2.5,0.9V26.7L108.2,26.7L108.2,26.7z M147.8,98.6l6.7,1.3l6.2-0.6l-6.6-1.6L147.8,98.6
		L147.8,98.6L147.8,98.6z M154.6,96.2l7.8,2.2l0.1-4.2l-7.7-2.5L154.6,96.2L154.6,96.2L154.6,96.2z M153.7,90.1v-3.6l-7.9-2.6
		c-0.1,0.1-0.3,0.1-0.4,0.2c0.1,2,0.2,4,0.1,6l0.2,0.1H153.7L153.7,90.1L153.7,90.1z M147.4,82.8l6.8,2.5l7.6-2.6l-8.1-2.9
		C152.1,80.7,149.5,81.7,147.4,82.8L147.4,82.8L147.4,82.8z M154.3,78.3l8.1,3.1v-3.9l-7.8-3L154.3,78.3L154.3,78.3L154.3,78.3z
		 M150.9,57.5l8.7,4.3v2.8l-8.7-4.2L150.9,57.5L150.9,57.5L150.9,57.5z M159.2,66.1l-6.3,5.2l-8-3.8l6-5.3L159.2,66.1L159.2,66.1
		L159.2,66.1z M143.8,68.9l8.2,3.7l0,0.5l-2.5,0.2l-5.6,1C144,72.6,144,70.8,143.8,68.9L143.8,68.9L143.8,68.9z M84.9,130.2
		c0,0,1.7-0.5,1-0.8c-0.7-0.3-2.2-0.3-2.9-0.7c-0.6-0.4-0.8-0.8,0.1-0.9c0.9-0.1,1.1-0.3,1.2-1c0.1-0.7,0-3.4,0-3.4
		s-0.6-0.5-1.3-0.9c0.1,1.1,0.1,1.6,0,1.3c-0.1,0.1-0.4-0.8-0.7-1.6c-0.1,0-0.1,0-0.2,0c0,0-0.1,0-0.1,0c-0.5-0.1-0.9-0.1-1.4-0.2
		c0.2,1.6,0.4,2.7,0.3,2.2c-0.1,0.1-0.6-1.3-1-2.4c-0.4-0.1-0.7-0.2-1-0.2c0.4,1.6,0.8,2.7,0.4,2.5c-0.1,0.2-0.9-1.8-1.2-2.7
		c-1.4-0.4-2.2-0.9-2.2-1.4c0-0.5,0.6-0.9,1.8-1.3c0-0.5-0.1-0.9-0.1-1.2c0-0.5-0.1-1.7-0.1-1.7s0.6-1.2,0.9-1.9
		c0.3-0.7,1.2-0.2,0.3,1c-0.7,0.7-0.7,2.1-0.4,3.6c0.4-0.1,0.8-0.2,1.3-0.3c0-0.2,0-0.4,0-0.6c0-0.5,0.3-1.1,0.3-1.1
		s0.3-1.8,0.5-2.5c0.3-0.7,2.8-2.1,0.9-0.1c-0.7,0.7-0.9,2.3-0.8,4.1c0.5-0.1,1-0.2,1.5-0.3c0-0.2,0-0.3,0-0.4
		c0-0.5,0.4-0.8,0.4-0.8s0.6-3,0.9-3.8c0.3-0.7,2.8-2.1,0.9-0.1c-0.7,0.8-1,2.8-1,4.9c1.1-0.1,2.4-0.3,3.7-0.3
		c0.6-2.4,2-3.7,3.3-5.7c-3.6-1.1-5.9-4.8-6-6.7c-5.6,2.6-9.3,7.9-9.3,13.9c0,8.6,7.8,15.6,17.4,15.6c6,0,18.2-5,15.8-13.2
		c-0.9,0.3-2.5,0.6-4,0.9c-0.5,0.8-1.6,3-1.7,2.8c-0.7,0.3,0.1-1,0.7-2.6c-0.8,0.1-1.8,0.2-2.7,0.3c0,0,0,0,0,0.1
		c-0.5,0.6-1.3,1.3-1.3,1.3s0.3,2.1-0.4,2.2c-0.6,0.1-0.9,0.5-0.9,0.5l-1.7,2c0,0-0.6,0.8-1.4,1.2c-0.8,0.4-1.4,1.9-1.4,1.9
		c9.3,1,13.4-7.9,13.3-8.3c0,0,1.1-0.3,0.1,1.3c-2,5.3-7.2,8.4-14.8,8.4c-1.6,0-2.2-0.1-2.2-0.3c-1,0.6-1.1-1-1.1-1l1.2-1.6
		c0,0,0.5-0.5,0.7-2.3c0.1-0.8,0.6-1.4,1.2-1.8c-0.1,0.1-0.3,0.1-0.4,0.1c-0.7,0.1-1.7,1.9-1.6,2.5c0.1,0.6-0.4,1.5-1.1,1.8
		c-0.8,0.3-1,1.3-1,1.3s-0.9,0.4-1.8,0.4c-0.6,0-6.8-3.2-4.5-3.5C82,128.6,84.9,130.2,84.9,130.2L84.9,130.2L84.9,130.2z
		 M147.6,56.5v-1.7l-4.3-2l-4,1.9c0.9,1.9,1.5,3.8,1.8,5.9L147.6,56.5L147.6,56.5L147.6,56.5z M115.9,82.5c0.4,1,1.2,2.4,1.8,5.5
		l-2.2,0.2c0-0.8-1.5-5.1-2.6-6.4L115.9,82.5L115.9,82.5L115.9,82.5z M121.4,87.7c0-0.6-0.5-2.7-1.1-4.1c6.5,1.6,11.5,3.2,11.5,3.2
		L121.4,87.7L121.4,87.7L121.4,87.7z M107.8,83.6c0.8,1,1.7,2.3,2.5,5.1l-3,0.3c-0.4-1.5-1-3.1-1.9-4L107.8,83.6L107.8,83.6
		L107.8,83.6z M98.7,65.3l13.6-2.6L107,74.1c-1.9-0.2-3.7-0.3-5.4-0.3L98.7,65.3L98.7,65.3L98.7,65.3z M90,68.9V67h3.6v2
		C92.8,68.8,91,68.7,90,68.9L90,68.9L90,68.9z M95.7,70.7l0.4-0.3l2.7,7.4c-0.5,0-1.2-0.1-1.7-0.1l-1.8-5.1
		C95.6,72.2,96.2,71.3,95.7,70.7L95.7,70.7L95.7,70.7z M108.6,113.8c-0.9-2.3-2.3-4-4.1-5.8c-3.1-3-7.6-4.9-12.5-4.9
		c-0.9,0-1.8,0.1-2.7,0.2c0,0.6,0.1,1.2,0.4,1.5C95.3,108.2,103.8,108.7,108.6,113.8L108.6,113.8L108.6,113.8z M84.3,101.9l-7.6,0.4
		c-0.4,2.5,0,7.5,0,7.5l0,0.3c1.8-2.5,4.2-4.5,7.2-5.9C83.8,103.3,83.9,102.6,84.3,101.9L84.3,101.9L84.3,101.9z M93.8,73.4
		c-0.1-0.1-0.2-0.1-0.3-0.1c-0.5-0.2-1.2-0.6-1.6-0.6c-0.3,0-1.2,0.4-1.7,0.5v4.7c0.6-0.1,1.2-0.1,1.8-0.2c0.6-0.1,1.2-0.1,1.8-0.1
		L93.8,73.4L93.8,73.4L93.8,73.4z M94.3,72.4c-0.7-0.2-1.8-0.8-2.5-0.8c-0.3,0-1.2,0.4-1.5,0.5c-0.3,0-1.5-0.1-1.7-0.7
		c-0.2-0.6-0.2-0.4,0-1c0.3-0.4,0.9-1,1.6-1c0.8-0.2,3.3-0.1,3.7,0.1c0.4,0.2,1.1,0.8,1.1,1.5C95,71.8,94.3,72.4,94.3,72.4
		L94.3,72.4L94.3,72.4z M91,73.7h-0.5v2.9H91V73.7L91,73.7L91,73.7z M91,77h-0.5v0.3H91V77L91,77L91,77z M89.9,85.3h1.4v-5.2
		c0.6-0.1,1.1-0.1,1.6-0.2c0.3,0,0.6,0,1-0.1l-0.1,5.4l-1.8,3.8L89.9,85.3L89.9,85.3L89.9,85.3z M89.5,80.4v4.1l-1.9-3.7
		C88.2,80.6,88.8,80.5,89.5,80.4L89.5,80.4L89.5,80.4z M90.2,80.8h-0.5v0.5h0.5V80.8L90.2,80.8L90.2,80.8z M90.2,83h-0.5v1.7h0.5V83
		L90.2,83L90.2,83z M94.4,97.8l-0.1,3.5c0,0,3.9-0.3,3.8-2.4c-0.2-2.2-2-3.6-4.1-3.6c-3.4,0-6.2-0.3-7.5-2.3l-3.8,0.5
		c-0.8,1-0.3,2.6,0.9,2.9c1,0.2,3.2,0.6,4,0.6c0.8,0,5.4,0.3,5.4,0.3C93.5,97.3,94.4,97.5,94.4,97.8L94.4,97.8L94.4,97.8z
		 M86.7,92.6c1.3,1.2,2.8,2,4.7,2h2.4l0.1-2.6L86.7,92.6L86.7,92.6L86.7,92.6z M134,87.1l-76.6,6.7c0,0,20.8-13.5,35.3-14.6
		C108,78.3,134,87.1,134,87.1L134,87.1L134,87.1z M102.8,80.3c1.2,0.2,3.5,1.7,3.7,2.1l-2.4,1.3c-1.4-1.3-3.5-2.5-5.7-3l0.4-0.7
		C100.1,80.1,101.5,80.2,102.8,80.3L102.8,80.3L102.8,80.3z M95.2,90l15.6-8.4c-0.4-0.1-0.8-0.2-1.3-0.2L93.3,90l-0.1,0.2l-0.2,0
		L95.2,90L95.2,90L95.2,90z M90.3,90.2l0.1,0.2l0.6-0.1l-5.1-9.2c0.4-0.1,0.7-0.2,1-0.3l4.9,9.4l-3.2,0.3l-14.9-5
		c0.4-0.2,0.7-0.3,1.1-0.5L90.3,90.2L90.3,90.2L90.3,90.2z M85.5,81.3C85.5,81.3,85.5,81.3,85.5,81.3C85.5,81.3,85.5,81.3,85.5,81.3
		L85.5,81.3L85.5,81.3z M98.3,79.9l-5.6,10.3l-0.8,0.1l5-10.4C97,79.9,98.8,80,98.3,79.9L98.3,79.9L98.3,79.9z M138.1,87.5
		l-84.7,7.3c0,0,22.8-15.2,38.8-16.3C109.2,77.4,138.1,87.5,138.1,87.5L138.1,87.5L138.1,87.5z M101.6,118.1v3.6
		c0.5,0,0.9-0.1,1.4-0.1c0.3-1,0.4-2-0.1-2.7c-0.3-0.3-0.4-0.6-0.4-0.8C102.1,118.1,101.8,118.1,101.6,118.1L101.6,118.1
		L101.6,118.1z M100,121.9c0-1,0.1-3.2-0.2-3.9c-0.4,0-0.9-0.1-1.3-0.1c-0.3,0.5-0.4,0.9,0,1.2c0.8,0.5,0.4,2.1-0.3,2.3
		c-0.2,0.1-0.5,0.3-0.7,0.7C98.4,122,99.2,121.9,100,121.9L100,121.9L100,121.9z M95.5,113.4c-1.9,1-1.2-0.1-1.2,3.7
		c0.1,0,0.2,0,0.3,0c0.2-0.3,0.3-0.6,0.3-0.6s1.5-0.5,1.8-2.1c0-0.2,0.1-0.4,0.2-0.5C96.5,113.7,95.9,113.5,95.5,113.4L95.5,113.4
		L95.5,113.4z M99.3,114.9c0.1,0.5,0.2,1.3,0,1.6c-0.1,0.2-0.3,0.5-0.5,0.8c1.4,0.1,2.6,0.2,3.8,0.4c0.1-0.1,0.2,0,0.3,0
		c1,0.1,2.1,0.3,2.9,0.5C104.8,117,102.1,115.8,99.3,114.9L99.3,114.9L99.3,114.9z M107.6,120.6c-0.1-0.6-0.6-1.4-1.1-1.8
		c-0.9-0.3-1.9-0.4-2.8-0.5l0,0c-0.2,0-0.4-0.1-0.6-0.1c0.2,0.5,0.5,0.9,0.6,1.4c0,0.4,0.1,0.8,0.1,0.8v1
		C105.5,121.2,106.9,120.9,107.6,120.6L107.6,120.6L107.6,120.6z M82.9,121.7c-0.1-1-0.1-2.3-0.1-3.5c1.1-0.1,2.3-0.2,3.6-0.3
		c-0.2,0.9-0.5,1.9-0.7,2.8c-0.4,1.5-1.9,1-2.4,1C83.3,121.6,83.1,121.6,82.9,121.7L82.9,121.7L82.9,121.7z M81.7,118.3
		c0,0.6-0.1,1.2-0.1,1.2l-0.1,1.1c0,0,0.2,0.5,0.4,1c-0.5-0.1-1-0.1-1.5-0.2c-0.1-0.9-0.2-1.9-0.2-2.9
		C80.7,118.4,81.2,118.3,81.7,118.3L81.7,118.3L81.7,118.3z M79.4,118.6c0.1,0.6,0.1,1.2,0.1,1.2l-0.1,1.1c0,0,0,0.1,0.1,0.3
		c-0.3-0.1-0.7-0.1-1-0.2c-0.2-0.7-0.4-1.4-0.5-2.1C78.5,118.8,79,118.7,79.4,118.6L79.4,118.6L79.4,118.6z M77.6,119.1
		c0,0.4,0.1,0.6,0.1,0.6l0.2,1c-0.8-0.3-1.3-0.6-1.3-0.9C76.5,119.6,76.9,119.4,77.6,119.1L77.6,119.1L77.6,119.1z M98.2,122.7
		c-0.4,0-0.7,0-1.1,0.1c-0.2,0.6-0.4,1.4-0.3,2.4c0.2,2.1-1.8,2.6-2.4,2.8c-0.6,0.2-1.8,0.1-1.9,1c-0.2,0.9-0.7,1.6-1.1,1.8
		c-0.3,0.1-0.7,0.8-1.3,1.4c0.9-0.5,2.2-1,2.4-1.2c0.4-0.5,1.2-1.6,1.2-1.6s0.4-0.5,1.4-0.8c1-0.3,1.7-1.6,1.7-1.6s-0.1-1.2,0.5-1.8
		c0.6-0.6,0.8-1.6,0.8-1.6S98.2,123,98.2,122.7L98.2,122.7L98.2,122.7z M93.7,122.8c-0.2,0-0.5,0-0.7,0c-0.1,0.1-0.2,0.2-0.2,0.2
		s-0.4,1.3-0.4,1.8c0,0.3-0.3,0.7-0.6,1c0.5-0.2,0.8-0.3,0.8-0.3s1.3,0.5,1.1-1.5C93.6,123.5,93.6,123.2,93.7,122.8L93.7,122.8
		L93.7,122.8z M94.5,117.7c0,0.3,0.1,0.7,0.5,0.9c1.1,0.5-0.1,2-0.1,2s-0.6,0.5-1,1.5c-0.1,0-0.3,0-0.4,0c0.4-0.8,0.8-2.1,0.9-4.5
		C94.4,117.7,94.4,117.7,94.5,117.7L94.5,117.7z"/>
</g>
</svg>
