<?xml version="1.0" encoding="utf-8"?>
<!-- Generator: Adobe Illustrator 21.0.2, SVG Export Plug-In . SVG Version: 6.00 Build 0)  -->
<svg version="1.1" id="Layer_1" xmlns="http://www.w3.org/2000/svg" xmlns:xlink="http://www.w3.org/1999/xlink" x="0px" y="0px"
	 viewBox="0 0 219.3 186.7" style="enable-background:new 0 0 219.3 186.7;" xml:space="preserve">
<style type="text/css">
	.st0{fill-rule:evenodd;clip-rule:evenodd;fill:#5C2545;}
</style>
<g>
	<path class="st0" d="M134.5,145.5c0.2,0.2,0.3,0.5,0.3,0.8c0,1.3-2.5,2.4-5.5,2.4c-3.1,0-5.6-1.1-5.6-2.4c0-2.1,4.9-2.6,6.1-2.5
		c1.3,0.1,2.5,0.4,3.8,1v-1.1c-0.6-0.2-1.4-0.4-2-0.5c-2.7-0.3-6.3-0.3-8.6,1.6c-0.1,0-0.2,0.1-0.3,0.2c-1.2,1-1.1,1.9-0.7,2.7
		c0.3,0.6,1.4,1.3,2,1.7v0c0,0,0,0,0.1,0c0.2,0.1,0.3,0.2,0.3,0.2v0c2.5,1.2,4.7,1,7.3,0.8c3-0.5,5.1-1.9,5.1-3.6
		c0-1.2-1.3-2.2-2.2-2.6C134.5,144.4,134.5,145,134.5,145.5L134.5,145.5L134.5,145.5z M97.7,97.7v3.5c0.4,0,0.9-0.1,1.3-0.1
		c0.4,0,0.8,0,1.2,0.1l0.1-3.7L97.7,97.7L97.7,97.7L97.7,97.7z M97.2,100.6v-2.9c-0.5,0.3-3.2,2.2-3.2,4.1c-0.3,2.9,2.6,5,3.4,5.2
		c3,0.7,13.4,4,14,8.2c0.7,7.3-7.1,11.4-12.4,11.4l-0.4,4.2c0,0,1.7,3.3,7.2,5.1c3.4,0.7,5.5,0.5,6.8,0.1c1.4-0.5,3.3-1.7,4.3-3
		c0.2-0.6,0.3-1.1,0.4-1.5c-0.1-3.2-2.5-8.6-4.6-13.2c0.5-2.2,0.3-4.4-0.3-5.8c-0.8-1.5-1-2.2-3.5-3.8c-3.6-2.5-10.3-3.9-11.8-5.4
		C96.5,102.5,96.6,100.9,97.2,100.6L97.2,100.6L97.2,100.6z M117.2,82.5c0.6,0.6,1.1,1.2,1.5,1.9c3.5,0.9,6.6,2,9.3,2.9
		c-0.1-6.7-1.1-13.4-4.3-19.9L117.2,82.5L117.2,82.5L117.2,82.5z M116.5,133.9c-1,1.2-2.7,2-4,2.6l0,0c-8.5,2.1-14.2-4.7-14.3-5.4
		c-0.1-0.7,0.3-3.7,0.4-4.3c-0.3,0-0.6,0-0.8,0c0,0.4-0.5,4-0.5,4.4c1.3,2.2,1.9,2.9,4.9,4.7c2.8,1.4,7.1,2.2,10.5,1.2
		c0,0,0.5-0.2,0.1,0c1.6-0.7,2.2-1.1,2.6-1.5C115.8,135,116.5,134,116.5,133.9L116.5,133.9L116.5,133.9z M131.4,142.7
		c0.6,0.1,1.3,0.2,1.8,0.4l0.3-0.2v0h0V136h0v0h-4.6L131.4,142.7L131.4,142.7L131.4,142.7z M135.2,144c0.5,0.3,1,0.7,1.3,1.1
		l0.9-1.1H135.2L135.2,144L135.2,144z M137.2,146c0.1,0.3,0.2,0.6,0.2,0.9c0,2.2-3.1,4.1-7,4.4l-3.1,2.3h-5.1l0.2,2.4l-1.2,2l-9.6,0
		l-0.5-0.9l-9.6-0.1l-0.6-1.9l-5.1-0.2l-3.1-1.6l-0.1-2.1l0.3-2.3l-6.4,0l-1.4-2.3l-0.4-0.6v-2.3l1.1-2.8l-3.9-0.1
		c-0.8,1.1-2.6,1.9-6.2,2c-6-0.2-7-3.1-6.2-5.1c0.5-1,2.4-1.4,2.8-1.5v-35.7l3.6-4.6l0.7,0.2l3.6,4.6v28.9l1,0
		c-0.6-1.2-1.1-2.4-1.6-3.7l-3,3l0,0l0.3,0.6l2.4,0v-28.3l-3.4-4.2l-3,3.5v35.5c1.9-0.2,3.7-0.1,5.5,0.1l-0.3-1.9l3.4-3.6l-1.4,0
		c0,0,0,5.2,0,5.8c-0.3,0-0.7-0.1-0.9-0.1v-5.7l-4.6-0.1l-0.2-0.6l0,0l-0.1-0.3l-0.9-2.4l0,0l-0.2-0.5l0.7-2.1l3.7-4.5
		c-0.1-0.2-0.1-0.5-0.2-0.7l-6.3-0.4l-0.4-0.8l-0.1,0l-0.6-3l1.1-1.7l4.4-4.3c-0.1-0.9-0.2-1.9-0.3-2.8l-3.8-2.2l-0.1,0l-1.7-0.6
		v-2.7l1.6-1.2l1.6-0.7l2.2-2.6c0-0.3,0-0.8,0-1.1l-4.9,0.5c0,0,1.6-1.2,4.1-3l-3-1.6l-1.3-1.2l0.3-3.4l1.9-0.4l3.8-0.1
		c0.2-1.1,0.4-2.2,0.6-3.2v8.4c0.3-0.2,0.6-0.4,0.9-0.6v-5.3l3.1-0.4v3.8c0.3-0.2,0.6-0.3,0.9-0.5v-3.4l2.7-0.4v2.3
		c0.3-0.2,0.6-0.3,0.9-0.5v-2l3.6-0.5v0.8c0.3-0.1,0.6-0.2,0.9-0.4v-0.6l2.4-0.4c1.8-0.6,3.7-1.1,5.4-1.4v-3.7
		c-0.4-0.1-1-0.2-1.2-0.7c-0.3-0.9-0.2-1.7,0.5-2.3c-0.1-0.5-0.7-0.9-1.3-1.1v-3.9l3.3-0.7l1.1,3l1.2,0l-1.1-3.2l0.9-0.2l3.8,11
		c1.5,0.2,3,0.1,4.4,0.5l0.5-0.9c-1.3-0.2-2.6-0.4-3.9-0.2l-3.7-10.6l1-0.2l0.7,2.1l10.7-2.2l1.2-2.8l3.2-0.8l-7.3,17.9
		c0.4,0.1,0.9,0.2,1.3,0.3l7.3-18.4l1.5-0.3c0.4,1.2,0.3,2.1-0.3,3.4l-6.7,15.8c0.4,0.1,0.8,0.2,1.2,0.3l7-16.3
		c0.6-1.2,0.5-2.2-0.1-3.4l13.6-3l3.8,2.1l5.7-1.3l-5.9-3.2L95.3,68.8V65l1.4-0.4v-2.5L94,61.3v-1.1l2.8,0.9V50.9L94,49.5v-1.1
		l2.8,1.4v-8.2l0.6-0.3v-0.8L94,38.9v-1.1l3.4,1.7v-8.4l-3.4-1.9v8.6l-4.5,1.6v-9.7l4.5-2l11.9,6.9v8.2l0.8,0.4v-5.5l8.5-2.6
		l7.3,4.2v12.1c-0.1,2.8-3,3.9-6.4,4.9v4.1l6.8-1.6V31.9l5.2-1.8l4.9,2.7v-4.6l4.8-1.6v0.2l6.2,3.1v26.6l3.4,2v4.3l-7.2,1.5l8.2,4.4
		l-0.1,3.5l-0.5,1.3l-4.4,4.1l-0.1,0.4l0.6-0.1l6.4,2.8V86l-6,2.4v3.3l6.1,2.2v5.2l-5.9,1.1l0,3.8l5.3,3.8l-0.2,5l-5.9-0.3l-0.8,3
		l4.6,5.1l-0.1,4.1l-0.8,0.7l-6.2-0.5l0,1.4l4.2,6.3v1.3l-1.5,3.5h-6.8l2.3,6.2v1L137.2,146L137.2,146L137.2,146z M128.4,151.3
		c-1.6-0.1-3.1-0.5-4.3-1l0.1,0.9l-1.9,1.2h4.7L128.4,151.3L128.4,151.3L128.4,151.3z M122.4,144.6c0.5-0.4,1.1-0.8,1.8-1.1V98.7
		l1-1.9h0l0.8-1.5h0l2.5-4.5l1.5-0.3l4.5,7.1v23.7h0v0l5.1,3.2h0.1v0.9h-5.1v0h0v9h-1V98.3l-4.1-6.6l-2.1,3.5l0,0l-1.1,1.9l0,0
		l-1,1.6l-0.2,40.6v1.4v0.9l-0.9,0.4c-0.4,1-1.4,0.9-2,1.9L122.4,144.6L122.4,144.6L122.4,144.6z M130.1,145.6h-5.3
		c0.5-0.8,2.2-1.4,4.3-1.4c2.4,0,4.4,0.8,4.4,1.9c0,1-2,1.8-4.4,1.8c-2.3,0-4.2-0.8-4.4-1.7h5.4V145.6L130.1,145.6L130.1,145.6z
		 M134.5,142.9L134.5,142.9l0-6.9h0v0h0.3l0,0l0.2,0.2l2.3,6.7H134.5L134.5,142.9L134.5,142.9L134.5,142.9z M133.5,134.9v-0.3
		l-3-3.1c-0.6,1.2-1.3,2.4-2,3.5H133.5L133.5,134.9L133.5,134.9z M127.1,96.7l0.9-1.5l0.7-0.1c0.1,0.3,0.1,1,0.1,1.4L127.1,96.7
		L127.1,96.7L127.1,96.7z M125.4,95.4l-0.9,1.5l-11.7,0.8c-0.2,1.5-0.6,3.2-1.1,4.3l10,26.9c0,0,0,0,0,0.1c-0.1,0.2-0.2,0.3-0.3,0.5
		c-0.3,0.2-0.7,0.2-0.8-0.1l-9.7-25.8c-0.5,0.7-1.1,2.1-1.8,2.6c-0.2-0.3-1-1.4-1.2-1.6c2.3-3.1,3.6-8.3,2.6-12.6l2.2-0.2
		c0.3,1.6,0.5,2.8,0.3,4.6L125.4,95.4L125.4,95.4L125.4,95.4z M76,137.2c-1.1,0-4.4-0.1-4.8,1c-0.4,1.1,1.4,2.3,4.5,2.2
		c1.3,0,3.7-0.1,4.3-1.5c0.4-0.9-1-1.3-1.6-1.5l0,0C77.6,137.3,76.6,137.2,76,137.2L76,137.2L76,137.2z M80.7,140.9L80.7,140.9
		c-0.1,0.1-0.2,0.2-0.3,0.2c-0.5,0.3-1,0.4-1,0.4l0,0c-1,0.3-2.2,0.5-3.8,0.5c-4.6,0-6.2-2.6-5.5-4c0.7-1.4,4.6-1.3,6.3-1.3
		c0.5,0,1.3,0.1,2.1,0.2v0c1.3,0.2,2.9,0.5,3.2,1.7c0,0.1,0.1,0.2,0.1,0.3c0,0.1,0,0.3,0,0.4C81.6,140,81.1,140.5,80.7,140.9
		L80.7,140.9L80.7,140.9z M72,138.3h4.3v0.4H72c0.3,0.6,1.7,1.1,3.7,1.1c1.5,0,2.8-0.4,3.4-0.7l0-1c-0.8-0.4-2.6-0.7-3.1-0.6
		C75,137.5,72.3,137.5,72,138.3C72,138.2,72,138.3,72,138.3L72,138.3L72,138.3z M82.1,139.9c0.1-0.4,0.1-0.9,0.1-1.2
		c0-0.4-0.2-0.8-0.5-1l2.7-1.9c0.6,1,1.3,1.9,2,2.9l-0.5,1.3H82.1L82.1,139.9L82.1,139.9z M77,118.3l-3.6-0.1l-1.2-0.1l0.7-0.1
		l3.6-1.7C76.7,117,76.8,117.6,77,118.3L77,118.3L77,118.3z M74.9,105.5l-1.5-0.7l1.4,0.2C74.9,105.2,74.9,105.4,74.9,105.5
		L74.9,105.5L74.9,105.5z M92.8,147.9l-5.1,0l0.6-1.1l1.9-4c1,0.9,1.9,1.7,2.9,2.5L92.8,147.9L92.8,147.9L92.8,147.9z M100.8,153.9
		l-4.8-0.1l0.7-1.7l0.7-4.1c1,0.5,2.4,0.9,3.4,1.2V153.9L100.8,153.9L100.8,153.9z M104.4,155.9l5.8,0l-0.4-0.6l-0.4-5.6
		c-1.1,0.2-2.1,0.3-3.2,0.3c-0.2,0-0.5,0-0.7,0l-0.5,4.8L104.4,155.9L104.4,155.9L104.4,155.9z M114.7,148.8h4l-1-2.5
		c-1,0.6-2,1.2-3,1.6L114.7,148.8L114.7,148.8L114.7,148.8z M119.1,150h-4.4l0.1,5l-0.4,1.8h5.6l1.1-1.3l-0.5-3.2l-1.1-1.3
		L119.1,150L119.1,150L119.1,150z M134.6,126.4h4.9l4.1,6.2h-5.9l-1.1-2.2L134.6,126.4L134.6,126.4L134.6,126.4z M137.7,133.8h6.1
		l-1.2,2.8l-5.9-0.1L137.7,133.8L137.7,133.8L137.7,133.8z M142.8,112.2l-0.9,2.9l-5.6-0.5l0,0c0.3-1.4,0.5-2.9,0.7-4.4L142.8,112.2
		L142.8,112.2L142.8,112.2L142.8,112.2z M137,115.6l5.3,0.6l4.2,4.2l-5.7-0.6L137,115.6L137,115.6L137,115.6z M140.8,120.8l5.9,0.4
		l-0.2,3.2l-6-0.5L140.8,120.8L140.8,120.8L140.8,120.8z M143.8,100.1l0,3.8l-6.2-0.6c0.1-1.3,0.1-2.7,0.1-4c0-0.2,0-0.4,0-0.6
		L143.8,100.1L143.8,100.1L143.8,100.1z M138.8,104.3l5.3,0.5l3.8,2.6l-5.2-0.7L138.8,104.3L138.8,104.3L138.8,104.3z M143.5,107.8
		l5.6,0.5l-0.1,3.4l-5.9-0.6L143.5,107.8L143.5,107.8L143.5,107.8z M76.4,64L76,64l-1.4,3.3l1.8,2.2V64L76.4,64L76.4,64z M76.4,75.6
		l-3.5-1.1l-1.2,3.7l4.7,4.4V75.6L76.4,75.6L76.4,75.6z M81,94.7c-0.1,1.6-0.1,2.9-0.1,4.6c0,23.1,10.7,42,23.9,42
		c4.6,0,8.9-2.3,12.6-6.4c0,0,0,0,0,0c0.3-0.3,0.5-0.6,0.8-0.9c0,0,0,0,0,0c0.2-0.2,0.4-0.5,0.6-0.7c0,0,0.1-0.1,0.1-0.1l0,0
		c0.1-0.2,0.3-0.4,0.4-0.5c-0.3,0.1-0.5,0.3-0.8,0.4c-0.1,0.1-0.1,0.1-0.2,0.2c0,0-0.1,0.1-0.1,0.1c-0.1,0.3-2.4,2.6-2.4,2.6
		s0,0,0,0c-2.2,1.9-5.4,3.8-9.3,3.6c-7.8-0.4-12.5-6.2-13.1-6.8c-0.6-0.6-0.2-1-0.2-1l2.5-5.6c-0.3-0.1-0.6-0.2-1-0.3
		c-0.4,0.7-2.1,4.2-2.4,4.7c-0.3,0.6-1,0.1-1,0.1s-0.7-1-0.9-1.4c-0.2-0.4,0.2-1.1,0.2-1.1l1.9-3.3c-0.3-0.2-0.6-0.4-0.9-0.6
		l-1.9,3.7c-4.6-8.1-6.7-19-6.7-28.4l11.9-0.8c0.4-0.5,1.4-1.3,1.8-1.5L83,98.3v-3.8L81,94.7L81,94.7L81,94.7z M122.7,127.1
		c0.2-0.4,0.4-0.8,0.6-1.2l-7.4-19.9c1-2,1.6-4.3,1.9-6.6l-1.6,0.1c-0.4,2-1,4-1.9,5.8l8.1,21.6C122.4,127,122.5,127.1,122.7,127.1
		L122.7,127.1L122.7,127.1z M123.7,124.9c3.1-7.1,5-16,5-25.7c0-0.2,0-0.3,0-0.5l-8.2,0.5c-0.3,3-1.4,6.8-2.7,8.9L123.7,124.9
		L123.7,124.9L123.7,124.9z M103.2,34.3v6.9l1.5,0.8v-6.9L103.2,34.3L103.2,34.3L103.2,34.3z M102.4,40.8v-6.9l-1.6-0.9v6.9
		L102.4,40.8L102.4,40.8L102.4,40.8z M100,40l0-7.5l-1.8-1v8.3l1.1,0.6L100,40L100,40L100,40z M88.5,30l-3.6,1.6v9.3l3.6-1.3V30
		L88.5,30L88.5,30z M84,32l-2.7,1.2v8.9l2.7-0.9V32L84,32L84,32z M80.4,33.6L77.3,35v8.6l3.1-1.1V33.6L80.4,33.6L80.4,33.6z
		 M77.3,44.6v9.1l3.1-1v-9.3L77.3,44.6L77.3,44.6L77.3,44.6z M77.3,54.8v9.3l3.1-0.7v-9.6L77.3,54.8L77.3,54.8L77.3,54.8z
		 M77.3,65.1v8.8l3.1-0.5v-9L77.3,65.1L77.3,65.1L77.3,65.1z M77.3,75v9.4l3.1-0.4v-9.5L77.3,75L77.3,75L77.3,75z M77.3,92.7v0.9
		l-1.7,0.2C75.6,93.8,76.2,93.4,77.3,92.7L77.3,92.7L77.3,92.7z M80.4,93.4v-2.5c0.3-0.2,0.6-0.3,0.9-0.5v2.9L80.4,93.4L80.4,93.4
		L80.4,93.4z M84,93v-4.1c0.3-0.2,0.6-0.3,0.9-0.5v4.5L84,93L84,93L84,93z M88.5,92.6v-3.4l0.9,0.3v3L88.5,92.6L88.5,92.6L88.5,92.6
		z M88.5,87.7v-1c0.3-0.1,0.6-0.3,0.9-0.4V88L88.5,87.7L88.5,87.7L88.5,87.7z M93.9,92.1v-0.9l2,0.7L93.9,92.1L93.9,92.1L93.9,92.1z
		 M93.9,89.7v-5c0.1,0,0.2-0.1,0.4-0.1l3.4,6.5L93.9,89.7L93.9,89.7L93.9,89.7z M93.9,82v-9.9l-4.5,0.8v9.7L93.9,82L93.9,82L93.9,82
		z M93.9,71.2v-9.8l-4.5,1v9.6L93.9,71.2L93.9,71.2L93.9,71.2z M93.9,60.3V49.5l-4.5,1.4v10.4L93.9,60.3L93.9,60.3L93.9,60.3z
		 M93.9,48.4v-9.7l-4.5,1.6v9.6L93.9,48.4L93.9,48.4L93.9,48.4z M88.5,82.8v-9.7l-3.6,0.6v9.6L88.5,82.8L88.5,82.8L88.5,82.8z
		 M84,83.4v-9.6l-2.7,0.5v9.5L84,83.4L84,83.4L84,83.4z M88.5,72.1v-9.5l-3.6,0.8v9.3L88.5,72.1L88.5,72.1L88.5,72.1z M84,72.8v-9.2
		l-2.7,0.6v9.1L84,72.8L84,72.8L84,72.8z M88.5,61.5V51.2l-3.6,1.2v10L88.5,61.5L88.5,61.5L88.5,61.5z M84,62.6v-9.9l-2.7,0.9v9.7
		L84,62.6L84,62.6L84,62.6z M88.5,50.2v-9.5l-3.6,1.3v9.4L88.5,50.2L88.5,50.2L88.5,50.2z M84,51.6v-9.4l-2.7,1v9.3L84,51.6L84,51.6
		L84,51.6z M128.1,31.4l4.9,2.8v5.3L128.1,31.4L128.1,31.4L128.1,31.4z M127.8,57.2l6.9-1.6l-6.9-10.9V57.2L127.8,57.2L127.8,57.2z
		 M137.8,54.9l2.2-0.6l2.8,1.5V30.9l-5-2.5V54.9L137.8,54.9L137.8,54.9z M106.6,44.1l-5.8-3v22.7l5.8-1.4V44.1L106.6,44.1
		L106.6,44.1z M110.9,61.4l4.3-1v-4.1l-4.3-2.6L110.9,61.4L110.9,61.4L110.9,61.4z M111.9,52.6l3.7,2.2c2.2-0.5,4.9-1.2,5.8-3.4
		V39.8l-4.5-2.3v12.9C116.9,51.3,114.6,52,111.9,52.6L111.9,52.6L111.9,52.6z M110.7,41.6l1.8-0.7v6.8l-1.8,0.7V41.6L110.7,41.6
		L110.7,41.6z M139.1,98.1l4.8,1.1l4.4-0.4l-4.8-1.2L139.1,98.1L139.1,98.1L139.1,98.1z M144.1,96.2l5.6,1.8l0.1-3.3l-5.5-2
		L144.1,96.2L144.1,96.2L144.1,96.2z M143.4,91.4v-2.9l-5.6-2c-0.1,0-0.2,0.1-0.3,0.2c0.1,1.6,0.1,3.1,0,4.7l0.2,0.1H143.4
		L143.4,91.4L143.4,91.4z M138.9,85.6l4.9,1.9l5.4-2.1l-5.8-2.3C142.2,84,140.4,84.8,138.9,85.6L138.9,85.6L138.9,85.6z M143.8,82.1
		l5.8,2.4v-3.1l-5.6-2.3L143.8,82.1L143.8,82.1L143.8,82.1z M141.4,65.8l6.3,3.4v2.2l-6.2-3.3L141.4,65.8L141.4,65.8L141.4,65.8z
		 M147.3,72.5l-4.5,4.1l-5.7-3l4.3-4.2L147.3,72.5L147.3,72.5L147.3,72.5z M136.3,74.8l5.9,2.9l0,0.4l-1.8,0.1l-4,0.8
		C136.5,77.6,136.4,76.2,136.3,74.8L136.3,74.8L136.3,74.8z M94,122.9c0,0,1.2-0.4,0.7-0.6c-0.5-0.3-1.6-0.3-2-0.5
		c-0.4-0.3-0.6-0.6,0.1-0.7c0.6-0.1,0.8-0.2,0.8-0.8c0.1-0.6,0-2.7,0-2.7s-0.4-0.4-0.9-0.7c0,0.8,0.1,1.3,0,1c0,0.1-0.3-0.6-0.5-1.3
		c0,0-0.1,0-0.1,0c0,0-0.1,0-0.1,0c-0.3-0.1-0.7-0.1-1-0.2c0.2,1.3,0.3,2.1,0.2,1.8c-0.1,0.1-0.5-1.1-0.7-1.9
		c-0.3-0.1-0.5-0.1-0.7-0.2c0.3,1.2,0.6,2.1,0.3,2c-0.1,0.1-0.6-1.4-0.9-2.2c-1-0.3-1.6-0.7-1.6-1.1c0-0.4,0.5-0.7,1.3-1
		c0-0.4-0.1-0.7-0.1-0.9c0-0.4-0.1-1.3-0.1-1.3s0.4-0.9,0.6-1.5c0.2-0.6,0.9-0.1,0.2,0.8c-0.5,0.6-0.5,1.6-0.3,2.8
		c0.3-0.1,0.6-0.2,1-0.3c0-0.2,0-0.3,0-0.4c0-0.4,0.2-0.8,0.2-0.8s0.2-1.4,0.4-2c0.2-0.6,2-1.7,0.6-0.1c-0.5,0.5-0.6,1.8-0.6,3.2
		c0.3-0.1,0.7-0.1,1.1-0.2c0-0.1,0-0.2,0-0.3c0-0.4,0.3-0.6,0.3-0.6s0.4-2.4,0.6-2.9c0.2-0.5,2-1.7,0.6-0.1
		c-0.5,0.6-0.7,2.2-0.7,3.9c0.8-0.1,1.7-0.2,2.7-0.3c0.4-1.9,1.4-2.9,2.4-4.5c-2.6-0.9-4.2-3.7-4.3-5.3c-4,2.1-6.7,6.2-6.7,10.9
		c0,6.8,5.6,12.3,12.5,12.3c4.3,0,13.1-3.9,11.3-10.3c-0.7,0.2-1.8,0.5-2.9,0.7c-0.3,0.6-1.2,2.3-1.2,2.2c-0.5,0.2,0.1-0.8,0.5-2.1
		c-0.6,0.1-1.3,0.2-1.9,0.2c0,0,0,0,0,0c-0.4,0.5-0.9,1-0.9,1s0.2,1.7-0.3,1.8c-0.5,0.1-0.6,0.4-0.6,0.4l-1.2,1.5c0,0-0.4,0.6-1,0.9
		c-0.6,0.3-1,1.5-1,1.5c6.7,0.8,9.6-6.2,9.5-6.5c0,0,0.8-0.2,0.1,1.1c-1.4,4.2-5.2,6.6-10.6,6.6c-1.1,0-1.6,0-1.6-0.2
		c-0.7,0.4-0.8-0.8-0.8-0.8l0.9-1.2c0,0,0.4-0.4,0.5-1.8c0.1-0.6,0.5-1.1,0.8-1.4c-0.1,0-0.2,0.1-0.3,0.1c-0.5,0.1-1.2,1.5-1.1,2
		c0.1,0.5-0.3,1.2-0.8,1.4c-0.6,0.2-0.7,1.1-0.7,1.1s-0.6,0.3-1.3,0.3c-0.4,0-4.9-2.5-3.3-2.7C92,121.7,94,122.9,94,122.9L94,122.9
		L94,122.9z M139,65v-1.4l-3.1-1.5l-2.9,1.5c0.6,1.5,1,3,1.3,4.6L139,65L139,65L139,65z M116.2,85.5c0.3,0.8,0.9,1.9,1.3,4.3
		l-1.6,0.2c0-0.6-1.1-4-1.8-5L116.2,85.5L116.2,85.5L116.2,85.5z M120.2,89.5c0-0.5-0.3-2.1-0.8-3.2c4.7,1.3,8.2,2.5,8.2,2.5
		L120.2,89.5L120.2,89.5L120.2,89.5z M110.5,86.3c0.6,0.8,1.2,1.8,1.8,4l-2.2,0.2c-0.3-1.2-0.7-2.5-1.4-3.1L110.5,86.3L110.5,86.3
		L110.5,86.3z M103.9,71.9l9.7-2.1l-3.7,8.9c-1.3-0.1-2.6-0.3-3.9-0.2L103.9,71.9L103.9,71.9L103.9,71.9z M97.7,74.7v-1.5h2.6v1.5
		C99.7,74.6,98.4,74.6,97.7,74.7L97.7,74.7L97.7,74.7z M101.8,76.2l0.3-0.3l1.9,5.8c-0.3,0-0.9,0-1.2-0.1l-1.3-4
		C101.7,77.3,102.1,76.6,101.8,76.2L101.8,76.2L101.8,76.2z M111,110c-0.6-1.8-1.6-3.1-2.9-4.6c-2.3-2.4-5.5-3.8-9-3.8
		c-0.7,0-1.3,0.1-1.9,0.2c0,0.5,0,1,0.3,1.2C101.5,105.6,107.6,106,111,110L111,110L111,110z M93.6,100.6l-5.4,0.3
		c-0.3,2,0,5.9,0,5.9l0,0.2c1.3-2,3-3.6,5.2-4.6C93.3,101.8,93.4,101.2,93.6,100.6L93.6,100.6L93.6,100.6z M100.4,78.3
		c-0.1,0-0.2-0.1-0.2-0.1c-0.3-0.2-0.9-0.5-1.2-0.5c-0.2,0-0.9,0.3-1.2,0.4v3.7c0.4-0.1,0.9-0.1,1.3-0.1c0.4,0,0.8-0.1,1.3-0.1
		L100.4,78.3L100.4,78.3L100.4,78.3z M100.8,77.5c-0.5-0.1-1.3-0.7-1.8-0.6c-0.2,0-0.9,0.3-1.1,0.4c-0.2,0-1-0.1-1.2-0.5
		c-0.1-0.5-0.2-0.3,0-0.8c0.2-0.3,0.6-0.8,1.2-0.8c0.6-0.1,2.4,0,2.6,0.1c0.3,0.2,0.8,0.6,0.8,1.2C101.3,77,100.8,77.5,100.8,77.5
		L100.8,77.5L100.8,77.5z M98.4,78.5h-0.3v2.3h0.3V78.5L98.4,78.5L98.4,78.5z M98.4,81.1h-0.3v0.3h0.3V81.1L98.4,81.1L98.4,81.1z
		 M97.6,87.6h1v-4c0.4-0.1,0.8-0.1,1.1-0.1c0.2,0,0.5,0,0.7,0l-0.1,4.3l-1.3,3L97.6,87.6L97.6,87.6L97.6,87.6z M97.3,83.8V87
		l-1.4-2.9C96.4,84,96.9,83.8,97.3,83.8L97.3,83.8L97.3,83.8z M97.9,84.1h-0.4v0.4h0.4V84.1L97.9,84.1L97.9,84.1z M97.9,85.8h-0.4
		v1.3h0.4V85.8L97.9,85.8L97.9,85.8z M100.8,97.5l-0.1,2.7c0,0,2.8-0.2,2.7-1.9c-0.1-1.8-1.4-2.8-3-2.8c-2.4,0-4.5-0.3-5.4-1.8
		L92.4,94c-0.6,0.8-0.2,2.1,0.6,2.3c0.7,0.1,2.3,0.5,2.8,0.5c0.6,0,3.9,0.2,3.9,0.2C100.2,97,100.8,97.2,100.8,97.5L100.8,97.5
		L100.8,97.5z M95.4,93.3c0.9,1,2,1.5,3.3,1.5h1.7l0-2L95.4,93.3L95.4,93.3L95.4,93.3z M129.3,89l-54.9,5.3c0,0,14.9-10.6,25.3-11.4
		C110.6,82.1,129.3,89,129.3,89L129.3,89L129.3,89z M106.9,83.7c0.9,0.2,2.5,1.3,2.7,1.6l-1.7,1c-1-1-2.5-2-4.1-2.4l0.3-0.6
		C105,83.5,105.9,83.6,106.9,83.7L106.9,83.7L106.9,83.7z M101.4,91.3l11.2-6.6c-0.3-0.1-0.6-0.1-0.9-0.2l-11.6,6.8l-0.1,0.1l-0.2,0
		L101.4,91.3L101.4,91.3L101.4,91.3z M97.9,91.5l0.1,0.2l0.4,0l-3.6-7.2c0.3-0.1,0.5-0.2,0.7-0.2l3.5,7.4l-2.3,0.2l-10.7-3.9
		c0.3-0.1,0.5-0.3,0.8-0.4L97.9,91.5L97.9,91.5L97.9,91.5z M94.5,84.5C94.5,84.5,94.5,84.5,94.5,84.5C94.5,84.5,94.5,84.5,94.5,84.5
		L94.5,84.5L94.5,84.5z M103.7,83.4l-4,8.1l-0.6,0.1l3.6-8.2C102.7,83.4,104,83.4,103.7,83.4L103.7,83.4L103.7,83.4z M132.2,89.4
		l-60.8,5.7c0,0,16.3-12,27.8-12.8C111.5,81.4,132.2,89.4,132.2,89.4L132.2,89.4L132.2,89.4z M106,113.4v2.9c0.3,0,0.7-0.1,1-0.1
		c0.2-0.8,0.3-1.5-0.1-2.1c-0.2-0.2-0.3-0.4-0.3-0.6C106.4,113.4,106.2,113.4,106,113.4L106,113.4L106,113.4z M104.9,116.3
		c0-0.8,0-2.5-0.1-3.1c-0.3,0-0.6-0.1-1-0.1c-0.2,0.4-0.3,0.7,0,0.9c0.6,0.4,0.3,1.6-0.2,1.8c-0.2,0.1-0.3,0.3-0.5,0.5
		C103.7,116.4,104.3,116.4,104.9,116.3L104.9,116.3L104.9,116.3z M101.7,109.7c-1.4,0.8-0.8,0-0.8,2.9c0.1,0,0.1,0,0.2,0
		c0.1-0.2,0.2-0.4,0.2-0.4s1.1-0.4,1.3-1.7c0-0.2,0.1-0.3,0.2-0.4C102.4,109.9,102,109.8,101.7,109.7L101.7,109.7L101.7,109.7z
		 M104.3,110.8c0.1,0.4,0.2,1,0,1.3c-0.1,0.2-0.2,0.4-0.4,0.6c1,0.1,1.9,0.2,2.7,0.3c0.1,0,0.1,0,0.2,0c0.7,0.1,1.5,0.3,2.1,0.4
		C108.3,112.5,106.4,111.6,104.3,110.8L104.3,110.8L104.3,110.8z M110.3,115.4c-0.1-0.5-0.5-1.1-0.8-1.4c-0.6-0.2-1.3-0.3-2-0.4l0,0
		c-0.1,0-0.3,0-0.4-0.1c0.1,0.4,0.3,0.7,0.5,1.1c0,0.3,0.1,0.6,0.1,0.6v0.8C108.8,115.8,109.8,115.6,110.3,115.4L110.3,115.4
		L110.3,115.4z M92.6,116.2c0-0.8-0.1-1.8-0.1-2.8c0.8-0.1,1.6-0.2,2.6-0.2c-0.2,0.7-0.3,1.5-0.5,2.2c-0.3,1.2-1.4,0.8-1.7,0.8
		C92.9,116.1,92.8,116.2,92.6,116.2L92.6,116.2L92.6,116.2z M91.8,113.5c0,0.5,0,0.9,0,0.9l-0.1,0.8c0,0,0.1,0.4,0.3,0.8
		c-0.4,0-0.7-0.1-1.1-0.2c-0.1-0.7-0.1-1.5-0.2-2.3C91,113.6,91.4,113.6,91.8,113.5L91.8,113.5L91.8,113.5z M90.1,113.8
		c0,0.5,0.1,0.9,0.1,0.9l-0.1,0.8c0,0,0,0.1,0.1,0.3c-0.2-0.1-0.5-0.1-0.7-0.2c-0.1-0.5-0.3-1.1-0.3-1.6
		C89.5,113.9,89.8,113.9,90.1,113.8L90.1,113.8L90.1,113.8z M88.8,114.2c0,0.3,0,0.5,0,0.5l0.1,0.8c-0.6-0.2-0.9-0.4-0.9-0.7
		C88,114.6,88.3,114.4,88.8,114.2L88.8,114.2L88.8,114.2z M103.6,117c-0.3,0-0.5,0-0.8,0c-0.2,0.5-0.3,1.1-0.2,1.9
		c0.1,1.7-1.3,2-1.7,2.2c-0.4,0.1-1.3,0.1-1.4,0.8c-0.1,0.7-0.5,1.3-0.8,1.4c-0.2,0.1-0.5,0.6-0.9,1.1c0.6-0.4,1.6-0.8,1.7-0.9
		c0.3-0.4,0.9-1.3,0.9-1.3s0.3-0.4,1-0.6c0.7-0.2,1.2-1.3,1.2-1.3s-0.1-0.9,0.4-1.4c0.4-0.5,0.6-1.3,0.6-1.3S103.6,117.2,103.6,117
		L103.6,117L103.6,117z M100.3,117.1c-0.2,0-0.3,0-0.5,0c-0.1,0.1-0.1,0.1-0.1,0.1s-0.3,1-0.3,1.4c0,0.2-0.2,0.5-0.5,0.8
		c0.3-0.2,0.6-0.3,0.6-0.3s0.9,0.4,0.8-1.2C100.3,117.6,100.3,117.4,100.3,117.1L100.3,117.1L100.3,117.1z M100.9,113.1
		c0,0.3,0.1,0.5,0.4,0.7c0.8,0.4-0.1,1.6-0.1,1.6s-0.5,0.4-0.7,1.2c-0.1,0-0.2,0-0.3,0C100.4,115.9,100.8,114.9,100.9,113.1
		C100.8,113.1,100.9,113.1,100.9,113.1L100.9,113.1z"/>
</g>
</svg>
