<?xml version="1.0" encoding="utf-8"?>
<!-- Generator: Adobe Illustrator 21.0.2, SVG Export Plug-In . SVG Version: 6.00 Build 0)  -->
<svg version="1.1" id="Layer_1" xmlns="http://www.w3.org/2000/svg" xmlns:xlink="http://www.w3.org/1999/xlink" x="0px" y="0px"
	 viewBox="0 0 52.2 52.2" style="enable-background:new 0 0 52.2 52.2;" xml:space="preserve">
<g>
	<path d="M1.8,47.7c0,1.2,0.9,2.1,2.1,2.1H15c1.2,0,2.1-0.9,2.1-2.1v-3.1H1.8V47.7z"/>
	<rect x="1.8" y="40.2" width="15.4" height="3"/>
	<path d="M48,1.8H23.3c-1,0-1.8,0.8-1.8,1.8v5.4h-12c-0.6,0-1,0.4-1,1V16H3.8c-1.2,0-2.1,0.9-2.1,2.1v20.6h15.4v-2.1h18.5
		c0.6,0,1-0.4,1-1v-5.6h5.1c0.5,0,0.9-0.4,0.9-0.9s-0.4-0.9-0.9-0.9H40l-0.8-2.8h-7.1l-0.8,2.8h-1.7c-0.5,0-0.9,0.4-0.9,0.9
		s0.4,0.9,0.9,0.9h5.1v4.6H17.1V18.1c0-1.2-0.9-2.1-2.1-2.1h-4.6v-5.1h11v11.6c0,1,0.8,1.8,1.8,1.8H48c1,0,1.8-0.8,1.8-1.8v-19
		C49.8,2.5,49,1.8,48,1.8z M9.4,35c-1,0-1.9-0.9-1.9-1.9c0-1,0.9-1.9,1.9-1.9s1.9,0.9,1.9,1.9S10.4,35,9.4,35z M14.4,25.6h-0.2
		c-1.1,0-2.2,0.4-2.9,1.2c-0.4,0.5-1,0.8-1.7,0.8s-1.3-0.3-1.7-0.8c-0.7-0.8-1.8-1.2-2.9-1.2H4.6c-0.6,0-1-0.5-1-1c0-0.6,0.5-1,1-1
		h9.7c0.6,0,1,0.5,1,1C15.4,25.1,14.9,25.6,14.4,25.6z M15.4,19.5v2.8H3.5v-2.8H15.4z M35.7,23.3c-0.6,0-1.2-0.5-1.2-1.2
		c0-0.6,0.5-1.2,1.2-1.2s1.2,0.5,1.2,1.2C36.8,22.8,36.3,23.3,35.7,23.3z M47.3,19.5H23.9V4.2h23.6v15.4H47.3z"/>
</g>
</svg>
