<?xml version="1.0" encoding="utf-8"?>
<!-- Generator: Adobe Illustrator 21.0.2, SVG Export Plug-In . SVG Version: 6.00 Build 0)  -->
<svg version="1.1" id="Layer_1" xmlns="http://www.w3.org/2000/svg" xmlns:xlink="http://www.w3.org/1999/xlink" x="0px" y="0px"
	 viewBox="0 0 105.9 98.8" style="enable-background:new 0 0 105.9 98.8;" xml:space="preserve">
<title>Artboard 3</title>
<path d="M103.7,5.2v64.3c0,8.8-6,16.3-14.3,17.9L29.7,97.5c-1.5,0-3-0.7-3.9-2c-0.8-1-1.1-2.2-1.1-3.5V80c0-0.5,0.4-0.8,0.8-0.8
	c0,0,0.1,0,0.1,0c2.7,0.4,5.5,0.4,8.2,0c0.4-0.1,0.9,0.2,0.9,0.7c0,0,0,0.1,0,0.1v3.8l36.9-19c2.5-1.3,5.5-0.2,6.8,2.4
	c0.3,0.7,0.5,1.5,0.5,2.4c0,4.2,3.3,7.6,7.4,7.6c0.2,0,0.4,0,0.6,0c3.8-0.5,6.7-3.9,6.7-7.9V10.5H34.7v11.2c0,0.5-0.4,0.8-0.8,0.8
	c0,0-0.1,0-0.1,0c-2.7-0.4-5.5-0.4-8.2,0c-0.4,0.1-0.9-0.2-0.9-0.7c0,0,0-0.1,0-0.1V5.2c0-2.9,2.3-5.2,5.1-5.2h69
	C101.5,0,103.7,2.3,103.7,5.2z M2.6,79c-2-2.1-2-5.5,0-7.6l9.5-9.9c-5.6-10.1-2.3-23,7.4-28.8s22.1-2.4,27.7,7.7
	c4.6,8.3,3.3,18.7-3.2,25.5l0,0c-6.5,6.7-16.6,8.1-24.5,3.3L10,79C8,81.1,4.7,81.1,2.6,79L2.6,79z M22.7,58.1c3.9,4,10.1,4,14,0
	s3.9-10.5,0-14.5c-3.9-4-10.1-4-14,0C18.8,47.6,18.8,54.1,22.7,58.1z M81.9,35.6H57.5c-2.1,0-3.9,1.8-3.9,4s1.7,4,3.9,4h24.4
	c2.1,0,3.9-1.8,3.9-4S84,35.6,81.9,35.6z M81.9,51.2H59.5c-2.1,0-3.9,1.8-3.9,4s1.7,4,3.9,4h22.4c2.1,0,3.9-1.8,3.9-4
	S84,51.2,81.9,51.2z"/>
<g>
	<path d="M40.4,29.6V14h4.3l3.9,7.3c0.1,0.2,0.2,0.5,0.4,0.9c0.1,0.4,0.3,0.8,0.4,1.4c0-0.3-0.1-0.6-0.1-0.9c0-0.3,0-0.7,0-1.2V14
		h4.3v15.6h-4.3l-3.9-7.2c-0.1-0.2-0.3-0.5-0.4-0.9c-0.1-0.4-0.3-0.8-0.4-1.3c0,0.3,0.1,0.6,0.1,0.9c0,0.3,0,0.7,0,1.3v7.3H40.4z"/>
	<path d="M55.6,21.8c0-2.5,0.6-4.5,1.9-6c1.3-1.5,3.1-2.2,5.3-2.2c2.2,0,4,0.7,5.3,2.2c1.3,1.5,1.9,3.5,1.9,6c0,2.5-0.6,4.5-1.9,6
		S65.1,30,62.8,30c-2.2,0-4-0.7-5.3-2.2S55.6,24.4,55.6,21.8z M60.1,21.8c0,1.5,0.2,2.6,0.7,3.2c0.4,0.7,1.1,1,2.1,1
		c0.9,0,1.6-0.3,2.1-1c0.4-0.7,0.7-1.8,0.7-3.3c0-1.5-0.2-2.6-0.7-3.3c-0.4-0.7-1.1-1-2.1-1c-0.9,0-1.6,0.3-2.1,1
		C60.3,19.3,60.1,20.3,60.1,21.8z"/>
	<path d="M76.2,29.6h-4.1V14h5.5l1.9,7.8c0,0.1,0.1,0.3,0.2,0.7c0.1,0.4,0.2,0.9,0.3,1.6c0.1-0.5,0.2-1,0.2-1.4
		c0.1-0.4,0.1-0.7,0.2-0.9l2-7.8h5.4v15.6h-4.1l0-7.7c0-0.5,0-0.9,0-1.4s0-0.9,0-1.4c-0.2,0.8-0.3,1.7-0.5,2.6l0,0.1l-1.7,7.6h-3.1
		l-1.7-7.5c-0.1-0.3-0.2-0.7-0.2-1.2s-0.2-1-0.3-1.8c0,0.7,0,1.2,0,1.7c0,0.5,0,0.9,0,1.2V29.6z"/>
</g>
</svg>
