<?xml version="1.0" encoding="utf-8"?>
<!-- Generator: Adobe Illustrator 21.0.2, SVG Export Plug-In . SVG Version: 6.00 Build 0)  -->
<svg version="1.1" id="Layer_1" xmlns="http://www.w3.org/2000/svg" xmlns:xlink="http://www.w3.org/1999/xlink" x="0px" y="0px"
	 viewBox="0 0 100 100" style="enable-background:new 0 0 100 100;" xml:space="preserve">
<style type="text/css">
	.st0{display:none;}
	.st1{display:inline;stroke:#D1D3D4;stroke-width:4;stroke-miterlimit:10;}
	.st2{display:inline;stroke:#D1D3D4;stroke-miterlimit:10;}
	.st3{fill:none;}
</style>
<g class="st0">
	<path class="st1" d="M2.2-17C-7.4-17-15-9.2-15,0.2v96.4c0,9.5,7.6,17.2,17.2,17.2h96.4c9.5,0,17.2-7.6,17.2-17.2V0.2
		c0-9.4-7.6-17.2-17.2-17.2H2.2z"/>
	<rect x="1.3" y="-0.7" class="st2" width="98.1" height="98.1"/>
</g>
<g>
	<path d="M66,17.7c0,8.7-7.1,15.7-15.7,15.7c-8.7,0-15.7-6.9-15.7-15.7S41.7,2.1,50.4,2.1C59,2.1,66,9,66,17.7"/>
	<path class="st3" d="M9.2,75.5c0.3,0.8,0.7,1.6,1.2,2.3L24.8,95L10.6,77.7C10.1,77,9.5,76.3,9.2,75.5z"/>
	<path d="M20.8,43.5c-2.3,1.8-4.1,3.9-5.4,6.4c-0.3,0.4-0.4,0.8-0.5,1.4c0.1-0.4,0.3-1,0.5-1.4C16.7,47.3,18.6,45.1,20.8,43.5z"/>
	<path d="M20.8,43.5c1.5-1.1,3.1-2.2,5-2.9C24.1,41.3,22.5,42.2,20.8,43.5z"/>
	<path d="M25.9,40.6c1-0.4,1.8-0.7,2.7-1C27.8,39.9,26.8,40.2,25.9,40.6z"/>
	<path d="M92.5,72.6c0-0.7-0.1-1.2-0.4-1.9l-7.1-20c-0.1-0.3-0.3-0.5-0.4-1c-0.4-0.8-1-1.6-1.5-2.5c-1.1-1.5-2.5-2.9-3.9-4.1
		c-1.5-1.2-3.1-2.2-5-2.9c-1-0.4-1.8-0.7-2.7-1c-1.9-0.3-3.9-0.5-6-0.5H33.9c-2,0-4.1,0.3-6,0.8c-1,0.3-1.9,0.5-2.7,1
		c-1.8,0.7-3.5,1.8-5,2.9c-0.5,0.4-1.1,1-1.6,1.4c-1.5,1.5-2.9,3.1-3.8,5c-0.3,0.4-0.4,0.8-0.5,1.4l-5.7,20C8,72.6,8,74.1,8.6,75.5
		c0.1,0.4,0.3,0.8,0.5,1.2c0.3,0.4,0.4,0.7,0.7,1.1L24.1,95c0.8,1.1,2,1.8,3.3,2.2c0.7,0.3,1.5,0.4,2.3,0.4l0,0l0,0h15.7
		c0.4,0,0.8-0.1,1.1-0.3c0.4-0.1,0.7-0.4,1-0.5c0.3-0.3,0.4-0.5,0.5-1c0.1-0.4,0.3-0.7,0.3-1.1c0-0.8-0.3-1.6-1-2
		c-0.1-0.1-0.4-0.3-0.7-0.4C46.4,92,46,92,45.6,92h-5L23.3,71.4l3.5-12.7h2.7v0.1v5.4v10.2l12.3,14.7h1.1h2.7h8.7h0.8H58l11.7-13.3
		V64.4v-5.7h3l4.5,12.7L69.7,80l0,0L59.2,92h-4.9c-0.1,0-0.4,0-0.5,0c-0.5,0.1-1.2,0.3-1.6,0.7c-0.1,0.1-0.3,0.3-0.4,0.4
		c-0.3,0.3-0.4,0.5-0.5,1c0,0.1-0.1,0.4-0.1,0.5c0,1,0.5,1.9,1.2,2.3c0.3,0.3,0.7,0.4,1.1,0.4c0.1,0,0.4,0,0.5,0h15.7l0,0
		c1.9,0,3.8-0.8,5.3-2.3l15.7-17.2c1-1,1.5-2.2,1.8-3.4C92.5,74,92.6,73.3,92.5,72.6z M51.7,82.4H49c-0.8,0-1.4-0.5-1.4-1.4
		s0.5-1.4,1.4-1.4h2.7c0.8,0,1.4,0.5,1.4,1.4S52.6,82.4,51.7,82.4z M53.1,78.3h-5.4c-0.8,0-1.4-0.5-1.4-1.4s0.5-1.4,1.4-1.4h5.4
		c0.8,0,1.4,0.5,1.4,1.4S53.9,78.3,53.1,78.3z M57.2,66.9L57.2,66.9c-2.9,3.5-2.7,6-2.7,6c0,0.8-0.5,1.4-1.4,1.4h-5.4
		c-0.8,0-1.4-0.5-1.4-1.4c0,0,0.1-2.5-2.7-6l0,0c-1.2-1.5-2-3.4-2-5.6c0-4.9,3.9-8.9,8.9-8.9s8.9,3.9,8.9,8.9
		C59.2,63.5,58.5,65.4,57.2,66.9z"/>
</g>
</svg>
