<?xml version="1.0" encoding="utf-8"?>
<!-- Generator: Adobe Illustrator 21.0.2, SVG Export Plug-In . SVG Version: 6.00 Build 0)  -->
<svg version="1.1" id="Layer_1" xmlns="http://www.w3.org/2000/svg" xmlns:xlink="http://www.w3.org/1999/xlink" x="0px" y="0px"
	 viewBox="0 0 128 126.3" style="enable-background:new 0 0 128 126.3;" xml:space="preserve">
<g>
	<path d="M116.1,7h-3.5h-1.9H12.5c-7,0-9.9,2.9-9.9,9.8c0,24.4,0,48.7,0,73.1c0,6.9,2.8,9.7,9.6,9.7c13,0,26,0,39,0
		c0,0.7-0.1,1.5-0.1,2.2c-0.1,2.1-0.2,4.3-0.5,6.4c-0.1,0.6-0.2,1.2-0.4,1.8c-0.6,1.9-1.9,3.4-3.7,4.6c-0.7,0.4-1.3,0.8-2,1.2
		c-1.2,0.7-2.4,1.4-3.5,2.1c-0.5,0.3-1,0.8-1.3,1.3c-0.4,0.9,0,1.5,0.9,1.6c0.3,0,0.6,0,0.9,0c15.1,0,30.3,0,45.4,0
		c0.8,0,1.9,0.3,2.1-0.9c0.2-1-0.5-1.6-1.4-2.1c-1.2-0.7-2.5-1.5-3.7-2.2c-0.5-0.3-0.9-0.6-1.4-0.8c-1.9-1.1-3.2-2.6-3.9-4.5
		c-0.4-0.9-0.6-1.9-0.7-3c-0.2-2.6-0.4-5.1-0.6-7.8h38.7c6.4,0,9.4-3,9.4-9.5V16.3C125.4,10.1,122.3,7,116.1,7z M68.6,92.7
		c-1,1.7-2.8,2.8-4.7,2.8c-1.9-0.1-3.6-1.2-4.5-2.8C59,91.9,58.7,91,58.7,90c0-2.9,2.4-5.3,5.3-5.4c3,0,5.3,2.5,5.3,5.6
		C69.2,91.1,69,92,68.6,92.7z M115.4,80.1C81.2,80,47.1,80,12.9,80c-3.5,0-3.6-0.1-3.6-3.7V18c0-4.1,0-4.2,4.3-4.2
		c12.3,0,80.2,0,97.1,0h1.9h2.3c3.6,0,3.8,0.1,3.8,3.6c0,19.7,0,39.4,0.1,59.1C118.8,79.1,118.1,80.1,115.4,80.1z"/>
	<g>
		<g>
			<path d="M57.7,64.5c0-0.1,0-0.2,0-0.3c0.1-0.4,0.3-0.7,0.4-1.1c2.8-7.3,5.5-14.5,8.3-21.8c1-2.7,2-5.4,3.1-8.1
				c0.4-1.1,1.5-1.7,2.5-1.5c1.1,0.2,1.9,1.1,2,2.2c0,0.4-0.1,0.9-0.2,1.3c-2.1,5.4-4.1,10.9-6.2,16.3c-1.7,4.6-3.5,9.1-5.2,13.7
				c-0.4,0.9-1,1.5-2,1.6c-0.5,0.1-1.1-0.1-1.5-0.4C58.3,66.1,57.7,65.3,57.7,64.5z"/>
			<path d="M56.2,65.1c-0.9,1.2-2.5,1.3-3.6,0.2c-2.5-2.5-5.1-5.1-7.6-7.6c-2.1-2.1-4.2-4.2-6.2-6.3c-0.3-0.3-0.6-0.7-0.9-1.1
				c0,0,0,0,0,0c0,0-0.1-0.1-0.1-0.1c-0.6-0.9,0-1.6,0.1-1.7c0,0,0,0,0,0l0.9-1c0.6-0.6,1.2-1.2,1.8-1.9c4-4.1,8.1-8.1,12.1-12.2
				c0.8-0.8,1.9-1,2.9-0.5c0.9,0.5,1.4,1.6,1.1,2.6c-0.2,0.5-0.5,1-0.9,1.4c-3.5,3.6-7.1,7.2-10.7,10.8c-0.5,0.5-1.1,1-1.7,1.6
				c0.2,0.2,0.4,0.4,0.6,0.6c4,4,7.9,8,11.9,12C56.8,62.8,56.9,64,56.2,65.1z"/>
			<path d="M75.9,64.9c0.9,1.2,2.5,1.3,3.6,0.2c2.5-2.5,5.1-5.1,7.6-7.6c2.1-2.1,4.2-4.2,6.2-6.3c0.3-0.3,0.6-0.7,0.9-1.1
				c0,0,0,0,0,0c0,0,0.1-0.1,0.1-0.1c0.6-0.9,0-1.6-0.1-1.7c0,0,0,0,0,0l-0.9-1c-0.6-0.6-1.2-1.2-1.8-1.9c-4-4.1-8.1-8.1-12.1-12.2
				c-0.8-0.8-1.9-1-2.9-0.5c-0.9,0.5-1.4,1.6-1.1,2.6c0.2,0.5,0.5,1,0.9,1.4c3.5,3.6,7.1,7.2,10.7,10.8c0.5,0.5,1.1,1,1.7,1.6
				c-0.2,0.2-0.4,0.4-0.6,0.6c-4,4-7.9,8-11.9,12C75.3,62.7,75.1,63.9,75.9,64.9z"/>
		</g>
	</g>
	<path d="M29,37.3c0.2-0.9,0.3-1.9,0.5-2.8c0-0.2,0-0.4-0.2-0.5c-0.6-0.6-1.3-1.3-1.9-1.9c-0.1-0.1-0.3-0.4-0.2-0.5
		c0.1-0.2,0.3-0.3,0.5-0.4c0.9-0.2,1.8-0.2,2.6-0.4c0.2,0,0.4-0.2,0.5-0.3c0.4-0.8,0.8-1.6,1.2-2.4c0.1-0.2,0.3-0.4,0.5-0.4
		c0.2,0,0.4,0.2,0.5,0.4c0.4,0.8,0.8,1.6,1.2,2.3c0.1,0.3,0.3,0.4,0.6,0.4c0.9,0.1,1.7,0.2,2.6,0.4c0.2,0,0.5,0.2,0.5,0.4
		c0.1,0.1-0.1,0.4-0.2,0.6c-0.6,0.6-1.2,1.2-1.9,1.8c-0.2,0.2-0.3,0.4-0.2,0.6c0.2,0.8,0.3,1.6,0.4,2.4c0,0.1,0,0.3,0,0.4
		c0,0.5-0.3,0.7-0.7,0.4c-0.8-0.4-1.6-0.9-2.5-1.3c-0.2-0.1-0.4-0.1-0.6,0c-0.8,0.4-1.6,0.9-2.5,1.3C29.3,38.1,29,37.9,29,37.3z"/>
	<path d="M41.7,31.4c0.1-0.9,0.2-1.8,0.3-2.7c0-0.1,0-0.4-0.1-0.5c-0.4-0.6-0.8-1.2-1.2-1.8c-0.1-0.1-0.2-0.4-0.2-0.5
		c0-0.2,0.2-0.3,0.3-0.3c0.5-0.1,1.1-0.2,1.6-0.4c0.1,0,0.3-0.2,0.3-0.3c0.3-0.8,0.5-1.5,0.8-2.3c0.1-0.2,0.2-0.4,0.3-0.4
		c0.1,0,0.2,0.2,0.3,0.4c0.3,0.7,0.5,1.5,0.7,2.2c0.1,0.2,0.2,0.4,0.4,0.4c0.5,0.1,1.1,0.2,1.6,0.4c0.1,0,0.3,0.2,0.3,0.3
		c0,0.1-0.1,0.4-0.2,0.5c-0.4,0.6-0.8,1.2-1.2,1.7c-0.1,0.2-0.2,0.3-0.1,0.6c0.1,0.8,0.2,1.5,0.3,2.3c0,0.1,0,0.2,0,0.4
		c0,0.4-0.2,0.6-0.4,0.4c-0.5-0.4-1-0.8-1.5-1.2c-0.1-0.1-0.3-0.1-0.4,0c-0.5,0.4-1,0.8-1.5,1.2C41.8,32.1,41.7,31.9,41.7,31.4z"/>
</g>
</svg>
