<?xml version="1.0" encoding="utf-8"?>
<!-- Generator: Adobe Illustrator 21.0.2, SVG Export Plug-In . SVG Version: 6.00 Build 0)  -->
<svg version="1.1" id="Layer_1" xmlns="http://www.w3.org/2000/svg" xmlns:xlink="http://www.w3.org/1999/xlink" x="0px" y="0px"
	 viewBox="0 0 100 101.6" style="enable-background:new 0 0 100 101.6;" xml:space="preserve">
<g>
	<image style="overflow:visible;" width="52" height="52" xlink:href="B6CFD5BA.png"  transform="matrix(1 0 0 1 24 24)">
	</image>
	<path d="M80.5,14.4H19.5c-2.8,0-5.1,2.3-5.1,5.1v61.1c0,2.8,2.3,5.1,5.1,5.1h61.1c2.8,0,5.1-2.3,5.1-5.1V19.5
		C85.6,16.7,83.3,14.4,80.5,14.4z M79.7,75.4c0,2.3-1.9,4.2-4.2,4.2H24.6c-2.3,0-4.2-1.9-4.2-4.2V24.6c0-2.3,1.9-4.2,4.2-4.2h50.9
		c2.3,0,4.2,1.9,4.2,4.2V75.4z"/>
	<path d="M20.7,10.7h3c0.8,0,1.5-0.7,1.5-1.5V4c0-0.8-0.7-1.5-1.5-1.5h-3c-0.8,0-1.5,0.7-1.5,1.5v5.2C19.2,10,19.9,10.7,20.7,10.7z"
		/>
	<path d="M30,10.7h3c0.8,0,1.5-0.7,1.5-1.5V4c0-0.8-0.7-1.5-1.5-1.5h-3c-0.8,0-1.5,0.7-1.5,1.5v5.2C28.5,10,29.1,10.7,30,10.7z"/>
	<path d="M39.2,10.7h3c0.8,0,1.5-0.7,1.5-1.5V4c0-0.8-0.7-1.5-1.5-1.5h-3c-0.8,0-1.5,0.7-1.5,1.5v5.2C37.8,10,38.4,10.7,39.2,10.7z"
		/>
	<path d="M48.5,10.7h3c0.8,0,1.5-0.7,1.5-1.5V4c0-0.8-0.7-1.5-1.5-1.5h-3C47.7,2.5,47,3.2,47,4v5.2C47,10,47.7,10.7,48.5,10.7z"/>
	<path d="M57.8,10.7h3c0.8,0,1.5-0.7,1.5-1.5V4c0-0.8-0.7-1.5-1.5-1.5h-3c-0.8,0-1.5,0.7-1.5,1.5v5.2C56.3,10,57,10.7,57.8,10.7z"/>
	<path d="M67.1,10.7h3c0.8,0,1.5-0.7,1.5-1.5V4c0-0.8-0.7-1.5-1.5-1.5h-3c-0.8,0-1.5,0.7-1.5,1.5v5.2C65.6,10,66.3,10.7,67.1,10.7z"
		/>
	<path d="M76.3,10.7h3c0.8,0,1.5-0.7,1.5-1.5V4c0-0.8-0.7-1.5-1.5-1.5h-3c-0.8,0-1.5,0.7-1.5,1.5v5.2C74.9,10,75.5,10.7,76.3,10.7z"
		/>
	<path d="M23.7,89.3h-3c-0.8,0-1.5,0.7-1.5,1.5V96c0,0.8,0.7,1.5,1.5,1.5h3c0.8,0,1.5-0.7,1.5-1.5v-5.2C25.1,90,24.5,89.3,23.7,89.3
		z"/>
	<path d="M32.9,89.3h-3c-0.8,0-1.5,0.7-1.5,1.5V96c0,0.8,0.7,1.5,1.5,1.5h3c0.8,0,1.5-0.7,1.5-1.5v-5.2C34.4,90,33.7,89.3,32.9,89.3
		z"/>
	<path d="M42.2,89.3h-3c-0.8,0-1.5,0.7-1.5,1.5V96c0,0.8,0.7,1.5,1.5,1.5h3c0.8,0,1.5-0.7,1.5-1.5v-5.2C43.7,90,43,89.3,42.2,89.3z"
		/>
	<path d="M51.5,89.3h-3c-0.8,0-1.5,0.7-1.5,1.5V96c0,0.8,0.7,1.5,1.5,1.5h3c0.8,0,1.5-0.7,1.5-1.5v-5.2C53,90,52.3,89.3,51.5,89.3z"
		/>
	<path d="M60.8,89.3h-3c-0.8,0-1.5,0.7-1.5,1.5V96c0,0.8,0.7,1.5,1.5,1.5h3c0.8,0,1.5-0.7,1.5-1.5v-5.2C62.2,90,61.6,89.3,60.8,89.3
		z"/>
	<path d="M70,89.3h-3c-0.8,0-1.5,0.7-1.5,1.5V96c0,0.8,0.7,1.5,1.5,1.5h3c0.8,0,1.5-0.7,1.5-1.5v-5.2C71.5,90,70.9,89.3,70,89.3z"/>
	<path d="M79.3,89.3h-3c-0.8,0-1.5,0.7-1.5,1.5V96c0,0.8,0.7,1.5,1.5,1.5h3c0.8,0,1.5-0.7,1.5-1.5v-5.2C80.8,90,80.1,89.3,79.3,89.3
		z"/>
	<path d="M9.2,74.9H4c-0.8,0-1.5,0.7-1.5,1.5v3c0,0.8,0.7,1.5,1.5,1.5h5.2c0.8,0,1.5-0.7,1.5-1.5v-3C10.7,75.5,10,74.9,9.2,74.9z"/>
	<path d="M9.2,65.6H4c-0.8,0-1.5,0.7-1.5,1.5v3c0,0.8,0.7,1.5,1.5,1.5h5.2c0.8,0,1.5-0.7,1.5-1.5v-3C10.7,66.3,10,65.6,9.2,65.6z"/>
	<path d="M9.2,56.3H4c-0.8,0-1.5,0.7-1.5,1.5v3c0,0.8,0.7,1.5,1.5,1.5h5.2c0.8,0,1.5-0.7,1.5-1.5v-3C10.7,57,10,56.3,9.2,56.3z"/>
	<path d="M9.2,47H4c-0.8,0-1.5,0.7-1.5,1.5v3C2.5,52.3,3.2,53,4,53h5.2c0.8,0,1.5-0.7,1.5-1.5v-3C10.7,47.7,10,47,9.2,47z"/>
	<path d="M9.2,37.8H4c-0.8,0-1.5,0.7-1.5,1.5v3c0,0.8,0.7,1.5,1.5,1.5h5.2c0.8,0,1.5-0.7,1.5-1.5v-3C10.7,38.4,10,37.8,9.2,37.8z"/>
	<path d="M9.2,28.5H4c-0.8,0-1.5,0.7-1.5,1.5v3c0,0.8,0.7,1.5,1.5,1.5h5.2c0.8,0,1.5-0.7,1.5-1.5v-3C10.7,29.1,10,28.5,9.2,28.5z"/>
	<path d="M9.2,19.2H4c-0.8,0-1.5,0.7-1.5,1.5v3c0,0.8,0.7,1.5,1.5,1.5h5.2c0.8,0,1.5-0.7,1.5-1.5v-3C10.7,19.9,10,19.2,9.2,19.2z"/>
	<path d="M96,74.9h-5.2c-0.8,0-1.5,0.7-1.5,1.5v3c0,0.8,0.7,1.5,1.5,1.5H96c0.8,0,1.5-0.7,1.5-1.5v-3C97.5,75.5,96.8,74.9,96,74.9z"
		/>
	<path d="M96,65.6h-5.2c-0.8,0-1.5,0.7-1.5,1.5v3c0,0.8,0.7,1.5,1.5,1.5H96c0.8,0,1.5-0.7,1.5-1.5v-3C97.5,66.3,96.8,65.6,96,65.6z"
		/>
	<path d="M96,56.3h-5.2c-0.8,0-1.5,0.7-1.5,1.5v3c0,0.8,0.7,1.5,1.5,1.5H96c0.8,0,1.5-0.7,1.5-1.5v-3C97.5,57,96.8,56.3,96,56.3z"/>
	<path d="M96,47h-5.2c-0.8,0-1.5,0.7-1.5,1.5v3c0,0.8,0.7,1.5,1.5,1.5H96c0.8,0,1.5-0.7,1.5-1.5v-3C97.5,47.7,96.8,47,96,47z"/>
	<path d="M96,37.8h-5.2c-0.8,0-1.5,0.7-1.5,1.5v3c0,0.8,0.7,1.5,1.5,1.5H96c0.8,0,1.5-0.7,1.5-1.5v-3C97.5,38.4,96.8,37.8,96,37.8z"
		/>
	<path d="M96,28.5h-5.2c-0.8,0-1.5,0.7-1.5,1.5v3c0,0.8,0.7,1.5,1.5,1.5H96c0.8,0,1.5-0.7,1.5-1.5v-3C97.5,29.1,96.8,28.5,96,28.5z"
		/>
	<path d="M96,19.2h-5.2c-0.8,0-1.5,0.7-1.5,1.5v3c0,0.8,0.7,1.5,1.5,1.5H96c0.8,0,1.5-0.7,1.5-1.5v-3C97.5,19.9,96.8,19.2,96,19.2z"
		/>
</g>
</svg>
