<?xml version="1.0" encoding="utf-8"?>
<!-- Generator: Adobe Illustrator 21.0.2, SVG Export Plug-In . SVG Version: 6.00 Build 0)  -->
<svg version="1.1" id="Layer_1" xmlns="http://www.w3.org/2000/svg" xmlns:xlink="http://www.w3.org/1999/xlink" x="0px" y="0px"
	 viewBox="0 0 187.5 159.8" style="enable-background:new 0 0 187.5 159.8;" xml:space="preserve">
<style type="text/css">
	.st0{fill:#2278BA;}
	.st1{fill:#FFFFFF;}
	.st2{fill:#BACDE4;}
</style>
<g>
	<rect x="27.9" y="8.9" class="st0" width="140.8" height="138.1"/>
	<path class="st1" d="M98.6,17.6c-6.4,0-12.3,1.5-17.6,4.1l0.4,0.8c5.1-2.6,10.8-4,16.7-4.1v7.1c-4.8,0.1-9.3,1.3-13.4,3.3l0.4,0.8
		l0,0c4-2,8.4-3,13-3.1V33c-3.6,0.1-7,1-10,2.4l0.3,0.5l-0.3-0.5c-2.3,1.1-4.3,2.5-6.1,4.3l-4.6-4.6c2.3-2.2,4.9-4.1,7.7-5.4
		l-0.4-0.8c-3,1.5-5.6,3.3-7.9,5.6l-5-5c2.9-2.8,6.1-5.1,9.6-6.9l-0.4-0.8C73.2,25.7,67,31.9,63.2,39.6c-2.6,5.3-4.1,11.2-4.1,17.4
		c0,3.8,0.5,7.5,1.6,11.1l1-0.2c-1-3.3-1.5-6.8-1.6-10.4h7.1c0.1,3,0.5,5.8,1.3,8.7l0.9-0.2c-0.8-2.7-1.3-5.5-1.3-8.4h6.4
		c0,1,0.1,1.8,0.2,2.8c-0.4,0.1-0.9,0.2-0.9,0.2l-0.1,0.5c-0.4,0.1-0.7,0.8-0.7,0.8c-0.4,0.1-0.7,0.6-0.5,0.7
		c0.1,0.1-0.2,0.1-0.2,0.1v0.9l-0.2,0.3l0.1,1c0.2,0,0.2,0.4,0.2,0.4c-0.4,0.1-0.3,0.6-0.3,0.6l-0.8,0.3l-0.1,0.2l-1-0.1l-0.3,0.3
		l0,0c-0.1-0.3-0.1-0.5-0.2-0.8l-1,0.2c0,0.1,0.1,0.1,0.1,0.3h-1.2l-0.1-0.2L67.1,66L67,65.6l-0.6,0.1l-0.1,0.2L65.7,66
		c0.1,0.4-0.7,1-0.7,0.8c-0.1-0.1-0.5-0.6-0.3-0.7s0.7-0.1,0.7-0.1v-0.3l-1.5-0.1l-0.1,0.2l-0.6,0.1v0.7l-0.3,0.1
		c-0.2,0.1,0.1,0.6,0.1,0.6c0.3,0.3-0.1,0.7-0.1,0.7c-0.2,0.2,0.2,0.7,0.2,0.7c0.3,0.1-0.2,0.3-0.2,0.3c0.1,0.4,0.3,0.5,0.3,0.5
		c-0.2,0.4,0.1,0.6,0.1,0.6l0.1,0.7l0.3,0.1v0.4l0.1,0.3h0.7l-0.1-1c-0.6-0.7,0.4-0.8,0.5-0.6c0.1,0.2,0.4,0.4,0.4,0.4
		c0.1,0.6,0.7,1,1,0.4c0.2-0.6,0.4-0.2,0.4,0.1c0.1,0.3,0.9,1,0.9,1h0.6l0.1,0.6c0.7-0.1,0.9,0.1,1.2,1c0.3,1,1,1.2,1,1.2l0.6-0.1
		c0-0.5,0.6,0.1,0.6,0.3s1,1.2,1,1.2l1,0.3l0.2,0.1c0.7,0.8,1.3,1.6,2.1,2.4l-5,5c-4.4-4.6-7.6-10-9.4-16l-1,0.2
		c1.9,6.3,5.2,12,9.9,16.7c3.2,3.2,6.9,5.8,10.9,7.7l0.4-0.8c-3.8-1.8-7.3-4.2-10.3-7.2l5-5c2.6,2.5,5.6,4.6,8.8,6l0.4-0.8
		c-3.1-1.4-6.1-3.4-8.6-5.8l1-1c0.1,0.1,0.1,0.2,0.1,0.4c0.1,0.6,0.4,0.5,0.4,0.5l2.3-0.1L82,78l2-0.1c1-0.1,0.4-1.5,0.2-1.5
		C84,76.3,84,76.1,84,75.9c1.6,1.3,3.3,2.3,5.2,3l0.4-0.8c-2.1-0.9-4.1-2.1-5.9-3.6l-1-1l5-5c1.6,1.6,3.5,2.7,5.6,3.4
		c0.5,0.2,1.1,0.4,1.7,0.5c-0.1,0.1-0.1,0.1-0.1,0.2c0.1,0.2-0.3,0.4-0.3,0.4l-0.4,0.1L94,73.5l-0.4,0.1l-0.1,0.8l-0.4,0.2v0.4
		l-0.3,0.1v0.2l-0.4,0.1l0.2,0.6l0.3,0.1c0.6,0.1,0.3,0.7,0.3,0.7l0.3,0.1l0.1,0.4l0.3,0.7c0.1,0.5,0.4,0.4,0.7,0.3
		c0.1-0.1,0.3,0.5,0.3,0.5l1.6,0.1c0,0-0.1,0.1,0.2,0.2c0.1,0.1,0.7,0.1,1.3,0.1V80c-3-0.1-5.8-0.7-8.4-1.8l-0.4,0.8
		c2.8,1.2,5.8,1.8,8.9,1.9v6.4c-4.2-0.1-8.3-1-12.1-2.7l-0.4,0.8c3.9,1.8,8.1,2.7,12.5,2.8v7.1c-5.6-0.1-11.1-1.3-16.1-3.7l-0.4,0.8
		c5.3,2.5,11,3.8,17,3.8c6.3,0,12.3-1.5,17.8-4.2c3.7-1.8,7.1-4.3,10.1-7.3c3.2-3.2,5.7-6.7,7.6-10.7l0,0c2.6-5.3,3.9-11.1,3.9-17.2
		c0-5.2-1-10.1-2.9-14.8c-1.9-4.8-4.9-9.2-8.7-13.1c-3.9-3.8-8.3-6.7-13.1-8.7l0,0C108.7,18.6,103.8,17.6,98.6,17.6L98.6,17.6z
		 M99.1,18.6c4.8,0.1,9.6,1,13.9,2.7l0,0c4.6,1.8,8.8,4.6,12.4,8.1l-4.2,4.3c-0.1,0-0.3,0.1-0.4,0c-0.3-0.1,0.1-0.4,0.1-0.4v-0.3
		l-0.2-0.2c0,0-0.7,0.1-0.7-0.1s-0.1-0.7-0.1-0.7l-0.1-0.7l-0.3-0.1l-0.1-0.2l-0.4,0v-0.5l-0.2-0.1l-0.2-0.1l-0.1-0.5l-0.9-0.1
		l-0.3-0.4l-0.3-0.5l-1-0.1l-0.2-0.2l-0.4-0.1l-0.3-0.1l-0.1,0.2l-0.7,0.1l-0.1,0.2c-0.2,0.1-0.9,0.1-1.4,0.1
		c-0.8-0.4-1.6-0.7-2.4-1.1l-0.4,0.9c0.7,0.3,1.3,0.6,1.9,0.9c-0.1,0.1-0.1,0.2-0.2,0.2c-0.2,0-0.1,0.5-0.1,0.5s0.5,0,0.7,0.1
		s0.1,0.4,0.1,0.4c0.6-0.1,0.8,0.7,0.7,1c-0.1,0.2,0.2,0.2,0.2,0.2s0,0.7-0.1,0.8c-0.1,0.1,0.5,0.3,0.7,0.5c0.1,0.2-0.1,1-0.2,1.1
		c-0.1,0.1,0.3,0.1,0.3,0.4c-0.1,0.2,0.1,0,0.1,0.3c0.1,0.3,0.1,1,0.1,1l0.6,0.1c0.1-0.5,1.1-0.5,1.3-0.5c0.7,0.2,1.2,1.3,1.2,1.6
		s-0.4,0.3-0.4,0.3v0.3l-1.4,1.4c-0.1-0.1-0.3-0.1-0.4-0.1c-0.2,0.1-0.1-0.8-0.1-0.8s0.4-0.2,0.5-0.1c0.1,0.1-1.3-2-1.7-1.8
		c-0.3,0.2-1-0.2-1-0.6s-1.4-1.6-1.4-1.6s-0.4-0.3-0.5-0.1c-0.1,0.2-0.2,0.4,0,0.5c0.2,0.1,0.2-0.2,0.4,0.1c0.3,0.3,0.8,0.7,0.6,0.9
		c-0.2,0.2-0.4,0.3-0.4,0.3l0.3,0.3h0.4l0.1,0.7c0,0,0.4,0.2,0.6,0.5c0.1,0.1,0.1,0.3,0.1,0.4c-0.9-0.7-1.8-1.3-2.7-1.8
		c-0.1,0.3-0.2,0.6-0.4,0.7c-0.1,0-0.3,0-0.4,0c1.1,0.6,2.2,1.3,3.2,2.1l0,0c0.1,0.3,0.4,0.4,0.4,0.4h0.1c0.1,0.1,0.2,0.2,0.4,0.3
		v0.5c0.3-0.1,0.7,0.2,0.8,0.5l-5,5c-1.4-1.3-3-2.4-4.7-3.1c-1.8-0.7-3.7-1.2-5.6-1.2V34c2.9,0.1,5.6,0.7,8.2,1.7l0,0
		c0.7,0.3,1.4,0.6,2.1,1c0,0-0.1-0.1-0.1-0.1c0.1-0.2,0.2-0.8,0.2-0.8v-0.1c-0.6-0.3-1.3-0.6-1.9-0.9c-2.7-1.1-5.6-1.7-8.6-1.8v-3.6
		c0.2,0,0.4-0.1,0.4-0.2c0.1-0.1,0.1-0.2,0.3-0.2c0.2-0.1-0.1-0.5-0.3-0.5c-0.1,0-0.4,0-0.4-0.1v-1.7c3.9,0.1,7.5,0.8,11,2.2
		l0.4-0.9c-3.6-1.4-7.3-2.2-11.3-2.3L99.1,18.6L99.1,18.6z M109.6,35.6c0.3,0.1,0.5,0.3,0.8,0.4c0-0.1,0-0.1,0-0.2
		c-0.1-0.3,0.3-0.4,0.5-0.1l0.4-0.1l0.1-0.4l-0.5-0.4h-0.4c0,0-0.1,0.3-0.3,0.2c-0.3-0.1-0.1-0.1-0.4-0.1
		C109.5,35,109.5,35.4,109.6,35.6L109.6,35.6z M109.5,36.7c0,0,0.1,0.1,0.1,0.1C109.5,36.7,109.5,36.7,109.5,36.7z M105.8,20.3
		l-0.4,0.2l-0.2-0.1l-0.1,0.2l0.3,0.2l0.1,0.1l0.1-0.1l0.4-0.3L105.8,20.3z M107.6,21.2l-0.3,0.2l-0.2-0.2l-0.1,0.1l0.3,0.3l0.1,0.1
		l0.1-0.1l0.4-0.3L107.6,21.2z M69.2,21.4c-3.9,1.6-8.2,3.1-10.7,7.2c-1.5,2.4-1.7,5.2-2.9,7.6c2.2-2.1,4.7-3.6,6.6-6
		C64.4,27.2,66.3,24,69.2,21.4L69.2,21.4z M128.1,21.4c2.9,2.5,4.8,5.8,7.1,8.8c1.9,2.4,4.4,4,6.6,6c-1.2-2.4-1.4-5.3-2.9-7.6
		C136.2,24.5,132,22.9,128.1,21.4L128.1,21.4z M104.9,21.9c-0.2,0-0.4,0.1-0.5,0.1c-0.1,0.1-0.3,0.2-0.3,0.2l-0.9,0.1
		c-0.1,0.2-0.6,0.4-0.6,0.2c-0.1-0.4-0.6,0.4-0.1,0.6s1,0,1,0l0.1-0.2l2,0.1c0.1-0.1,0.2-0.4,0.2-0.4s0.4-0.1,0.7-0.1
		c0.2,0.1,0.1-0.6-0.1-0.5c-0.2,0.1-0.6,0.1-0.6,0.1h-0.7C105.1,22,104.9,21.9,104.9,21.9L104.9,21.9z M101.3,22.7l-0.5,0.2
		l-0.5,0.4l-0.6,0.1l-0.3,0.4l1.3,0.1l0.2,0.4l0.9,0.1l0.6,0.6c0.5,0.1,0.7-0.1,0.3-0.4l-0.5-0.5v-0.4l-0.1-0.1l-0.1-0.6L101.3,22.7
		L101.3,22.7z M58.6,26.8c-2,0.5-3.7,1.8-5.2,3.5c-3.2,3.5-2.9,8.7-2.4,13.2c0.1,1.4,0.1,2.7-0.1,4.1c1-1.9,2.5-3.8,4.4-5.3
		c4.1-3.1,8.6-7.1,8.7-12.4c-1.3,3.8-5.5,5.4-8.2,8c-1.5,1.4-2.6,3-3.3,4.7l-0.1-0.1c0.4-1.6,1-2.9,1.4-4.4
		C54.9,34.2,54.6,29.5,58.6,26.8L58.6,26.8z M138.7,26.8c3.9,2.7,3.7,7.5,4.9,11.5c0.4,1.5,1.1,2.8,1.4,4.4l-0.1,0.1
		c-0.7-1.7-1.8-3.3-3.3-4.7c-2.7-2.6-6.9-4.1-8.2-8c0.1,5.3,4.6,9.2,8.7,12.4c1.9,1.4,3.4,3.3,4.4,5.3c-0.1-1.5-0.2-2.7-0.1-4.1
		c0.4-4.6,0.7-9.8-2.4-13.2C142.4,28.6,140.7,27.3,138.7,26.8L138.7,26.8z M117.1,27.6c-0.3,0-0.8,0.2-0.7,0.4
		c0.1,0.2,0.2,0.4,0.5,0.5l0.6,0.2c0,0,0.7,0.9,0.7,0.4c-0.1-1.2-0.7-1.3-0.8-1.5C117.3,27.6,117.2,27.6,117.1,27.6L117.1,27.6z
		 M104.6,28.1l-0.1,0.4l0.2,0.1l0.1-0.4L104.6,28.1z M105.4,28.5c0,0-0.2,0.3-0.4,0.4c0.2,0.1,0.4,0.2,0.4,0.2
		c0.3,0,0.5,0.2,0.5,0.4c0,0.1,0.4,0.1,0.4,0.1l0.1-0.3l-0.3-0.4l-0.3-0.2C105.8,28.6,105.4,28.6,105.4,28.5L105.4,28.5L105.4,28.5z
		 M105,28.8C104.9,28.8,104.7,28.7,105,28.8C104.9,28.8,104.9,28.8,105,28.8z M103.7,28.7v0.2h0.4l0.2,0.4l0.2-0.1l-0.3-0.4v-0.1
		h-0.1L103.7,28.7L103.7,28.7z M94.5,29.7c-0.2,0-0.4,0.1-0.4,0.1c0.1,0.2,0.4,0.4,0.4,0.4s0.6,0.1,0.7,0.1c0.1,0.1,0.4,0.1,0.4,0.1
		c0.1-0.1,0.2-0.4-0.1-0.4s-0.3-0.2-0.4-0.3C94.9,29.7,94.7,29.7,94.5,29.7L94.5,29.7z M126.2,30.1c3.6,3.6,6.3,7.8,8.1,12.4
		c1.8,4.4,2.7,9.1,2.8,13.9h-7.1c-0.1-3.8-0.8-7.6-2.2-11.1c-0.2-0.5-0.4-1-0.7-1.5c0.1-0.2,0.2-0.4,0.4-0.4
		c0.4,0.1,0.1-0.9,0.1-0.9s-0.5-0.4-0.5-0.6c0.1-0.2-0.6-0.6-0.5-0.7c0.1-0.1-0.5-0.5-0.4-0.7c0.1-0.1-0.3-0.6-0.3-0.6l-0.6-0.6
		l-0.1-0.4l-0.4-0.1l-1-1.2l0.1-0.3l-0.3-0.1V37l-0.3-0.1l-0.4-0.1l-0.9-1l-0.1-0.4h-0.4l0.1-0.7L126.2,30.1L126.2,30.1z
		 M104.6,30.1v0.4l0.4,0.1l-0.1-0.3L104.6,30.1z M71.1,30.1l5,5c-2.4,2.4-4.3,5.2-5.8,8.3c-1.9,4-3,8.4-3.1,13.1h-7.1
		c0.1-5.8,1.4-11.4,3.9-16.4C65.9,36.5,68.2,33.1,71.1,30.1L71.1,30.1z M106.5,32C106.4,32,106.4,32,106.5,32
		c-0.1,0.2,0.1,0.2,0.1,0.4c0.1,0.2,0.1,0.7,0.4,0.7c0.4,0.1,0.4,0.1,0.4,0.3c0.1,0.1,0.4,0.2,0.4,0.2l0.3,0.1l1,0.8v-0.3
		c0,0-0.1-0.3-0.2-0.3c-0.2,0-0.5-0.2-0.4-0.4c0.1-0.3-0.6-0.4-0.6-0.4s-0.7-0.7-0.4-0.6s0.1-0.3,0.1-0.3s-0.4,0.1-0.6,0.1
		c-0.1-0.1-0.1-0.4-0.1-0.4S106.6,32,106.5,32L106.5,32z M84.6,32.3l-0.1,0.1l0.2,0.2l0.1-0.1L84.6,32.3L84.6,32.3z M50.2,33.9
		C50.1,33.9,50,34,50,34c-2.7,3.5-4.5,7.2-4.5,12c0,5.8,3.3,9.8,3.7,15.2c0.9-5.6,5.6-9.7,8.1-14.6c1-1.9,1.6-4.1,1.9-6.3
		c-0.4,0.9-0.9,1.8-1.6,2.4c-3.3,3.1-7,6.1-7.8,10.4c-0.1,0.6-0.1,1.3-0.4,1.8c-0.1,0.1-0.1-0.1-0.2-0.1l0.4-5.3
		C50,44.3,47.2,38.5,50.2,33.9L50.2,33.9z M147.1,33.9c3,4.6,0.3,10.4,0.7,15.5l0.4,5.3c-0.1,0.1-0.1,0.2-0.2,0.1
		c-0.1-0.6-0.2-1.3-0.3-1.8c-0.7-4.3-4.5-7.2-7.7-10.3c-0.7-0.7-1.3-1.6-1.6-2.4c0.3,2.1,0.9,4.3,1.9,6.3c2.4,5,7.2,9,8.1,14.6
		c0.4-5.4,3.7-9.5,3.7-15.2c0-4.7-1.9-8.5-4.5-12C147.2,34,147.2,33.9,147.1,33.9L147.1,33.9z M98.2,33.9V41
		c-2.2,0.1-4.4,0.6-6.3,1.5c-1.6,0.7-3,1.7-4.1,2.8l-5-5c1.8-1.7,3.8-3,5.9-4.1C91.5,34.8,94.8,34,98.2,33.9z M76.8,35.8l4.6,4.6
		c-1.9,1.9-3.3,4.1-4.5,6.6l0,0c-1.3,2.9-2.1,6.1-2.2,9.5h-6.4c0.1-4.4,1.1-8.7,3-12.6C72.6,40.9,74.5,38.2,76.8,35.8L76.8,35.8z
		 M117.4,38.9c0.5,0.3,1,1.1,0.9,1.2c-0.1,0.1,0.4,0.1,0.4,0.1c0.1-0.7,0.7-0.5,0.8-0.2c0.1,0.2,0.1,0.7,0.1,0.7l0.2,0.4l0.3,0.3
		l0.4-0.1l0.1,0.2l0.5,0.1c0,0,0.4,0.5,0.4,0.6c0.1,0.1,0.7,0.1,0.8,0.1c0.1,0.1,0.4,0.1,0.4,0.4c0.1,0.2,0.3,0.5,0.3,0.5
		s0.4,0.1,0.5,0.3c0.1,0.1,0.2,0.5,0.2,0.5l0.4,0.3l0.1,0.4l0.4,0.1l0.1,0.5l0.7-0.1l0.4-0.3c0.1-0.1,0.2-0.1,0.4-0.2
		c0.1,0.3,0.3,0.7,0.4,1c1.3,3.4,2.1,7,2.1,10.7h-6.4c0-1.1-0.1-2.3-0.3-3.4c0.1-0.1,0.1-0.3,0-0.4c-0.1-0.1,0.1-0.7,0.1-0.7
		s0.1-0.3,0-0.7c-0.1-0.3,0.1-0.7,0.1-0.8l-0.3-0.1l-0.3-0.1l-0.2,0.1c-0.1-0.2-0.1-0.5-0.2-0.7l0,0l0.2,0.1v-0.2l-0.3-0.1
		c-0.1-0.1-0.1-0.4-0.1-0.5l-0.1-0.8l-0.3-0.2l0.1-0.3l-0.3-0.1l0.1-0.5l-0.3-0.6h-0.4c-0.2-0.4-0.4-0.7-0.6-1.1
		c-0.1,0.1,0,0.2,0,0.2l-1,0.1c0.1,0.1,0.1,0.2,0.2,0.4c-0.1,0.1-0.1,0.1-0.1,0.1l-0.7,0.1v0.7l-0.3,0.1l0.1,0.4l0.4-0.1
		c0,0,0,0.5,0.1,0.3c0.1-0.2,1.1,0.1,1,0.5c0,0.2,1,0.7,0.9,1.4c0.1,0,0.1,0.1,0.2,0.1c0.2,0.5,0.4,1.1,0.5,1.7l-0.1,0.1
		c0,0,0.1,0.1,0.1,0.1c0.1,0.5,0.2,1,0.3,1.5c0,0.4-0.1,0.9-0.4,1c-0.4,0.3,0.1,0.1,0.1,0.1l-0.1,0.9c0.1,0.4,0.3,0.2,0.4,0
		c0.1-0.1,0.1-0.1,0.2-0.2c0.1,0.6,0.1,1.2,0.1,1.8h-4.8l0.1-0.1l0.2-0.6l0.7-0.2l0.1-0.5l-0.4-0.1c0,0,0.4-0.7,0.6-0.7
		c0.2,0,1.5,0,1.6-0.1c0.1-0.1,0.4-0.7,0.4-0.8c0-0.1,0.3-0.1,0.4-0.2c0.1-0.1,0.4-0.4,0.4-0.5s-0.2-1.2-0.4-1
		c-0.1,0.1-0.5,0.2-0.5,0.2l-0.1,0.4l-0.2,0.1c0,0,0.1,0.1,0,0.4c-0.1,0.3-0.4,0.4-0.4,0.4l-0.1,0.2c0,0-1,0.1-1,0
		c-0.4-0.1-0.1-0.7,0.1-0.6c0.2,0.1-0.1-0.7-0.1-0.7l0.3-0.1c0,0,0.1-0.7,0.1-0.7c0.1,0-0.1-0.2-0.2-0.4c-0.1-0.1-0.4-0.5-0.5-0.5
		c-0.1,0.1-0.8,0-0.8,0l-0.1,0.2l-0.4,0.1c0,0,0.1,0.3-0.1,0.4c-0.2,0.3-1.2,0.9-0.7-0.1l0.1-0.2v-0.4l-0.7-0.1c0,0-0.4-0.1-0.4-0.3
		c0-0.1-0.1-0.4-0.1-0.4l-0.8-1l-1-0.1l-0.1-0.2l-0.6-0.1c-0.1-0.1-0.1-0.1-0.3-0.1c-0.3-0.4-0.6-0.9-0.9-1.3v-0.1
		c0-0.1-0.4-0.7-0.7-0.8c-0.1-0.1-0.1-0.2-0.3-0.3l5-5c0.1,0.1,0.1,0.2,0.4,0.4c0.1,0.1,0.1,0.1,0.2,0.1c0.1,0.1,0.2,0.3,0.4,0.4
		l-0.3,0.4c0,0.4,0.2,0.3,0.4,0.3c0.1,0.1,0.1,0.1,0.2,0.2c0,0.3,0,0.7,0.4,0.6l0,0c0.5,0.7,1,1.4,1.4,2.1l-0.1-0.4l-0.3-0.4
		c0.2-0.1,0.7-0.1,0.9-0.3c-0.3-0.4-0.6-0.9-0.9-1.3v-0.1c0.1-0.3,0.1-0.4-0.2-0.5s-0.3-0.1-0.4-0.4c-0.1-0.3-0.4-0.4-0.4-0.4
		l-0.1-0.5l-0.3,0.2c-0.1-0.1-0.3-0.4-0.4-0.5l0.1-0.4c-0.1,0-0.2-0.1-0.3-0.2L117.4,38.9L117.4,38.9z M119,44.3
		c0.1,0.3,0.4,0.5,0.5,0.8c0.1,0,0.1-0.1,0.1-0.1C119.9,45,120,45,120,45v-0.4l-0.4-0.2l-0.1-0.5c0,0-0.4,0.1-0.4,0.3
		C119.1,44.2,119.1,44.3,119,44.3L119,44.3z M120,45L120,45C120,45,120.1,45,120,45z M118.6,45.4L118.6,45.4L118.6,45.4L118.6,45.4z
		 M91.9,39.9l-0.1,0.2l0.2,0.2l0.1-0.2L91.9,39.9z M90.9,40l0.1,0.4h0.6c0.2,0-0.2-0.3-0.2-0.3S90.9,40.2,90.9,40L90.9,40z
		 M117.4,40.1h-0.2l0.1,0.4h0.2L117.4,40.1z M82,41l5,5c-1,1.1-1.9,2.4-2.6,3.7c-0.1,0-0.4,0-0.4,0.1c-0.1,0.3-0.7,0.2-0.7,0.2
		l-0.1,0.1L83,50.4l-0.1,0.2l-0.4,0.1l1.2-0.1c0.3-0.1-0.1,0.7-0.3,0.7l-0.7,0.1l-0.2,0.2H82l-0.2,0.3L81,51.8c0,0-0.4,0.4-0.4,0.5
		c0.1,0.1-0.1,0.5-0.2,0.5s-0.4,0.4-0.3,0.5s-0.2,0.5-0.2,0.5l-0.1,0.4l-0.2,0.1v1.1l-0.4,0.3v0.4l-0.2,0.2h-3.3
		c0.1-3.2,0.8-6.3,2.1-9.1l0,0C78.8,45,80.2,42.9,82,41L82,41z M119.1,41.6c-0.1,0-0.1,0.1-0.1,0.1c0,0.1,0.2,0.2,0.1,0.4
		c-0.1,0.2,0.1,0.4,0.2,0.4s0.3,0.1,0.4,0.1c0.1,0.1,0.3,0.2,0.4,0.4l0.4-0.1c0,0,0.1-0.4-0.1-0.3c-0.1,0.1-0.3-0.3-0.4-0.2
		c-0.1,0.1-0.2-0.1-0.4-0.4c-0.1-0.2-0.1-0.2-0.3-0.4C119.2,41.6,119.2,41.6,119.1,41.6z M98.2,42v6.4c-0.8,0.1-1.6,0.2-2.4,0.5l0,0
		l-0.1-0.4l0.2-0.1l-0.3-0.1l-0.3,0.4L95.2,49L94.9,49v0.2h-0.3v0.2c-0.6,0.3-1.1,0.7-1.6,1.1L88.3,46c1.2-1.1,2.5-2,3.9-2.7l0,0
		C94.1,42.5,96.1,42.1,98.2,42L98.2,42z M99.1,42c1.9,0.1,3.6,0.4,5.3,1.2c1.6,0.7,3.1,1.6,4.4,2.9l-0.2,0.2
		c-0.1-0.1-0.6-0.2-0.6-0.4c0-0.1-0.4-0.4-0.4-0.1c0.1,0.2-0.3,0.4-0.4,0.3c-0.1-0.1-0.3,0.2-0.3,0.2c0,0.1-0.1,0.3,0.1,0.3
		c0.2,0.1,0.7-0.1,0.7,0.1c0,0.1,0,0.1,0.1,0.2l-1.6,1.6c-0.2,0-0.4,0-0.4,0c-0.1,0.4-0.7-0.1-0.5-0.3c0.1-0.2,0.1-0.4,0.1-0.4
		l-0.2-0.1l-0.2,0.4c-0.6,0-0.7,0.3-0.6,0.5c0.1,0.2-0.1-0.1-0.2,0.2c-0.1,0.3,0.1,0.3,0.3,0.4c0.2,0.1-0.1,0.1,0.1,0.3
		c0.1,0.1,0.3,0.1,0.4,0.1l-0.3,0.3c-0.3,0.1-0.6,0-0.6,0c0,0.1-0.1,0.1-0.1,0.1c-0.7-0.5-1.3-1-2.1-1.3c0.1-0.1,0.3-0.1,0.4-0.4
		c0.1-0.4,0.2-1.2,0.2-1.2s-0.7-0.1-0.7,0.1c-0.1,0.2-0.4,0.3-0.4,0.3s-0.3,0.1-0.2,0.3c0.1,0.1-0.2,0.2-0.2,0.2s0,0.1,0,0.2
		c-0.7-0.2-1.3-0.3-1.9-0.4L99.1,42L99.1,42z M120.3,43.4l-0.4,0.1c0.1,0.1,0.4,0.3,0.4,0.4s-0.1,0.3,0.1,0.3
		c0.2,0.1,0.4-0.1,0.4,0.1c0.1,0.2,0.1,0.5,0.1,0.7c-0.1,0.1,0.1,0.4,0.2,0.4c0.1,0,0.2,0.1,0.2,0.1c0,0.1,0.2-0.4,0.2-0.4
		c-0.2-0.1-0.4-0.5-0.4-0.5s-0.2-0.6-0.2-0.7c0-0.1-0.3-0.1-0.4-0.2C120.5,43.8,120.3,43.4,120.3,43.4L120.3,43.4z M116.5,43.6
		l-0.4,0.1v0.2l0.4-0.1V43.6L116.5,43.6z M116.7,43.9v0.2h0.2v-0.2H116.7z M116.4,44.2c0,0-0.2,0.3-0.7,0.1c0,0-0.1,0.7-0.3,1h-0.6
		c0,0,0.1,0.2,0.2,0.3c0.1,0.1,0.4,0.4,0.1,0.5c-0.3,0.1,0.1,0.1,0.1,0.1s-0.1,0.8-0.4,0.7c-0.4-0.1-0.4,0.4-0.4,0.6
		c0,0.1,1.4,0.2,1.2,0c-0.1-0.1,0.1-0.4,0.1-0.4s1,0.1,1.2,0.1c0.2,0,0.4-0.1,0.2-0.2c-0.1-0.2-0.4-0.1-0.4-0.1s-0.4,0.1-0.9-0.1
		c-0.4-0.2,0.1-0.3,0.1-0.3s0.4-0.3,0.3-0.5s0-0.6,0-0.4c0,0.1,0.4,0.2,0.5,0.1c0.1-0.1,0-0.5-0.2-0.6c-0.2-0.1,0.4-0.2,0.2-0.4
		C116.5,44.4,116.4,44.2,116.4,44.2L116.4,44.2z M117.2,45.4v0.3h0.2v-0.3H117.2z M117.8,45.6l-0.1,0.2l0.2,0.1l0.1-0.2L117.8,45.6z
		 M121.6,45.9c-0.1,0,0.1,0.4,0,0.5c-0.1,0.1-0.2,0.2-0.3,0.4c-0.1,0.1,0.2,0.3,0.2,0.4c0,0.1,0.1,0.7,0.1,0.7s0.3,0.1,0.3,0.3
		c0.1,0.1,0,0.5,0.1,0.5c0.1,0.1,0.4,0.2,0.3,0.4c-0.1,0.1-0.1,0.5-0.1,0.5l0.1,0.4l0.3,0.2c0,0,0.1-1-0.1-1
		c-0.2-0.1-0.1-0.6-0.1-0.6s0.2-0.7-0.1-0.7c-0.3,0-0.1-0.4-0.3-0.5s-0.1-0.7-0.1-0.8C121.8,46.2,121.8,46.1,121.6,45.9L121.6,45.9z
		 M112,46.7l-0.4,0.1V47l0.4-0.1V46.7z M105.9,46.7c-0.1,0-0.2,0-0.2,0l-0.7,0.1l-0.1,0.3l0.4,0.1c0,0,0.2,0.1,0.2,0.3
		c0,0.1,0.3,0.2,0.4,0.2c0.1,0,0.6-0.3,0.6-0.3s0.2-0.6,0.1-0.5c-0.1,0.1-0.4,0.3-0.5,0.1C106.2,46.7,106,46.7,105.9,46.7
		L105.9,46.7z M87.7,46.7l3.9,3.9h-0.4c-0.1,0.4-0.6-0.1-0.6-0.1c-0.1-0.2-0.7,0-0.7,0c0,0.4-0.7-0.2-0.7-0.2l-1.4-1
		c-0.8-0.7-2,0.2-2,0.4c0,0.3-0.2,0.3-0.5,0.2C86,48.8,86.8,47.7,87.7,46.7L87.7,46.7z M103.4,46.8l-0.2,0.1l0.1,0.4l0.2-0.1
		L103.4,46.8z M104.6,46.9l-0.9,0.1v0.2l0.9-0.1V46.9z M97.2,47v0.2h0.3V47H97.2z M99.2,47v0.2l0.3,0.1v-0.2L99.2,47z M99.8,47.1
		v0.2l0.3,0.1v-0.2L99.8,47.1z M96.6,47.2v0.2l0.3,0.1v-0.2L96.6,47.2z M103.1,47.3l-0.1,0.1l0.1,0.2l0.1-0.1L103.1,47.3L103.1,47.3
		z M112.7,47.3l-0.1,0.3l0.2,0.1l0.1-0.3L112.7,47.3z M109.8,47.4c0,0,0.2,0.1,0.4,0.1c0.2,0.2,0.4,0.4,0.5,0.7l-0.5-0.1l-0.3-0.1
		l-0.6-0.1c-0.6,0.4-0.7,0.9-0.7,0.9c-0.3,0.5-0.9,0-0.8-0.4l1-1c0.1,0,0.1,0,0.2,0C109.2,47.5,109.8,47.4,109.8,47.4L109.8,47.4z
		 M100.3,47.5v0.2h0.3v-0.2H100.3z M96.3,47.5l-0.1,0.2l0.3,0.1l0.1-0.2L96.3,47.5z M96.2,47.9L96,47.9l0.1,0.2l0.2-0.1L96.2,47.9
		L96.2,47.9z M100.9,47.9h-0.2v0.3h0.2V47.9L100.9,47.9z M113.4,47.9c-0.1,0-0.3,0-0.4,0.1c-0.2,0.1-0.1,0.2,0,0.4l0.4-0.1
		c0,0,0.4-0.1,0.3-0.3C113.7,48,113.5,47.9,113.4,47.9L113.4,47.9z M110.8,48.2c0.1,0.2,0.3,0.4,0.4,0.7c-0.1,0.1-0.1,0.2,0,0.4
		c0.1,0.6,0.3,0.8-0.1,0.8s-0.4-0.3-0.4-0.3s-0.3-0.1-0.3,0.1c0,0.1-0.1,0.5,0,0.7c0.1,0.1-0.1,0.4-0.3,0.3
		c-0.1-0.1-0.4-0.5-0.4-0.6c0.1-0.1-0.5-0.9,0.1-1c0.7-0.1-0.1-0.5,0.2-0.6l0.3-0.1h0.3L110.8,48.2L110.8,48.2z M44.4,48.4
		c-0.7,1.3-0.9,2.9-1.3,4.3c-0.7,3.8,0,7.8,1,11.2c1.3,4.4,5.6,7.5,7.7,11.4l0.3,0.2c-0.3-2.1-0.4-4.5,0.1-6.5
		c1-3.3,2.1-6.5,2.7-9.9c0.4-2.7,1-5.6,0.7-8.2c-0.4,1.4-0.7,2.7-1.5,3.9c-2.9,4.4-5.9,9.7-3.9,15.4c-0.1,0.1-0.1,0.1-0.2,0.1
		c-0.8-1.8-1-4-1.6-6C47.3,58.9,43.1,54.5,44.4,48.4z M152.9,48.4c1.2,6.1-2.9,10.7-4.3,16c-0.5,2-0.7,4.1-1.6,6
		c-0.1,0.1-0.1-0.1-0.2-0.1c2-5.7-1-10.9-3.9-15.4c-0.7-1.2-1.1-2.5-1.5-3.9c-0.3,2.6,0.2,5.5,0.7,8.2c0.6,3.4,1.8,6.6,2.7,9.9
		c0.6,2.1,0.4,4.4,0.1,6.5l0.3-0.2c2.1-4,6.4-7.1,7.7-11.4c1-3.5,1.7-7.5,1-11.2C153.8,51.2,153.5,49.7,152.9,48.4z M98.6,49.4
		l0.1,1l-0.4-0.1h-0.3L97.8,50l-0.2-0.1v0.9l0.2,0.2l0.2,0.2l0.4,0.1l0.1,0.5l1,0.1l0.1,0.2l0.6,0.1l1.2,1.2l-0.1,0.1l-0.2,0.1
		c0.1,0.3-0.5,0.1-0.5,0.1v0.2l0.3,0.1l0.3,0.1l0.4-0.7c0.4-0.3,0.7,0.1,0.7,0.4c0.1,0.2-0.2,0.2-0.2,0.2v0.6l0.2,0.1
		c0.4,0.5-0.1,0.7-0.1,0.7l-0.1,0.4c-0.1,0.4-0.5,0.3-0.5,0.3l-0.1,0.1l-0.4,0.1l1,0.1c0.1-0.3,0.3-0.4,0.4-0.2
		c0.1,0.1,0.1,0.4,0.1,0.4l0.2,0.1l-0.1,0.4l0.2,0.1v1.3l0.3,0.3c0.4-0.2,0.4,0.1,0.2,0.3c-0.2,0.1-0.1,0.9-0.1,0.9l-0.2,0.2v0.3
		l-0.2,0.1v0.4c-0.4-0.2-0.9-0.1-1,0c-0.4-0.2-1.1-0.1-1.1,0.1c0.2,0.3-0.3,0.4-0.3,0.4l-0.3,0.3c0.2,0.4-0.2,0.4-0.2,0.4v0.7
		l-0.4,0.4v0.7c-0.2,0-0.5,0.1-0.7,0.1c-1.9,0-3.6-0.7-5-1.8c0,0,0.1,0,0.1-0.1c0.2-0.3,0.5-0.4,0.5-0.4l0.1-0.3l1,0.1
		c0.1-0.4,0.6-0.3,0.6-0.1s0.4,0.1,0.4,0.1l0.3-0.4h0.4l0.1-0.5l0.2-0.1v-0.7C98,60,98,59.4,98,59.4l0.1-0.2L98,58.9
		c-0.3-0.1-0.1-0.4,0.1-0.3c0.2,0.1-0.3-0.4-0.3-0.4c-0.2,0.2-0.4-0.2-0.4-0.2h-0.6v-0.6l-0.1-0.5L96,56.6l-0.4,0.4l-0.1,0.6v0.4
		L95.2,58l-0.1,1.1l-0.4,0.1l0.1,0.4l-0.4,0.1l-0.4,0.1l-0.1,0.5l-0.3,0.2l-0.1,0.5l-0.2,1.1c-0.6-0.6-1-1.3-1.3-1.9
		c0.1-0.3,0.1-0.5,0.1-0.5c-0.4-0.1-0.1-0.7,0.2-0.2s-0.2-1-0.2-1l-0.3-0.3l-0.4-0.1c-0.1-0.4-0.1-0.8-0.1-1.2c0-0.1,0-0.3,0-0.5
		c0.1-0.1,0.2-0.1,0.2-0.1l0.2,0.2l0.4,0.3l0.1,0.2l-0.2,0.1l-0.1,0.3l0.1,0.4h0.3c0.1-0.7,1-0.7,1.2-0.2l0.2-0.6
		c-0.6-0.3,0-0.7,0.1-0.5c0.1,0.2,0.5-0.5,0.5-0.5s0.3,0.4,0-0.1c-0.3-0.5,0.2-0.7,0.2-0.7c-0.1-0.5,0.5-0.4,0.5-0.4l0.1-0.7
		l-0.6-0.1c-0.1,0.6-0.6,0.1-0.4-0.1c0.2-0.1,0.4-0.4,0.4-0.4v-0.4l0.2-0.1l0.1-0.4h0.6l0.5-0.2l0.1-0.2l0.6-0.1l0.8-0.7l-0.1-0.3
		c-0.4,0,0-0.4,0-0.4l0.1-0.6H97l-0.1-0.9C97.5,49.5,98,49.4,98.6,49.4L98.6,49.4z M122.8,51.7l-0.1,0.3h0.2l0.1-0.3H122.8z
		 M122.6,52.8l-0.1,0.2l0.2,0.1l0.1-0.2L122.6,52.8z M81.4,54.4c0.4,0,0.7,0.1,0.7,0.1l0.6-0.1c0.1,0.1,0.2,0.2,0.3,0.3
		c-0.1,0.4-0.1,0.7-0.1,1.1c-0.1,0.1-0.1,0.1-0.1,0.1c-0.1,0.1-0.1,0.2-0.1,0.3h-1.5l0,0l-0.4-0.1C80.3,56,80.6,55,80.6,55
		C80.7,54.6,81.1,54.4,81.4,54.4L81.4,54.4z M95.2,55.2l-0.1,0.2h-0.2l-0.1,0.3H95l0.1,0.2l-0.1,0.1l-0.1,0.2l-0.3,0.1L93.8,57v0.4
		l-0.2,0.3l-0.2,0.6l-0.8,0.1l-0.1,0.7l0.1,0.6l0.7,0.3l0.1-0.4l0.2-0.1l0.1-0.4l0.1-0.3l0.2-0.3l0.1-0.3l0.4-0.2l0.4-0.1l0.2-0.2
		l0.1-0.5v-0.4l0.1-0.2l0.4-0.2v-0.7h-0.2l-0.1-0.3L95.2,55.2L95.2,55.2z M120.1,55.4l-0.1,0.2l0.4,0.1l0.1-0.2L120.1,55.4z
		 M119.2,55.8l-0.1,0.1l-0.3,0.1l-0.2-0.1l-0.1,0.2l0.3,0.2l0.1,0.1h0.1l0.2-0.1v0.1l0.2-0.1l-0.1-0.2V55.8z M116.1,57.4h5.6
		c-0.1,3.1-0.7,6.1-2,8.8c-1.1,2.4-2.6,4.7-4.4,6.6c-0.1-0.8-0.3-1.7-0.3-1.7l-0.3-0.1l0.1-1h-0.4l-0.7,1l-0.1,0.2l-0.4-0.4l0.2-0.2
		l-0.1-0.5l0.3-0.2v-0.4l0.2-0.1l0.1-0.9l0.2-0.1v-1.9l-0.6-0.6c-0.1,0.2-0.7,0.2-0.7,0.2s-0.1,0.3-0.3,0.3s0.1,0.4,0.1,0.6
		c-0.1,0.2-0.4,0.2-0.4,0.2l-0.6,0.1l-0.1,0.2h-0.7l-0.1-0.4c0.1-0.1,0.1-0.1,0.2-0.2l0.5-0.1l0.4-0.2l0.2-0.4
		c0.1-0.4,0.5-0.4,0.5-0.4s0.9-0.7,1-1.1c0.1-0.4,0.4-1.4,0.9-1.4h1c0.4-0.1,0.3-0.7,0.3-0.7l0.5-0.1l0.1,0.3c0,0,0.7,0.1,0.8-0.1
		s0.2-0.4,0.4-0.3c0.2,0.1,0.8-0.3,0.8-0.3c0.1-0.3,1-0.1,1-0.1l0.1-0.4c0,0-0.7-1-0.8-1s-0.7-0.6-0.8-0.4c-0.7-0.1-0.6-1-0.6-1
		l-0.2-0.6c0-0.3-0.6-1-0.7-1C116.1,57.8,116.1,57.6,116.1,57.4L116.1,57.4z M122.6,57.4h6.4c-0.1,4.4-1.1,8.6-2.9,12.4l0,0
		c-1.4,3.1-3.4,5.8-5.7,8.3l-0.1-0.1c0-0.4-0.1-1-0.1-1l-0.2-0.2l-0.1-1c0.1-0.5-0.7-1.3-0.8-1.1c-0.1,0.1-0.6,0.1-0.6,0.2
		c0,0.1-0.3,1-0.1,1.3c0,0,0,0,0,0.1l-2.5-2.5c1.9-2,3.5-4.4,4.6-6.8l0,0C121.8,63.8,122.6,60.6,122.6,57.4L122.6,57.4z M130,57.4
		h7.1c-0.1,5.8-1.4,11.3-3.9,16.2l0,0c-1.9,3.8-4.2,7.2-7.1,10.1l-5-5c2.4-2.5,4.4-5.4,5.9-8.5l0,0C128.9,66.3,129.9,61.9,130,57.4z
		 M75.6,57.4h2.8v0.2l-0.6,0.7l0.1,0.7l-0.4,0.1l-0.1,0.3l-0.1,0.8l0.4,0.1c0.2-0.1,0.1,0.5,0,0.6c-0.1,0.1-0.6,0.2-0.4,0.4
		c0.2,0.1-0.7,0.1-0.7-0.1c0-0.2-0.4-0.4-0.6-0.4c-0.1,0.1-0.1-0.1-0.2-0.2C75.7,59.5,75.6,58.5,75.6,57.4L75.6,57.4z M79.7,57.4H80
		c0.1,0,0.1,0.1,0.1,0.1l0.6,0.1l0.1-0.1h1.9l0.1,1l-0.5,0.4c-0.4,0.2-0.4,0.8,0.1,1c0.3,0.1,0.2,0.8-0.3,0.3
		c-0.7,0,0.4,0.7,0.1,0.5c0.7,0.4,0.6-0.3,0.6-0.3l0.4-0.3c0.1,0.8,0.4,1.6,0.7,2.3c0.7,2.1,1.9,3.9,3.4,5.5l-5,5
		c-0.3-0.4-0.7-0.7-1-1c0.1-0.2,0.2-0.5,0.2-0.5c0.5-0.3-0.1-0.8-0.1-0.8c0.1-0.5-0.3-1-0.3-1c-0.7-0.5-0.5-1.4-0.5-1.4v-0.7
		c-0.6-0.6,0.2-0.7,0.2-0.7c0.3-0.5-0.2-0.8-0.2-0.8l-0.1-0.5l-0.7-0.3l-0.1-1.9l-1.4-2c-0.3-0.1-0.1-0.6-0.1-0.6
		c0.4-0.2-0.1-0.7-0.1-0.7L78,59.2l0.8-0.1l0.2-0.3h0.4l-0.1-1C79.5,57.5,79.6,57.5,79.7,57.4L79.7,57.4z M89.7,57.4h0.4
		c0,0.3,0.1,0.6,0.1,0.8L90,58.3l-0.1-0.1l-0.1,0.4H89l-0.1-0.5l0.4-0.1l0.1-0.2L89.7,57.4L89.7,57.4z M101.5,58
		c-0.1,0-0.1,0.1-0.2,0.2v0.5c0,0,0.6,0.9,0.7,1c0.1,0.1,0.5-0.1,0.3-0.3c-0.6-0.4-0.5-1-0.7-1.3C101.6,58.1,101.5,58,101.5,58z
		 M80.6,58.4l0.1,0.3h0.2c0.3,0.6,0.1,1.9,0.1,1.9s-0.4,0.1-0.6-0.2c-0.1-0.2-0.3,0.5-0.1,0.7c0.1,0.1,0.7,0,0.7,0.4
		c0.1,0.4,0.4-0.3,0.4-0.3v-2.7L80.6,58.4z M99.8,59.2L99,59.7c0.4,0.1,0.4,0.4,0.4,0.6c0.1,0.4,0.1-0.6,0.2-0.5
		C99.9,59.8,99.8,59.2,99.8,59.2z M83.9,59.5c0.4,0.1,0.7,0.7,0.7,0.7c0,0.1,1.6,0.1,1.6,0.1c0.4,0.3,0.6,1,0.6,1
		c0.4-0.6,1.3-0.1,0.7,0.3c0.7,0.4,0.7,0.7,0.7,0.7c0.5-0.1,0.5,0.2,0.5,0.4s0.1-0.6,0.1-0.6c-0.6-0.4,0.8-0.6,0.4,0.2l-0.2,0.4
		l0.4,0.3l0.1,1c0.9-0.1,0.7-1.2,0.7-1.2l0.4-0.1c0-0.4,0.3-0.1,0.3-0.1c-0.2-1,0.2-1.3,0.4-1.5c0.3,0.6,0.7,1.1,1.2,1.6l-4.6,4.6
		c-1.4-1.5-2.4-3.3-3.2-5.1C84.3,61.2,84,60.4,83.9,59.5L83.9,59.5z M119.9,60.4c-0.3,0-0.7,0.2-0.6,0.4c0.2,0.3,0.7,0.1,0.8,0.2
		c0.1,0.1,0.3,0.1,0.1-0.4C120.2,60.5,120.1,60.4,119.9,60.4L119.9,60.4z M82.1,61C82,61,82,61.1,82,61.2l0,0c0,0.1,0.1,0.1,0.1,0.1
		c0.1,0,0.1-0.1,0.1-0.1C82.3,61.1,82.2,61,82.1,61z M81.7,61.5l-0.6,0.4l-0.4-0.2v1l0.7,0.8l0.2-0.6l0.1-0.4l-0.3-0.1l0.1-0.6
		l0.2-0.1V61.5L81.7,61.5z M96.3,62.5L96,62.6l0.1,0.6l0.2,0.2l0.4,0.1c0,0,0.6-0.1,0.7-0.7l-0.9-0.1L96.3,62.5L96.3,62.5z
		 M101.4,62.9c0.3,0,0.3,0.8,0.2,1.1c-0.2,0.1-0.4,0.2-0.7,0.3v-0.9l0.4-0.4C101.3,62.9,101.4,62.9,101.4,62.9L101.4,62.9z
		 M92.9,63.3c1.4,1.3,3.1,2,5,2.1v-0.2c0.1-0.3,0.7-0.3,0.7-0.1c0,0.3,0,0.4,0,0.4l0.1,0.1c0,0,0,0.1-0.1,0.1s0,0.1-0.1,0.1l0.1,0.1
		c0.1-0.1,0.1,0.1,0.2,0.1c0.1,0,0.1,0.2,0.1,0.2c-0.1,0-0.1,0.1-0.1,0.2c0,0.1,0,0.2-0.1,0.3c-0.1,0.1-0.1,0-0.3,0
		c-0.1-0.1-0.1-0.1-0.3-0.1v0.4c-0.1,0-0.1,0-0.1-0.1v0.3l-0.3,0.1l0.3,0.3h0.2v0.7v0.1c0,0.5-1.3,0.1-1.4,0.1l-0.1,0.7l-0.2,0.1
		l0.1,0.5l-0.1,0.7l0.4-0.1v0.3l1,0.1l0.2-0.2v0.7v0.1l-0.7,0.1l-0.3,0.1l-0.1-0.2h-0.3l-0.1,0.2c-1-0.1-1.9-0.4-2.7-0.7l0,0
		c-2-0.7-3.8-1.8-5.3-3.3L92.9,63.3L92.9,63.3z M98.2,66.9v-1.5c-0.1,0-0.1,0-0.2,0l0,0c0,0-0.1,0.4,0,0.4s0.1,0.1,0.2,0.1l-0.1,0.2
		C98,66,97.9,66.4,98,66.5c0.1,0.1-0.2,0-0.2,0.1c0,0.1-0.1,0.1,0,0.2c0.1,0.1,0,0.1-0.1,0.1c-0.1,0.1,0.5,0.1,0.5,0.1
		S98,66.9,98.2,66.9C98.1,66.9,98.1,66.9,98.2,66.9L98.2,66.9z M55.1,63.7c0.5,3.5-0.9,6.6-1.2,10c-0.3,2.7,0.2,5.4,1.3,7.7
		c0.3,0.7,0.9,1.3,1,2c-1-1-1.8-2.1-2.4-3.3c-3.3-5.4-10.3-8.9-10.8-15.4c-0.2,2.9,0,6,1,8.6c1.3,3.6,3.9,6.4,7,8.7
		c3.1,2.4,6.8,4.4,9.6,6.4c-0.5-1.4-1.5-2.7-1.9-4.1C57,77.6,57.9,69.9,55.1,63.7L55.1,63.7z M142.2,63.7
		c-2.9,6.1-1.9,13.9-3.6,20.6c-0.4,1.5-1.3,2.7-1.9,4.1c2.8-2.1,6.5-4.1,9.6-6.4c3-2.4,5.6-5.1,7-8.7c1-2.6,1.3-5.7,1-8.6
		c-0.4,6.5-7.4,10.1-10.7,15.4c-0.7,1.2-1.4,2.4-2.4,3.3c0.1-0.7,0.7-1.3,1-2c1-2.3,1.6-5,1.3-7.7C143.1,70.3,141.7,67.2,142.2,63.7
		L142.2,63.7z M107.5,63.8c0.1,0,0.1,0.1,0.1,0.2c-0.1,0.4,0,0.5,0,0.5c0.5-0.5,1,0.1,0.9,0.1c-0.1,0.1,0.3,0.2,0.4,0.1
		c0.2-0.1,0.4,0.4,0.4,0.6s-0.8,0.2-0.8-0.1c-0.1-0.2-0.1-0.1-0.2-0.1c-0.1,0.1-0.4,0.1-0.5,0.1l-0.1-0.1c0-0.1,0.1-0.1,0-0.1
		c-0.1-0.1-0.1-0.1-0.2-0.1l-0.4-0.4c0-0.2,0.1-0.6,0.1-0.7C107.1,64,107.4,63.8,107.5,63.8L107.5,63.8z M81.7,64l-0.3,0.1v0.3
		l0.3,0.1V64L81.7,64z M131.4,64.3c-0.1,0-0.4,0.1-0.4,0.1l0.1,0.2c0.1-0.1,0.4-0.1,0.4-0.1l0,0l0.2-0.1c0-0.1-0.1-0.1-0.1-0.1
		C131.5,64.3,131.5,64.3,131.4,64.3L131.4,64.3z M81.8,64.7c-0.1,0-0.1,0.1-0.1,0.1s0.1,0.1,0.1,0.1s0.1-0.1,0.1-0.1
		S81.9,64.7,81.8,64.7z M101.6,64.9c0,0.1,0.1,0.2,0.1,0.2l0.2,0.1l-0.4,0.3l-0.3,0.4l-0.4-0.1l-0.4-0.1l-0.1-0.3l-0.3-0.1l-0.1,0.6
		l-0.2,0.2l-0.4,0.5c0.5,0,0.1,0.3-0.1,0.4v-1.6c0.5,0,1-0.1,1.5-0.2c0.1,0.1,0.1,0.1,0.1,0.1h0.4V65
		C101.2,65.1,101.5,65,101.6,64.9L101.6,64.9z M82,65.6c-0.1,0-0.1,0.1-0.1,0.1l0,0c0,0.1,0.1,0.1,0.1,0.1l0,0
		c0.1,0,0.1-0.1,0.1-0.1C82.3,65.7,82.2,65.6,82,65.6z M97.1,65.7c-0.2,0-0.4,0.6-0.4,0.7c0,0,0.1,0.3,0.3,0.3
		c0.1,0,0.3-0.1,0.4-0.1c0.1,0,0.2-0.3,0.3-0.5c0.1-0.2-0.1-0.4-0.1-0.4s-0.1,0.2-0.4,0C97.2,65.8,97.2,65.7,97.1,65.7z M81.3,66
		l-0.4,0.1v0.3l0.4-0.1V66z M105.3,66h0.3l0.1,0.2l1.2,0.1h0.1c0.4,0.3,0.2,0.7,0.1,0.7c-0.1,0.1-0.4,0.1-0.4,0.1l-0.1,0.1l-1,0.1
		l-0.1,0.4c-0.5-0.1-0.7,0.5-0.6,0.7c0.1,0.3,0,0.5,0,0.5l0.4,0.2l0.5-0.1c0.1-0.4,0.4-0.5,0.7-0.7s0.8,0.4,0.7,0.7
		c0,0.1,0,0.1-0.1,0.1c-0.6,0.4-1.3,0.8-1.9,1.1c-1,0.5-2.1,0.9-3.3,1.2h-0.1l-0.4-0.1l-0.1-0.6c-0.1-0.4-0.8-0.4-0.8-0.1
		c0.1,0.3-1.4,0.1-1.4,0.1v-1.1l0.4-0.4l0.9-0.2c0.1-0.4,0.4,0.1,0.4,0.1c0.4-0.1,0.4,0.2,0.4,0.2l0.5,0.1c0.4,0.1,0.1,0.1,0.2,0.3
		c0.1,0.2,0.2,0.1,0.2,0.1l0.1-0.5l0.2,0.1l-0.2-0.3l-0.4-0.2l-0.1,0c-0.3-0.4,0.1-0.4,0.4-0.3h0.5c0,0,0.6,0.8,0.6,1
		s0.3,0.2,0.3,0.2l0.4-0.1l0.1,0.3h0.4l0.1,0.2h0.7l0.1-0.4l-0.7-0.1l-0.1-0.4l-0.4-0.1c-0.1-0.7,0.1-0.9,0.3-0.6l0.2,0.1l-0.1-0.6
		l0.3-0.1l-0.1-0.8l-0.2-0.1v-0.3l1,0.1C105.2,66.3,105.3,66,105.3,66L105.3,66z M134.1,67.9l-0.2,0.1c0,0.1,0,0.1,0.1,0.1
		c0,0.1,0,0.1,0.1,0.2c0.1,0,0.1,0.1,0.1,0l-0.1-0.2h0.1c0,0,0,0,0-0.1C134.1,68,134.1,68,134.1,67.9L134.1,67.9z M133.8,68.3
		l-0.2,0.1c0.1,0.2,0.1,0.5,0.1,0.5l0.2-0.1C134,68.8,133.9,68.6,133.8,68.3L133.8,68.3z M115.2,68.6v0.7h0.3v-0.7H115.2z
		 M106.6,68.8l-0.3,0.2l0.1,0.2l0.3-0.2L106.6,68.8L106.6,68.8z M132.5,69.3c0,0.2,0,0.4,0.2,0.4l0.1-0.2l0,0c0,0-0.1-0.1,0-0.2
		L132.5,69.3L132.5,69.3z M100.6,69.7v0.5V69.7z M132.4,69.7c-0.1,0-0.1,0.1-0.2,0.1c-0.2,0.1-0.1,0.7,0,0.6c0.1-0.1,0.3,0,0.4-0.4
		C132.5,69.8,132.4,69.7,132.4,69.7z M107.6,70l1,0.4c0.1,0.1,0.7,0.1,0.7,0.1l0.1,0.2c0,0,0.3-0.1,0.5,0.2c0.2,0.2,1.3,0.1,1.3,0.1
		l0.3,0.2l0.4,0.1h0.7l0.4,0.4c-0.7,0.3-2.1,0.2-2.3,0.1c-0.1-0.1-1-0.5-1-0.5s-0.7-0.5-0.7-0.4c-0.1,0.1-0.7-0.2-0.7-0.1
		c0,0.1-0.5-0.3-0.5-0.3l-0.8-0.3l0.6-0.1L107.6,70C107.6,70.1,107.6,70.1,107.6,70L107.6,70z M64.4,72.4v0.4h0.3v0.5h0.2v-0.5
		l-0.3-0.1v-0.2H64.4z M122.5,72.6V73h0.4v-0.3L122.5,72.6L122.5,72.6z M122.2,73.5l-0.1,0.2c0,0,0.1,0,0.1,0.1l0.1,0.2l-0.1,0.1
		l0.1,0.1c0.1-0.1,0.1-0.3,0.1-0.4C122.5,73.6,122.2,73.5,122.2,73.5L122.2,73.5z M115.2,74.2L117,76c-0.1,0.3-0.4,0.4-0.5,0.4
		c-0.1-0.1,0.2,0.2,0.3,0.4c0.1,0.1,0.3,0.1,0.4,0c0.1-0.1,0.1-0.3,0.1-0.4l0.8,0.8c-0.1,0.2-0.2,0.4-0.1,0.5l0.4,0.1l0,0.7
		c0.3,0.3,0.9,0.3,1.3,0.1l0.1,0.1c-1.5,1.4-3.1,2.7-4.8,3.8v-0.4c0.7-0.5,0.7-1.5,0.1-1.6c-0.5-0.1-0.3-0.6,0.2-0.7l0.3-0.1v-0.4
		l0.9-0.8v-0.7l-2-1.6c-0.4-0.1-0.4-0.7-0.3-1.1C114.6,74.9,114.9,74.6,115.2,74.2L115.2,74.2z M66.4,74.3l0.3,0.7l0.1,0.4l0.3,0.4
		l0.4,0.4l0.1-0.3l-0.3-0.6l-0.3-0.2l-0.2-0.6L66.4,74.3L66.4,74.3z M58.6,74.9c2.4,4.8,1.4,11,4.5,15.6c1,1.4,2.4,2.8,3.6,3.9
		l-0.1,0.1c-1.1-0.5-2.1-1.3-3.2-2.2c-5.5-4.6-13.7-5.1-17-12.6c0.9,5.5,5.2,10.3,9.9,13.3c4.4,2.9,10.2,2.6,15.1,4.2
		c-4.6-3.7-5.3-9.2-7.3-14.1C62.9,80.3,60.9,77.5,58.6,74.9z M138.6,74.9c-2.2,2.6-4.2,5.3-5.5,8.4c-2,4.8-2.7,10.4-7.3,14.1
		c5-1.6,10.7-1.3,15.1-4.2c4.7-3,9-7.9,9.9-13.3c-3.3,7.4-11.6,8-17,12.6c-1,0.9-2.1,1.6-3.2,2.2l-0.1-0.1c1.3-1.1,2.7-2.5,3.6-3.9
		C137.2,85.9,136.2,79.7,138.6,74.9z M76.3,76.6c0.4,0,0.8,0.4,0.9,0.6c0,0.1,0.1,0.2,0.3,0.3l-0.7,0.6c-0.4-0.4-0.7-0.7-1.1-1.2
		h0.1C76,76.7,76.1,76.6,76.3,76.6z M99.8,78.8c0.2,0,0.5,0.1,0.7,0.2c0.4,0.3,1,0.1,1,0.1l0.4,0.5c-0.9,0.1-1.9,0.2-2.8,0.2v-1
		C99.2,78.9,99.5,78.8,99.8,78.8L99.8,78.8z M120.5,79.4l5,5c-2.8,2.7-6,5-9.6,6.8c-5.1,2.6-10.8,4.1-16.8,4.1v-7.1
		c2.9-0.1,5.7-0.4,8.4-1.3l0.7,0.2l0.2,0.7l0.3-0.1l0.2-0.2l1-0.1l0.4-0.4l0.5-0.1l3.8-3.2C116.8,82.6,118.7,81.1,120.5,79.4
		L120.5,79.4z M102.4,80.6l0.1,0.2l0.7,0.2l0.4,0.1l0.1,0.7l0.4,0.1l0.1,0.4c0.4,0.3-0.1,1-0.1,1v0.9l0.3,0.1l-0.1,0.3l0.5,0.5
		l0.6,0.1l1,1c-2.4,0.7-4.9,1-7.4,1V81C100.2,80.8,101.3,80.8,102.4,80.6z M92.8,81.3l-0.2,0.2l-0.1,0.1l0.1,0.1l0.3,0.2l0.1-0.2
		l-0.1-0.1l0.1-0.1L92.8,81.3z M95.6,84.2l-0.1,0.2l0.2,0.1l-0.1,0.1l0.1,0.1l0.2-0.2l0.1-0.1L96,84.3L95.6,84.2z M75.5,86.2
		l0.3,0.5l0.1,0.4l0.4,0.1l0.1,0.2l0.3-0.1l-0.2-0.5l-0.5-0.4L75.5,86.2L75.5,86.2z M66.6,86.6c3,4,3.9,9.8,9.3,11.9
		c1,0.4,2.1,0.4,2.9,1c-1,0.1-2-0.1-3-0.4c-7-1.5-15.6,0.4-20.9-5.5c2,3.9,6.1,7,10.1,8.3c6.1,2,12.5-0.2,18.2-1.6
		c0.8-0.2,1.9-0.1,2.6-0.4c-3.2-0.7-6.3-1.6-8.7-3.9C73.5,92.6,70.3,89.2,66.6,86.6L66.6,86.6z M130.7,86.6c-3.8,2.5-7,6-10.5,9.2
		c-2.4,2.3-5.6,3.3-8.7,3.9c0.7,0.3,1.8,0.2,2.6,0.4c5.8,1.4,12.2,3.7,18.2,1.6c3.9-1.3,8.1-4.4,10.1-8.3c-5.3,6-13.9,4.1-20.9,5.5
		c-1,0.2-1.9,0.5-3,0.4c0.8-0.5,1.9-0.6,2.9-1C126.9,96.5,127.8,90.7,130.7,86.6L130.7,86.6z M92.9,99.6c-5.4,0-10.2,2.6-15,4.6
		c-4.3,1.8-9.9,1.4-13.8-1.2c1.9,2.4,4.4,3.8,7,4.8c4.8,1.9,10.4,0.4,14.5-2.1c3-1.8,5.5-4.6,9-4.6c0.6,0,1.3,0.1,1.9,0.2
		c0.7-0.3,1.4-0.5,2.1-0.7C96.7,99.9,94.8,99.6,92.9,99.6z M98.6,100.5c0.7,0.2,1.4,0.4,2.1,0.7c0.6-0.1,1.3-0.2,1.9-0.2
		c3.5,0,6.1,2.7,9,4.6c4.1,2.6,9.7,4.1,14.5,2.1c2.6-1,5.1-2.4,7-4.8c-3.8,2.6-9.5,3-13.8,1.2c-4.7-1.9-9.6-4.6-15-4.6
		C102.5,99.6,100.5,99.9,98.6,100.5L98.6,100.5z M100.7,101.3c-0.7,0.1-1.4,0.4-2.1,0.7c4.4,1.8,8.8,6.1,12.7,10.2
		c0.8-0.7,1.6-1.3,2.3-2.1C110.1,106.7,105.7,103.3,100.7,101.3L100.7,101.3z M98.6,101.9c-0.7-0.3-1.4-0.5-2.1-0.7
		c-5,2-9.4,5.5-12.9,8.8c0.7,0.7,1.5,1.4,2.3,2.1C89.8,108.1,94.2,103.7,98.6,101.9z"/>
</g>
<rect x="28" y="125.6" class="st1" width="140.6" height="10.7"/>
<rect x="28" y="117.2" class="st2" width="140.8" height="10.7"/>
<rect x="28" y="132.5" class="st2" width="140.8" height="10.7"/>
<g>
	<path d="M77.3,120.4h6.2v12.4c0,1.3-0.2,2.4-0.6,3.5c-0.4,1.1-0.9,2-1.8,2.8c-0.8,0.8-1.6,1.4-2.5,1.8c-1.2,0.5-2.7,0.7-4.3,0.7
		c-1,0-2-0.1-3.2-0.3s-2.1-0.4-2.8-0.8c-0.8-0.4-1.5-1-2.1-1.8c-0.6-0.8-1.1-1.6-1.3-2.4c-0.4-1.3-0.6-2.5-0.6-3.5v-12.4h6.2V133
		c0,1.2,0.3,2,0.9,2.7c0.6,0.7,1.4,0.9,2.5,0.9s1.9-0.3,2.5-0.9c0.6-0.7,0.9-1.5,0.9-2.7C77.3,133,77.3,120.4,77.3,120.4z"/>
	<path d="M87.6,120.4h5.8l7.5,11.5v-11.5h5.9v20.7h-5.9l-7.4-11.4v11.4h-5.8L87.6,120.4L87.6,120.4z"/>
	<path d="M108.8,120.4h6.4l4.5,15l4.4-15h6.3l-7.4,20.7h-6.7L108.8,120.4z"/>
</g>
</svg>
