<?xml version="1.0" encoding="utf-8"?>
<!-- Generator: Adobe Illustrator 21.0.2, SVG Export Plug-In . SVG Version: 6.00 Build 0)  -->
<svg version="1.1" id="Layer_1" xmlns="http://www.w3.org/2000/svg" xmlns:xlink="http://www.w3.org/1999/xlink" x="0px" y="0px"
	 viewBox="0 0 187.5 186.7" style="enable-background:new 0 0 187.5 186.7;" xml:space="preserve">
<style type="text/css">
	.st0{fill-rule:evenodd;clip-rule:evenodd;fill:#2D67AB;}
	.st1{fill-rule:evenodd;clip-rule:evenodd;fill:#FFFFFF;}
	.st2{fill:#2D67AB;}
	.st3{fill:#2278BA;}
	.st4{fill:#FFFFFF;}
	.st5{fill:#BACDE4;}
</style>
<g>
	<polygon class="st0" points="66.5,66.8 76.6,66.8 76.6,103.4 66.5,103.4 66.5,66.8 	"/>
	<polygon class="st0" points="81.9,103.4 81.9,66.8 109.8,66.8 109.8,73.9 92.1,73.9 92.1,81.4 108.3,81.4 108.3,88.5 92.1,88.5 
		92.1,96.3 109.8,96.3 109.8,103.4 81.9,103.4 	"/>
	<polygon class="st0" points="115.4,103.4 115.4,66.8 143.3,66.8 143.3,73.9 125.6,73.9 125.6,81.4 141.8,81.4 141.8,88.5 
		125.6,88.5 125.6,96.3 143.3,96.3 143.3,103.4 115.4,103.4 	"/>
	<polygon class="st0" points="148.9,103.4 148.9,66.8 176.8,66.8 176.8,73.9 159.1,73.9 159.1,81.4 175.3,81.4 175.3,88.5 
		159.1,88.5 159.1,96.3 176.8,96.3 176.8,103.4 148.9,103.4 	"/>
	<path class="st0" d="M38.8,63.5c1.5,1.9,3.1,3.9,4.7,5.7l4,4.2c3.6,3.6,7.5,6.8,11.6,9.6l0.1,0c0.5,0.3,0.9,0.9,0.9,1.6
		c0,1.3-1.6,1.6-2.4,2.3c-8,5.8-15.2,13-20.9,21.1l-0.5,0.5c-0.5,0.3-1.1,0.2-1.5,0c-0.6-0.2-0.7-0.9-1.1-1.3
		c-1.3-1.9-2.9-3.8-4.2-5.6c-0.8-0.8-1.5-1.7-2.3-2.6c-4.7-5.1-9.9-9.6-15.4-13.4c-0.4-0.4-0.7-0.9-0.5-1.5c0.2-0.7,1-1.1,1.5-1.5
		c6.8-4.7,13.1-10.8,18.4-17.4l3.3-4.3c0.4-0.3,1-0.6,1.6-0.4c0.2,0.1,0.5,0.3,0.8,0.4L38.8,63.5L38.8,63.5z"/>
	<path class="st1" d="M34,67.2c-1.5,1.1-3,2.2-4.5,3.5c-0.1,0.1-0.3,0.2-0.3,0.3c-3.4,3.1-6.8,6.4-9.6,10c-0.8,1-1.6,2-1.9,3.2
		c0,0.6,0.1,1.3,0.4,1.7c2.4,3.5,5.5,6.9,8.6,9.7c2.7,2.4,5.3,5,8.3,6.6c1,0.5,2.1-0.1,3-0.7c4.2-2.9,7.9-6.6,11.4-10.4
		c1.6-2,3.5-3.8,4.4-6.1c0.2-0.9-0.1-1.7-0.6-2.4c-2.7-3.9-6.1-7.6-9.7-11l-0.2-0.1c-1.3-1.3-2.8-2.5-4.2-3.6
		C37.7,67,35.7,66,34,67.2L34,67.2z"/>
	<path class="st0" d="M34.6,68.2c-5.1,3.5-10.1,8.3-14,13.2c-0.8,1.2-2.2,2.3-1.6,3.9c0.5,1.2,1.5,2,2.2,3c3.9,4.7,8.5,9,13.3,12.5
		c2.1,1.3,3.6-0.8,5.2-1.8c3.4-2.6,6.5-5.9,9.4-9V90c1.2-1.4,2.4-2.8,3.3-4.4c0.4-0.8,0.2-1.8-0.2-2.4C48.6,78.1,44,73.5,39,69.6
		C37.8,68.7,36.3,67.1,34.6,68.2L34.6,68.2z"/>
	<path class="st1" d="M35.7,71.4l-0.4,1.4L33,79.3c0.6,0.1,1.3,0,1.8,0.1v0.1l-0.3,7.3l0.1,0.1c0.7,0.1,1.6,0.1,2.3,0v-0.1l-0.3-7.1
		l0-0.2l2,0C37.6,76.7,36.7,74.1,35.7,71.4L35.7,71.4L35.7,71.4z"/>
	<path class="st1" d="M28,81.5c-1.3,0.6-3.1,1.6-2.9,3.3c0.3,0.9,1.3,1.5,2.1,1.9c4.5,2,10.4,2,15.1,0.6c1.2-0.4,2.7-1.1,2.9-2.5
		c0-1.2-1.3-1.9-2.2-2.4v-0.1c0.3-0.1,0.7-0.2,1-0.3v0c-1.6-0.3-3.1-0.7-4.6-1.1c0.3,0.7,0.5,1.4,0.8,2.1c0.5-0.1,0.9-0.3,1.4-0.3
		c0.8,0.3,2,0.8,2.1,1.8c0.1,0.9-0.9,1.4-1.6,1.8c-3.5,1.3-7.3,1.4-10.9,0.4c-1-0.3-2.4-0.7-2.6-2c0.7-1.7,2.5-2,4.1-2.4
		c-0.8-0.5-1.6-1-2.3-1.5C29.5,80.8,28.8,81.2,28,81.5L28,81.5z"/>
	<path class="st1" d="M34.4,88.8c-0.1,2.6-0.2,5-0.4,7.6c1,0.1,2.2,0.2,3.3,0L37,89.1l-0.1-0.3C36.1,88.8,35.3,88.8,34.4,88.8
		L34.4,88.8z"/>
	<path class="st0" d="M43.8,104.9v-0.4h0.3c0.1,0,0.4,0,0.4,0.2c0,0.2-0.1,0.2-0.3,0.2H43.8L43.8,104.9z M43.8,105.2H44l0.4,0.8h0.5
		l-0.5-0.8c0.2,0,0.4-0.1,0.4-0.5c0-0.4-0.3-0.6-0.7-0.6h-0.7v1.8h0.4V105.2L43.8,105.2z M45.8,105.1c0-1.1-0.8-1.7-1.7-1.7
		c-0.9,0-1.7,0.6-1.7,1.7s0.8,1.7,1.7,1.7C45,106.8,45.8,106.1,45.8,105.1L45.8,105.1z M45.3,105.1c0,0.8-0.6,1.3-1.2,1.3v0
		c-0.7,0-1.2-0.5-1.2-1.3c0-0.8,0.5-1.3,1.2-1.3C44.7,103.8,45.3,104.3,45.3,105.1L45.3,105.1z"/>
</g>
<g>
	<path class="st2" d="M50.5,120.8h-3.4l-1,2.1h-1.8l4.9-9.4h2l1.4,9.4h-1.7L50.5,120.8z M50.3,119.2l-0.5-3.8l-1.9,3.8H50.3z"/>
	<path class="st2" d="M59.2,122.9h-1.6l0.2-0.7c-0.3,0.3-0.6,0.6-0.9,0.7s-0.6,0.2-1,0.2c-0.6,0-1.1-0.2-1.5-0.7
		c-0.4-0.5-0.6-1.2-0.6-2.1c0-1.1,0.3-2.1,0.9-3c0.6-0.9,1.3-1.3,2.2-1.3c0.8,0,1.4,0.4,1.9,1.1l0.7-3.5h1.7L59.2,122.9z
		 M55.5,120.1c0,0.5,0.1,0.9,0.3,1.2c0.2,0.3,0.5,0.4,0.8,0.4c0.3,0,0.5-0.1,0.8-0.3s0.5-0.5,0.6-1c0.2-0.5,0.3-1,0.3-1.5
		c0-0.5-0.1-0.9-0.4-1.2c-0.2-0.3-0.5-0.5-0.8-0.5c-0.2,0-0.5,0.1-0.7,0.3c-0.2,0.2-0.5,0.5-0.6,1C55.6,119,55.5,119.5,55.5,120.1z"
		/>
	<path class="st2" d="M64.1,122.9h-1.5l-1.3-6.8H63l0.4,3c0.1,0.8,0.2,1.3,0.2,1.6l0.4-0.8l0.5-0.9l1.6-2.9h1.8L64.1,122.9z"/>
	<path class="st2" d="M70.1,118l-1.7-0.2c0.2-0.6,0.5-1.1,1-1.4c0.5-0.3,1.1-0.5,1.9-0.5c0.8,0,1.3,0.2,1.8,0.5s0.6,0.8,0.6,1.3
		c0,0.2,0,0.4-0.1,0.6s-0.2,0.8-0.4,1.8c-0.2,0.8-0.3,1.4-0.3,1.7c0,0.3,0.1,0.6,0.2,1h-1.7c-0.1-0.3-0.1-0.5-0.1-0.8
		c-0.2,0.3-0.5,0.5-0.8,0.7s-0.6,0.2-0.9,0.2c-0.5,0-0.9-0.2-1.2-0.5c-0.3-0.4-0.5-0.8-0.5-1.4c0-0.7,0.2-1.2,0.6-1.6
		c0.4-0.4,1-0.6,2-0.7c0.8-0.1,1.3-0.2,1.6-0.3c0.1-0.3,0.1-0.5,0.1-0.6c0-0.2-0.1-0.4-0.2-0.5c-0.2-0.1-0.4-0.2-0.6-0.2
		C70.5,117.2,70.2,117.4,70.1,118z M71.6,119.7c-0.1,0-0.2,0.1-0.4,0.1c-0.8,0.1-1.3,0.2-1.5,0.4c-0.2,0.2-0.4,0.4-0.4,0.7
		c0,0.2,0.1,0.4,0.2,0.6c0.1,0.1,0.3,0.2,0.5,0.2c0.2,0,0.4-0.1,0.6-0.2c0.2-0.1,0.4-0.3,0.5-0.5c0.1-0.2,0.2-0.6,0.4-1L71.6,119.7z
		"/>
	<path class="st2" d="M75.7,116h1.6l-0.2,0.9c0.4-0.4,0.8-0.7,1.1-0.8s0.7-0.2,1.1-0.2c0.5,0,0.9,0.2,1.2,0.5
		c0.3,0.3,0.5,0.7,0.5,1.3c0,0.2-0.1,0.7-0.2,1.4l-0.7,3.9h-1.7l0.7-3.9c0.1-0.6,0.2-0.9,0.2-1c0-0.2-0.1-0.4-0.2-0.6
		c-0.1-0.1-0.3-0.2-0.5-0.2c-0.2,0-0.5,0.1-0.7,0.2c-0.3,0.2-0.6,0.5-0.8,0.8s-0.3,0.9-0.5,1.8l-0.5,2.8h-1.7L75.7,116z"/>
	<path class="st2" d="M86,120.3l1.6,0.3c-0.3,0.8-0.7,1.4-1.2,1.8c-0.5,0.4-1.1,0.6-1.8,0.6c-0.8,0-1.4-0.3-1.9-0.8
		c-0.5-0.5-0.7-1.2-0.7-2.2c0-0.8,0.2-1.6,0.5-2.2c0.3-0.7,0.8-1.1,1.3-1.5s1.1-0.5,1.8-0.5c0.7,0,1.3,0.2,1.7,0.6s0.7,1,0.8,1.7
		l-1.6,0.2c-0.1-0.7-0.4-1.1-1-1.1c-0.3,0-0.5,0.1-0.8,0.3c-0.3,0.2-0.5,0.6-0.7,1.1c-0.2,0.5-0.3,1.1-0.3,1.7
		c0,0.4,0.1,0.7,0.3,0.9s0.4,0.3,0.7,0.3c0.3,0,0.5-0.1,0.8-0.3S85.8,120.7,86,120.3z"/>
	<path class="st2" d="M89.8,116h1.7l-1.3,6.8h-1.7L89.8,116z M90.3,113.4H92l-0.3,1.7H90L90.3,113.4z"/>
	<path class="st2" d="M93.1,116h1.6l-0.2,0.9c0.4-0.4,0.8-0.7,1.1-0.8c0.3-0.2,0.7-0.2,1.1-0.2c0.5,0,0.9,0.2,1.2,0.5
		c0.3,0.3,0.5,0.7,0.5,1.3c0,0.2-0.1,0.7-0.2,1.4l-0.7,3.9h-1.7l0.7-3.9c0.1-0.6,0.2-0.9,0.2-1c0-0.2-0.1-0.4-0.2-0.6
		s-0.3-0.2-0.5-0.2c-0.2,0-0.5,0.1-0.7,0.2c-0.3,0.2-0.6,0.5-0.8,0.8s-0.3,0.9-0.5,1.8l-0.5,2.8h-1.7L93.1,116z"/>
	<path class="st2" d="M99.1,123.2l1.8,0.3c0,0.3,0.1,0.5,0.2,0.6c0.2,0.1,0.4,0.2,0.7,0.2c0.3,0,0.5-0.1,0.7-0.2
		c0.2-0.1,0.3-0.3,0.4-0.5c0.1-0.2,0.2-0.6,0.3-1.3l0-0.3c-0.6,0.5-1.2,0.8-1.8,0.8c-0.6,0-1.1-0.2-1.5-0.7s-0.6-1.2-0.6-2.1
		c0-0.9,0.1-1.6,0.4-2.3c0.3-0.7,0.7-1.1,1.1-1.5s0.9-0.5,1.4-0.5c0.4,0,0.8,0.1,1.1,0.4c0.3,0.2,0.6,0.6,0.8,1l0.2-1.2h1.6l-1,5.7
		c-0.2,1.1-0.4,1.9-0.5,2.3c-0.2,0.6-0.6,1-1,1.2s-1,0.4-1.8,0.4c-0.9,0-1.5-0.1-1.9-0.4c-0.5-0.4-0.7-0.9-0.7-1.7L99.1,123.2z
		 M101.1,119.9c0,0.5,0.1,0.9,0.4,1.2c0.2,0.2,0.4,0.4,0.7,0.4c0.3,0,0.5-0.1,0.8-0.3c0.3-0.2,0.5-0.5,0.7-1
		c0.2-0.4,0.3-0.9,0.3-1.4c0-0.5-0.1-0.9-0.4-1.2c-0.2-0.3-0.5-0.4-0.8-0.4c-0.2,0-0.5,0.1-0.7,0.3c-0.2,0.2-0.4,0.5-0.6,1
		C101.2,119,101.1,119.4,101.1,119.9z"/>
	<path class="st2" d="M113.7,122.9h-1.8l1.5-7.9h-2.6l0.3-1.6h6.9l-0.3,1.6h-2.5L113.7,122.9z"/>
	<path class="st2" d="M122.3,120H118v0.2c0,0.5,0.1,0.8,0.4,1.1c0.2,0.3,0.5,0.4,0.9,0.4c0.6,0,1-0.3,1.3-1l1.5,0.3
		c-0.3,0.7-0.7,1.2-1.2,1.5s-1,0.5-1.7,0.5c-0.8,0-1.5-0.3-2-0.9c-0.5-0.6-0.8-1.3-0.8-2.3c0-1,0.3-2,0.9-2.8s1.5-1.2,2.6-1.2
		c0.7,0,1.3,0.3,1.8,0.8c0.5,0.5,0.7,1.2,0.7,2.2C122.4,119.3,122.4,119.7,122.3,120z M120.9,118.9l0-0.2c0-0.5-0.1-0.9-0.3-1.2
		c-0.2-0.2-0.5-0.4-0.8-0.4c-0.3,0-0.7,0.1-0.9,0.4s-0.5,0.7-0.6,1.3H120.9z"/>
	<path class="st2" d="M127.1,120.3l1.6,0.3c-0.3,0.8-0.7,1.4-1.2,1.8s-1.1,0.6-1.8,0.6c-0.8,0-1.4-0.3-1.9-0.8
		c-0.5-0.5-0.7-1.2-0.7-2.2c0-0.8,0.2-1.6,0.5-2.2c0.3-0.7,0.8-1.1,1.3-1.5c0.6-0.3,1.1-0.5,1.8-0.5c0.7,0,1.3,0.2,1.7,0.6
		s0.7,1,0.8,1.7l-1.6,0.2c-0.1-0.7-0.4-1.1-1-1.1c-0.3,0-0.5,0.1-0.8,0.3c-0.3,0.2-0.5,0.6-0.7,1.1c-0.2,0.5-0.3,1.1-0.3,1.7
		c0,0.4,0.1,0.7,0.3,0.9c0.2,0.2,0.4,0.3,0.7,0.3c0.3,0,0.5-0.1,0.8-0.3C126.8,121,127,120.7,127.1,120.3z"/>
	<path class="st2" d="M131.3,122.9h-1.7l1.8-9.4h1.7l-0.6,3.4c0.4-0.3,0.8-0.6,1.1-0.7c0.3-0.1,0.7-0.2,1-0.2c0.5,0,0.9,0.2,1.2,0.5
		c0.3,0.3,0.5,0.7,0.5,1.3c0,0.3-0.1,0.7-0.2,1.3l-0.8,4h-1.7l0.8-4.1c0.1-0.4,0.1-0.7,0.1-0.8c0-0.2-0.1-0.4-0.2-0.6
		c-0.1-0.1-0.3-0.2-0.5-0.2c-0.3,0-0.6,0.1-0.8,0.3c-0.3,0.3-0.6,0.6-0.8,1.1c-0.1,0.2-0.2,0.8-0.4,1.6L131.3,122.9z"/>
	<path class="st2" d="M138.3,116h1.6l-0.2,0.9c0.4-0.4,0.8-0.7,1.1-0.8s0.7-0.2,1.1-0.2c0.5,0,0.9,0.2,1.2,0.5
		c0.3,0.3,0.5,0.7,0.5,1.3c0,0.2-0.1,0.7-0.2,1.4l-0.7,3.9H141l0.7-3.9c0.1-0.6,0.2-0.9,0.2-1c0-0.2-0.1-0.4-0.2-0.6
		c-0.1-0.1-0.3-0.2-0.5-0.2c-0.2,0-0.5,0.1-0.7,0.2c-0.3,0.2-0.6,0.5-0.8,0.8s-0.3,0.9-0.5,1.8l-0.5,2.8H137L138.3,116z"/>
	<path class="st2" d="M144.6,120c0-1.1,0.3-2.1,0.8-2.9c0.6-0.9,1.5-1.3,2.7-1.3c0.9,0,1.6,0.3,2.1,0.8c0.5,0.5,0.8,1.3,0.8,2.3
		c0,1.1-0.3,2.1-1,2.9s-1.5,1.2-2.6,1.2c-0.9,0-1.6-0.3-2.1-0.8S144.6,120.9,144.6,120z M149.4,118.7c0-0.5-0.1-0.8-0.4-1.1
		c-0.2-0.3-0.5-0.4-0.9-0.4c-0.3,0-0.6,0.1-0.9,0.3s-0.5,0.5-0.7,1c-0.2,0.5-0.3,1-0.3,1.5c0,0.5,0.1,0.9,0.4,1.2
		c0.2,0.3,0.6,0.4,0.9,0.4c0.5,0,0.9-0.2,1.2-0.7C149.2,120.3,149.4,119.6,149.4,118.7z"/>
	<path class="st2" d="M151.8,122.9l1.8-9.4h1.7l-1.8,9.4H151.8z"/>
	<path class="st2" d="M155.3,120c0-1.1,0.3-2.1,0.8-2.9c0.6-0.9,1.5-1.3,2.7-1.3c0.9,0,1.6,0.3,2.1,0.8c0.5,0.5,0.8,1.3,0.8,2.3
		c0,1.1-0.3,2.1-1,2.9s-1.5,1.2-2.6,1.2c-0.9,0-1.6-0.3-2.1-0.8S155.3,120.9,155.3,120z M160.2,118.7c0-0.5-0.1-0.8-0.4-1.1
		c-0.2-0.3-0.5-0.4-0.9-0.4c-0.3,0-0.6,0.1-0.9,0.3s-0.5,0.5-0.7,1c-0.2,0.5-0.3,1-0.3,1.5c0,0.5,0.1,0.9,0.4,1.2
		c0.2,0.3,0.6,0.4,0.9,0.4c0.5,0,0.9-0.2,1.2-0.7C159.9,120.3,160.2,119.6,160.2,118.7z"/>
	<path class="st2" d="M162.4,123.2l1.8,0.3c0,0.3,0.1,0.5,0.2,0.6s0.4,0.2,0.7,0.2c0.3,0,0.5-0.1,0.7-0.2c0.2-0.1,0.3-0.3,0.4-0.5
		c0.1-0.2,0.2-0.6,0.3-1.3l0-0.3c-0.6,0.5-1.2,0.8-1.8,0.8c-0.6,0-1.1-0.2-1.5-0.7s-0.6-1.2-0.6-2.1c0-0.9,0.1-1.6,0.4-2.3
		c0.3-0.7,0.7-1.1,1.1-1.5s0.9-0.5,1.4-0.5c0.4,0,0.8,0.1,1.1,0.4c0.3,0.2,0.6,0.6,0.8,1l0.2-1.2h1.6l-1,5.7
		c-0.2,1.1-0.4,1.9-0.5,2.3c-0.2,0.6-0.6,1-1,1.2s-1,0.4-1.8,0.4c-0.9,0-1.5-0.1-1.9-0.4c-0.5-0.4-0.7-0.9-0.7-1.7L162.4,123.2z
		 M164.4,119.9c0,0.5,0.1,0.9,0.4,1.2c0.2,0.2,0.4,0.4,0.7,0.4c0.3,0,0.5-0.1,0.8-0.3c0.3-0.2,0.5-0.5,0.7-1
		c0.2-0.4,0.3-0.9,0.3-1.4c0-0.5-0.1-0.9-0.4-1.2c-0.2-0.3-0.5-0.4-0.8-0.4c-0.2,0-0.5,0.1-0.7,0.3c-0.2,0.2-0.4,0.5-0.6,1
		C164.5,119,164.4,119.4,164.4,119.9z"/>
	<path class="st2" d="M170.4,116h1.7l0.4,3.4c0.1,0.9,0.2,1.5,0.2,1.8c0.2-0.7,0.5-1.4,0.9-2.2l1.5-3h1.8l-3.9,7.5
		c-0.4,0.7-0.6,1.2-0.8,1.4c-0.2,0.2-0.4,0.4-0.7,0.5s-0.5,0.2-0.8,0.2c-0.4,0-0.8-0.1-1.2-0.2l0.2-1.4c0.2,0.1,0.4,0.1,0.6,0.1
		c0.5,0,0.9-0.4,1.3-1.3L170.4,116z"/>
	<path class="st2" d="M99.8,131.8l-0.3,1.4h-1.2l-1,5.5h-1.7l1-5.5h-0.9l0.3-1.4h0.9l0.1-0.7c0.1-0.6,0.3-1.1,0.4-1.3
		c0.1-0.2,0.3-0.4,0.6-0.6s0.6-0.2,0.9-0.2c0.5,0,1.1,0.1,1.6,0.3l-0.3,1.3c-0.4-0.2-0.7-0.2-1-0.2c-0.2,0-0.3,0.1-0.4,0.2
		c-0.1,0.1-0.2,0.3-0.2,0.7l-0.1,0.5H99.8z"/>
	<path class="st2" d="M99.7,135.8c0-1.1,0.3-2.1,0.8-2.9c0.6-0.9,1.5-1.3,2.7-1.3c0.9,0,1.6,0.3,2.1,0.8c0.5,0.5,0.8,1.3,0.8,2.3
		c0,1.1-0.3,2.1-1,2.9c-0.7,0.8-1.5,1.2-2.6,1.2c-0.9,0-1.6-0.3-2.1-0.8S99.7,136.7,99.7,135.8z M104.5,134.5c0-0.5-0.1-0.8-0.4-1.1
		c-0.2-0.3-0.5-0.4-0.9-0.4c-0.3,0-0.6,0.1-0.9,0.3c-0.3,0.2-0.5,0.5-0.7,1c-0.2,0.5-0.3,1-0.3,1.5c0,0.5,0.1,0.9,0.4,1.2
		s0.6,0.4,0.9,0.4c0.5,0,0.9-0.2,1.2-0.7C104.3,136.1,104.5,135.4,104.5,134.5z"/>
	<path class="st2" d="M108,131.8h1.6l-0.3,1.3c0.6-1,1.2-1.5,1.9-1.5c0.2,0,0.5,0.1,0.8,0.2l-0.6,1.5c-0.2-0.1-0.3-0.1-0.5-0.1
		c-0.3,0-0.5,0.1-0.8,0.2c-0.4,0.2-0.6,0.6-0.8,1c-0.2,0.4-0.4,1.1-0.6,2l-0.4,2.1h-1.7L108,131.8z"/>
	<path class="st2" d="M120.8,134.4h-3.3l-0.8,4.2h-1.8l1.8-9.4h1.8l-0.7,3.6h3.3l0.7-3.6h1.8l-1.8,9.4H120L120.8,134.4z"/>
	<path class="st2" d="M124.7,131.8h1.7l-0.8,4c-0.1,0.5-0.1,0.8-0.1,0.9c0,0.2,0.1,0.4,0.2,0.5c0.1,0.1,0.3,0.2,0.5,0.2
		c0.2,0,0.5-0.1,0.7-0.2c0.3-0.2,0.6-0.5,0.7-0.8c0.2-0.3,0.3-0.8,0.5-1.4l0.7-3.3h1.7l-1.4,6.8h-1.6l0.2-0.9
		c-0.7,0.7-1.4,1.1-2.2,1.1c-0.5,0-0.9-0.2-1.2-0.5c-0.3-0.3-0.4-0.7-0.4-1.3c0-0.2,0.1-0.7,0.2-1.4L124.7,131.8z"/>
	<path class="st2" d="M132.1,131.8h1.6l-0.2,0.8c0.6-0.7,1.3-1,2-1c0.9,0,1.5,0.4,1.6,1.2c0.2-0.4,0.5-0.6,1-0.9
		c0.4-0.2,0.8-0.3,1.2-0.3c0.5,0,0.9,0.1,1.2,0.4s0.4,0.7,0.4,1.2c0,0.2-0.1,0.6-0.2,1.2l-0.8,4.2h-1.7l0.8-4.2
		c0.1-0.5,0.2-0.8,0.2-0.9c0-0.2-0.1-0.3-0.2-0.5c-0.1-0.1-0.3-0.2-0.5-0.2c-0.4,0-0.8,0.2-1.1,0.7c-0.3,0.4-0.5,1-0.7,1.9l-0.6,3.1
		h-1.7l0.8-4.1c0.1-0.5,0.1-0.8,0.1-0.9c0-0.2-0.1-0.3-0.2-0.5s-0.3-0.2-0.5-0.2c-0.2,0-0.5,0.1-0.8,0.3s-0.5,0.5-0.6,0.9
		c-0.1,0.2-0.2,0.7-0.3,1.3l-0.6,3.1h-1.7L132.1,131.8z"/>
	<path class="st2" d="M144.1,133.8l-1.7-0.2c0.2-0.6,0.5-1.1,1-1.4c0.5-0.3,1.1-0.5,1.9-0.5c0.8,0,1.3,0.2,1.8,0.5
		c0.4,0.3,0.6,0.8,0.6,1.3c0,0.2,0,0.4-0.1,0.6c0,0.2-0.2,0.8-0.4,1.8c-0.2,0.8-0.3,1.4-0.3,1.7c0,0.3,0.1,0.6,0.2,1h-1.7
		c-0.1-0.3-0.1-0.5-0.1-0.8c-0.2,0.3-0.5,0.5-0.8,0.7s-0.6,0.2-0.9,0.2c-0.5,0-0.9-0.2-1.2-0.5c-0.3-0.4-0.5-0.8-0.5-1.4
		c0-0.7,0.2-1.2,0.6-1.6c0.4-0.4,1-0.6,2-0.7c0.8-0.1,1.3-0.2,1.6-0.3c0.1-0.3,0.1-0.5,0.1-0.6c0-0.2-0.1-0.4-0.2-0.5
		c-0.2-0.1-0.4-0.2-0.6-0.2C144.5,133,144.2,133.2,144.1,133.8z M145.6,135.5c-0.1,0-0.2,0.1-0.4,0.1c-0.8,0.1-1.3,0.2-1.5,0.4
		c-0.2,0.2-0.4,0.4-0.4,0.7c0,0.2,0.1,0.4,0.2,0.6c0.1,0.1,0.3,0.2,0.5,0.2c0.2,0,0.4-0.1,0.6-0.2c0.2-0.1,0.4-0.3,0.5-0.5
		s0.2-0.6,0.4-1L145.6,135.5z"/>
	<path class="st2" d="M149.7,131.8h1.6l-0.2,0.9c0.4-0.4,0.8-0.7,1.1-0.8s0.7-0.2,1.1-0.2c0.5,0,0.9,0.2,1.2,0.5
		c0.3,0.3,0.5,0.7,0.5,1.3c0,0.2-0.1,0.7-0.2,1.4l-0.7,3.9h-1.7l0.7-3.9c0.1-0.6,0.2-0.9,0.2-1c0-0.2-0.1-0.4-0.2-0.6
		c-0.1-0.1-0.3-0.2-0.5-0.2c-0.2,0-0.5,0.1-0.7,0.2c-0.3,0.2-0.6,0.5-0.8,0.8s-0.3,0.9-0.5,1.8l-0.5,2.8h-1.7L149.7,131.8z"/>
	<path class="st2" d="M157.1,131.8h1.7l-1.3,6.8h-1.7L157.1,131.8z M157.6,129.2h1.7l-0.3,1.7h-1.7L157.6,129.2z"/>
	<path class="st2" d="M159.4,133.2l0.3-1.4h0.9l0.2-1.1l2-1.3l-0.5,2.4h1.1l-0.3,1.4H162l-0.6,2.9c-0.1,0.5-0.2,0.8-0.2,0.9
		c0,0.2,0,0.3,0.1,0.3s0.2,0.1,0.5,0.1c0.1,0,0.3,0,0.6,0l-0.3,1.4c-0.3,0.1-0.6,0.1-0.9,0.1c-0.6,0-1-0.1-1.3-0.4s-0.4-0.6-0.4-1.1
		c0-0.2,0.1-0.7,0.2-1.5l0.6-2.7H159.4z"/>
	<path class="st2" d="M163.6,131.8h1.7l0.4,3.4c0.1,0.9,0.2,1.5,0.2,1.8c0.2-0.7,0.5-1.4,0.9-2.2l1.5-3h1.8l-3.9,7.5
		c-0.4,0.7-0.6,1.2-0.8,1.4c-0.2,0.2-0.4,0.4-0.7,0.5s-0.5,0.2-0.8,0.2c-0.4,0-0.8-0.1-1.2-0.2l0.2-1.4c0.2,0.1,0.4,0.1,0.6,0.1
		c0.5,0,0.9-0.4,1.3-1.3L163.6,131.8z"/>
</g>
<g>
	<rect x="-98.3" y="-53.5" class="st3" width="387.5" height="258.3"/>
	<path class="st4" d="M95.5,11.8c-8.6,0-16.6,2-23.8,5.6l0.6,1.1c6.9-3.5,14.6-5.4,22.6-5.5v9.6c-6.5,0.1-12.6,1.7-18.1,4.4l0.6,1.1
		h0c5.4-2.7,11.4-4.1,17.5-4.2v8.7c-4.8,0.1-9.4,1.3-13.5,3.3l0.4,0.7l-0.4-0.7c-3.1,1.5-5.8,3.4-8.3,5.8l-6.2-6.2
		c3.1-3,6.6-5.5,10.4-7.3l-0.6-1.1c-4,2-7.6,4.5-10.7,7.6l-6.8-6.8c3.9-3.8,8.3-6.9,13-9.3l-0.6-1.1c-10.4,5.2-18.8,13.7-23.9,24.1
		c-3.5,7.1-5.5,15.1-5.5,23.5c0,5.2,0.7,10.2,2.1,15l1.3-0.3c-1.3-4.5-2-9.2-2.1-14h9.6c0.1,4,0.7,7.9,1.8,11.7l1.2-0.3
		c-1.1-3.6-1.7-7.5-1.8-11.4h8.7c0,1.3,0.1,2.5,0.3,3.8c-0.6,0.1-1.2,0.3-1.2,0.3L62,70.6c-0.6,0.1-1,1.1-1,1.1
		c-0.5,0.2-0.9,0.8-0.7,0.9c0.2,0.2-0.3,0.2-0.3,0.2V74l-0.3,0.4l0.1,1.3c0.3,0,0.3,0.6,0.3,0.6c-0.5,0.1-0.4,0.8-0.4,0.8l-1.1,0.4
		l-0.2,0.3L57,77.7l-0.4,0.4l0,0c-0.1-0.4-0.2-0.7-0.3-1.1L55,77.3c0,0.1,0.1,0.2,0.1,0.4h-1.6l-0.1-0.3l-0.5-0.1l-0.1-0.6L52,76.8
		l-0.2,0.3L51,77.2c0.1,0.5-0.9,1.4-1,1.1c-0.1-0.2-0.7-0.8-0.4-0.9c0.3-0.1,1-0.2,1-0.2v-0.4l-2-0.1l-0.2,0.3l-0.8,0.1V78l-0.4,0.1
		c-0.3,0.2,0.1,0.8,0.1,0.8c0.4,0.4-0.1,1-0.1,1c-0.3,0.3,0.3,0.9,0.3,0.9c0.4,0.1-0.3,0.4-0.3,0.4c0.1,0.5,0.4,0.7,0.4,0.7
		c-0.3,0.5,0.2,0.8,0.2,0.8l0.1,0.9l0.4,0.2v0.6l0.2,0.4h0.9l-0.1-1.4c-0.8-0.9,0.6-1.1,0.7-0.8c0.1,0.3,0.6,0.5,0.6,0.5
		c0.1,0.8,1,1.3,1.3,0.5c0.3-0.8,0.5-0.3,0.6,0.1c0.2,0.4,1.2,1.3,1.2,1.3h0.8l0.1,0.8c0.9-0.1,1.2,0.1,1.6,1.3
		c0.4,1.3,1.4,1.6,1.4,1.6l0.8-0.1c0-0.7,0.8,0.1,0.8,0.4c0,0.3,1.4,1.6,1.4,1.6L62,91l0.3,0.2c0.9,1.1,1.8,2.2,2.9,3.3l-6.8,6.8
		c-6-6.2-10.3-13.5-12.7-21.6L44.4,80c2.5,8.5,7,16.2,13.4,22.6c4.3,4.3,9.3,7.8,14.7,10.4l0.6-1.1c-5.1-2.4-9.8-5.7-13.9-9.7
		l6.8-6.8c3.5,3.4,7.5,6.2,11.9,8.1l0.6-1.1c-4.2-1.9-8.2-4.6-11.6-7.9l1.3-1.3c0.1,0.1,0.1,0.3,0.1,0.5c0.1,0.8,0.5,0.7,0.5,0.7
		l3.1-0.1l1.1-0.9l2.7-0.1c1.4-0.1,0.5-2,0.3-2c-0.2-0.1-0.2-0.4-0.2-0.7c2.2,1.7,4.5,3.1,7,4.1l0.6-1.1c-2.9-1.2-5.6-2.9-8-4.9
		L74,87.4l6.8-6.8c2.2,2.1,4.7,3.6,7.5,4.6c0.7,0.3,1.5,0.5,2.3,0.7c-0.1,0.1-0.2,0.2-0.2,0.3c0.1,0.3-0.4,0.5-0.4,0.5l-0.5,0.2
		l-0.3,0.5l-0.6,0.2l-0.1,1.1L88,89v0.5l-0.4,0.1v0.3l-0.5,0.1l0.3,0.8l0.4,0.2c0.8,0.1,0.4,1,0.4,1l0.4,0.1l0.2,0.6l0.4,0.9
		c0.2,0.7,0.6,0.5,0.9,0.4c0.2-0.1,0.4,0.7,0.4,0.7l2.1,0.1c0,0-0.1,0.2,0.3,0.3c0.2,0.1,1,0.1,1.8,0.1v1c-4-0.1-7.8-0.9-11.4-2.4
		l-0.6,1.1c3.8,1.6,7.8,2.5,12,2.6v8.7c-5.7-0.1-11.2-1.3-16.3-3.6l-0.6,1.1c5.3,2.4,11,3.7,16.9,3.8v9.6c-7.6-0.1-15-1.8-21.7-5
		l-0.6,1.1c7.1,3.4,14.9,5.2,22.9,5.2c8.5,0,16.6-2,24-5.7c5-2.5,9.6-5.8,13.6-9.9c4.3-4.3,7.7-9.1,10.3-14.4l0,0
		c3.5-7.1,5.3-15,5.3-23.2c0-7-1.3-13.7-3.9-20c-2.6-6.5-6.6-12.5-11.7-17.7c-5.2-5.2-11.2-9.1-17.7-11.8v0
		C109.1,13.1,102.4,11.8,95.5,11.8L95.5,11.8z M96.1,13.1c6.5,0.1,12.9,1.4,18.8,3.7l0,0c6.2,2.5,11.9,6.2,16.8,11l-5.7,5.8
		c-0.2,0-0.4,0.1-0.6,0c-0.4-0.2,0.2-0.5,0.2-0.5v-0.4l-0.3-0.3c0,0-0.9,0.1-1-0.1c-0.1-0.2-0.2-0.9-0.2-0.9l-0.1-0.9l-0.4-0.2
		l-0.1-0.3L123,30v-0.7l-0.3-0.1l-0.3-0.2l-0.1-0.7l-1.2-0.1l-0.4-0.5l-0.4-0.7l-1.3-0.1l-0.3-0.3l-0.5-0.1l-0.4-0.2l-0.2,0.3
		l-1,0.1l-0.1,0.3c-0.3,0.2-1.2,0.2-1.9,0.1c-1.1-0.5-2.2-1-3.3-1.5l-0.5,1.2c0.9,0.4,1.8,0.8,2.6,1.2c-0.1,0.2-0.1,0.3-0.3,0.3
		c-0.3,0-0.2,0.7-0.2,0.7s0.7,0,0.9,0.1c0.2,0.1,0.2,0.6,0.2,0.6c0.8-0.1,1.1,1,1,1.3c-0.1,0.3,0.3,0.3,0.3,0.3s0,0.9-0.1,1.1
		c-0.1,0.2,0.7,0.4,0.9,0.7c0.2,0.3-0.1,1.4-0.3,1.5c-0.2,0.1,0.4,0.2,0.4,0.5c-0.1,0.3,0.2,0,0.2,0.4c0.1,0.4,0.2,1.4,0.2,1.4
		l0.8,0.1c0.1-0.7,1.5-0.7,1.7-0.7c0.9,0.3,1.6,1.7,1.6,2.1s-0.6,0.4-0.6,0.4l0,0.4l-1.9,1.9c-0.2-0.1-0.4-0.2-0.5-0.1
		c-0.3,0.2-0.2-1.1-0.2-1.1s0.5-0.3,0.7-0.2c0.2,0.2-1.8-2.7-2.3-2.5c-0.4,0.3-1.4-0.3-1.3-0.8c0.1-0.5-1.9-2.1-1.9-2.1
		s-0.6-0.4-0.7-0.1c-0.1,0.3-0.3,0.5,0,0.7c0.3,0.2,0.3-0.3,0.6,0.1c0.4,0.4,1.1,0.9,0.8,1.2c-0.3,0.3-0.6,0.4-0.6,0.4l0.4,0.4h0.6
		l0.1,0.9c0,0,0.6,0.3,0.8,0.7c0.1,0.2,0.1,0.4,0.1,0.6c-1.2-0.9-2.4-1.7-3.7-2.5c-0.1,0.4-0.3,0.8-0.5,0.9c-0.1,0-0.4,0-0.6,0
		c1.5,0.8,3,1.8,4.3,2.8v0c0.1,0.4,0.5,0.5,0.5,0.5l0.2,0c0.2,0.1,0.3,0.3,0.5,0.4V42c0.4-0.1,1,0.3,1.1,0.7l-6.7,6.7
		c-1.9-1.8-4.1-3.2-6.4-4.2c-2.4-1-5-1.6-7.6-1.6v-9.6c3.9,0.1,7.6,0.9,11.1,2.3h0c1,0.4,1.9,0.8,2.8,1.3c0,0-0.1-0.1-0.1-0.2
		c0.1-0.3,0.3-1.1,0.3-1.1c0,0,0-0.1,0-0.1c-0.8-0.4-1.7-0.8-2.5-1.2c-3.6-1.5-7.6-2.3-11.6-2.4v-4.8c0.3,0,0.5-0.1,0.5-0.3
		c0.1-0.2,0.1-0.3,0.4-0.3c0.3-0.1-0.1-0.7-0.4-0.7c-0.2,0-0.5,0-0.6-0.2V24c5.2,0.1,10.1,1.1,14.8,3l0.5-1.2
		c-4.8-1.9-9.9-3-15.3-3.1L96.1,13.1L96.1,13.1z M110.3,36.2c0.4,0.2,0.7,0.4,1.1,0.6c0-0.1,0-0.2,0-0.3c-0.1-0.4,0.4-0.5,0.7-0.1
		l0.5-0.1l0.1-0.5l-0.7-0.6h-0.6c0,0-0.1,0.4-0.4,0.3c-0.4-0.2-0.2-0.1-0.5-0.2C110.2,35.3,110.2,35.9,110.3,36.2L110.3,36.2z
		 M110.1,37.6c0,0,0.1,0.1,0.2,0.1C110.2,37.6,110.2,37.6,110.1,37.6z M105.1,15.4l-0.5,0.3l-0.3-0.2l-0.2,0.3l0.4,0.3l0.1,0.1
		l0.1-0.1l0.6-0.4L105.1,15.4z M107.6,16.7l-0.4,0.3l-0.3-0.3l-0.2,0.2l0.4,0.4l0.1,0.1l0.1-0.1l0.5-0.4L107.6,16.7z M55.8,17
		c-5.3,2.1-11.1,4.2-14.5,9.7c-2,3.2-2.3,7-3.9,10.3c3-2.8,6.4-4.8,8.9-8.1C49.3,24.8,51.9,20.4,55.8,17L55.8,17z M135.2,17
		c3.9,3.4,6.5,7.9,9.6,11.9c2.5,3.3,5.9,5.4,8.9,8.1c-1.6-3.3-1.9-7.1-3.9-10.3C146.2,21.2,140.5,19,135.2,17L135.2,17z M103.9,17.6
		c-0.3,0-0.6,0.1-0.7,0.2c-0.1,0.2-0.4,0.3-0.4,0.3l-1.2,0.1c-0.1,0.3-0.8,0.5-0.8,0.3c-0.1-0.5-0.8,0.6-0.1,0.8
		c0.7,0.2,1.4,0,1.4,0l0.2-0.3l2.7,0.1c0.2-0.2,0.3-0.5,0.3-0.5s0.6-0.2,0.9-0.1c0.3,0.1,0.1-0.8-0.2-0.7c-0.3,0.1-0.8,0.1-0.8,0.1
		h-1C104.2,17.7,104,17.6,103.9,17.6L103.9,17.6z M99.1,18.7L98.4,19l-0.7,0.5l-0.8,0.1l-0.4,0.5l1.7,0.2l0.3,0.5l1.2,0.1l0.8,0.8
		c0.7,0.2,0.9-0.1,0.4-0.5l-0.7-0.7v-0.6l-0.2-0.2l-0.2-0.8L99.1,18.7L99.1,18.7z M41.4,24.2c-2.7,0.7-5,2.5-7,4.7
		c-4.3,4.7-3.9,11.7-3.3,17.9c0.2,1.9,0.1,3.6-0.1,5.5c1.3-2.6,3.4-5.2,5.9-7.1c5.6-4.2,11.6-9.6,11.7-16.7
		c-1.8,5.1-7.4,7.3-11.1,10.8c-2,1.9-3.5,4.1-4.4,6.4l-0.1-0.1c0.5-2.1,1.3-3.9,1.9-5.9C36.4,34.3,36.1,27.9,41.4,24.2L41.4,24.2z
		 M149.6,24.2c5.3,3.6,5,10.1,6.6,15.6c0.6,2,1.5,3.8,1.9,5.9l-0.1,0.1c-0.9-2.3-2.4-4.5-4.4-6.4c-3.7-3.5-9.3-5.6-11.1-10.8
		c0.1,7.1,6.2,12.5,11.7,16.7c2.5,1.9,4.6,4.4,5.9,7.1c-0.2-2-0.3-3.6-0.1-5.5c0.6-6.2,0.9-13.2-3.3-17.9
		C154.6,26.7,152.3,24.9,149.6,24.2L149.6,24.2z M120.4,25.3c-0.4,0-1.1,0.3-1,0.6c0.1,0.3,0.3,0.5,0.7,0.7l0.8,0.3c0,0,1,1.2,1,0.6
		c-0.1-1.6-0.9-1.7-1.1-2C120.7,25.3,120.6,25.3,120.4,25.3L120.4,25.3z M103.6,26l-0.2,0.5l0.3,0.1l0.2-0.5L103.6,26z M104.6,26.5
		c0,0-0.3,0.4-0.5,0.5c0.3,0.1,0.6,0.3,0.6,0.3c0.4,0,0.7,0.3,0.7,0.5c0,0.2,0.6,0.1,0.6,0.1l0.1-0.4l-0.4-0.5l-0.4-0.3
		C105.2,26.7,104.6,26.7,104.6,26.5C104.6,26.5,104.6,26.5,104.6,26.5L104.6,26.5z M104.1,27c-0.2-0.1-0.4-0.2-0.1,0
		C104,27,104,27,104.1,27z M102.3,26.8l0,0.3l0.5,0l0.3,0.5l0.3-0.2l-0.4-0.6l0-0.1l-0.1,0L102.3,26.8L102.3,26.8z M89.9,28.2
		c-0.3,0-0.6,0.1-0.5,0.2c0.1,0.3,0.5,0.6,0.5,0.6s0.8,0.1,0.9,0.2c0.1,0.2,0.6,0.2,0.6,0.1c0.1-0.2,0.3-0.5-0.2-0.5
		c-0.5,0-0.4-0.3-0.5-0.4C90.5,28.2,90.2,28.2,89.9,28.2L89.9,28.2z M132.7,28.7c4.8,4.9,8.5,10.6,11,16.8
		c2.4,5.9,3.7,12.3,3.8,18.8h-9.6c-0.1-5.2-1.1-10.3-3-15c-0.3-0.7-0.6-1.4-0.9-2c0.1-0.3,0.3-0.6,0.6-0.5c0.5,0.2,0.2-1.2,0.2-1.2
		s-0.7-0.5-0.7-0.8c0.1-0.3-0.8-0.8-0.7-1c0.1-0.2-0.7-0.7-0.6-0.9c0.1-0.2-0.4-0.8-0.4-0.8l-0.8-0.8l-0.1-0.5l-0.6-0.1l-1.3-1.6
		l0.1-0.4l-0.4-0.1v-0.6l-0.4-0.2l-0.6-0.1l-1.2-1.3l-0.1-0.6h-0.6l0.1-0.9L132.7,28.7L132.7,28.7z M103.5,28.7v0.5l0.6,0.1
		l-0.2-0.4L103.5,28.7z M58.3,28.7l6.8,6.8c-3.2,3.3-5.8,7-7.8,11.2c-2.6,5.4-4.1,11.3-4.2,17.7h-9.6c0.1-7.8,1.9-15.4,5.3-22.2
		C51.3,37.3,54.4,32.7,58.3,28.7L58.3,28.7z M106.1,31.3c-0.1,0-0.1,0-0.1,0.1c0,0.2,0.2,0.2,0.3,0.5c0.1,0.3,0.1,0.9,0.5,1
		c0.5,0.1,0.6,0.2,0.6,0.4c0.1,0.2,0.6,0.3,0.6,0.3l0.4,0.2l1.3,1.1v-0.4c0,0-0.1-0.4-0.3-0.4c-0.3,0-0.7-0.3-0.6-0.5
		C109,33.2,108,33,108,33s-0.9-0.9-0.6-0.8c0.3,0.1,0.2-0.4,0.2-0.4s-0.6,0.1-0.8,0.1c-0.2-0.1-0.1-0.5-0.1-0.5
		S106.3,31.3,106.1,31.3L106.1,31.3z M76.6,31.7l-0.2,0.2l0.3,0.3l0.2-0.2L76.6,31.7L76.6,31.7z M30.1,33.9c-0.1,0-0.2,0.1-0.3,0.1
		c-3.7,4.7-6.1,9.8-6.1,16.2c0,7.8,4.5,13.2,5,20.6c1.2-7.6,7.6-13.1,10.9-19.8c1.3-2.6,2.1-5.6,2.5-8.5c-0.5,1.2-1.2,2.4-2.2,3.3
		C35.5,50,30.4,54,29.4,59.8c-0.1,0.8-0.2,1.7-0.5,2.5c-0.2,0.1-0.2-0.1-0.3-0.2l0.5-7.2C29.8,47.9,26.1,40.1,30.1,33.9L30.1,33.9z
		 M160.9,33.9c4.1,6.2,0.4,14,0.9,21l0.5,7.2c-0.1,0.1-0.1,0.3-0.3,0.2c-0.2-0.8-0.3-1.7-0.4-2.5c-1-5.8-6.1-9.8-10.4-13.9
		c-1-1-1.8-2.1-2.2-3.3c0.4,2.9,1.2,5.8,2.5,8.5c3.3,6.7,9.7,12.1,10.9,19.8c0.6-7.3,5-12.8,5-20.6c0-6.3-2.5-11.5-6.1-16.2
		C161.1,34,161,33.9,160.9,33.9L160.9,33.9z M94.9,33.9v9.6c-3,0.1-5.9,0.8-8.5,2c-2.1,1-4,2.3-5.6,3.8L74,42.6
		c2.4-2.3,5.1-4.1,8-5.6C85.9,35.1,90.3,34,94.9,33.9z M66,36.4l6.2,6.2c-2.5,2.6-4.5,5.6-6.1,8.9l0,0c-1.8,3.9-2.9,8.3-3,12.9h-8.7
		c0.1-6,1.5-11.8,4-17.1C60.3,43.3,62.9,39.7,66,36.4L66,36.4z M120.8,40.6c0.7,0.4,1.3,1.5,1.2,1.6c-0.1,0.2,0.6,0.2,0.6,0.2
		c0.1-1,1-0.7,1.1-0.3c0.1,0.3,0.2,1,0.2,1l0.3,0.5l0.4,0.4l0.6-0.1l0.2,0.3l0.7,0.1c0,0,0.6,0.7,0.6,0.8c0.1,0.2,0.9,0.1,1.1,0.2
		c0.2,0.1,0.5,0.2,0.6,0.5c0.1,0.3,0.4,0.7,0.4,0.7s0.6,0.2,0.7,0.4c0.1,0.2,0.3,0.7,0.3,0.7l0.5,0.4l0.1,0.5l0.6,0.1l0.2,0.7l1-0.1
		l0.5-0.4c0.2-0.1,0.3-0.2,0.5-0.3c0.2,0.4,0.4,0.9,0.6,1.3c1.8,4.6,2.8,9.5,2.9,14.5h-8.7c0-1.5-0.2-3.1-0.4-4.6
		c0.1-0.2,0.1-0.4,0-0.5c-0.2-0.2,0.2-0.9,0.2-0.9s0.2-0.4,0-0.9c-0.2-0.4,0.1-0.9,0.2-1.1l-0.4-0.2l-0.4-0.1l-0.3,0.1
		c-0.1-0.3-0.2-0.7-0.3-1v0l0.3,0.1v-0.3l-0.4-0.1c-0.1-0.2-0.2-0.5-0.2-0.7l-0.1-1.1l-0.4-0.3l0.1-0.4l-0.4-0.2l0.2-0.7l-0.4-0.8
		h-0.5c-0.3-0.5-0.5-1-0.8-1.5c-0.2,0.2,0,0.3,0,0.3l-1.3,0.1c0.1,0.2,0.2,0.3,0.3,0.5c-0.1,0.1-0.2,0.2-0.2,0.2l-0.9,0.1v0.9
		l-0.4,0.2l0.1,0.5l0.6-0.1c0,0,0,0.7,0.2,0.4c0.2-0.3,1.5,0.1,1.4,0.7c0,0.3,1.3,1,1.2,1.9c0.1,0,0.2,0.1,0.3,0.1
		c0.3,0.7,0.5,1.5,0.7,2.3l-0.1,0.2c0,0,0.1,0.1,0.2,0.2c0.2,0.7,0.3,1.3,0.4,2c0,0.6-0.2,1.2-0.5,1.3c-0.6,0.4,0.1,0.2,0.1,0.2
		l-0.1,1.2c0.2,0.5,0.4,0.3,0.6,0c0.1-0.1,0.2-0.2,0.3-0.3c0.1,0.8,0.1,1.6,0.2,2.5h-6.5c0,0,0.1-0.1,0.1-0.1l0.3-0.8l0.9-0.3
		l0.1-0.7l-0.5-0.1c0,0,0.5-1,0.8-1c0.3,0,2,0,2.2-0.1c0.2-0.1,0.5-1,0.5-1.1s0.4-0.2,0.6-0.3c0.2-0.1,0.5-0.5,0.6-0.7
		c0.1-0.2-0.3-1.6-0.5-1.4c-0.2,0.2-0.7,0.3-0.7,0.3l-0.2,0.6l-0.3,0.2c0,0,0.1,0.2,0,0.5c-0.1,0.4-0.5,0.6-0.5,0.6l-0.2,0.3
		c0,0-1.3,0.1-1.4,0c-0.5-0.2-0.2-0.9,0.2-0.8c0.3,0.1-0.1-0.9-0.1-0.9l0.4-0.1c0,0,0.1-1,0.2-1c0.2,0-0.1-0.3-0.3-0.5
		c-0.2-0.2-0.5-0.7-0.7-0.7c-0.2,0.1-1.1,0-1.1,0l-0.2,0.3l-0.6,0.1c0,0,0.1,0.4-0.1,0.5c-0.3,0.4-1.6,1.2-1-0.2l0.2-0.3v-0.5
		l-1-0.1c0,0-0.5-0.2-0.5-0.4c0-0.2-0.1-0.5-0.1-0.5l-1.1-1.3l-1.3-0.2l-0.1-0.3l-0.8-0.1c-0.1-0.1-0.2-0.1-0.4-0.1
		c-0.4-0.6-0.8-1.2-1.2-1.8c0,0,0-0.1,0-0.1c0-0.2-0.6-1-1-1.1c-0.1-0.1-0.2-0.3-0.4-0.4l6.7-6.7c0.2,0.2,0.2,0.3,0.5,0.5
		c0.1,0.1,0.2,0.1,0.3,0.1c0.2,0.2,0.3,0.4,0.5,0.6L119,45c0,0.6,0.3,0.4,0.6,0.4c0.1,0.1,0.2,0.2,0.3,0.3c0,0.4,0,0.9,0.6,0.8h0
		c0.7,0.9,1.3,1.9,1.9,2.9l-0.1-0.5l-0.4-0.6c0.3-0.2,1-0.2,1.2-0.4c-0.4-0.6-0.8-1.2-1.2-1.8c0,0,0-0.1,0-0.1
		c0.2-0.4,0.1-0.6-0.3-0.7c-0.4-0.1-0.4-0.1-0.5-0.5c-0.1-0.4-0.5-0.5-0.5-0.5l-0.2-0.7l-0.4,0.3c-0.2-0.2-0.4-0.5-0.6-0.7l0.2-0.6
		c-0.2,0-0.3-0.2-0.4-0.3L120.8,40.6L120.8,40.6z M123,47.9c0.2,0.4,0.5,0.7,0.7,1.1c0.1,0,0.1-0.1,0.2-0.1c0.3-0.1,0.4-0.1,0.4-0.1
		l0-0.6l-0.5-0.3l-0.2-0.7c0,0-0.6,0.1-0.5,0.4C123.1,47.8,123.1,47.9,123,47.9L123,47.9z M124.3,48.9L124.3,48.9
		C124.3,48.9,124.4,48.9,124.3,48.9z M122.4,49.4L122.4,49.4L122.4,49.4C122.4,49.4,122.4,49.4,122.4,49.4z M86.4,41.9l-0.2,0.3
		l0.3,0.3l0.2-0.3L86.4,41.9z M85.1,42.1l0.1,0.6H86c0.3,0-0.3-0.4-0.3-0.4S85.1,42.4,85.1,42.1L85.1,42.1z M120.8,42.2l-0.3,0
		l0.1,0.5l0.3,0L120.8,42.2z M73.1,43.5l6.8,6.8c-1.4,1.5-2.6,3.2-3.5,5c-0.2,0-0.5,0-0.5,0.2c-0.2,0.4-0.9,0.3-0.9,0.3l-0.1,0.2
		l-0.5,0.1l-0.1,0.3l-0.6,0.1l1.6-0.1c0.4-0.1-0.2,0.9-0.4,0.9L74,57.5l-0.3,0.3H73l-0.3,0.4l-1-0.1c0,0-0.6,0.5-0.5,0.7
		c0.1,0.2-0.1,0.7-0.3,0.7c-0.2,0-0.5,0.5-0.4,0.7c0.1,0.2-0.3,0.7-0.3,0.7L70,61.4l-0.3,0.1V63l-0.6,0.4V64l-0.3,0.3h-4.4
		c0.1-4.3,1.1-8.5,2.8-12.3v0C68.7,48.9,70.6,46,73.1,43.5L73.1,43.5z M123.1,44.3c-0.1,0-0.1,0.1-0.1,0.2c0,0.2,0.3,0.3,0.2,0.6
		c-0.1,0.3,0.1,0.5,0.3,0.5c0.2,0,0.4,0.1,0.6,0.2c0.2,0.1,0.4,0.3,0.5,0.5l0.5-0.2c0,0,0.1-0.5-0.2-0.4c-0.2,0.2-0.4-0.4-0.6-0.3
		c-0.2,0.1-0.3-0.2-0.5-0.5c-0.2-0.3-0.2-0.3-0.4-0.5C123.3,44.3,123.2,44.3,123.1,44.3z M94.9,44.8v8.7c-1.1,0.1-2.2,0.3-3.3,0.7h0
		l-0.1-0.6l0.3-0.2l-0.4-0.2L91,53.7l-0.1,0.5l-0.5,0.1v0.3H90v0.3c-0.8,0.4-1.5,0.9-2.2,1.5l-6.2-6.2c1.6-1.5,3.4-2.7,5.3-3.6h0
		C89.4,45.5,92.1,44.9,94.9,44.8L94.9,44.8z M96.1,44.8c2.5,0.1,4.9,0.6,7.2,1.6c2.2,0.9,4.2,2.2,6,3.9l-0.3,0.3
		c-0.2-0.2-0.8-0.3-0.8-0.5c0-0.2-0.5-0.5-0.5-0.2c0.1,0.3-0.4,0.5-0.5,0.4c-0.1-0.1-0.4,0.3-0.4,0.3c0,0.2-0.1,0.4,0.2,0.4
		c0.3,0.1,0.9-0.2,1,0.1c0,0.1,0,0.2,0.1,0.3l-2.1,2.1c-0.3,0-0.6,0-0.6,0c-0.2,0.5-0.9-0.1-0.7-0.4c0.2-0.3,0.2-0.5,0.2-0.5
		l-0.3-0.1l-0.3,0.6c-0.8,0-1,0.4-0.8,0.7c0.2,0.3-0.2-0.1-0.3,0.3s0.1,0.4,0.4,0.5c0.3,0.2-0.2,0.2,0.1,0.4
		c0.1,0.2,0.4,0.1,0.6,0.2l-0.4,0.4c-0.4,0.1-0.8,0-0.8,0c0,0.1-0.1,0.2-0.2,0.2c-0.9-0.7-1.8-1.3-2.8-1.7c0.2-0.1,0.4-0.1,0.6-0.5
		c0.2-0.6,0.3-1.6,0.3-1.6s-0.9-0.1-0.9,0.2c-0.1,0.3-0.6,0.4-0.6,0.4s-0.4,0.2-0.3,0.4c0.2,0.2-0.3,0.3-0.3,0.3s0,0.1,0,0.3
		c-0.9-0.3-1.7-0.4-2.6-0.5L96.1,44.8L96.1,44.8z M124.7,46.7l-0.6,0.1c0.2,0.2,0.5,0.4,0.5,0.6c0,0.2-0.1,0.4,0.2,0.4
		c0.3,0.1,0.5-0.1,0.6,0.2c0.1,0.3,0.1,0.7,0.1,0.9c-0.1,0.2,0.1,0.5,0.3,0.5s0.3,0.1,0.3,0.2c0,0.2,0.3-0.6,0.3-0.6
		c-0.3-0.2-0.5-0.7-0.5-0.7s-0.3-0.8-0.3-0.9s-0.4-0.2-0.5-0.3C125,47.2,124.7,46.7,124.7,46.7L124.7,46.7z M119.6,46.9l-0.5,0.1
		l0,0.3l0.5-0.1L119.6,46.9L119.6,46.9z M119.9,47.3v0.3h0.3v-0.3H119.9z M119.5,47.8c0,0-0.3,0.4-1,0.2c0,0-0.1,1-0.4,1.3h-0.8
		c0,0,0.2,0.3,0.3,0.4c0.2,0.2,0.5,0.5,0.2,0.7c-0.4,0.2,0.1,0.2,0.1,0.2s-0.1,1.1-0.5,1c-0.5-0.2-0.6,0.6-0.6,0.8
		c0,0.2,1.9,0.3,1.6,0c-0.2-0.2,0.2-0.5,0.2-0.5s1.3,0.1,1.6,0.1c0.3,0,0.5-0.1,0.3-0.3c-0.2-0.3-0.6-0.2-0.6-0.2s-0.6,0.2-1.2-0.2
		c-0.6-0.3,0.1-0.4,0.2-0.4s0.6-0.4,0.4-0.7c-0.2-0.3,0-0.8,0-0.5c0,0.2,0.6,0.3,0.7,0.2c0.1-0.2,0-0.7-0.3-0.8
		c-0.3-0.2,0.5-0.3,0.3-0.5C119.6,48.1,119.5,47.8,119.5,47.8L119.5,47.8z M120.6,49.4v0.4h0.3v-0.4H120.6z M121.3,49.6l-0.2,0.3
		l0.3,0.1l0.2-0.3L121.3,49.6z M126.5,50.1c-0.1,0,0.1,0.6,0,0.7c-0.2,0.1-0.3,0.3-0.4,0.5c-0.2,0.2,0.3,0.4,0.3,0.5
		c0,0.2,0.1,1,0.1,1s0.4,0.2,0.4,0.4c0.1,0.2,0,0.7,0.2,0.7c0.2,0.1,0.5,0.3,0.4,0.5c-0.1,0.2-0.1,0.7-0.1,0.7l0.2,0.5l0.4,0.3
		c0,0,0.2-1.3-0.1-1.4c-0.3-0.1-0.2-0.8-0.2-0.8s0.3-1-0.2-1c-0.4,0-0.1-0.5-0.4-0.7c-0.3-0.2-0.1-0.9-0.2-1.1
		C126.8,50.5,126.8,50.3,126.5,50.1C126.5,50.1,126.5,50.1,126.5,50.1z M113.5,51.1l-0.5,0.1l0,0.3l0.5-0.1L113.5,51.1z M105.3,51.1
		c-0.2,0-0.3,0-0.3,0l-0.9,0.1l-0.1,0.4l0.6,0.1c0,0,0.3,0.2,0.3,0.4c0,0.2,0.4,0.3,0.6,0.3c0.2,0,0.8-0.4,0.8-0.4s0.3-0.8,0.1-0.7
		c-0.2,0.1-0.6,0.4-0.7,0.1C105.7,51.2,105.5,51.1,105.3,51.1L105.3,51.1z M80.8,51.2l5.3,5.3l-0.5,0c-0.2,0.5-0.8-0.1-0.8-0.1
		c-0.1-0.3-0.9,0-0.9,0c0,0.6-1-0.3-1-0.3L81,54.7c-1.1-1-2.7,0.3-2.7,0.5c0,0.4-0.3,0.4-0.7,0.3C78.4,54,79.5,52.5,80.8,51.2
		L80.8,51.2z M101.9,51.3l-0.3,0.1l0.1,0.5l0.3-0.1L101.9,51.3z M103.6,51.4l-1.2,0.1l0,0.3l1.2-0.1L103.6,51.4z M93.6,51.5v0.3H94
		v-0.3H93.6z M96.3,51.6l0,0.3l0.4,0.1l0-0.3L96.3,51.6z M97,51.7l0,0.3l0.4,0.1l0-0.3L97,51.7z M92.7,51.8l0,0.3l0.4,0.1l0-0.3
		L92.7,51.8z M101.5,51.9l-0.2,0.1l0.1,0.3l0.2-0.1L101.5,51.9L101.5,51.9z M114.5,52l-0.2,0.4l0.3,0.1l0.2-0.4L114.5,52z
		 M110.5,52.1c0,0,0.3,0.1,0.6,0.1c0.3,0.3,0.5,0.6,0.7,1l-0.7-0.1l-0.4-0.1l-0.8-0.1c-0.8,0.5-1,1.2-1,1.2c-0.4,0.7-1.2,0-1.1-0.5
		l1.4-1.4c0.1,0,0.2,0,0.3,0C109.8,52.2,110.5,52.1,110.5,52.1L110.5,52.1z M97.7,52.2v0.3h0.4v-0.3H97.7z M92.3,52.2l-0.1,0.3
		l0.4,0.1l0.1-0.3L92.3,52.2z M92.2,52.7l-0.3,0.1l0.1,0.3l0.3-0.1L92.2,52.7L92.2,52.7z M98.5,52.7l-0.3,0l0,0.4l0.3,0L98.5,52.7
		L98.5,52.7z M115.4,52.8c-0.2,0-0.4,0-0.6,0.1c-0.3,0.1-0.2,0.3,0,0.5l0.6-0.1c0,0,0.5-0.2,0.4-0.4
		C115.8,52.9,115.6,52.8,115.4,52.8L115.4,52.8z M111.9,53.2c0.2,0.3,0.4,0.6,0.6,0.9c-0.1,0.1-0.1,0.3,0,0.5
		c0.2,0.8,0.4,1.1-0.1,1.1c-0.5,0-0.6-0.4-0.6-0.4s-0.4-0.2-0.4,0.1c0,0.2-0.2,0.7,0,0.9c0.2,0.2-0.2,0.5-0.4,0.4
		c-0.2-0.2-0.6-0.7-0.5-0.8c0.1-0.2-0.7-1.2,0.1-1.4c0.9-0.2-0.1-0.7,0.3-0.8l0.4-0.2h0.4L111.9,53.2L111.9,53.2z M22.3,53.4
		c-0.9,1.8-1.2,3.9-1.7,5.8c-1,5.1,0,10.5,1.4,15.2c1.7,5.9,7.5,10.1,10.4,15.4l0.4,0.3c-0.4-2.9-0.6-6.1,0.2-8.8
		c1.3-4.5,2.8-8.8,3.7-13.4c0.6-3.6,1.4-7.6,1-11.1c-0.5,1.9-1,3.7-2,5.3c-3.9,6-7.9,13.1-5.2,20.8c-0.1,0.1-0.2,0.2-0.3,0.1
		c-1.1-2.5-1.3-5.4-2.1-8.1C26.2,67.7,20.6,61.7,22.3,53.4z M168.7,53.4c1.6,8.3-3.9,14.4-5.8,21.6c-0.7,2.7-1,5.6-2.1,8.1
		c-0.1,0.1-0.2-0.1-0.3-0.1c2.7-7.7-1.3-14.8-5.2-20.8c-1-1.6-1.5-3.4-2-5.3c-0.4,3.5,0.3,7.5,1,11.1c0.8,4.6,2.4,8.9,3.7,13.4
		c0.8,2.8,0.6,5.9,0.2,8.8l0.4-0.3c2.9-5.4,8.6-9.6,10.4-15.4c1.4-4.7,2.3-10.1,1.4-15.2C169.9,57.2,169.6,55.2,168.7,53.4z
		 M95.4,54.8l0.1,1.3l-0.6-0.2h-0.4l-0.2-0.3L94,55.5v1.2l0.3,0.3l0.3,0.3l0.5,0.1l0.1,0.7l1.3,0.1l0.2,0.3l0.8,0.1l1.6,1.6L99,60.4
		l-0.3,0.2c0.1,0.4-0.7,0.2-0.7,0.2v0.3l0.4,0.1l0.4,0.2l0.5-0.9c0.6-0.4,0.9,0.2,0.9,0.5c0.1,0.3-0.3,0.3-0.3,0.3v0.8l0.3,0.1
		c0.5,0.7-0.2,1-0.2,1l-0.2,0.5c-0.2,0.5-0.7,0.4-0.7,0.4L99,64.3l-0.6,0.2l1.3,0.2c0.1-0.4,0.4-0.5,0.6-0.3
		c0.2,0.2,0.2,0.6,0.2,0.6l0.3,0.1l-0.1,0.6l0.3,0.1v1.7l0.4,0.4c0.6-0.3,0.6,0.2,0.3,0.4c-0.3,0.2-0.1,1.2-0.1,1.2l-0.3,0.3v0.4
		l-0.3,0.2V71c-0.5-0.3-1.2-0.2-1.3,0c-0.5-0.3-1.5-0.2-1.5,0.1c0.3,0.4-0.4,0.5-0.4,0.5L97.4,72c0.3,0.5-0.3,0.6-0.3,0.6v1
		l-0.6,0.6l0,1c-0.3,0-0.7,0.1-1,0.1c-2.5,0-4.9-0.9-6.8-2.5c0,0,0.1,0,0.1-0.1c0.3-0.4,0.7-0.5,0.7-0.5l0.2-0.4l1.4,0.1
		c0.1-0.6,0.8-0.4,0.8-0.1c0,0.3,0.5,0.1,0.5,0.1l0.4-0.6h0.6l0.1-0.7l0.3-0.2v-1c0.9-0.3,0.8-1.1,0.8-1.1l0.2-0.3l-0.1-0.4
		c-0.4-0.2-0.2-0.5,0.1-0.4c0.3,0.1-0.4-0.5-0.4-0.5c-0.3,0.3-0.6-0.3-0.6-0.3h-0.8v-0.8l-0.1-0.7L92,64.5L91.4,65l-0.1,0.8v0.5
		l-0.5,0.1l-0.1,1.5L90.2,68l0.1,0.5l-0.6,0.2l-0.6,0.2L89,69.6l-0.4,0.3l-0.2,0.7l-0.3,1.5c-0.8-0.8-1.4-1.7-1.8-2.6
		c0.1-0.4,0.1-0.7,0.1-0.7c-0.5-0.2-0.2-1,0.3-0.3c0.5,0.7-0.3-1.3-0.3-1.3l-0.4-0.4l-0.6-0.1c-0.1-0.5-0.1-1.1-0.1-1.6
		c0-0.2,0-0.4,0-0.7c0.2-0.2,0.3-0.1,0.3-0.1l0.3,0.3l0.5,0.4l0.1,0.3l-0.3,0.2l-0.1,0.4l0.2,0.6h0.4c0.2-0.9,1.3-0.9,1.6-0.3
		l0.3-0.8c-0.8-0.4,0-1,0.2-0.7c0.2,0.3,0.7-0.7,0.7-0.7s0.4,0.5,0-0.2c-0.4-0.7,0.3-1,0.3-1c-0.1-0.7,0.7-0.5,0.7-0.5l0.1-0.9
		l-0.8-0.1c-0.2,0.8-0.8,0.1-0.5-0.1c0.3-0.2,0.6-0.5,0.6-0.5v-0.5l0.3-0.1l0.1-0.5h0.8l0.7-0.3L92,59l0.8-0.1l1.1-1l-0.1-0.4
		c-0.6,0,0-0.5,0-0.5l0.1-0.8h-0.6L93.1,55C93.9,54.9,94.6,54.8,95.4,54.8L95.4,54.8z M128.1,57.9l-0.1,0.4l0.3,0l0.1-0.4
		L128.1,57.9z M127.9,59.4l-0.2,0.3l0.3,0.1l0.2-0.3L127.9,59.4z M72.2,61.6c0.5,0,0.9,0.2,0.9,0.2l0.8-0.1c0.2,0.1,0.3,0.3,0.4,0.4
		c-0.1,0.5-0.1,1-0.1,1.5c-0.1,0.1-0.1,0.2-0.1,0.2c-0.1,0.1-0.1,0.3-0.1,0.4h-2l0,0l-0.6-0.1c-0.6-0.4-0.3-1.8-0.3-1.8
		C71.3,61.8,71.8,61.6,72.2,61.6L72.2,61.6z M90.8,62.6l-0.1,0.3h-0.3l-0.1,0.4h0.3l0.1,0.3l-0.2,0.2l-0.1,0.3L90,64.2l-1,0.9
		L89,65.6L88.7,66l-0.3,0.8l-1.1,0.1l-0.2,1l0.2,0.8l1,0.4l0.1-0.5l0.3-0.2l0.1-0.5l0.2-0.4l0.3-0.4l0.1-0.4l0.5-0.3l0.6-0.1
		l0.3-0.3l0.1-0.7l0-0.5l0.2-0.3l0.6-0.3v-1h-0.3l-0.1-0.4L90.8,62.6L90.8,62.6z M124.5,62.9l-0.1,0.3l0.6,0.1l0.1-0.3L124.5,62.9z
		 M123.2,63.4l-0.2,0.1l-0.4,0.2l-0.3-0.2l-0.2,0.3l0.4,0.3l0.1,0.1l0.1,0l0.3-0.2l0,0.1l0.3-0.1l-0.1-0.3L123.2,63.4z M119,65.6
		h7.5c-0.1,4.2-1,8.3-2.7,11.9c-1.5,3.3-3.5,6.3-5.9,8.9c-0.1-1.1-0.4-2.3-0.4-2.3l-0.4-0.2l0.1-1.3h-0.6l-1,1.3l-0.1,0.3l-0.5-0.6
		l0.3-0.3l-0.1-0.7l0.4-0.3v-0.5l0.3-0.1l0.1-1.2l0.3-0.1v-2.6l-0.8-0.8c-0.1,0.3-0.9,0.3-0.9,0.3s-0.2,0.4-0.4,0.4
		c-0.2,0,0.2,0.5,0.1,0.8c-0.1,0.3-0.5,0.3-0.5,0.3l-0.8,0.2l-0.2,0.3h-0.9l-0.1-0.5c0.1-0.1,0.2-0.2,0.3-0.3l0.7-0.2l0.5-0.3
		l0.3-0.5c0.1-0.5,0.7-0.5,0.7-0.5s1.2-1,1.3-1.5c0.1-0.5,0.5-1.9,1.2-1.9h1.4c0.5-0.2,0.4-0.9,0.4-0.9l0.7-0.1l0.1,0.4
		c0,0,1,0.1,1.1-0.1c0.1-0.2,0.3-0.5,0.6-0.4c0.3,0.2,1.1-0.4,1.1-0.4c0.1-0.4,1.4-0.2,1.4-0.2l0.2-0.5c0,0-0.9-1.3-1.1-1.3
		c-0.2,0-1-0.8-1.1-0.5c-0.9-0.2-0.8-1.4-0.8-1.4l-0.3-0.8c0-0.4-0.8-1.4-1-1.3C119.1,66.1,119,65.9,119,65.6L119,65.6z M127.8,65.6
		h8.7c-0.1,6-1.5,11.6-3.9,16.7h0c-1.9,4.2-4.6,7.9-7.7,11.2l-0.2-0.2c0-0.6-0.1-1.4-0.1-1.4l-0.3-0.3l-0.1-1.4
		c0.2-0.7-1-1.7-1.1-1.5c-0.1,0.2-0.8,0.1-0.8,0.3c0,0.2-0.4,1.3-0.2,1.7c0,0,0,0,0,0.1l-3.4-3.4c2.6-2.7,4.7-5.9,6.2-9.2v0
		C126.8,74.3,127.8,70,127.8,65.6L127.8,65.6z M137.8,65.6h9.6c-0.1,7.9-1.9,15.3-5.2,21.9h0c-2.5,5.1-5.7,9.7-9.6,13.7l-6.8-6.8
		c3.3-3.4,6-7.3,8-11.5h0C136.4,77.6,137.7,71.7,137.8,65.6z M64.4,65.6h3.8l0,0.3l-0.8,0.9l0.1,0.9L67,67.9l-0.1,0.4l-0.2,1.1
		l0.5,0.1c0.3-0.1,0.2,0.7,0,0.8c-0.2,0.1-0.8,0.3-0.5,0.5c0.3,0.2-0.9,0.2-0.9-0.2c0-0.3-0.6-0.6-0.8-0.5c-0.1,0.1-0.2-0.1-0.3-0.3
		C64.6,68.5,64.4,67.1,64.4,65.6L64.4,65.6z M70,65.6h0.3c0.1,0,0.2,0.1,0.2,0.1l0.8,0.1l0.1-0.1h2.6l0.2,1.4l-0.7,0.6
		c-0.6,0.3-0.6,1.1,0.1,1.3c0.4,0.1,0.3,1.1-0.4,0.4c-1,0,0.5,0.9,0.1,0.7c1,0.5,0.8-0.4,0.8-0.4l0.5-0.4c0.2,1.1,0.5,2.1,0.9,3.1
		c1,2.8,2.5,5.3,4.6,7.5l-6.8,6.8c-0.4-0.5-0.9-0.9-1.3-1.4c0.1-0.3,0.3-0.7,0.3-0.7c0.7-0.4-0.2-1.1-0.2-1.1
		c0.1-0.7-0.4-1.4-0.4-1.4c-1-0.7-0.7-1.9-0.7-1.9v-0.9c-0.8-0.8,0.3-0.9,0.3-0.9c0.4-0.7-0.3-1.1-0.3-1.1l-0.1-0.7L70,76.2
		l-0.1-2.6L68,70.9c-0.4-0.1-0.1-0.8-0.1-0.8c0.5-0.3-0.1-0.9-0.1-0.9L67.7,68l1.1-0.1l0.3-0.4h0.5l-0.1-1.4
		C69.7,65.8,69.8,65.7,70,65.6L70,65.6z M83.4,65.6H84c0,0.4,0.1,0.8,0.1,1.1l-0.3,0.1l-0.1-0.2l-0.2,0.6h-1l-0.1-0.7l0.6-0.2
		l0.2-0.3L83.4,65.6L83.4,65.6z M99.3,66.4c-0.1,0-0.2,0.1-0.3,0.3v0.7c0,0,0.8,1.2,1,1.4s0.7-0.2,0.4-0.4c-0.8-0.5-0.7-1.3-1-1.7
		C99.5,66.5,99.4,66.4,99.3,66.4z M71.2,66.9l0.1,0.4h0.3c0.4,0.8,0.1,2.6,0.1,2.6s-0.6,0.1-0.8-0.3c-0.1-0.3-0.4,0.7-0.2,0.9
		c0.2,0.2,1,0,1,0.6c0.1,0.6,0.5-0.4,0.5-0.4V67L71.2,66.9z M97,68l-1,0.7c0.5,0.1,0.5,0.5,0.6,0.8c0.1,0.5,0.1-0.8,0.3-0.7
		C97.2,68.8,97,68,97,68z M75.6,68.4c0.5,0.2,1,0.9,1,1c0,0.2,2.1,0.1,2.1,0.1c0.6,0.4,0.8,1.4,0.8,1.4c0.6-0.8,1.8-0.1,0.9,0.4
		c0.9,0.5,0.9,1,0.9,1c0.7-0.2,0.7,0.3,0.7,0.5c0,0.2,0.2-0.8,0.2-0.8c-0.8-0.6,1.1-0.8,0.5,0.3l-0.3,0.5l0.5,0.4l0.1,1.3
		c1.2-0.1,0.9-1.6,0.9-1.6l0.5-0.1c0-0.5,0.4-0.2,0.4-0.2c-0.3-1.3,0.3-1.8,0.6-2c0.4,0.8,0.9,1.5,1.6,2.2l-6.2,6.2
		c-1.9-2-3.3-4.4-4.3-6.9C76.1,70.8,75.8,69.6,75.6,68.4L75.6,68.4z M124.2,69.7c-0.4,0-1,0.3-0.8,0.5c0.3,0.4,0.9,0.2,1.1,0.3
		c0.2,0.1,0.4,0.2,0.2-0.5C124.6,69.8,124.4,69.7,124.2,69.7L124.2,69.7z M73.2,70.5c-0.1,0-0.2,0.1-0.2,0.2c0,0,0,0,0,0
		c0,0.1,0.1,0.2,0.2,0.2c0.1,0,0.2-0.1,0.2-0.2C73.4,70.6,73.3,70.5,73.2,70.5z M72.6,71.2l-0.8,0.5l-0.5-0.3v1.3l0.9,1.1l0.3-0.8
		l0.1-0.5l-0.4-0.2l0.1-0.8l0.3-0.1L72.6,71.2L72.6,71.2z M92.4,72.5l-0.5,0.1l0.1,0.8l0.3,0.3l0.6,0.2c0,0,0.8-0.2,0.9-0.9
		l-1.2-0.1L92.4,72.5L92.4,72.5z M99.2,73c0.4,0,0.4,1.1,0.3,1.5c-0.3,0.1-0.6,0.3-1,0.4v-1.2l0.5-0.6C99.1,73,99.2,73,99.2,73
		L99.2,73z M87.8,73.6c1.9,1.7,4.2,2.7,6.7,2.9l0-0.3c0.1-0.4,0.9-0.4,0.9-0.1c0,0.4,0,0.6,0,0.6l0.2,0.1c0,0,0,0.2-0.2,0.2
		c-0.2,0,0,0.1-0.1,0.2l0.1,0.2c0.1-0.1,0.2,0.2,0.3,0.2c0.2,0,0.2,0.3,0.1,0.3c-0.2,0-0.2,0.2-0.2,0.3c0,0.1,0,0.3-0.1,0.4
		c-0.1,0.1-0.2,0-0.4,0c-0.1-0.1-0.2-0.1-0.4-0.1v0.5c-0.1,0-0.1,0-0.2-0.1v0.4l-0.4,0.1l0.4,0.4l0.3,0v0.9l0,0.1
		c0,0.7-1.8,0.2-1.9,0.1l-0.1,1L92.5,82l0.1,0.7l-0.1,0.9l0.6-0.1v0.4l1.4,0.1l0.3-0.3v1l0,0.1l-1,0.1L93.4,85l-0.2-0.3h-0.4
		L92.6,85c-1.3-0.2-2.5-0.5-3.7-0.9v0c-2.7-0.9-5.1-2.4-7.2-4.4L87.8,73.6L87.8,73.6z M94.9,78.5v-2c-0.1,0-0.2,0-0.3,0v0
		c0,0-0.2,0.5,0,0.6c0.2,0.1,0.2,0.1,0.3,0.2l-0.1,0.3c-0.2-0.3-0.3,0.2-0.2,0.3c0.1,0.1-0.3,0-0.3,0.2c0,0.2-0.1,0.2,0,0.3
		c0.1,0.1,0,0.1-0.2,0.2c-0.2,0.1,0.7,0.2,0.7,0.2S94.6,78.5,94.9,78.5C94.8,78.5,94.8,78.5,94.9,78.5L94.9,78.5z M36.7,74.1
		c0.7,4.7-1.2,8.9-1.6,13.5c-0.4,3.7,0.3,7.3,1.7,10.4c0.4,0.9,1.2,1.8,1.4,2.7c-1.4-1.3-2.4-2.9-3.3-4.4C30.4,89,21,84.3,20.3,75.5
		c-0.3,3.9,0,8.1,1.3,11.6c1.8,4.8,5.3,8.6,9.4,11.8c4.2,3.3,9.2,5.9,12.9,8.7c-0.7-1.9-2-3.6-2.5-5.6
		C39.3,92.9,40.5,82.5,36.7,74.1L36.7,74.1z M154.3,74.1c-3.9,8.3-2.6,18.8-4.9,27.8c-0.5,2-1.7,3.7-2.5,5.6
		c3.8-2.9,8.8-5.5,12.9-8.7c4-3.2,7.5-6.9,9.4-11.8c1.3-3.5,1.7-7.7,1.3-11.6c-0.6,8.8-10,13.6-14.5,20.8c-1,1.6-1.9,3.2-3.3,4.4
		c0.2-0.9,1-1.8,1.4-2.7c1.4-3.1,2.1-6.7,1.7-10.4C155.5,83.1,153.6,78.9,154.3,74.1L154.3,74.1z M107.5,74.3c0.1,0,0.2,0.1,0.2,0.3
		c-0.2,0.5,0,0.7,0,0.7c0.7-0.7,1.3,0.1,1.2,0.2c-0.1,0.2,0.4,0.3,0.6,0.2c0.3-0.2,0.6,0.5,0.5,0.8c-0.1,0.3-1.1,0.3-1.1-0.1
		c-0.1-0.3-0.2-0.2-0.3-0.1c-0.1,0.1-0.5,0.2-0.7,0.2l-0.2-0.2c0-0.1,0.1-0.1,0-0.2c-0.1-0.1-0.2-0.1-0.3-0.1l-0.5-0.5
		c0-0.3,0.1-0.8,0.1-0.9C106.9,74.5,107.3,74.3,107.5,74.3L107.5,74.3z M72.6,74.5l-0.4,0.1L72.2,75l0.4,0.1L72.6,74.5L72.6,74.5z
		 M139.7,75c-0.2,0-0.5,0.1-0.6,0.2l0.2,0.3c0.2-0.1,0.5-0.2,0.5-0.2c0,0,0,0,0,0l0.3-0.1c0-0.1-0.1-0.2-0.2-0.2
		C139.9,75,139.8,75,139.7,75L139.7,75z M72.8,75.5c-0.1,0-0.2,0.1-0.2,0.2c0,0.1,0.1,0.2,0.2,0.2c0.1,0,0.2-0.1,0.2-0.2
		C73,75.6,72.9,75.5,72.8,75.5z M99.5,75.8c0,0.1,0.1,0.3,0.1,0.3l0.3,0.1l-0.5,0.4L99,77.1l-0.5-0.2l-0.6-0.1l-0.2-0.4l-0.4-0.1
		l-0.1,0.8l-0.3,0.3l-0.6,0.7c0.7,0,0.2,0.4-0.1,0.5v-2.2c0.7,0,1.4-0.1,2-0.3c0.1,0.1,0.1,0.1,0.1,0.1h0.5l0-0.3
		C99,76,99.3,75.9,99.5,75.8L99.5,75.8z M73.1,76.7c-0.1,0-0.2,0.1-0.2,0.2c0,0,0,0,0,0c0,0.1,0.1,0.2,0.2,0.2c0,0,0,0,0,0
		c0.1,0,0.2-0.1,0.2-0.2C73.4,76.8,73.3,76.7,73.1,76.7z M93.4,76.8c-0.3,0-0.5,0.8-0.6,1c0,0,0.1,0.4,0.4,0.4
		c0.2,0,0.4-0.2,0.6-0.2c0.2,0,0.3-0.4,0.4-0.7c0.1-0.3-0.1-0.5-0.1-0.5s-0.2,0.3-0.5,0C93.5,76.9,93.5,76.8,93.4,76.8z M72.1,77.3
		l-0.5,0.1v0.4l0.5-0.1V77.3z M104.5,77.3h0.4l0.1,0.3l1.6,0.2l0.1,0c0.6,0.4,0.3,0.9,0.1,1c-0.2,0.1-0.6,0.1-0.6,0.1L106,79
		l-1.4,0.1l-0.1,0.5c-0.7-0.1-1,0.7-0.8,1c0.2,0.4,0,0.7,0,0.7l0.6,0.3l0.7-0.2c0.1-0.5,0.6-0.7,1-1c0.4-0.3,1.1,0.6,0.9,1
		c0,0.1,0,0.1-0.1,0.1c-0.8,0.6-1.7,1.1-2.6,1.5c-1.4,0.7-2.9,1.2-4.5,1.6c0,0-0.1,0-0.1,0l-0.6-0.2l-0.1-0.8
		c-0.1-0.5-1.1-0.5-1.1-0.2c0.1,0.4-1.9,0.2-1.9,0.2v-1.5l0.5-0.6l1.2-0.3c0.1-0.5,0.6,0.1,0.6,0.1c0.5-0.1,0.6,0.3,0.6,0.3l0.7,0.1
		c0.6,0.2,0.2,0.2,0.3,0.4c0.1,0.3,0.3,0.2,0.3,0.2l0.1-0.7l0.3,0.1l-0.3-0.4l-0.6-0.3L99.4,81c-0.4-0.6,0.1-0.5,0.5-0.4h0.7
		c0,0,0.8,1.1,0.8,1.4c0,0.3,0.4,0.3,0.4,0.3l0.5-0.1l0.2,0.4h0.5l0.2,0.3h1l0.1-0.5l-0.9-0.2l-0.1-0.5l-0.6-0.2
		c-0.2-0.9,0.2-1.2,0.4-0.8l0.3,0.1l-0.1-0.8l0.4-0.1l-0.1-1.1l-0.3-0.1v-0.4l1.3,0.1C104.3,77.6,104.5,77.3,104.5,77.3L104.5,77.3z
		 M143.3,79.8l-0.3,0.1c0,0.1,0,0.1,0.1,0.2c0,0.1,0,0.2,0.1,0.3c0.1,0,0.1,0.1,0.2,0l-0.1-0.3c0,0,0.1,0,0.1,0c0,0,0,0,0-0.1
		C143.4,80,143.4,79.9,143.3,79.8L143.3,79.8z M143,80.4l-0.3,0.1c0.1,0.3,0.2,0.7,0.2,0.7l0.3-0.1C143.2,81,143.1,80.7,143,80.4
		L143,80.4z M117.8,80.7v1h0.4v-1H117.8z M106.2,81l-0.4,0.3l0.2,0.3l0.4-0.3L106.2,81L106.2,81z M141.2,81.7c0,0.3,0,0.6,0.3,0.6
		l0.1-0.3h0c0,0-0.1-0.2,0-0.3L141.2,81.7L141.2,81.7z M98.2,82.3V83V82.3z M141,82.3c-0.1,0-0.2,0.1-0.3,0.2c-0.3,0.2-0.2,1,0,0.8
		c0.2-0.2,0.4,0,0.5-0.6C141.2,82.4,141.1,82.3,141,82.3z M107.6,82.7l1.3,0.6c0.2,0.2,0.9,0.2,0.9,0.2l0.2,0.3c0,0,0.4-0.1,0.7,0.3
		c0.3,0.3,1.7,0.1,1.7,0.1l0.4,0.3l0.6,0.2l1,0l0.6,0.6c-1,0.4-2.9,0.3-3.1,0.2c-0.2-0.2-1.3-0.7-1.3-0.7s-0.9-0.7-1-0.5
		c-0.2,0.2-0.9-0.3-0.9-0.1c0,0.2-0.7-0.4-0.7-0.4l-1.1-0.4l0.8-0.2L107.6,82.7C107.6,82.8,107.6,82.8,107.6,82.7L107.6,82.7z
		 M49.3,85.9v0.5h0.4v0.7h0.3L50,86.4l-0.4-0.2v-0.3H49.3z M127.7,86.2l0,0.5l0.5,0l0-0.4L127.7,86.2L127.7,86.2z M127.3,87.4
		l-0.1,0.3c0,0,0.1,0,0.1,0.1l0.1,0.3c0,0-0.1,0.1-0.1,0.1l0.2,0.2c0.2-0.2,0.2-0.4,0.2-0.6C127.7,87.5,127.3,87.4,127.3,87.4
		L127.3,87.4z M117.9,88.3l2.4,2.4c-0.1,0.4-0.5,0.6-0.7,0.5c-0.2-0.2,0.3,0.3,0.4,0.5c0.1,0.2,0.4,0.2,0.5,0
		c0.1-0.1,0.1-0.4,0.1-0.6l1.1,1.1c-0.1,0.3-0.3,0.6-0.2,0.7l0.5,0.2L122,94c0.4,0.4,1.2,0.4,1.8,0.2l0.2,0.2
		c-2,1.9-4.2,3.6-6.5,5.1v-0.5c1-0.7,1-2,0.1-2.1c-0.7-0.1-0.4-0.8,0.3-0.9l0.4-0.2v-0.5l1.2-1.1v-0.9l-2.7-2.2
		c-0.5-0.2-0.6-0.9-0.4-1.5C117,89.2,117.4,88.8,117.9,88.3L117.9,88.3z M52,88.5l0.4,1l0.2,0.5l0.4,0.6l0.6,0.5l0.2-0.4l-0.4-0.8
		l-0.4-0.3l-0.3-0.8L52,88.5L52,88.5z M41.5,89.3c3.3,6.5,1.9,14.9,6.1,21.1c1.3,1.9,3.2,3.8,4.9,5.3l-0.1,0.1
		c-1.5-0.7-2.9-1.8-4.3-3c-7.4-6.2-18.5-6.9-23-17c1.2,7.4,7,13.9,13.4,18c6,3.9,13.7,3.5,20.4,5.7c-6.2-5-7.1-12.4-9.8-19
		C47.3,96.5,44.5,92.8,41.5,89.3z M149.5,89.3c-3,3.5-5.7,7.2-7.4,11.3c-2.7,6.5-3.7,14-9.8,19c6.7-2.2,14.4-1.8,20.4-5.7
		c6.3-4.1,12.2-10.7,13.4-18c-4.4,10-15.6,10.8-23,17c-1.4,1.2-2.8,2.2-4.3,3l-0.1-0.1c1.7-1.5,3.6-3.4,4.9-5.3
		C147.6,104.2,146.2,95.8,149.5,89.3z M65.3,91.6c0.5,0,1.1,0.5,1.2,0.8c0,0.1,0.2,0.3,0.4,0.4L66,93.6c-0.5-0.5-1-1-1.5-1.6h0.2
		C64.9,91.7,65.1,91.6,65.3,91.6z M97.1,94.6c0.3,0,0.7,0.1,0.9,0.3c0.6,0.4,1.4,0.2,1.4,0.2l0.6,0.7c-1.2,0.2-2.5,0.3-3.8,0.3v-1.3
		C96.3,94.7,96.7,94.6,97.1,94.6L97.1,94.6z M125,95.4l6.8,6.8c-3.8,3.7-8.1,6.8-12.9,9.2c-6.9,3.5-14.6,5.5-22.7,5.6v-9.6
		c3.9-0.1,7.7-0.6,11.4-1.7l0.9,0.3l0.3,0.9l0.4-0.1l0.3-0.3l1.3-0.1l0.6-0.6l0.7-0.1l5.1-4.3C120,99.7,122.6,97.7,125,95.4
		L125,95.4z M100.6,97l0.1,0.3l0.9,0.3l0.6,0.2l0.2,0.9l0.5,0.1l0.2,0.6c0.6,0.4-0.2,1.4-0.2,1.4v1.2l0.4,0.2l-0.1,0.4l0.7,0.7
		l0.8,0.1l1.3,1.4c-3.2,0.9-6.6,1.4-10,1.4v-8.7C97.6,97.3,99.1,97.2,100.6,97z M87.6,97.9l-0.3,0.3l-0.2,0.1l0.2,0.1l0.4,0.3
		l0.2-0.3l-0.2-0.2l0.2-0.1L87.6,97.9z M91.4,101.8l-0.1,0.3l0.3,0.2l-0.1,0.1l0.2,0.2l0.3-0.3l0.2-0.2L92,102L91.4,101.8z
		 M64.2,104.5l0.4,0.7l0.1,0.5l0.5,0.2l0.2,0.3l0.4-0.2l-0.3-0.7l-0.7-0.6L64.2,104.5L64.2,104.5z M52.2,105.1
		c4,5.4,5.2,13.3,12.5,16.1c1.3,0.5,2.8,0.6,3.9,1.3c-1.4,0.2-2.7-0.2-4-0.5c-9.5-2-21.1,0.6-28.2-7.5c2.7,5.3,8.2,9.5,13.6,11.2
		c8.3,2.7,16.9-0.3,24.6-2.2c1.1-0.3,2.5-0.2,3.5-0.6c-4.3-0.9-8.5-2.2-11.8-5.3C61.6,113.2,57.3,108.6,52.2,105.1L52.2,105.1z
		 M138.8,105.1c-5.1,3.4-9.4,8.1-14.2,12.5c-3.3,3.1-7.5,4.4-11.8,5.3c1,0.4,2.4,0.3,3.5,0.6c7.8,1.9,16.4,5,24.6,2.2
		c5.3-1.8,10.9-5.9,13.6-11.2c-7.1,8.1-18.7,5.5-28.2,7.5c-1.3,0.3-2.6,0.7-4,0.5c1.1-0.7,2.6-0.8,3.9-1.3
		C133.7,118.4,134.8,110.6,138.8,105.1L138.8,105.1z M87.7,122.7c-7.3,0-13.8,3.5-20.2,6.2c-5.8,2.4-13.4,1.9-18.6-1.6
		c2.5,3.2,5.9,5.1,9.4,6.5c6.5,2.6,14.1,0.6,19.6-2.9c4-2.5,7.4-6.2,12.1-6.2c0.8,0,1.7,0.1,2.5,0.3c0.9-0.4,1.9-0.7,2.8-1
		C92.9,123.1,90.3,122.7,87.7,122.7z M95.5,123.9c1,0.3,1.9,0.6,2.8,1c0.8-0.2,1.7-0.3,2.5-0.3c4.7,0,8.2,3.6,12.1,6.2
		c5.5,3.5,13.1,5.5,19.6,2.9c3.5-1.3,6.9-3.3,9.4-6.5c-5.1,3.5-12.8,4-18.6,1.6c-6.4-2.6-12.9-6.2-20.2-6.2
		C100.7,122.7,98,123.1,95.5,123.9L95.5,123.9z M98.3,124.9c-0.9,0.2-1.9,0.5-2.8,0.9c6,2.4,11.9,8.3,17.2,13.8
		c1.1-0.9,2.2-1.8,3.1-2.8C111,132.2,105,127.6,98.3,124.9L98.3,124.9z M95.5,125.8c-0.9-0.4-1.9-0.7-2.8-0.9
		c-6.7,2.7-12.7,7.4-17.4,11.9c0.9,1,2,1.9,3.1,2.8C83.6,134.1,89.5,128.2,95.5,125.8z"/>
</g>
<rect x="-16" y="157.8" class="st4" width="221" height="14.5"/>
<rect x="-15.8" y="147.8" class="st5" width="221" height="14.5"/>
<rect x="-15.8" y="165.8" class="st5" width="221" height="14.5"/>
<g>
	<path d="M69,151.2h7.4V166c0,1.5-0.2,2.9-0.7,4.2s-1.1,2.4-2.1,3.4c-0.9,1-1.9,1.7-3,2.1c-1.4,0.6-3.2,0.8-5.2,0.8
		c-1.2,0-2.4-0.1-3.8-0.3c-1.4-0.2-2.5-0.5-3.4-1s-1.8-1.2-2.5-2.1s-1.3-1.9-1.6-2.9c-0.5-1.6-0.7-3-0.7-4.2v-14.8h7.4v15.1
		c0,1.4,0.4,2.4,1.1,3.2c0.7,0.8,1.7,1.1,3,1.1c1.3,0,2.3-0.4,3-1.1c0.7-0.8,1.1-1.8,1.1-3.2V151.2z"/>
	<path d="M81.3,151.2h6.9l9,13.7v-13.7h7V176h-7l-8.9-13.6V176h-6.9V151.2z"/>
	<path d="M106.6,151.2h7.7l5.4,17.9l5.3-17.9h7.5l-8.9,24.8h-8L106.6,151.2z"/>
</g>
</svg>
