<?xml version="1.0" encoding="utf-8"?>
<!-- Generator: Adobe Illustrator 21.0.2, SVG Export Plug-In . SVG Version: 6.00 Build 0)  -->
<svg version="1.1" id="Layer_1" xmlns="http://www.w3.org/2000/svg" xmlns:xlink="http://www.w3.org/1999/xlink" x="0px" y="0px"
	 viewBox="0 0 123.3 83.2" style="enable-background:new 0 0 123.3 83.2;" xml:space="preserve">
<path d="M58.8,0.8c-22.1,0-40,17.9-40,40s17.9,40,40,40c22.1,0,40-17.9,40-40S80.9,0.8,58.8,0.8z M54.8,38.4c0,0,2.4-10.9,8.2-17.4
	c2.8-3.2,6.7-4.8,11.6-4.8c-4.3,0-8.4,8.7-8.4,8.7c-6.5,12-3.4,13.4-3.4,13.4h11.8L58.8,57.2L43.1,38.4H54.8z M79.7,65.4H38v-5.6
	h41.7V65.4z"/>
</svg>
