<svg id="SVGDoc" width="224" height="60" data-name="Layer 1" xmlns="http://www.w3.org/2000/svg" version="1.1" xmlns:xlink="http://www.w3.org/1999/xlink" xmlns:avocode="https://avocode.com/" viewBox="0 0 415.34 115.2"><defs><style>.cls-1{fill:#f79720;}.cls-2{fill:#7fb342;}.cls-3{fill:#f26b24;}.cls-4{fill:none;}.cls-5{fill:#7fb541;}.cls-6{fill:#877931;}.cls-7{fill:#847932;}.cls-8{fill:#8b5e31;}.cls-9{fill:#895d32;}.cls-10{fill:#6d6f70;}</style></defs><title>omnitracs_logo_staydriven_RGB</title><path class="cls-1" d="M54.93,29.65a79.26,79.26,0,0,0,8.75-3,1.36,1.36,0,0,0,.32-.31c.73-1.45,1.41-2.9,2-4.36.38,1,.79,2,1.24,2.94,0,0,.07.08.07.08,1.92-.89,3.73-1.76,5.51-2.78a.42.42,0,0,0,0-.17A36.46,36.46,0,0,1,69.21,7L63,7c-.05,7.16-3.19,15.09-8.15,22.56A.29.29,0,0,0,54.93,29.65Z" transform="translate(-6.61 -5.28)"/><path class="cls-1" d="M85.88,64.32l.2-1a18.53,18.53,0,0,0-.83-8.38,23.36,23.36,0,0,0-22.41-16.8h-.19a23.44,23.44,0,0,0-7.35,1.25l0,0,0,0A83.23,83.23,0,0,1,41.09,53.17l0,0v0a23,23,0,0,0-.67,14.84,23.52,23.52,0,0,0,2.29,5.22A85.06,85.06,0,0,1,49,79.1C50,80,50.9,81,51.92,82.16A23.44,23.44,0,0,0,62.8,84.87H63a22,22,0,0,0,18.51-9.43l.36-.65h0A20.21,20.21,0,1,1,86,62.46c0,.63,0,1.25-.07,1.86Z" transform="translate(-6.61 -5.28)"/><path class="cls-2" d="M70.72,93.45c.92-1.47,1.8-2.78,3-4.43l.3-.42.74-1,.29-.38-.45.17A26.17,26.17,0,0,1,65.93,89c-.68,0-1.37,0-2-.09a26.22,26.22,0,0,1-7.48-1.64L56,87.08l.29.38c.89,1.19,1.68,2.28,2.39,3.33l0,0h.09l-.06,0,.09.14C60,92.75,61,94.54,62,96.44h.22c2.65-1.07,5.4-2,8.21-2.85A2,2,0,0,0,70.72,93.45Z" transform="translate(-6.61 -5.28)"/><path class="cls-1" d="M53.2,93.63c-.05,0,.06.12.06.12C55.1,92.8,57,91.9,59,91.07L59,91l-.29-.42s-6.82-1.6-9.93-3.3L48.37,87l-.29-.18L48,87h0A76.29,76.29,0,0,1,53.2,93.63Z" transform="translate(-6.61 -5.28)"/><path class="cls-1" d="M90.2,72.09l-.09.13a25.08,25.08,0,0,1-1.53,3.36,11.08,11.08,0,0,1-1.22,2c-5.53,6.55-8.09,7.53-8.09,7.53l1.64-.19c1.52-.22,2.88-.36,4.89-.54l.28-.18a77.44,77.44,0,0,1,11-9.2l.12-.21c-1-1.68-1.93-3.4-3-5.54a.53.53,0,0,0-.13.06q-1.83,1.2-3.61,2.54A1.85,1.85,0,0,1,90.2,72.09Z" transform="translate(-6.61 -5.28)"/><path class="cls-1" d="M121,66.11h.37l0-6.25c-9-.06-19.07-4.86-28-12a.35.35,0,0,0-.14,0c.41,1.85.79,3.39,1.2,4.86s1.41,4.58,1.41,4.58l.2.17a62.31,62.31,0,0,0,10.32,5.4,60.17,60.17,0,0,0-6.89,3.22c-.07.11-.12.06-.12.06.9,1.95,1.88,3.85,2.91,5.65l.12-.08C108.66,68.26,115.08,66.16,121,66.11Z" transform="translate(-6.61 -5.28)"/><path class="cls-2" d="M96,57.25c-1.69-1.08-3.06-2-4.53-3.16l-.66-.51-.51-.4.17.46a26.22,26.22,0,0,1,1.6,8.77c0,.68,0,1.39-.09,2.37a1,1,0,0,1,0,.1l.09.21a2,2,0,0,0,0-.26c.63,1.54,1.29,3,2,4.5,0,0,.14.06.14.06,1.76-1.17,3.39-2.09,5.19-3.07a.71.71,0,0,1,0-.23,87.91,87.91,0,0,1-3.43-8.62A1.21,1.21,0,0,1,96,57.25Z" transform="translate(-6.61 -5.28)"/><path class="cls-2" d="M102.26,71.63a60.35,60.35,0,0,0-5.18,3.17s0,.25,0,.22a68.29,68.29,0,0,0,6.66,9.62,66,66,0,0,0-10.82-.75c-2.32,0-4.59.14-6.84.33l-.17.07s-1.73,1.42-6.27,7l.11.08A79.8,79.8,0,0,1,93,90.16c9.12-.07,17.06,1.65,23,5L119,89.69c-6.24-3.53-12-9.84-16.62-18A.48.48,0,0,1,102.26,71.63Z" transform="translate(-6.61 -5.28)"/><path class="cls-2" d="M72.74,22.19a52.48,52.48,0,0,0,2.82,5.38s0,0,.14,0A71.42,71.42,0,0,0,86,20.44a73.61,73.61,0,0,0-.15,20.43c.08.19.23.46.17.4s4.67,4.54,7.3,6.67c0,0,.15-.06.09-.11C90,32.39,91.09,17.9,96.47,8.37L91,5.28C87.43,11.62,80.91,17.4,72.8,22A.28.28,0,0,1,72.74,22.19Z" transform="translate(-6.61 -5.28)"/><path class="cls-2" d="M56.61,98.81c-1-1.76-1.93-3.36-3.17-5.17a1.29,1.29,0,0,0-.24,0,73.71,73.71,0,0,0-13.62,9,76.29,76.29,0,0,0-.36-23.41A29.38,29.38,0,0,0,48,87a0,0,0,0,1,0,0l.09-.11c-1.15-1.32-2.25-2.5-3.33-3.6-1.75-1.77-3.64-3.51-5.61-5.16-.4-.33-.8-.67-1.21-1a71.2,71.2,0,0,0-6.26-4.5s0,.1-.08.12C35.4,88,35.15,104,29.16,114.62l5.46,3.08c4.11-7.27,12.09-13.82,21.92-18.71A.24.24,0,0,0,56.61,98.81Z" transform="translate(-6.61 -5.28)"/><path class="cls-2" d="M63.7,26.48A63.05,63.05,0,0,1,60.62,32c-.63,1-1.27,2-1.92,2.88s-1.38,1.93-2,2.76l-.29.38.45-.16A26,26,0,0,1,75,38l.45.17-.29-.38c-1.06-1.41-2.82-3.95-2.87-4a2,2,0,0,0-.33-.38,29.26,29.26,0,0,0-5.62-1.25c1.3-.55,2.56-1.12,3.8-1.71,0-.15.12-.08.12-.08A57.82,57.82,0,0,1,67.42,25s0,0-.18-.08c-1.06.49-2.14,1-3.24,1.42Z" transform="translate(-6.61 -5.28)"/><path class="cls-2" d="M32.67,32.83c-9.13.07-17.07-1.66-23-5L6.61,33.29c7.53,4.27,14,12.38,18.74,22.1a.09.09,0,0,1,.14,0,51.48,51.48,0,0,0,5.36-2.76s0-.18,0-.16a72,72,0,0,0-9-14.16,66.85,66.85,0,0,0,10.9.77,87.61,87.61,0,0,0,12-.92,29.49,29.49,0,0,0-7.82,9.16c-.29.53-.53,1.08-.79,1.62l0,0,.11.09A78.36,78.36,0,0,0,48.74,37.62c.88-1,1.75-2,2.67-3.2,1.26-1.58,2.44-3.21,3.52-4.83a.19.19,0,0,1-.12-.07A83.34,83.34,0,0,1,32.67,32.83Z" transform="translate(-6.61 -5.28)"/><path class="cls-2" d="M40.76,71.76l.39.3L41,71.61A26.38,26.38,0,0,1,41,53.4l.11-.39-.28.25a74.32,74.32,0,0,1-7.36,4.86h0l-.14.08a58.21,58.21,0,0,1-5.42,2.71s-.07.28,0,.26c.39,1,.78,2,1.14,3,.08.13.23.34.23.34S32.2,66,33.72,66.91c1.1.67,2.19,1.36,3.21,2.06C38.18,69.82,39.47,70.76,40.76,71.76Z" transform="translate(-6.61 -5.28)"/><path class="cls-1" d="M10.47,59.14H10.1l0,6.25c6.62,0,14.15,2.68,21.56,7.37,0,.06.14,0,.14,0a84.49,84.49,0,0,0-2.45-8.27,1.3,1.3,0,0,1-.26-.26c-1.33-.67-2.66-1.29-4-1.83,1-.36,1.9-.77,2.85-1.2a.52.52,0,0,0,.12-.23c-.78-2-1.54-3.67-2.46-5.55h-.22A36.81,36.81,0,0,1,10.47,59.14Z" transform="translate(-6.61 -5.28)"/><path class="cls-1" d="M79.73,91.27c-3.15.55-9.16,2.12-9.16,2.12a.71.71,0,0,1-.13.19,63.42,63.42,0,0,0-5,9.71,60.25,60.25,0,0,0-3.21-6.86.19.19,0,0,1-.18-.13c-1.93.78-3.64,1.59-5.5,2.51a.72.72,0,0,0,0,.18c3.71,6.68,5.73,13.34,5.69,19.26l6.25,0c.06-8.55,4.53-18.21,11.27-26.88C79.74,91.32,79.73,91.27,79.73,91.27Z" transform="translate(-6.61 -5.28)"/><path class="cls-1" d="M72,33.45l.26.25a26,26,0,0,1,4.67,2,29.23,29.23,0,0,1,9.22,7.93l.25-.11L86.29,43c-.11-.72-.19-1.17-.28-1.88a2,2,0,0,1-.17-.25A73.71,73.71,0,0,1,75.7,27.58s-.14,0-.14,0c-1.72,1-3.46,1.88-5.41,2.81,0,0,0,.17,0,.15C70.73,31.48,71.34,32.46,72,33.45Z" transform="translate(-6.61 -5.28)"/><path class="cls-1" d="M36.14,49c-1.74,1.27-3.51,2.46-5.31,3.53l0,.16s1.71,3.63,2.53,5.61c0,0,0,0,.08.06l0,0a.66.66,0,0,0,.07-.15c.35-3.12,2.6-9,2.6-9A.47.47,0,0,0,36.14,49Z" transform="translate(-6.61 -5.28)"/><path class="cls-3" d="M41,53.17a22.46,22.46,0,0,1,1.3-2.87,23.31,23.31,0,0,1,13-10.93l.18,0-.19.21A82.06,82.06,0,0,1,41.13,53.22l-.13.07Z" transform="translate(-6.61 -5.28)"/><path class="cls-4" d="M33.47,58.3l0,0,0,.1A.49.49,0,0,1,33.47,58.3Z" transform="translate(-6.61 -5.28)"/><path class="cls-3" d="M42.76,73.18c.09.16.12.5.22.65A23,23,0,0,0,51.64,82c.11.06.24,0,.34,0-.92-1-1.87-2-2.85-3A86.13,86.13,0,0,0,42.76,73.18Z" transform="translate(-6.61 -5.28)"/><path class="cls-5" d="M92,65.69c0-.29.1-.57.13-.86l0-.09C92.08,65.06,92,65.38,92,65.69Z" transform="translate(-6.61 -5.28)"/><path class="cls-6" d="M40.52,68a23,23,0,0,1,.61-14.81l-.2.15a26,26,0,0,0-.08,18.28c.64.5,1.27,1,1.91,1.53A23.21,23.21,0,0,1,40.52,68Z" transform="translate(-6.61 -5.28)"/><path class="cls-7" d="M94.12,69.33c.94,2,1.92,3.87,3,5.69,1.75-1.2,3.54-2.3,5.33-3.3Q100.87,69,99.5,66.09C97.69,67.07,95.89,68.15,94.12,69.33Z" transform="translate(-6.61 -5.28)"/><path class="cls-7" d="M70.16,30.49Q73,29.11,75.7,27.58A56.8,56.8,0,0,1,72.8,22c-1.78,1-3.64,2-5.56,2.87C68.09,26.75,69.07,28.62,70.16,30.49Z" transform="translate(-6.61 -5.28)"/><path class="cls-7" d="M33.42,58.32c-.81-2-1.66-3.94-2.59-5.83a56.69,56.69,0,0,1-5.48,2.9c.92,1.88,1.77,3.8,2.56,5.78C29.76,60.33,31.6,59.37,33.42,58.32Z" transform="translate(-6.61 -5.28)"/><path class="cls-7" d="M58.92,90.94c-2,.85-3.89,1.74-5.72,2.69,1.23,1.78,2.35,3.57,3.34,5.36,1.84-.91,3.74-1.77,5.69-2.56Q60.73,93.67,58.92,90.94Z" transform="translate(-6.61 -5.28)"/><path class="cls-7" d="M90.59,53.59c-.11-.08-.21-.25-.32-.34-.83-.65-1.65-1.32-2.48-2-1.86-1.59-3.62-3.22-5.4-5a104.68,104.68,0,0,1-7-8.09c-.06-.07-.22-.17-.28-.25a26.09,26.09,0,0,0-18.29-.15l-.26.12-1.18,1.5a1.33,1.33,0,0,1,0,.17A23.23,23.23,0,0,1,85.88,64.32a20.22,20.22,0,0,1-4,10.48A23.19,23.19,0,0,1,52,82c1.57,1.74,3,3.53,4.39,5.33A26.1,26.1,0,0,0,63.89,89c.68,0,1.35.09,2,.09a26.48,26.48,0,0,0,8.72-1.58,17.78,17.78,0,0,0,1.63-1.88A82.57,82.57,0,0,1,89.83,72.51a3,3,0,0,0,.53-.53A28.88,28.88,0,0,0,92,65.69c0-.31.07-.63.1-1,.06-.77.1-1.54.09-2.33A26.33,26.33,0,0,0,90.59,53.59Z" transform="translate(-6.61 -5.28)"/><path class="cls-7" d="M79.39,85.07a24.64,24.64,0,0,1-4.53,2.18c-.36.47-.9,1.22-1.24,1.68-1.12,1.53-2.2,3.07-3.18,4.65a88,88,0,0,1,9.31-2.18,79.11,79.11,0,0,1,6.33-7.18c-1.75.15-3.49.34-5.19.58Z" transform="translate(-6.61 -5.28)"/><path class="cls-7" d="M56.37,87.37a2.15,2.15,0,0,0-.58-.4A25.79,25.79,0,0,1,41.25,72.18a1.5,1.5,0,0,0-.4-.53c-1.27-1-2.55-1.92-3.84-2.79-1.07-.73-2.14-1.42-3.22-2.07-1.57-1-3.16-1.81-4.74-2.59,1,2.8,1.85,5.66,2.57,8.56a69.74,69.74,0,0,1,6.25,4.49c.41.32.81.65,1.21,1,1.9,1.59,3.78,3.3,5.6,5.15C45.85,84.57,47,85.77,48,87c.22.13.42.28.65.4a29.53,29.53,0,0,0,10.1,3.33C58,89.59,57.2,88.48,56.37,87.37Z" transform="translate(-6.61 -5.28)"/><path class="cls-7" d="M54.81,29.52Q53.18,32,51.3,34.34c-.86,1.08-1.74,2.14-2.66,3.19A79.89,79.89,0,0,1,36.14,49a29.19,29.19,0,0,0-2.67,9.34,74.48,74.48,0,0,0,7.46-4.93,5.21,5.21,0,0,0,.3-.64,26.2,26.2,0,0,1,15-14.64.9.9,0,0,0,.55-.37c.71-.91,1.38-1.83,2-2.77s1.3-1.91,1.92-2.89c1.2-1.89,2.28-3.81,3.26-5.75A89,89,0,0,1,54.81,29.52Z" transform="translate(-6.61 -5.28)"/><path class="cls-7" d="M94.59,52.68c-.45-1.62-.84-3.24-1.19-4.85a78.7,78.7,0,0,1-7.56-7c.11.89.26,1.8.4,2.7a29.39,29.39,0,0,0-9.27-8,29.69,29.69,0,0,0-5-2.15q1.44,2.23,3.09,4.42c.09,0,.23.16.32.2a26.14,26.14,0,0,1,11.3,8.6,25.78,25.78,0,0,1,3.67,6.62c0,.09.19.21.23.3l.78.61c1.55,1.17,3.13,2.25,4.7,3.27C95.55,55.9,95,54.31,94.59,52.68Z" transform="translate(-6.61 -5.28)"/><path class="cls-8" d="M40.93,53.37l.2-.15a22.36,22.36,0,0,1,1.3-2.87A23.25,23.25,0,0,1,55.35,39.51c.48-.6,1-1.19,1.43-1.79A26.59,26.59,0,0,0,40.93,53.37Z" transform="translate(-6.61 -5.28)"/><path class="cls-9" d="M86.76,46.6a26.6,26.6,0,0,0-11.69-8.73,83.59,83.59,0,0,0,7.24,8.38c1.78,1.8,3.61,3.49,5.47,5.07.93.79,1.87,1.54,2.81,2.27A26.68,26.68,0,0,0,86.76,46.6Z" transform="translate(-6.61 -5.28)"/><path class="cls-9" d="M76.18,85.63c-.52.63-1,1.26-1.53,1.9A26.22,26.22,0,0,0,79.86,85a26.55,26.55,0,0,0,7.62-7.31c.43-.65.84-1.32,1.22-2A28.69,28.69,0,0,0,90.36,72,84,84,0,0,0,76.18,85.63Z" transform="translate(-6.61 -5.28)"/><path class="cls-9" d="M42.76,73.18c-.64-.52-1.27-1-1.91-1.53A26.54,26.54,0,0,0,56.37,87.37C55,85.57,53.55,83.78,52,82l-.31-.16A23,23,0,0,1,42.76,73.18Z" transform="translate(-6.61 -5.28)"/><path class="cls-10" d="M168,62.53a17.58,17.58,0,1,1-17.61-17.48A17.33,17.33,0,0,1,168,62.53ZM150.38,50a12.49,12.49,0,1,0,12.28,12.56A12.24,12.24,0,0,0,150.38,50Z" transform="translate(-6.61 -5.28)"/><path class="cls-10" d="M219.87,79.11h-5.19V57.54c0-6.14-3.89-7.44-7.23-7.44a7.26,7.26,0,0,0-7.31,7.44V79.11H195V57.54c0-6.14-3.89-7.44-7.23-7.44a7.2,7.2,0,0,0-7.23,7.44V79.11h-5.19V45.81h5.19v3.34c2.38-2.39,4.84-4.1,8.8-4.1a10.22,10.22,0,0,1,8.8,4.85c3.48-3.69,6.35-4.85,10.72-4.85,6.07,0,11,5,11,12.63Z" transform="translate(-6.61 -5.28)"/><path class="cls-10" d="M257,79.11h-5.18V58.43c0-7-4.37-8.46-8.26-8.46a8.38,8.38,0,0,0-8.26,8.67V79.11H230.1V45.81h5.19v3.34a12.67,12.67,0,0,1,9.69-4.1c6.62,0,12,5.12,12,13.59Z" transform="translate(-6.61 -5.28)"/><path class="cls-10" d="M273.48,33.32a3.52,3.52,0,1,1-3.55-3.55A3.56,3.56,0,0,1,273.48,33.32Zm-.89,12.49v33.3h-5.33V45.81Z" transform="translate(-6.61 -5.28)"/><path class="cls-10" d="M299.13,77.88a9,9,0,0,1-5.67,2,8.72,8.72,0,0,1-8.67-9V50.58h-3.14V45.81h3.14V33.32H290V45.81h6.83v4.77H290V70.85c0,2,1.09,4.1,3.55,4.1a4.31,4.31,0,0,0,2.87-1.09Z" transform="translate(-6.61 -5.28)"/><path class="cls-10" d="M327.68,46.69l-2.59,4.92A8.32,8.32,0,0,0,319.63,50a7.84,7.84,0,0,0-7.92,7.92V79.11h-5.19V45.81h5.19v4A11.38,11.38,0,0,1,321,45.05,13.49,13.49,0,0,1,327.68,46.69Z" transform="translate(-6.61 -5.28)"/><path class="cls-10" d="M357.55,79.11h-5.19V75.36a14,14,0,0,1-11.19,4.5c-5.87,0-12-4-12-11A11.3,11.3,0,0,1,333.46,60c3.89-3.14,10-3.68,18.76-2-.47-5.93-2.66-8-8.32-8a21.4,21.4,0,0,0-10.24,2.66l-2.12-4.5A27.41,27.41,0,0,1,344,45.05c11.8,0,13.58,8.06,13.58,15.91ZM352.36,62.8c-9.69-2-13.65-.55-15.7,1a6.1,6.1,0,0,0-2.18,5.05c0,.89.61,6.35,7.3,6.08,7-.27,10.58-3.48,10.58-9.49Z" transform="translate(-6.61 -5.28)"/><path class="cls-10" d="M392.67,76.52a17.45,17.45,0,1,1-10.58-31.47,16.61,16.61,0,0,1,10.1,3.08l-2.53,4.36A11.61,11.61,0,0,0,382.09,50,12.15,12.15,0,0,0,370,62.46c0,7,5.25,12.49,12.08,12.49a11.91,11.91,0,0,0,7.78-2.59Z" transform="translate(-6.61 -5.28)"/><path class="cls-10" d="M421.94,70.31c0,6.62-6,9.55-11.94,9.55A16.39,16.39,0,0,1,398.47,75l2.93-4.1A12,12,0,0,0,410,75c1.16,0,6.76-.27,6.76-4.64,0-3.62-1.57-4-7.1-5.53-3.89-1.09-10.24-2.59-10.24-10.17,0-6.28,5.8-9.56,11.4-9.56a15.16,15.16,0,0,1,10.58,4.24l-3.07,3.89A10.49,10.49,0,0,0,410.82,50c-2.18,0-6.21,1-6.21,4.64s2.59,4.16,6.41,5.25C416.35,61.37,421.94,62.73,421.94,70.31Z" transform="translate(-6.61 -5.28)"/><path class="cls-10" d="M302.71,100.73a2.91,2.91,0,0,0-1.34-1.19,4.26,4.26,0,0,0-1.75-.37,4.88,4.88,0,0,0-1.32.17,4.09,4.09,0,0,0-1.17.5,2.63,2.63,0,0,0-.83.89A2.67,2.67,0,0,0,296,102a2.74,2.74,0,0,0,.18,1,2.22,2.22,0,0,0,.59.8,4.33,4.33,0,0,0,1.11.67,13.35,13.35,0,0,0,1.7.62c.65.21,1.29.44,1.91.68a6.42,6.42,0,0,1,1.63.91,4.11,4.11,0,0,1,1.13,1.38,4.72,4.72,0,0,1-1.42,5.83,5.73,5.73,0,0,1-1.91.91,8.5,8.5,0,0,1-3.72.17,7.09,7.09,0,0,1-1.43-.41,5.59,5.59,0,0,1-1.28-.72,4.29,4.29,0,0,1-1-1.09l1.73-1.41a3.54,3.54,0,0,0,1.53,1.41,4.74,4.74,0,0,0,2.09.48,4.61,4.61,0,0,0,1.31-.19,4,4,0,0,0,1.19-.57,2.91,2.91,0,0,0,.86-.92,2.43,2.43,0,0,0,.34-1.27,2.62,2.62,0,0,0-.27-1.28,2.28,2.28,0,0,0-.81-.86,6.24,6.24,0,0,0-1.39-.64l-2-.68a11.76,11.76,0,0,1-1.68-.66,5.11,5.11,0,0,1-1.34-.91,3.89,3.89,0,0,1-.88-1.29,4.59,4.59,0,0,1,1.45-5.48,6,6,0,0,1,1.85-.92,7.33,7.33,0,0,1,2.16-.31,7.64,7.64,0,0,1,2.63.44,5.13,5.13,0,0,1,2.12,1.55Z" transform="translate(-6.61 -5.28)"/><path class="cls-10" d="M313.8,105.07h-3.31v5.62c0,.37,0,.71,0,1a2,2,0,0,0,.2.81,1.23,1.23,0,0,0,.5.56,1.91,1.91,0,0,0,1,.2,3.56,3.56,0,0,0,.84-.1,3.31,3.31,0,0,0,.82-.28l.07,1.7a3.92,3.92,0,0,1-1.07.31,6.38,6.38,0,0,1-1.12.1,4.19,4.19,0,0,1-1.61-.26,2.24,2.24,0,0,1-.93-.75,2.77,2.77,0,0,1-.45-1.19,10.72,10.72,0,0,1-.1-1.57v-6.17h-2.45v-1.58h2.45V100.3h1.87v3.19h3.31Z" transform="translate(-6.61 -5.28)"/><path class="cls-10" d="M316,104.93a5.34,5.34,0,0,1,2.05-1.31,7.19,7.19,0,0,1,2.41-.42,4.75,4.75,0,0,1,3.61,1.18,5.07,5.07,0,0,1,1.1,3.57v4.83a8.42,8.42,0,0,0,.05,1c0,.35.07.66.12,1h-1.8a3.65,3.65,0,0,1-.11-.85c0-.31,0-.59,0-.83h-.05a4.38,4.38,0,0,1-1.48,1.42,4.3,4.3,0,0,1-2.22.55,5.71,5.71,0,0,1-1.62-.22,4,4,0,0,1-1.32-.63,3.27,3.27,0,0,1-.9-1,3,3,0,0,1-.33-1.44,3.13,3.13,0,0,1,.72-2.18,4.38,4.38,0,0,1,1.78-1.18,9.47,9.47,0,0,1,2.31-.48c.82-.06,1.58-.09,2.27-.09h.72v-.34a2.34,2.34,0,0,0-.73-1.85,3.13,3.13,0,0,0-2.06-.62,5.45,5.45,0,0,0-1.78.3,4.34,4.34,0,0,0-1.55.92Zm5.42,4.39a6.81,6.81,0,0,0-2.85.5,1.73,1.73,0,0,0-1.06,1.66,1.65,1.65,0,0,0,.71,1.5,3.23,3.23,0,0,0,1.77.45,3.49,3.49,0,0,0,1.42-.28,3,3,0,0,0,1-.73,3.19,3.19,0,0,0,.63-1.07,4.61,4.61,0,0,0,.24-1.31v-.72Z" transform="translate(-6.61 -5.28)"/><path class="cls-10" d="M332.69,117.29c-.19.48-.39.91-.59,1.31a3.94,3.94,0,0,1-.72,1,2.75,2.75,0,0,1-1,.65,4,4,0,0,1-1.42.23,6.38,6.38,0,0,1-.86,0,2.29,2.29,0,0,1-.82-.24l.23-1.63a2.61,2.61,0,0,0,.61.16q.3,0,.72,0a1.67,1.67,0,0,0,1.34-.5,4.18,4.18,0,0,0,.74-1.35l.77-2.11L327,103.49h2.18l3.48,8.81h.05l3.33-8.81h2Z" transform="translate(-6.61 -5.28)"/><path class="cls-10" d="M345.14,97.73h6.53a8.71,8.71,0,0,1,1.78.19,9,9,0,0,1,1.86.61,8.84,8.84,0,0,1,1.78,1.1,7.29,7.29,0,0,1,1.5,1.62,8.14,8.14,0,0,1,1,2.18,10.47,10.47,0,0,1,0,5.59,8.35,8.35,0,0,1-1,2.19,7.47,7.47,0,0,1-1.5,1.61,8.84,8.84,0,0,1-1.78,1.1,9,9,0,0,1-1.86.61,8.71,8.71,0,0,1-1.78.19h-6.53Zm2,15.12H351a9.34,9.34,0,0,0,2.71-.38,6,6,0,0,0,2.16-1.19,5.54,5.54,0,0,0,1.44-2.06,8.76,8.76,0,0,0,0-6,5.58,5.58,0,0,0-1.44-2,6,6,0,0,0-2.16-1.19A9.34,9.34,0,0,0,351,99.6h-3.84Z" transform="translate(-6.61 -5.28)"/><path class="cls-10" d="M362.91,106.15c0-.51,0-1-.05-1.44s-.05-.85-.05-1.22h1.78c0,.3,0,.61,0,.91s0,.62,0,.94h.05a3.08,3.08,0,0,1,.54-.79,3.76,3.76,0,0,1,.83-.69,4.46,4.46,0,0,1,2.37-.66l.39,0a1.78,1.78,0,0,1,.38.1l-.12,1.9a3.33,3.33,0,0,0-1-.15,2.82,2.82,0,0,0-2.5,1.12,5.25,5.25,0,0,0-.78,3.06v5.47h-1.87Z" transform="translate(-6.61 -5.28)"/><path class="cls-10" d="M371.09,99.1a1.31,1.31,0,0,1,.4-1,1.29,1.29,0,0,1,1-.41,1.31,1.31,0,0,1,1,.41,1.35,1.35,0,0,1,.4,1,1.3,1.3,0,0,1-.39,1,1.32,1.32,0,0,1-1,.39,1.32,1.32,0,0,1-1.37-1.37Zm.43,4.39h1.87v11.23h-1.87Z" transform="translate(-6.61 -5.28)"/><path class="cls-10" d="M382.22,114.72h-2.06l-4.58-11.23h2.18l3.5,8.81h.05l3.34-8.81h2Z" transform="translate(-6.61 -5.28)"/><path class="cls-10" d="M398.71,112.68a5.6,5.6,0,0,1-2.21,1.81,6.83,6.83,0,0,1-2.78.52,5.79,5.79,0,0,1-2.37-.47,5.17,5.17,0,0,1-1.79-1.26,5.45,5.45,0,0,1-1.13-1.87,6.75,6.75,0,0,1-.4-2.31,6.58,6.58,0,0,1,.43-2.38,5.48,5.48,0,0,1,3-3.09,6.15,6.15,0,0,1,2.3-.43,5.58,5.58,0,0,1,2.16.4,4.74,4.74,0,0,1,1.7,1.15,5.21,5.21,0,0,1,1.09,1.85,7.6,7.6,0,0,1,.38,2.48v.6h-9.07a4.07,4.07,0,0,0,1.13,2.53,3.53,3.53,0,0,0,2.54,1.07,4.49,4.49,0,0,0,2.07-.43,4.83,4.83,0,0,0,1.51-1.27Zm-1.6-4.58a3.29,3.29,0,0,0-.94-2.31,3.39,3.39,0,0,0-2.45-.86,3.45,3.45,0,0,0-3.67,3.17Z" transform="translate(-6.61 -5.28)"/><path class="cls-10" d="M402,106.15c0-.51,0-1,0-1.44s-.05-.85-.05-1.22h1.78c0,.3,0,.61,0,.91s0,.62,0,.94h.05a3.08,3.08,0,0,1,.54-.79,3.76,3.76,0,0,1,.83-.69,4.46,4.46,0,0,1,2.37-.66,4.8,4.8,0,0,1,1.91.34,3.59,3.59,0,0,1,1.34.93,3.87,3.87,0,0,1,.78,1.46,6.75,6.75,0,0,1,.25,1.86v6.93H410V108a3.54,3.54,0,0,0-.63-2.23,2.27,2.27,0,0,0-1.94-.82,3.68,3.68,0,0,0-1.58.31,2.92,2.92,0,0,0-1.08.89,4.21,4.21,0,0,0-.62,1.37,6.79,6.79,0,0,0-.2,1.75v5.47H402Z" transform="translate(-6.61 -5.28)"/><path class="cls-10" d="M416.93,112a1.43,1.43,0,0,1,1,.42,1.41,1.41,0,0,1,.42,1,1.31,1.31,0,0,1-.45,1,1.39,1.39,0,0,1-1,.42,1.43,1.43,0,0,1-1-.42,1.33,1.33,0,0,1-.44-1,1.41,1.41,0,0,1,.42-1A1.43,1.43,0,0,1,416.93,112Z" transform="translate(-6.61 -5.28)"/></svg>